<?xml version="1.0" encoding="iso-8859-1"?>
<!-- Generator: Adobe Illustrator 19.0.0, SVG Export Plug-In . SVG Version: 6.00 Build 0)  -->
<svg version="1.1" id="Capa_1" xmlns="http://www.w3.org/2000/svg" xmlns:xlink="http://www.w3.org/1999/xlink" x="0px" y="0px"
	 viewBox="0 0 512 512" style="enable-background:new 0 0 512 512;" xml:space="preserve">
<g>
	<g>
		<g>
			<path d="M503.467,486.4h-51.2V247.467c-0.003-4.712-3.822-8.53-8.533-8.533H68.267c-4.711,0.003-8.53,3.822-8.533,8.533V486.4
				h-51.2C3.82,486.4,0,490.221,0,494.933s3.82,8.533,8.533,8.533h494.933c4.713,0,8.533-3.82,8.533-8.533
				S508.18,486.4,503.467,486.4z M145.067,273.067c28.277,0,51.2,22.923,51.2,51.2s-22.923,51.2-51.2,51.2
				c-28.277,0-51.2-22.923-51.2-51.2C93.898,296.003,116.802,273.098,145.067,273.067z M409.6,460.8H102.4
				c-4.713,0-8.533-3.82-8.533-8.533s3.82-8.533,8.533-8.533h307.2c4.713,0,8.533,3.82,8.533,8.533S414.313,460.8,409.6,460.8z
				 M409.6,418.133H102.4c-4.713,0-8.533-3.82-8.533-8.533s3.82-8.533,8.533-8.533h307.2c4.713,0,8.533,3.821,8.533,8.533
				S414.313,418.133,409.6,418.133z M409.6,375.467H230.4c-4.713,0-8.533-3.82-8.533-8.533s3.82-8.533,8.533-8.533h179.2
				c4.713,0,8.533,3.82,8.533,8.533S414.313,375.467,409.6,375.467z M409.6,332.8H230.4c-4.713,0-8.533-3.82-8.533-8.533
				s3.82-8.533,8.533-8.533h179.2c4.713,0,8.533,3.82,8.533,8.533S414.313,332.8,409.6,332.8z M409.6,290.133H230.4
				c-4.713,0-8.533-3.821-8.533-8.533c0-4.713,3.82-8.533,8.533-8.533h179.2c4.713,0,8.533,3.821,8.533,8.533
				C418.133,286.313,414.313,290.133,409.6,290.133z"/>
			<path d="M129.572,221.867h48.055c-3.565-10.22-13.204-17.067-24.028-17.067S133.137,211.647,129.572,221.867z"/>
			<path d="M155.172,145.067h48.055C199.663,134.847,190.024,128,179.2,128S158.737,134.847,155.172,145.067z"/>
			<path d="M179.2,110.933c20.265,0.028,37.724,14.283,41.804,34.133h180.063v-51.2c-0.003-4.711-3.822-8.53-8.533-8.533H119.467
				c-4.712,0.003-8.53,3.822-8.533,8.533v51.2h26.462C141.476,125.217,158.935,110.961,179.2,110.933z"/>
			<path d="M204.8,34.133c20.265,0.028,37.724,14.284,41.804,34.133h128.862v-51.2c-0.003-4.711-3.822-8.53-8.533-8.533H145.067
				c-4.711,0.003-8.53,3.822-8.533,8.533v51.2h26.462C167.076,48.417,184.535,34.161,204.8,34.133z"/>
			<circle cx="145.067" cy="324.267" r="34.133"/>
			<path d="M180.772,68.267h48.055C225.263,58.047,215.624,51.2,204.8,51.2S184.337,58.047,180.772,68.267z"/>
			<path d="M153.6,187.733c20.265,0.028,37.724,14.283,41.804,34.133h231.262v-51.2c-0.003-4.712-3.822-8.53-8.533-8.533H93.867
				c-4.712,0.003-8.53,3.822-8.533,8.533v51.2h26.462C115.876,202.017,133.335,187.761,153.6,187.733z"/>
		</g>
	</g>
</g>
<g>
</g>
<g>
</g>
<g>
</g>
<g>
</g>
<g>
</g>
<g>
</g>
<g>
</g>
<g>
</g>
<g>
</g>
<g>
</g>
<g>
</g>
<g>
</g>
<g>
</g>
<g>
</g>
<g>
</g>
</svg>
