<svg xmlns="http://www.w3.org/2000/svg" viewBox="0 0 512 512"><path d="M448 64h-21.332V21.332C426.668 9.559 417.109 0 405.332 0H384c-11.777 0-21.332 9.559-21.332 21.332V64H149.332V21.332C149.332 9.559 139.777 0 128 0h-21.332C94.891 0 85.332 9.559 85.332 21.332V64H64C28.715 64 0 92.715 0 128v320c0 35.285 28.715 64 64 64h384c35.285 0 64-28.715 64-64V128c0-35.285-28.715-64-64-64zm21.332 384c0 11.754-9.578 21.332-21.332 21.332H64c-11.754 0-21.332-9.578-21.332-21.332V214.187h426.664zm0 0"/><path d="M244.29 442.902c3.026 3.243 7.273 5.098 11.71 5.098s8.703-1.855 11.734-5.098l69.332-74.668c4.332-4.671 5.442-11.457 2.946-17.3a16.01 16.01 0 0 0-14.68-9.602h-48V256c0-11.777-9.555-21.332-21.332-21.332s-21.332 9.555-21.332 21.332v85.332h-48c-6.36 0-12.117 3.777-14.68 9.602-.875 2.07-1.32 4.222-1.32 6.398a16.05 16.05 0 0 0 4.266 10.902zm0 0"/></svg>