<svg xmlns="http://www.w3.org/2000/svg" viewBox="0 0 512 512"><path d="M448 64h-21.332V21.332C426.668 9.559 417.109 0 405.332 0H384c-11.777 0-21.332 9.559-21.332 21.332V64H149.332V21.332C149.332 9.559 139.777 0 128 0h-21.332C94.891 0 85.332 9.559 85.332 21.332V64H64C28.715 64 0 92.715 0 128v320c0 35.285 28.715 64 64 64h384c35.285 0 64-28.715 64-64V128c0-35.285-28.715-64-64-64zm21.332 384c0 11.754-9.555 21.332-21.332 21.332H64c-11.777 0-21.332-9.578-21.332-21.332V214.187h426.664zm0 0"/><path d="M186.668 341.332h48v85.336c0 11.773 9.535 21.332 21.332 21.332s21.332-9.559 21.332-21.332v-85.336h48c6.36 0 12.117-3.773 14.68-9.598 2.515-5.824 1.386-12.629-2.946-17.3l-69.332-74.668c-3.03-3.243-7.277-5.098-11.734-5.098s-8.703 1.855-11.734 5.098l-69.332 74.668a16.048 16.048 0 0 0-4.266 10.898c0 2.176.445 4.332 1.32 6.402 2.563 5.825 8.32 9.598 14.68 9.598zm0 0"/></svg>