<?xml version="1.0"?>
<svg xmlns="http://www.w3.org/2000/svg" xmlns:xlink="http://www.w3.org/1999/xlink" xmlns:svgjs="http://svgjs.com/svgjs" version="1.1" width="512" height="512" x="0" y="0" viewBox="0 0 24 24" style="enable-background:new 0 0 512 512" xml:space="preserve"><g><path xmlns="http://www.w3.org/2000/svg" d="m9.75 19.5c-2.343 0-4.25-1.907-4.25-4.25v-10.25h-1.75c-1.517 0-2.75 1.233-2.75 2.75v13.5c0 1.517 1.233 2.75 2.75 2.75h12.5c1.517 0 2.75-1.233 2.75-2.75v-1.75z" fill="#71ff73" data-original="#000000" style=""/><path xmlns="http://www.w3.org/2000/svg" d="m23 2.75c0-1.519-1.231-2.75-2.75-2.75h-10.5c-1.519 0-2.75 1.231-2.75 2.75v12.5c0 1.519 1.231 2.75 2.75 2.75h10.5c1.519 0 2.75-1.231 2.75-2.75z" fill="#71ff73" data-original="#000000" style=""/></g></svg>
