<svg xmlns="http://www.w3.org/2000/svg" viewBox="0 0 512 512"><path xmlns="http://www.w3.org/2000/svg" fill="#509cff" d="M256 0c-68.925 0-125 56.075-125 125s56.075 125 125 125 125-56.075 125-125S324.925 0 256 0zm1.6 280h-3.888a197.56 197.56 0 0 0-54.693 7.735l57.002 88.142 56.936-88.042A199.624 199.624 0 0 0 257.6 280zm196.116 167.961A197.383 197.383 0 0 0 341.721 298.6L271 407.959V512h192.453l-9.737-64.039zM170.255 298.5c-60.946 28.38-102.183 85.085-111.971 149.461L48.547 512H241V407.896L170.255 298.5z" data-original="#000000"/></svg>