<svg xmlns="http://www.w3.org/2000/svg" viewBox="0 0 512 511"><g fill="#509cff"><path xmlns="http://www.w3.org/2000/svg" d="M228.57 192.445V174.16h-73.14v18.285c.004 5.047 4.093 9.14 9.14 9.145h54.86c5.047-.004 9.136-4.098 9.14-9.145zm0 0M0 110.16h512V91.875H0zm0 0M18.285 466.73h475.43v-18.285c-.004-5.047-4.098-9.136-9.145-9.14H27.43c-5.047.004-9.14 4.093-9.145 9.14zm0 0M172.527 421.02h38.946a673.129 673.129 0 0 0 0-201.145h-38.946a673.129 673.129 0 0 0 0 201.145zm0 0M44.527 421.02h38.946a673.129 673.129 0 0 0 0-201.145H44.527a673.129 673.129 0 0 0 0 201.145zm0 0M100.57 192.445V174.16H27.43v18.285c.004 5.047 4.093 9.14 9.14 9.145h54.86c5.047-.004 9.136-4.098 9.14-9.145zm0 0M356.57 192.445V174.16h-73.14v18.285c.004 5.047 4.093 9.14 9.14 9.145h54.86c5.047-.004 9.136-4.098 9.14-9.145zm0 0M258.953.996a9.06 9.06 0 0 0-5.933.008L44.848 73.59h422.304zm0 0M484.57 192.445V174.16h-73.14v18.285c.004 5.047 4.093 9.14 9.14 9.145h54.86c5.047-.004 9.136-4.098 9.14-9.145zm0 0M493.715 146.73v-18.285H18.285v18.285a9.152 9.152 0 0 0 9.145 9.145h457.14a9.152 9.152 0 0 0 9.145-9.145zm0 0M428.527 421.02h38.946a673.129 673.129 0 0 0 0-201.145h-38.946a673.129 673.129 0 0 0 0 201.145zm0 0M300.527 421.02h38.946a673.129 673.129 0 0 0 0-201.145h-38.946a673.129 673.129 0 0 0 0 201.145zm0 0M502.855 485.02H9.145c-5.051.003-9.141 4.093-9.145 9.14v18.285h512V494.16c-.004-5.047-4.094-9.137-9.145-9.14zm0 0" data-original="#000000"/></g></svg>