<svg xmlns="http://www.w3.org/2000/svg" viewBox="0 0 512 511"><path xmlns="http://www.w3.org/2000/svg" fill="#509cff" d="M228.57 192.445V174.16h-73.14v18.285c.004 5.047 4.093 9.14 9.14 9.145h54.86c5.047-.004 9.136-4.098 9.14-9.145zM0 110.16h512V91.875H0zm18.285 356.57h475.43v-18.285c-.004-5.047-4.098-9.136-9.145-9.14H27.43c-5.047.004-9.14 4.093-9.145 9.14zm154.242-45.71h38.946a673.129 673.129 0 0 0 0-201.145h-38.946a673.129 673.129 0 0 0 0 201.145zm-128 0h38.946a673.129 673.129 0 0 0 0-201.145H44.527a673.129 673.129 0 0 0 0 201.145zm56.043-228.575V174.16H27.43v18.285c.004 5.047 4.093 9.14 9.14 9.145h54.86c5.047-.004 9.136-4.098 9.14-9.145zm256 0V174.16h-73.14v18.285c.004 5.047 4.093 9.14 9.14 9.145h54.86c5.047-.004 9.136-4.098 9.14-9.145zM258.953.996a9.06 9.06 0 0 0-5.933.008L44.848 73.59h422.304zM484.57 192.445V174.16h-73.14v18.285c.004 5.047 4.093 9.14 9.14 9.145h54.86c5.047-.004 9.136-4.098 9.14-9.145zm9.145-45.715v-18.285H18.285v18.285a9.152 9.152 0 0 0 9.145 9.145h457.14a9.152 9.152 0 0 0 9.145-9.145zm-65.188 274.29h38.946a673.129 673.129 0 0 0 0-201.145h-38.946a673.129 673.129 0 0 0 0 201.145zm-128 0h38.946a673.129 673.129 0 0 0 0-201.145h-38.946a673.129 673.129 0 0 0 0 201.145zm202.328 64H9.145A9.147 9.147 0 0 0 0 494.16v18.285h512V494.16a9.147 9.147 0 0 0-9.145-9.14zm0 0" data-original="#000000"/></svg>