<svg xmlns="http://www.w3.org/2000/svg" viewBox="0 0 92.957 92.957"><g fill="#fff"><path d="M87.663 65.35c0-.035-.004-.146-.007-.182a1.98 1.98 0 0 0-.014-.243L80.006 2.586A2.945 2.945 0 0 0 77.084 0h-61.21a2.945 2.945 0 0 0-2.922 2.585L5.318 64.924c-.01.081-.01.115-.01.197l-.017.182a1.848 1.848 0 0 0-.009.182v24.529a2.946 2.946 0 0 0 2.942 2.943h76.507a2.945 2.945 0 0 0 2.942-2.943zm-5.872 21.72H11.168V68.333H81.79z"/><path d="M50.144 72.998h9.344v9.346h-9.344zm17.66 0h9.344v9.346h-9.344z"/></g></svg>