<svg xmlns="http://www.w3.org/2000/svg" viewBox="0 0 503.607 503.607"><path fill="#fff" d="M436.358 108.594a8.304 8.304 0 0 0-.453-2.216c-.092-.269-.159-.537-.277-.789-.403-.865-.915-1.679-1.603-2.384-.017-.008-.017-.025-.034-.034L333.287 2.468c-.017-.017-.034-.025-.042-.034-.705-.705-1.528-1.209-2.392-1.612-.235-.109-.478-.176-.722-.26a8.285 8.285 0 0 0-2.333-.47c-.16-.008-.294-.092-.454-.092H92.328c-13.883 0-25.18 11.298-25.18 25.18v453.246c0 13.883 11.298 25.18 25.18 25.18h318.951c13.883 0 25.18-11.298 25.18-25.18V109.115c0-.185-.092-.336-.101-.521zm-310.456-7.873h151.082c4.633 0 8.393 3.752 8.393 8.393s-3.76 8.393-8.393 8.393H125.902c-4.633 0-8.393-3.752-8.393-8.393s3.759-8.393 8.393-8.393zm251.803 318.951H125.902a8.39 8.39 0 0 1-8.393-8.393 8.39 8.39 0 0 1 8.393-8.393h251.803a8.39 8.39 0 0 1 8.393 8.393 8.39 8.39 0 0 1-8.393 8.393zm0-50.361H125.902a8.39 8.39 0 0 1-8.393-8.393 8.39 8.39 0 0 1 8.393-8.393h251.803a8.39 8.39 0 0 1 8.393 8.393 8.39 8.39 0 0 1-8.393 8.393zm0-50.36H125.902c-4.633 0-8.393-3.752-8.393-8.393s3.76-8.393 8.393-8.393h251.803c4.633 0 8.393 3.752 8.393 8.393s-3.76 8.393-8.393 8.393zm0-50.361H125.902c-4.633 0-8.393-3.752-8.393-8.393s3.76-8.393 8.393-8.393h251.803c4.633 0 8.393 3.752 8.393 8.393s-3.76 8.393-8.393 8.393zm0-50.361H125.902c-4.633 0-8.393-3.752-8.393-8.393s3.76-8.393 8.393-8.393h251.803c4.633 0 8.393 3.752 8.393 8.393s-3.76 8.393-8.393 8.393zm0-50.36H125.902c-4.633 0-8.393-3.752-8.393-8.393s3.76-8.393 8.393-8.393h251.803c4.633 0 8.393 3.752 8.393 8.393s-3.76 8.393-8.393 8.393zm-33.574-67.148c-4.625 0-8.393-3.76-8.393-8.393V28.655l72.066 72.066z"/></svg>