<svg xmlns="http://www.w3.org/2000/svg" viewBox="0 0 512 512"><g xmlns="http://www.w3.org/2000/svg" fill="#fff"><path d="M503.467 486.4h-51.2V247.467a8.538 8.538 0 0 0-8.533-8.533H68.267a8.539 8.539 0 0 0-8.533 8.533V486.4h-51.2a8.533 8.533 0 1 0-.001 17.066h494.933c4.713 0 8.533-3.82 8.533-8.533s-3.819-8.533-8.532-8.533zm-358.4-213.333c28.277 0 51.2 22.923 51.2 51.2s-22.923 51.2-51.2 51.2c-28.277 0-51.2-22.923-51.2-51.2.031-28.264 22.935-51.169 51.2-51.2zM409.6 460.8H102.4c-4.713 0-8.533-3.82-8.533-8.533s3.82-8.533 8.533-8.533h307.2c4.713 0 8.533 3.82 8.533 8.533s-3.82 8.533-8.533 8.533zm0-42.667H102.4c-4.713 0-8.533-3.82-8.533-8.533s3.82-8.533 8.533-8.533h307.2a8.533 8.533 0 0 1 0 17.066zm0-42.666H230.4c-4.713 0-8.533-3.82-8.533-8.533s3.82-8.533 8.533-8.533h179.2c4.713 0 8.533 3.82 8.533 8.533s-3.82 8.533-8.533 8.533zm0-42.667H230.4c-4.713 0-8.533-3.82-8.533-8.533s3.82-8.533 8.533-8.533h179.2c4.713 0 8.533 3.82 8.533 8.533s-3.82 8.533-8.533 8.533zm0-42.667H230.4a8.533 8.533 0 0 1 0-17.066h179.2a8.533 8.533 0 0 1 0 17.066zm-280.028-68.266h48.055a25.448 25.448 0 0 0-48.055 0zm25.6-76.8h48.055a25.446 25.446 0 0 0-48.055 0z" data-original="#000000"/><path d="M179.2 110.933c20.265.028 37.724 14.283 41.804 34.133h180.063v-51.2a8.539 8.539 0 0 0-8.533-8.533H119.467a8.538 8.538 0 0 0-8.533 8.533v51.2h26.462c4.08-19.849 21.539-34.105 41.804-34.133zm25.6-76.8c20.265.028 37.724 14.284 41.804 34.133h128.862v-51.2a8.539 8.539 0 0 0-8.533-8.533H145.067a8.539 8.539 0 0 0-8.533 8.533v51.2h26.462c4.08-19.849 21.539-34.105 41.804-34.133z" data-original="#000000"/><circle cx="145.067" cy="324.267" r="34.133" data-original="#000000"/><path d="M180.772 68.267h48.055a25.446 25.446 0 0 0-48.055 0zM153.6 187.733c20.265.028 37.724 14.283 41.804 34.133h231.262v-51.2a8.538 8.538 0 0 0-8.533-8.533H93.867a8.538 8.538 0 0 0-8.533 8.533v51.2h26.462c4.08-19.849 21.539-34.105 41.804-34.133z" data-original="#000000"/></g></svg>