<svg xmlns="http://www.w3.org/2000/svg" viewBox="0 0 412.735 412.735"><path fill="#d7443e" d="M295.706 46.058c58.744.286 106.294 47.836 106.58 106.58 0 107.624-195.918 214.204-195.918 214.204S10.449 258.695 10.449 152.638c0-58.862 47.717-106.58 106.58-106.58a105.534 105.534 0 0 1 89.339 48.065 106.578 106.578 0 0 1 89.338-48.065z"/><path fill="#083863" d="M206.367 377.291a9.918 9.918 0 0 1-5.224-1.567C193.306 371.544 0 263.397 0 152.638 0 88.005 52.395 35.609 117.029 35.609a114.42 114.42 0 0 1 89.339 41.273C248.117 27.541 321.959 21.387 371.3 63.136a117.028 117.028 0 0 1 41.436 89.501c0 112.327-193.306 218.906-201.143 223.086a9.94 9.94 0 0 1-5.226 1.568zM117.029 56.507c-53.091 0-96.131 43.039-96.131 96.131 0 89.861 155.167 184.424 185.469 202.188 30.302-17.241 185.469-111.282 185.469-202.188.087-53.091-42.881-96.201-95.972-96.289a96.13 96.13 0 0 0-80.615 43.521c-3.557 4.905-10.418 5.998-15.323 2.44a10.968 10.968 0 0 1-2.44-2.44 94.041 94.041 0 0 0-80.457-43.363z"/></svg>