<svg xmlns="http://www.w3.org/2000/svg" viewBox="0 0 453.44 453.44"><path fill="#fff" d="M397.76 389.722H55.68C25.001 389.897.175 414.723 0 445.402a8 8 0 0 0 8 8h437.44a8 8 0 0 0 8-8c-.175-30.679-25.001-55.505-55.68-55.68zm54.892-244.557a7.999 7.999 0 0 0-3.212-5.683L230.92 1.242a7.999 7.999 0 0 0-8.44 0L4.2 139.122a8.001 8.001 0 0 0 3.64 14.76h437.6a8 8 0 0 0 7.212-8.717zM38.64 165.842a56 56 0 0 0 44 35.32v176.56h63.64v-176h48.6v176h63.52v-176H307v176h63.64v-176.56a56 56 0 0 0 44-35.32z"/></svg>