<svg xmlns="http://www.w3.org/2000/svg" viewBox="0 0 448 448"><g fill="#fff"><path xmlns="http://www.w3.org/2000/svg" d="M99 408a8 8 0 1 1-16 0 8 8 0 0 1 16 0zm0 0M339 160c0-39.766-50.145-72-112-72s-112 32.234-112 72 50.145 72 112 72 112-32.234 112-72zm0 0" data-original="#000000"/><path xmlns="http://www.w3.org/2000/svg" d="M417.84 398.84c-4.242-18.035-20.313-30.793-38.84-30.84H75c-18.527.047-34.598 12.805-38.84 30.84L35 408.273C35.148 430.258 53.016 448 75 448h200v-32a8 8 0 0 1 16 0v32h16v-32a8 8 0 0 1 16 0v32h16v-32a8 8 0 0 1 16 0v32h16v-32a8 8 0 0 1 16 0v31.2c18.512-3.802 31.848-20.024 32-38.919zM91 432c-13.254 0-24-10.746-24-24s10.746-24 24-24 24 10.746 24 24-10.746 24-24 24zm0 0M379 352a55.654 55.654 0 0 1 34.672 12.113l-39.2-326.84C372.907 16.343 355.533.125 334.544 0H119.457C98.59.09 81.262 16.129 79.567 36.93L40.32 364.129A55.683 55.683 0 0 1 75 352zM227 72c70.574 0 128 39.48 128 88s-57.426 88-128 88-128-39.48-128-88 57.426-88 128-88zm0 0" data-original="#000000"/></g></svg>