<svg xmlns="http://www.w3.org/2000/svg" viewBox="0 0 282 282"><path fill="#fff" d="M258 215.271v-33.256C258 165.474 245.102 152 228.56 152H156v-36h33.101C205.643 116 219 102.283 219 85.741V30.412C219 13.87 205.643 0 189.101 0H93.566C77.024 0 63 13.87 63 30.412v55.329C63 102.283 77.024 116 93.566 116H126v36H54.107C37.565 152 24 165.474 24 182.016v33.255c-11 .752-19 9.39-19 19.926v26.391C5 272.616 14.536 282 25.564 282h27.085C63.678 282 72 272.616 72 261.588v-26.391c0-10.536-8-19.174-18-19.926V182h72v33.271c-10 .752-19 9.39-19 19.926v26.391c0 11.028 9.763 20.412 20.791 20.412h27.085c11.028 0 20.124-9.384 20.124-20.412v-26.391c0-10.536-9-19.175-19-19.926V182h72v33.271c-10 .752-18 9.39-18 19.926v26.391c0 11.028 8.989 20.412 20.018 20.412h27.084C268.13 282 277 272.616 277 261.588v-26.391c0-10.536-8-19.174-19-19.926zM93 30h96.101l.003 56H93z"/></svg>