<svg xmlns="http://www.w3.org/2000/svg" viewBox="0 0 217.794 217.794"><path fill="#fff" d="M113.595 133.642l-5.932-13.169a57.493 57.493 0 0 0 14.307-15.209l13.507 5.118a5 5 0 0 0 6.447-2.904l4.964-13.103a4.997 4.997 0 0 0-2.905-6.447l-13.507-5.118a57.471 57.471 0 0 0-.637-20.871l13.169-5.932a5 5 0 0 0 2.505-6.613l-5.755-12.775a5 5 0 0 0-6.612-2.505l-13.169 5.932a57.493 57.493 0 0 0-15.209-14.307l5.118-13.507a5 5 0 0 0-2.904-6.447L93.88.82a5.002 5.002 0 0 0-6.447 2.905l-5.117 13.506a57.327 57.327 0 0 0-20.872.636L55.513 4.699A5 5 0 0 0 48.9 2.194L36.124 7.949a5 5 0 0 0-2.505 6.612l5.932 13.169a57.493 57.493 0 0 0-14.307 15.209l-13.507-5.118a5 5 0 0 0-6.447 2.905L.326 53.828a5 5 0 0 0 2.904 6.447l13.507 5.118a57.471 57.471 0 0 0 .637 20.871l-13.17 5.932a5 5 0 0 0-2.505 6.613l5.755 12.775a4.998 4.998 0 0 0 6.612 2.505l13.169-5.932a57.462 57.462 0 0 0 15.209 14.307l-5.118 13.507a5 5 0 0 0 2.904 6.447l13.103 4.964a5.008 5.008 0 0 0 3.825-.117 5 5 0 0 0 2.622-2.788l5.117-13.506a57.348 57.348 0 0 0 20.872-.636l5.931 13.168a5 5 0 0 0 6.613 2.505l12.775-5.754a5 5 0 0 0 2.507-6.612zm-8.286-47.529c-4.963 13.1-17.706 21.901-31.709 21.901-4.096 0-8.135-.744-12.005-2.21-8.468-3.208-15.18-9.522-18.899-17.779-3.719-8.256-4-17.467-.792-25.935 4.963-13.1 17.706-21.901 31.709-21.901 4.096 0 8.135.744 12.005 2.21 8.468 3.208 15.18 9.522 18.899 17.778 3.72 8.257 4.001 17.468.792 25.936zm111.169 68.276a5 5 0 0 0-3.469-1.615l-9.418-.404a43.204 43.204 0 0 0-4.633-12.697l6.945-6.374a4.999 4.999 0 0 0 .303-7.064l-6.896-7.514a5 5 0 0 0-3.47-1.615 5.041 5.041 0 0 0-3.595 1.312l-6.944 6.374a43.211 43.211 0 0 0-12.254-5.702l.404-9.418a5 5 0 0 0-4.782-5.209l-10.189-.437c-2.745-.104-5.091 2.023-5.209 4.781l-.404 9.418a43.251 43.251 0 0 0-12.697 4.632l-6.374-6.945a5 5 0 0 0-7.064-.303l-7.514 6.896a4.999 4.999 0 0 0-.303 7.064l6.374 6.945a43.198 43.198 0 0 0-5.702 12.254l-9.417-.404c-2.747-.111-5.092 2.022-5.21 4.781l-.437 10.189a4.998 4.998 0 0 0 4.782 5.21l9.417.403a43.247 43.247 0 0 0 4.632 12.698l-6.944 6.374a5 5 0 0 0-.303 7.064l6.896 7.514a5 5 0 0 0 3.47 1.615 5.029 5.029 0 0 0 3.595-1.312l6.944-6.374a43.211 43.211 0 0 0 12.254 5.702l-.404 9.418a5 5 0 0 0 4.781 5.209l10.189.437a5 5 0 0 0 5.21-4.781l.404-9.418a43.251 43.251 0 0 0 12.697-4.632l6.374 6.945a5 5 0 0 0 7.064.303l7.514-6.896a4.999 4.999 0 0 0 .303-7.064l-6.374-6.945a43.198 43.198 0 0 0 5.702-12.254l9.417.404c2.756.106 5.091-2.022 5.21-4.781l.437-10.189a4.998 4.998 0 0 0-1.312-3.595zm-56.321 29.564c-12.844-.55-22.846-11.448-22.295-24.292.536-12.514 10.759-22.317 23.273-22.317.338 0 .678.007 1.019.022 12.844.551 22.846 11.448 22.295 24.292a23.276 23.276 0 0 1-24.292 22.295z"/></svg>