<svg xmlns="http://www.w3.org/2000/svg" viewBox="0 0 413.156 413.156"><path d="M97.113 127.848a7.502 7.502 0 0 0-6.756-4.243h-.016l-9.018.019a7.5 7.5 0 0 0-6.754 4.271L.731 282.682a7.5 7.5 0 0 0 6.77 10.729h11.08a7.5 7.5 0 0 0 6.769-4.271l19.321-40.504h82.928l19.544 40.533a7.5 7.5 0 0 0 6.756 4.243H165.019a7.5 7.5 0 0 0 7.5-7.5 7.472 7.472 0 0 0-.993-3.734l-74.413-154.33zm-40.514 95.788l29.314-61.453 29.631 61.453H56.599zM412.37 131.916l-3.99-8.014a7.5 7.5 0 0 0-6.714-4.157H289.719a7.5 7.5 0 0 0-7.5 7.5v10a7.5 7.5 0 0 0 7.5 7.5h86.968l-95.702 128.506a7.498 7.498 0 0 0-.698 7.822l3.99 8.015a7.5 7.5 0 0 0 6.714 4.157h111.318a7.5 7.5 0 0 0 7.5-7.5v-10a7.5 7.5 0 0 0-7.5-7.5H315.97l95.702-128.507a7.5 7.5 0 0 0 .698-7.822zM271.818 222.604l-7.873-6.165a7.5 7.5 0 0 0-10.529 1.282l-18.231 23.285v-113.76a7.5 7.5 0 0 0-7.5-7.5h-10a7.5 7.5 0 0 0-7.5 7.5v113.76l-18.232-23.285a7.505 7.505 0 0 0-4.999-2.822 7.49 7.49 0 0 0-5.53 1.54l-7.873 6.165a7.499 7.499 0 0 0-1.281 10.528l44.51 56.847a7.5 7.5 0 0 0 11.81 0l44.51-56.847a7.502 7.502 0 0 0-1.282-10.528z"/></svg>