<svg xmlns="http://www.w3.org/2000/svg" viewBox="0 0 420.046 420.046"><path d="M344.64 131.293a7.503 7.503 0 0 0-6.756-4.243h-.016l-9.018.019a7.5 7.5 0 0 0-6.754 4.271l-73.84 154.787a7.5 7.5 0 0 0 6.77 10.729h11.08a7.504 7.504 0 0 0 6.77-4.271l19.32-40.504h82.928l19.545 40.533a7.498 7.498 0 0 0 6.756 4.243h11.122a7.5 7.5 0 0 0 6.506-11.234l-74.413-154.33zm-40.516 95.788l29.314-61.453 29.631 61.453h-58.945zM132.87 135.361l-3.99-8.014a7.503 7.503 0 0 0-6.715-4.157H10.218a7.5 7.5 0 0 0-7.5 7.5v10a7.5 7.5 0 0 0 7.5 7.5h86.969L1.484 276.696a7.5 7.5 0 0 0-.697 7.822l3.99 8.015a7.498 7.498 0 0 0 6.713 4.157h111.318a7.5 7.5 0 0 0 7.5-7.5v-10a7.5 7.5 0 0 0-7.5-7.5H36.47l95.701-128.507a7.496 7.496 0 0 0 .699-7.822zM244.65 226.049l-7.873-6.165a7.503 7.503 0 0 0-10.529 1.282l-18.23 23.285V130.69a7.5 7.5 0 0 0-7.5-7.5h-10a7.5 7.5 0 0 0-7.5 7.5v113.76l-18.232-23.285a7.502 7.502 0 0 0-10.529-1.282l-7.873 6.165a7.5 7.5 0 0 0-1.281 10.528l44.51 56.847a7.5 7.5 0 0 0 11.81 0l44.51-56.847a7.499 7.499 0 0 0-1.283-10.527z"/></svg>