<svg xmlns="http://www.w3.org/2000/svg" viewBox="0 0 350 253.753"><g><path fill="#3f3d56" d="M350 104.218h-.682V85.54a10.811 10.811 0 0 0-10.811-10.811h-39.573a10.811 10.811 0 0 0-10.811 10.811v102.471a10.811 10.811 0 0 0 10.811 10.811h39.572a10.811 10.811 0 0 0 10.811-10.811v-70.5h.682z"/><path fill="#d0cde1" d="M347.018 86.176v102.322a8.075 8.075 0 0 1-8.074 8.074h-39.763a8.071 8.071 0 0 1-8.071-8.073V86.176a8.071 8.071 0 0 1 8.071-8.071h4.824a3.838 3.838 0 0 0 3.551 5.283h22.671a3.83 3.83 0 0 0 3.551-5.283h5.165a8.074 8.074 0 0 1 8.074 8.071z"/><path fill="#6c63ff" d="M293.267 130.491h46.223v12.473h-46.223z"/><path fill="#3f3d56" d="M341.324 140.763h-44.756a1.1 1.1 0 0 1-1.1-1.1v-11.006a1.1 1.1 0 0 1 1.1-1.1h44.756a1.1 1.1 0 0 1 1.1 1.1v11.005a1.1 1.1 0 0 1-1.1 1.1zm-44.756-12.473a.367.367 0 0 0-.367.367v11.006a.367.367 0 0 0 .367.367h44.756a.367.367 0 0 0 .367-.367v-11.006a.367.367 0 0 0-.367-.367z"/><path fill="#3f3d56" d="M298.403 137.461h5.87v.734h-5.87zM306.474 137.461h5.87v.734h-5.87zM314.544 137.461h5.87v.734h-5.87zM322.615 137.461h5.87v.734h-5.87zM330.685 137.461h5.87v.734h-5.87z"/><path d="M347.018 178.093v10.4a8.075 8.075 0 0 1-8.074 8.074h-39.763a8.071 8.071 0 0 1-8.071-8.073v-47.86z" opacity=".1"/><path fill="#d0cde1" d="M36.631 168.644h173.52v85.109H36.631z"/><path d="M166.038 253.752H37.365a.736.736 0 0 1-.734-.734v-83.641a.736.736 0 0 1 .734-.734h1.629z" opacity=".1"/><path fill="#3f3d56" d="M63.252 180.016h268.902v.734H63.252zM201.981 1.583h-76.847V-.001H90.286v1.584H13.118a5.2 5.2 0 0 0-5.2 5.2v105.232a5.2 5.2 0 0 0 5.2 5.2h188.863a5.2 5.2 0 0 0 5.2-5.2V6.782a5.2 5.2 0 0 0-5.2-5.2z"/><path fill="#d0cde1" d="M14.891 10.769h185.322v104.545H14.891z"/><circle cx="1.901" cy="1.901" r="1.901" fill="#6c63ff" transform="translate(91.322 4.118)"/><path fill="#3f3d56" d="M70.01 49.783h-4.4a1.1 1.1 0 0 1-1.1-1.1v-4.4a1.1 1.1 0 0 1 1.1-1.1h4.4a1.1 1.1 0 0 1 1.1 1.1v4.4a1.1 1.1 0 0 1-1.1 1.1zm-4.4-5.87a.367.367 0 0 0-.367.367v4.4a.367.367 0 0 0 .367.367h4.4a.367.367 0 0 0 .367-.367v-4.4a.367.367 0 0 0-.367-.367z"/><path fill="#3f3d56" d="M53.989 49.05h83.642v.734H53.989z"/><path fill="#6c63ff" d="M109.139 69.227h19.443v5.87h-19.443z"/><path fill="#3f3d56" d="M129.759 73.629h-17.977a1.1 1.1 0 0 1-1.1-1.1v-4.4a1.1 1.1 0 0 1 1.1-1.1h17.976a1.1 1.1 0 0 1 1.1 1.1v4.4a1.1 1.1 0 0 1-1.099 1.1zm-17.976-5.87a.367.367 0 0 0-.367.367v4.4a.367.367 0 0 0 .367.367h17.976a.367.367 0 0 0 .367-.367v-4.4a.367.367 0 0 0-.367-.367z"/><path fill="#6c63ff" d="M220.417 75.83h36.685v25.68h-36.685z"/><path fill="#3f3d56" d="M260.08 99.492h-35.218a1.469 1.469 0 0 1-1.467-1.467V73.812a1.469 1.469 0 0 1 1.467-1.467h35.218a1.469 1.469 0 0 1 1.467 1.467v24.212a1.469 1.469 0 0 1-1.467 1.468zm-35.218-25.68v24.212h35.219V73.812z"/><path fill="#3f3d56" d="M256.384 72.895h-1.467a12.106 12.106 0 1 0-24.212 0h-1.469a13.573 13.573 0 1 1 27.147 0zM247.043 82.983a3.669 3.669 0 1 0-5.611 3.108v3.938a1.942 1.942 0 0 0 1.943 1.941 1.942 1.942 0 0 0 1.942-1.942v-3.937a3.662 3.662 0 0 0 1.726-3.108zM90.229 206.429h5.87v.734h-5.87zM97.21 206.429h5.87v.734h-5.87zM104.191 206.429h5.87v.734h-5.87zM111.172 206.429h5.87v.734h-5.87zM118.153 206.429h5.87v.734h-5.87z"/><path fill="#3f3d56" d="M217.854 247.517H45.801a1.469 1.469 0 0 1-1.467-1.467v-83.643a1.469 1.469 0 0 1 1.467-1.467h172.053a1.469 1.469 0 0 1 1.467 1.467v83.642a1.469 1.469 0 0 1-1.467 1.467zm-172.053-85.11v83.642h172.054v-83.642z"/><circle cx="2.201" cy="2.201" r="2.201" fill="#3f3d56" transform="translate(51.304 170.478)"/><circle cx="2.201" cy="2.201" r="2.201" fill="#3f3d56" transform="translate(59.008 170.478)"/><circle cx="2.201" cy="2.201" r="2.201" fill="#3f3d56" transform="translate(66.712 170.478)"/><path fill="#3f3d56" d="M133.269 211.565H83.743a1.1 1.1 0 0 1-1.1-1.1v-12.473a1.1 1.1 0 0 1 1.1-1.1h49.525a1.1 1.1 0 0 1 1.1 1.1v12.473a1.1 1.1 0 0 1-1.099 1.1zm-49.526-13.94a.367.367 0 0 0-.367.367v12.473a.367.367 0 0 0 .367.367h49.525a.367.367 0 0 0 .367-.367v-12.473a.367.367 0 0 0-.367-.367z"/><circle cx="6.603" cy="6.603" r="6.603" fill="#6c63ff" transform="translate(132.835 198.725)"/><path fill="#3f3d56" d="M141.347 211.198a6.97 6.97 0 1 1 6.97-6.97 6.97 6.97 0 0 1-6.97 6.97zm0-13.207a6.236 6.236 0 1 0 6.236 6.236 6.236 6.236 0 0 0-6.236-6.236z"/><path fill="#3f3d56" d="M141.123 206.831l-3.551-3.552 1.037-1.037 2.318 2.318 6.468-9.192 1.2.845z"/><path d="M159.126 115.315H14.891V18.69z" opacity=".1"/><path fill="#3f3d56" d="M212.387 113.409H194.3v-1.3a.258.258 0 0 0-.258-.258h-6.2a.258.258 0 0 0-.258.258v1.3h-3.876v-1.3a.258.258 0 0 0-.258-.258h-6.2a.258.258 0 0 0-.258.258v1.3h-3.876v-1.3a.258.258 0 0 0-.258-.258h-6.2a.258.258 0 0 0-.258.258v1.3h-3.88v-1.3a.258.258 0 0 0-.258-.258h-6.2a.258.258 0 0 0-.258.258v1.3h-3.876v-1.3a.258.258 0 0 0-.258-.258h-6.2a.258.258 0 0 0-.258.258v1.3h-3.876v-1.3a.258.258 0 0 0-.258-.258h-6.2a.258.258 0 0 0-.258.258v1.3h-3.88v-1.3a.258.258 0 0 0-.258-.258H81.906a.258.258 0 0 0-.258.258v1.3h-3.876v-1.3a.258.258 0 0 0-.258-.258h-6.2a.258.258 0 0 0-.258.258v1.3H67.18v-1.3a.258.258 0 0 0-.258-.258h-6.2a.258.258 0 0 0-.258.258v1.3h-3.876v-1.3a.258.258 0 0 0-.258-.258h-6.2a.258.258 0 0 0-.258.258v1.3h-3.881v-1.3a.258.258 0 0 0-.258-.258h-6.2a.258.258 0 0 0-.258.258v1.3h-3.877v-1.3a.258.258 0 0 0-.258-.258h-6.2a.258.258 0 0 0-.258.258v1.3h-3.878v-1.3a.258.258 0 0 0-.258-.258h-6.2a.258.258 0 0 0-.258.258v1.3H6.201a6.2 6.2 0 0 0-6.2 6.2v2.8a6.2 6.2 0 0 0 6.2 6.2h206.186a6.2 6.2 0 0 0 6.2-6.2v-2.8a6.2 6.2 0 0 0-6.2-6.2zM155.857 79.866h-96.85a1.1 1.1 0 0 1-1.1-1.1V38.412a1.1 1.1 0 0 1 1.1-1.1h96.85a1.1 1.1 0 0 1 1.1 1.1v40.354a1.1 1.1 0 0 1-1.1 1.1zm-96.85-41.821a.367.367 0 0 0-.367.367v40.354a.367.367 0 0 0 .367.367h96.85a.367.367 0 0 0 .367-.367V38.412a.367.367 0 0 0-.367-.367z"/><path fill="#3f3d56" d="M70.01 60.789h-4.4a1.1 1.1 0 0 1-1.1-1.1v-4.4a1.1 1.1 0 0 1 1.1-1.1h4.4a1.1 1.1 0 0 1 1.1 1.1v4.4a1.1 1.1 0 0 1-1.1 1.1zm-4.4-5.87a.367.367 0 0 0-.367.367v4.4a.367.367 0 0 0 .367.367h4.4a.367.367 0 0 0 .367-.367v-4.4a.367.367 0 0 0-.367-.367z"/><path fill="#3f3d56" d="M53.989 60.056h83.642v.734H53.989zM43.442 98.942h268.902v.734H43.442z"/><circle cx="5.136" cy="5.136" r="5.136" fill="#3f3d56" transform="translate(79.46 93.806)"/><circle cx="4.035" cy="4.035" r="4.035" fill="#3f3d56" transform="translate(308.308 95.64)"/><circle cx="4.035" cy="4.035" r="4.035" fill="#3f3d56" transform="translate(328.117 176.714)"/><circle cx="4.035" cy="4.035" r="4.035" fill="#3f3d56" transform="translate(98.553 176.714)"/></g></svg>