<svg xmlns="http://www.w3.org/2000/svg" viewBox="0 0 64 64"><g xmlns="http://www.w3.org/2000/svg" fill="#00196d"><path d="M33 44.025v13.878c3.822-.684 7.134-5.245 9.099-11.868A25.87 25.87 0 0 0 33 44.025zM43.961 34H33v8.025c3.394.12 6.636.844 9.621 2.073.744-3.057 1.213-6.473 1.34-10.098zM20.085 17.107c1.387-4.494 3.398-8.095 5.805-10.378a25.94 25.94 0 0 0-11.627 6.268 26.109 26.109 0 0 0 5.822 4.11zM31 34H20.039c.127 3.625.596 7.041 1.34 10.098A27.804 27.804 0 0 1 31 42.025zm0-14.025V6.097c-3.822.684-7.134 5.245-9.099 11.868A25.87 25.87 0 0 0 31 19.975zm11.099-2.01C40.134 11.342 36.822 6.781 33 6.097v13.878a25.87 25.87 0 0 0 9.099-2.01zM31 21.975a27.804 27.804 0 0 1-9.621-2.073C20.5 23.516 20 27.631 20 32h11zm0 35.928V44.025a25.87 25.87 0 0 0-9.099 2.01c1.965 6.623 5.277 11.184 9.099 11.868zM19.536 44.937c-.841-3.298-1.365-6.993-1.498-10.937H6.084a25.897 25.897 0 0 0 6.782 15.599 28.146 28.146 0 0 1 6.67-4.662zm0-25.874a28.14 28.14 0 0 1-6.669-4.662A25.9 25.9 0 0 0 6 32h12c0-4.698.554-9.087 1.536-12.937zm31.598-4.662a28.14 28.14 0 0 1-6.669 4.662C45.446 22.913 46 27.302 46 32h12a25.904 25.904 0 0 0-6.866-17.599zM33 21.975V32h11c0-4.369-.5-8.484-1.379-12.098A27.827 27.827 0 0 1 33 21.975zm5.11-15.246c2.408 2.283 4.418 5.883 5.805 10.378a26.076 26.076 0 0 0 5.821-4.109A25.923 25.923 0 0 0 38.11 6.729zM25.89 57.271c-2.408-2.283-4.418-5.883-5.805-10.378a26.076 26.076 0 0 0-5.821 4.109 25.923 25.923 0 0 0 11.626 6.269z" data-original="#64c8f0"/><path d="M23.976 8.949a16.046 16.046 0 0 1 1.914-2.22 25.94 25.94 0 0 0-11.627 6.268c.702.655 1.448 1.26 2.218 1.836a26.107 26.107 0 0 1 7.495-5.884zM6.084 34a25.897 25.897 0 0 0 6.782 15.599c.747-.7 1.542-1.347 2.36-1.965A25.858 25.858 0 0 1 10.084 34zm9.143-17.634a29.008 29.008 0 0 1-2.36-1.965A25.9 25.9 0 0 0 6 32h4a25.876 25.876 0 0 1 5.227-15.634zm1.255 32.801a26.183 26.183 0 0 0-2.218 1.836 25.935 25.935 0 0 0 11.627 6.268 16.046 16.046 0 0 1-1.914-2.22 26.08 26.08 0 0 1-7.495-5.884z" data-original="#46aad2"/><path d="M50 46.922A8.014 8.014 0 0 1 46 40a7.976 7.976 0 0 1 2.726-6h-2.764c-.133 3.945-.657 7.639-1.498 10.937A27.746 27.746 0 0 1 49.257 48H50zm-6.085-.029c-1.387 4.494-3.398 8.095-5.805 10.378A25.887 25.887 0 0 0 48 52.472v-2.939a25.87 25.87 0 0 0-4.085-2.64z" data-original="#64c8f0"/><path d="M52 45.651V50h-2v2h2v2h-2v2h2v2l2 2 2-2V45.651A5.997 5.997 0 0 0 54 34a5.996 5.996 0 1 0-2 11.651zM56 38c0 1.103-.897 2-2 2s-2-.897-2-2 .897-2 2-2 2 .897 2 2z" data-original="#fab400"/><path d="M50 50h2v2h-2zm0 4h2v2h-2zm4 4v-2h-2v2l2 2 1-1zm0-12.349A5.997 5.997 0 0 1 50 40a5.996 5.996 0 0 1 5-5.91 5.998 5.998 0 0 0-1-.09 5.996 5.996 0 1 0-2 11.651V50h2zM52 52h2v2h-2z" data-original="#dc9600"/></g></svg>