<svg xmlns="http://www.w3.org/2000/svg" viewBox="0 0 207.5 207.5"><path d="M195.374 77.971V25.568a5 5 0 0 0-4.201-4.936 4.99 4.99 0 0 0-5.544 3.358c-.047.143-5.711 14.83-40.445 35.231-29.46 17.304-60.434 18.866-69.84 18.906-1.848-4.072-5.943-6.917-10.698-6.917H23.068c-6.479 0-11.75 5.271-11.75 11.75v.683H9.481C4.253 83.644 0 87.897 0 93.126v21.249c0 5.228 4.253 9.481 9.481 9.481h1.837v.683c0 6.479 5.271 11.75 11.75 11.75h7.206l6.312 37.273a8.299 8.299 0 0 0 8.204 6.932h13.584a8.304 8.304 0 0 0 6.355-2.95 8.306 8.306 0 0 0 1.849-6.76l-5.842-34.495h3.908c4.755 0 8.85-2.844 10.697-6.916 9.406.04 40.38 1.602 69.841 18.905 34.251 20.118 40.305 34.882 40.471 35.307a5.003 5.003 0 0 0 5.519 3.284 4.999 4.999 0 0 0 4.201-4.936v-52.404c6.825-.856 12.126-6.683 12.126-13.736V91.708c.001-7.053-5.3-12.88-12.125-13.737zM66.396 124.539c0 .965-.785 1.75-1.75 1.75H23.068c-.965 0-1.75-.785-1.75-1.75V82.961c0-.965.785-1.75 1.75-1.75h41.577c.965 0 1.75.785 1.75 1.75v41.578z"/></svg>