<svg id="Capa_1" enable-background="new 0 0 512 512" height="512" viewBox="0 0 512 512" width="512" xmlns="http://www.w3.org/2000/svg"><g><g><g><path d="m38.951 340.488c-4.204 0-7.611-3.407-7.611-7.611v-275c0-4.204 3.408-7.611 7.611-7.611s7.611 3.407 7.611 7.611v274.999c.001 4.204-3.407 7.612-7.611 7.612z" fill="#d8ecfe"/></g><path d="m54.815 198.45c-28.172 0-51.009-22.838-51.009-51.009v-57.198c0-28.172 22.838-51.009 51.009-51.009 2.242 0 4.059 1.817 4.059 4.059v151.097c.001 2.242-1.817 4.06-4.059 4.06z" fill="#3d6d93"/><path d="m54.815 39.234c-9.658 0-18.688 2.685-26.387 7.348v144.52c7.699 4.663 16.729 7.348 26.386 7.348 2.242 0 4.059-1.818 4.059-4.059v-151.098c.002-2.242-1.816-4.059-4.058-4.059z" fill="#335e80"/><g><g><g><path d="m79.503 93.778c-2.973-2.973-2.973-7.792 0-10.765l20.449-20.449c2.973-2.972 7.792-2.97 10.764 0 2.973 2.973 2.973 7.792 0 10.765l-20.449 20.449c-2.973 2.972-7.792 2.972-10.764 0z" fill="#d8ecfe"/></g><g><path d="m99.952 175.12-20.449-20.45c-2.973-2.973-2.973-7.792 0-10.765 2.973-2.971 7.792-2.971 10.764 0l20.449 20.45c2.973 2.973 2.973 7.792 0 10.765-2.972 2.972-7.791 2.972-10.764 0z" fill="#d8ecfe"/></g></g><g><path d="m117.563 126.453h-28.92c-4.204 0-7.611-3.407-7.611-7.611s3.408-7.612 7.611-7.612h28.92c4.204 0 7.611 3.407 7.611 7.612s-3.407 7.611-7.611 7.611z" fill="#d8ecfe"/></g></g></g><g><path d="m477.748 340.488c-4.204 0-7.611-3.407-7.611-7.611v-275c0-4.204 3.408-7.611 7.611-7.611s7.612 3.407 7.612 7.611v274.999c0 4.204-3.408 7.612-7.612 7.612z" fill="#d8ecfe"/></g><g><path d="m366.622 203.681-27.55-28.638c-2.72-2.828-2.633-7.325.195-10.045l75.29-72.429c2.828-2.72 7.325-2.633 10.045.195l27.55 28.638c2.72 2.828 2.633 7.325-.195 10.045l-75.29 72.429c-2.828 2.719-7.325 2.632-10.045-.195z" fill="#3d6d93"/><path d="m452.151 121.401-27.55-28.638c-2.72-2.828-7.217-2.915-10.045-.195l-10.693 10.286c12.573 13.07 12.171 33.858-.899 46.432l-46.051 44.301 9.708 10.092c2.72 2.828 7.217 2.915 10.045.195l75.29-72.429c2.828-2.719 2.915-7.216.195-10.044z" fill="#335e80"/><path d="m450.843 120.041-24.933-25.918 51.836-49.867c7.157-6.885 18.541-6.665 25.426.492 6.885 7.157 6.665 18.541-.492 25.426z" fill="#c4e2ff"/><path d="m503.171 44.749c-6.885-7.157-18.269-7.377-25.426-.492l-3.062 2.945c4.782 7.109 3.936 16.828-2.451 22.973l-36.024 34.655 14.634 15.212 51.836-49.867c7.158-6.885 7.378-18.269.493-25.426z" fill="#b3dafe"/></g><g><g><g><path d="m99.377 361.233v-58.189c0-17.349 10.815-32.883 27.153-39.003l67.84-25.41c2.995-1.122 5.553-2.987 7.496-5.336 2.567-3.106 19.282-7.058 19.282-11.261v-27.12h39.26v27.12c0 4.203 16.714 8.155 19.282 11.261 1.943 2.35 4.501 4.215 7.496 5.336l67.84 25.41c16.338 6.12 27.153 21.654 27.153 39.003v58.189z" fill="#8fd8fa"/><g><path d="m355.025 264.04-67.84-25.41c-2.995-1.122-5.553-2.987-7.496-5.336-2.567-3.106-19.282-7.058-19.282-11.261v-27.12h-15.223v42.343c0 7.382 4.602 13.993 11.554 16.597l67.84 25.41c16.338 6.12 27.153 21.654 27.153 39.003v42.966h30.446v-58.189c0-17.349-10.814-32.883-27.152-39.003z" fill="#6bcdfe"/></g><path d="m240.777 255.905c16.704 0 31.257-9.119 38.915-22.615-2.567-3.106-19.285-7.055-19.285-11.258v-27.12h-54.483v27.12c0 4.203-1.495 8.152-4.062 11.258 7.658 13.496 22.211 22.615 38.915 22.615z" fill="#ffcebf"/><path d="m255.63 253.389c10.255-3.596 18.791-10.81 24.062-20.098-1.543-1.87-2.695-4.058-3.365-6.388-.454-1.578-.693-3.226-.697-4.87v-27.12h-30.446v42.343c0 6.981 4.119 13.267 10.446 16.133z" fill="#ffb09e"/></g><g><g><path d="m311.088 115.754h-140.622v-84.399c0-17.317 14.038-31.355 31.355-31.355h77.911c17.317 0 31.355 14.038 31.355 31.355v84.399z" fill="#e19974"/><path d="m279.733 0h-30.446c17.317 0 31.355 14.038 31.355 31.355v84.399h30.446v-84.399c0-17.317-14.038-31.355-31.355-31.355z" fill="#dc8758"/><path d="m311.088 92.628c-3.727-6.966-10.04-15.875-20.166-18.865-12.149-3.588-18.509 4.674-35.012 4.619-18.767-.063-23.208-10.788-38.344-11.967-10.882-.848-26.597 3.294-47.099 26.213v49.26c0 25.991 14.275 48.669 35.457 60.709 10.273 5.84 22.171 6.113 34.854 6.113 0 0 23.552.008 33.514-5.371 21.918-11.834 36.796-34.916 36.796-61.451z" fill="#ffcebf"/><g><path d="m290.922 73.763c-8.863-2.617-14.65 1.071-23.538 3.236.389.256.769.52 1.143.793 7.769 5.669 12.115 14.914 12.115 24.531v39.565c.21 4.369.824 26.419-15.728 44.043-23.116 24.614-57.558 17.006-58.99 16.664 6.592 3.643 15.777 7.49 27.119 8.751 2.714.302 5.299.428 7.734.427 38.832 0 70.311-31.289 70.311-69.886v-49.259c-3.727-6.966-10.04-15.875-20.166-18.865z" fill="#ffb09e"/></g><g><path d="m206.854 138.743c-4.204 0-7.611-3.407-7.611-7.611v-13.488c0-4.204 3.408-7.611 7.611-7.611 4.204 0 7.611 3.407 7.611 7.611v13.488c0 4.204-3.408 7.611-7.611 7.611z" fill="#335e80"/></g><g><path d="m274.7 138.743c-4.204 0-7.612-3.407-7.612-7.611v-13.488c0-4.204 3.408-7.611 7.612-7.611s7.611 3.407 7.611 7.611v13.488c.001 4.204-3.407 7.611-7.611 7.611z" fill="#335e80"/></g><g><path d="m240.403 181.713c-5.862-.061-11.684-1.579-16.837-4.387-3.691-2.012-5.053-6.635-3.041-10.326 2.011-3.691 6.635-5.054 10.326-3.042 2.074 1.131 5.442 2.487 9.712 2.531 4.458.071 7.977-1.351 10.142-2.531 3.693-2.012 8.314-.651 10.326 3.042 2.012 3.691.65 8.314-3.041 10.326-3.716 2.025-10.147 4.465-17.587 4.387z" fill="#ffb09e"/></g></g><g><path d="m320.951 129.24h-9.864v-37.209h9.864c10.275 0 18.604 8.33 18.604 18.604.001 10.276-8.329 18.605-18.604 18.605z" fill="#ffcebf"/><path d="m160.603 129.24h9.864v-37.209h-9.864c-10.275 0-18.604 8.33-18.604 18.604-.001 10.276 8.329 18.605 18.604 18.605z" fill="#ffb09e"/></g></g></g></g><path d="m34.252 502.866v-139.544h443.497v139.544c0 5.044-4.089 9.134-9.134 9.134h-425.229c-5.045 0-9.134-4.089-9.134-9.134z" fill="#eaf6ff"/><path d="m447.302 363.322v139.544c0 5.044-4.089 9.134-9.134 9.134h30.446c5.044 0 9.134-4.089 9.134-9.134v-139.544z" fill="#d8ecfe"/><path d="m492.971 363.322h-473.942c-8.407 0-15.223-6.816-15.223-15.223 0-8.407 6.816-15.223 15.223-15.223h473.943c8.407 0 15.223 6.816 15.223 15.223-.001 8.408-6.816 15.223-15.224 15.223z" fill="#c4e2ff"/><path d="m492.971 332.876h-30.446c8.407 0 15.223 6.816 15.223 15.223s-6.816 15.223-15.223 15.223h30.446c8.407 0 15.223-6.816 15.223-15.223s-6.815-15.223-15.223-15.223z" fill="#b3dafe"/><g><path d="m317.905 512h-123.81c-10.36 0-18.759-8.399-18.759-18.759v-72.624c0-10.36 8.399-18.759 18.759-18.759h123.811c10.36 0 18.759 8.399 18.759 18.759v72.624c-.001 10.36-8.399 18.759-18.76 18.759z" fill="#f58a97"/><path d="m317.905 401.858h-30.446c10.36 0 18.759 8.399 18.759 18.759v72.624c0 10.36-8.399 18.759-18.759 18.759h30.446c10.36 0 18.759-8.399 18.759-18.759v-72.624c0-10.36-8.398-18.759-18.759-18.759z" fill="#f07281"/><path d="m274.599 460.093-32.946 22.143c-2.532 1.702-5.938-.113-5.938-3.164v-44.285c0-3.051 3.406-4.865 5.938-3.164l32.946 22.143c2.247 1.51 2.247 4.816 0 6.327z" fill="#fff"/></g></g></svg>