<svg xmlns="http://www.w3.org/2000/svg" xmlns:xlink="http://www.w3.org/1999/xlink" width="1246.791" height="929.718" viewBox="0 0 1246.791 929.718"><defs><filter id="a" x="0" y="0" width="1246.791" height="929.718" filterUnits="userSpaceOnUse"><feOffset dy="10" input="SourceAlpha"/><feGaussianBlur stdDeviation="49.5" result="b"/><feFlood flood-color="#7d7d7d" flood-opacity="0.157"/><feComposite operator="in" in2="b"/><feComposite in="SourceGraphic"/></filter><clipPath id="c"><path d="M635.621,53.73a17.3,17.3,0,1,1-17.3-17.3A17.3,17.3,0,0,1,635.621,53.73Z" transform="translate(-601.019 -36.429)" fill="#f1eed8"/></clipPath></defs><g transform="translate(3755.935 -5772.81)"><g transform="matrix(1, 0, 0, 1, -3755.93, 5772.81)" filter="url(#a)"><rect width="949.791" height="632.718" rx="20" transform="translate(148.5 138.5)" fill="#fff"/></g><g transform="translate(-2740.732 5962.389)"><g transform="translate(0)"><path d="M635.621,53.73a17.3,17.3,0,1,1-17.3-17.3A17.3,17.3,0,0,1,635.621,53.73Z" transform="translate(-601.019 -36.429)" fill="#725374"/><g clip-path="url(#c)"><g transform="translate(5.325 2.652)"><path d="M627.522,103.763h-3.728s-9.615,1.309-10.112,5.447v.84h23.951v-.84C637.138,105.072,627.522,103.763,627.522,103.763Z" transform="translate(-613.683 -78.101)" fill="#fabc99"/><g transform="translate(18.996 14.419)"><path d="M658.9,78.4c-.162.855.144,1.63.682,1.73s1.1-.509,1.264-1.365-.145-1.629-.682-1.73S659.061,77.547,658.9,78.4Z" transform="translate(-658.857 -77.026)" fill="#fabc99"/><path d="M660.935,78.984a.932.932,0,0,0,.1.041.222.222,0,0,1,.1.05c.029.03.064.042.087.086a.319.319,0,0,1,.063.122c.024.04.015.1.031.156a1.429,1.429,0,0,1-.036.374,1.717,1.717,0,0,1-.116.37,1,1,0,0,1-.17.276.554.554,0,0,1-.1.072c-.033.005-.07.03-.1.02-.058-.008-.1-.011-.1-.011a.553.553,0,0,0,.084.072c.028.028.076.026.132.04a.4.4,0,0,0,.183-.033.8.8,0,0,0,.322-.293,1.278,1.278,0,0,0,.185-.445,1.257,1.257,0,0,0,.026-.248,1.084,1.084,0,0,0-.027-.245.673.673,0,0,0-.1-.222c-.024-.032-.046-.064-.071-.091l-.091-.062a.37.37,0,0,0-.177-.058.3.3,0,0,0-.125.005A.983.983,0,0,0,660.935,78.984Z" transform="translate(-659.923 -78.142)" fill="#d2d1d1" style="mix-blend-mode:multiply;isolation:isolate"/></g><g transform="translate(3.184 14.419)"><path d="M623.244,78.4c.161.855-.145,1.63-.682,1.73s-1.1-.509-1.264-1.365.144-1.629.683-1.73S623.083,77.547,623.244,78.4Z" transform="translate(-621.255 -77.026)" fill="#fabc99"/><path d="M622.723,78.984a.972.972,0,0,1-.1.041.225.225,0,0,0-.1.05c-.029.03-.063.042-.087.086a.321.321,0,0,0-.063.122c-.024.04-.016.1-.031.156a1.441,1.441,0,0,0,.037.374,1.652,1.652,0,0,0,.115.37.989.989,0,0,0,.17.276.535.535,0,0,0,.1.072c.033.005.07.03.1.02.058-.008.1-.011.1-.011a.56.56,0,0,1-.084.072c-.029.028-.076.026-.132.04a.4.4,0,0,1-.183-.033.8.8,0,0,1-.323-.293,1.3,1.3,0,0,1-.185-.445,1.261,1.261,0,0,1-.025-.248,1.094,1.094,0,0,1,.026-.245.666.666,0,0,1,.1-.222c.024-.032.046-.064.07-.091l.091-.062a.369.369,0,0,1,.176-.058.294.294,0,0,1,.125.005A.969.969,0,0,1,622.723,78.984Z" transform="translate(-621.702 -78.142)" fill="#d2d1d1" style="mix-blend-mode:multiply;isolation:isolate"/></g><rect width="3.728" height="3.154" transform="translate(10.112 23.204)" fill="#fabc99"/><path d="M641.457,98.241v-.325h-3.728v2.423A4.221,4.221,0,0,1,641.457,98.241Z" transform="translate(-627.617 -74.712)" fill="#d2d1d1" style="mix-blend-mode:multiply;isolation:isolate"/><path d="M639.263,60.691c0,5.581-3.384,10.1-8,10.1s-7.915-4.689-7.915-10.269c-.084-7.414,3.295-9.94,7.915-9.94S639.67,52.858,639.263,60.691Z" transform="translate(-619.28 -47.286)" fill="#fabc99"/><path d="M628.042,103.957a2.606,2.606,0,0,1-4.764,0c-2,.341-9.168,1.805-9.6,5.366v.84h23.951v-.84C637.207,105.764,630.042,104.3,628.042,103.957Z" transform="translate(-613.683 -78.213)" fill="#44d3c5"/><g transform="translate(8.813 25.743)"><path d="M640.187,103.957a2.606,2.606,0,0,1-4.764,0c-.208.036-.475.085-.782.146a3.3,3.3,0,0,0,3.129,2.364h.036a3.3,3.3,0,0,0,3.13-2.371C640.643,104.037,640.388,103.991,640.187,103.957Z" transform="translate(-634.641 -103.956)" fill="#6f171c"/></g><path d="M628.907,69.406a1.885,1.885,0,0,1,2.939-.5" transform="translate(-622.505 -57.612)" fill="none" stroke="#341e13" stroke-linecap="round" stroke-miterlimit="10" stroke-width="0.908"/><path d="M651.365,69.406a1.885,1.885,0,0,0-2.939-.5" transform="translate(-633.817 -57.612)" fill="none" stroke="#341e13" stroke-linecap="round" stroke-miterlimit="10" stroke-width="0.908"/><g transform="translate(10.92 16.876)"><path d="M641.679,82.868a.756.756,0,0,1,.1.1,1.059,1.059,0,0,1,.2.344.753.753,0,0,1,.052.286.654.654,0,0,1-.1.348,1.521,1.521,0,0,1-.128.153c-.05.037-.1.074-.161.107a1.532,1.532,0,0,1-.343.114,2.806,2.806,0,0,1-.335.025c-.107,0-.212-.016-.313-.023a3.662,3.662,0,0,1-.527-.129,3.2,3.2,0,0,1-.481-.218,3.452,3.452,0,0,1,.52-.026c.153,0,.328-.01.512-.005.091,0,.182-.016.277-.014a2.548,2.548,0,0,0,.27-.032,1.179,1.179,0,0,0,.237-.063.551.551,0,0,1,.095-.047l.07-.06a.438.438,0,0,0,.087-.163.783.783,0,0,0,.024-.2,1.894,1.894,0,0,0-.037-.354C641.691,82.921,641.679,82.868,641.679,82.868Z" transform="translate(-639.652 -82.868)" fill="#ca9a7e"/></g><g transform="translate(9.784 19.697)"><path d="M636.95,89.995a2.489,2.489,0,0,0,4.506,0Z" transform="translate(-636.95 -89.819)" fill="#fff"/><path d="M636.95,89.753l.21.282.232.255.259.224.282.188.3.151.315.107.325.062.328.013.338-.034.3-.078.3-.125.283-.163.259-.2.233-.232.2-.257.176-.278.154.259C639.954,89.918,638.453,89.878,636.95,89.753Zm0,0c1.5-.126,3-.165,4.506-.176h.008a.171.171,0,0,1,.172.169.167.167,0,0,1-.025.09l-.193.316c-.074.1-.154.195-.232.291s-.177.173-.267.259-.2.149-.3.224-.218.122-.327.181l-.351.13-.378.077-.361.019-.37-.039-.357-.093-.336-.148c-.1-.064-.209-.126-.309-.193s-.187-.153-.276-.234-.163-.176-.24-.267l-.2-.293Z" transform="translate(-636.95 -89.577)" fill="#dca788"/></g><g transform="translate(7.125 12.726)"><path d="M632.648,73.914A.8.8,0,1,1,631.86,73,.859.859,0,0,1,632.648,73.914Z" transform="translate(-630.884 -72.999)" fill="#341e13"/><g transform="translate(0 0.18)"><path d="M631.362,73.794a.367.367,0,1,1-.367-.367A.368.368,0,0,1,631.362,73.794Z" transform="translate(-630.627 -73.427)" fill="#fff"/><path d="M631.849,75.329a.174.174,0,1,1-.174-.175A.174.174,0,0,1,631.849,75.329Z" transform="translate(-631.133 -74.428)" fill="#fff"/></g></g><g transform="translate(15.094 12.726)"><path d="M649.578,73.914a.8.8,0,1,0,.789-.915A.859.859,0,0,0,649.578,73.914Z" transform="translate(-649.578 -72.999)" fill="#341e13"/><g transform="translate(1.029 0.18)"><path d="M652.025,73.794a.367.367,0,1,0,.367-.367A.367.367,0,0,0,652.025,73.794Z" transform="translate(-652.025 -73.427)" fill="#fff"/><path d="M652.07,75.329a.174.174,0,1,0,.174-.175A.174.174,0,0,0,652.07,75.329Z" transform="translate(-652.051 -74.428)" fill="#fff"/></g></g><path d="M644.454,45.357s1.429,1.261,2.915-.624a3.724,3.724,0,0,1-1.228,2.478,1.589,1.589,0,0,0,2.2-.032,2.564,2.564,0,0,1-1.028,2.468,23.788,23.788,0,0,1-.7,6.911l-.4,1.025-.37.125-.2,1.422h-.384l.42-4.683s.383-5.544-4.676-5.716c0,0-2.261-.4-2.659,1.255,0,0-.076-1.712-3.094-1.255a3.315,3.315,0,0,1,.77-4.286S639.6,41.7,644.454,45.357Z" transform="translate(-625.903 -43.153)" fill="#fc6644"/><path d="M623.607,44.941a10.293,10.293,0,0,1,9.682-1.657c2.241,2.007-.473,5.031-.473,5.031-2.128-.228-2.386,1.255-2.386,1.255-.027-1.8-3.367-1.255-3.367-1.255-4.2.2-4.345,5.716-4.345,5.716l.089,4.683h-.383l-.2-1.422-.37-.125S619.353,48.194,623.607,44.941Z" transform="translate(-617.995 -42.737)" fill="#fc6644"/></g></g></g></g><path d="M20,0H218.523a0,0,0,0,1,0,0V632.718a0,0,0,0,1,0,0H20a20,20,0,0,1-20-20V20A20,20,0,0,1,20,0Z" transform="translate(-3607.435 5911.31)" fill="#f9f9f9"/><g transform="translate(-3568.613 5954.464)"><rect width="38.767" height="28.184" rx="14.092" transform="translate(2.294 16.869) rotate(-0.1)" fill="#3d85fd"/><g transform="translate(1.895 16.411)"><path d="M11.369,87.089a4.669,4.669,0,0,1-4.641-4.641L6.7,62.726a4.669,4.669,0,0,1,4.641-4.669L41.618,58a4.669,4.669,0,0,1,4.641,4.641l.057,19.723a4.669,4.669,0,0,1-4.641,4.669L11.4,87.089ZM41.59,58.849H11.312A3.82,3.82,0,0,0,7.549,62.7L7.605,82.42A3.82,3.82,0,0,0,11.4,86.212l30.278-.057a3.82,3.82,0,0,0,3.792-3.82L45.41,62.612a3.82,3.82,0,0,0-3.792-3.792Z" transform="translate(-6.7 -58)" fill="#233863"/><rect width="38.767" height="28.184" rx="14.092" transform="translate(0.4 0.458) rotate(-0.1)" fill="#233863" opacity="0.2" style="isolation:isolate"/></g><rect width="19.214" height="25.75" rx="1.3" transform="translate(0.316 7.577) rotate(-22.2)" fill="#fff"/><path d="M10.246,31.7a.792.792,0,0,1-.736-.481L.06,8.068A.792.792,0,0,1,.484,7.049L17.6.06a.792.792,0,0,1,1.019.424l9.479,23.2a.792.792,0,0,1-.424,1.019L10.558,31.7a.792.792,0,0,1-.311.057ZM.852,7.813,10.3,30.847l16.978-6.933L17.83.852ZM15.34,9.256a.283.283,0,0,1-.113-.538L18.17,7.53a.292.292,0,0,1,.226.538L15.453,9.284a.281.281,0,0,1-.113.028ZM7.19,17.689a.283.283,0,0,1-.113-.538l12.9-5.263a.292.292,0,1,1,.226.538L7.3,17.66A.281.281,0,0,1,7.19,17.689Z" transform="translate(-0.004 -0.004)" fill="#233863"/><path d="M36.733,55.073a.283.283,0,0,1-.113-.538l5.093-2.094a.292.292,0,0,1,.226.538l-5.093,2.094a.281.281,0,0,1-.113.028Zm-7.725,3.169a.283.283,0,0,1-.113-.538l3.113-1.273a.292.292,0,1,1,.226.538l-3.141,1.273a.282.282,0,0,1-.113,0Z" transform="translate(-20.605 -37.587)" fill="#ffb44f"/><path d="M32.608,75.742a.283.283,0,0,1-.113-.538l7.951-3.226a.283.283,0,0,1,.226.509l-7.923,3.254a.281.281,0,0,1-.113.028Z" transform="translate(-23.186 -51.606)" fill="#233863"/><rect width="8.602" height="9.14" rx="2" transform="matrix(0.918, -0.397, 0.397, 0.918, 2.89, 6.187)" fill="#ffb44f"/><g transform="translate(2.754 2.669)"><path d="M13.774,21.482a.849.849,0,0,1-.792-.509L9.812,13.559a.849.849,0,0,1,.428-1.121l.024-.01,6.9-2.915a.849.849,0,0,1,1.121.428l.01.024,3.169,7.357a.849.849,0,0,1-.428,1.121l-.024.01-6.876,2.915a.853.853,0,0,1-.34.085ZM17.452,10.05a.281.281,0,0,0-.113.028l-6.82,2.915a.283.283,0,0,0-.154.369.258.258,0,0,0,.013.027l3.169,7.357a.283.283,0,0,0,.368.141l6.848-2.971a.283.283,0,0,0,.141-.368l-3.169-7.385a.283.283,0,0,0-.255-.17Z" transform="translate(-9.738 -9.438)" fill="#233863"/><path d="M19.46,17.905a.679.679,0,0,1-.623-.4l-.368-.849A.142.142,0,1,1,18.7,16.5a.144.144,0,0,1,.02.045l.368.849a.4.4,0,0,0,.509.2l.057-.028a.311.311,0,0,0,.17-.4l-.934-2.179a.311.311,0,0,0-.4-.17l-.113.057a.34.34,0,0,0-.17.424l.028.057a.142.142,0,0,1-.235.158.144.144,0,0,1-.02-.045v-.057a.623.623,0,0,1,.311-.792l.113-.057a.594.594,0,0,1,.786.3l.006.014.934,2.179a.594.594,0,0,1-.311.764l-.057.028a.676.676,0,0,1-.283.057Z" transform="translate(-15.622 -13.077)" fill="#233863"/></g><ellipse cx="0.594" cy="0.594" rx="0.594" ry="0.594" transform="translate(9.591 4.102)" fill="#fff"/><rect width="25.75" height="19.214" rx="1.3" transform="translate(16.348 27.452) rotate(-81.4)" fill="#3aaed5"/><path d="M75.519,34.764a.755.755,0,0,1-.113,0l-18.28-2.773a.792.792,0,0,1-.651-.905L60.21,6.326a.792.792,0,0,1,.906-.651L79.4,8.448a.792.792,0,0,1,.651.905l-3.763,24.76a.792.792,0,0,1-.764.679ZM57.324,31.17,75.49,33.915,79.225,9.3,61.116,6.552Z" transform="translate(-40.488 -4.063)" fill="#233863"/><path d="M83.891,20.067h-.057l-3.452-.509a.286.286,0,0,1,.085-.566l3.509.566a.283.283,0,1,1-.028.566Z" transform="translate(-57.463 -13.617)" fill="#fff"/><path d="M114.657,38.324H114.6l-4.018-.566a.286.286,0,0,1,.085-.566l4.018.623a.283.283,0,0,1-.028.566Z" transform="translate(-79.117 -26.667)" fill="#233863"/><path d="M83.187,33.4h-.028l-6.876-1.047a.286.286,0,1,1,.085-.566l6.876,1.047a.284.284,0,0,1-.057.566Z" transform="translate(-54.523 -22.795)" fill="#fff"/><path d="M81.577,50.046h-.057l-7.838-1.188a.286.286,0,1,1,.085-.566l7.838,1.188a.284.284,0,0,1-.057.566Z" transform="translate(-52.659 -34.626)" fill="#233863"/><g transform="translate(2.263 18.106)"><path d="M83.37,66.6h-.057L69.59,64.558a.286.286,0,1,1,.085-.566l13.752,2.094a.284.284,0,1,1-.057.566Zm-6.706,3.792h-.057L68.882,69.2a.286.286,0,0,1,.085-.566h0l7.7,1.16a.283.283,0,0,1-.028.566Z" transform="translate(-51.48 -63.989)" fill="#fff"/><path d="M43.739,100.012l-32.541.057a3.113,3.113,0,0,1-3.113-3.113L8,74.969a3.113,3.113,0,0,1,3.113-3.113L43.654,71.8a3.113,3.113,0,0,1,3.113,3.113l.057,21.958a3.113,3.113,0,0,1-3.113,3.113Z" transform="translate(-8 -69.59)" fill="#fff"/></g><path d="M10.481,99.634a3.4,3.4,0,0,1-3.4-3.4L7,74.252a3.4,3.4,0,0,1,3.4-3.4L42.937,70.8a3.4,3.4,0,0,1,3.4,3.4l.057,21.958a3.4,3.4,0,0,1-3.4,3.4l-32.541.057ZM42.937,71.423H10.4a2.83,2.83,0,0,0-2.83,2.83l.057,21.958a2.83,2.83,0,0,0,2.83,2.83h0l32.541-.057a2.83,2.83,0,0,0,2.83-2.83l-.057-21.9A2.83,2.83,0,0,0,42.937,71.423Z" transform="translate(-5.02 -50.767)" fill="#233863"/><path d="M44.094,53.2H35.888a2.773,2.773,0,0,0-2.773,2.773h0v3.962h-20.8A4.245,4.245,0,0,0,8.1,64.179L8.128,83.9a4.245,4.245,0,0,0,4.245,4.216l30.278-.057a4.245,4.245,0,0,0,4.216-4.245l-.028-27.844A2.773,2.773,0,0,0,44.065,53.2h.028Z" transform="translate(-5.809 -38.147)" fill="#3d85fd"/><path d="M11.3,87.424a4.669,4.669,0,0,1-4.641-4.641L6.6,63.032a4.669,4.669,0,0,1,4.641-4.641l20.374-.028V54.826a3.2,3.2,0,0,1,3.2-3.2h0l8.206-.028a3.2,3.2,0,0,1,3.2,3.2h0l.057,27.9a4.669,4.669,0,0,1-4.64,4.7h0l-30.278.057ZM42.99,52.477H34.784a2.349,2.349,0,0,0-2.32,2.349v3.962a.425.425,0,0,1-.424.424l-20.8.057a3.82,3.82,0,0,0-3.792,3.763l.028,19.723a3.82,3.82,0,0,0,3.792,3.792l30.278-.028a3.82,3.82,0,0,0,3.792-3.82l-.057-27.9a2.349,2.349,0,0,0-2.349-2.349h0Z" transform="translate(-4.734 -37)" fill="#233863"/><g transform="translate(5.828 16.212)"><path d="M52.774,64.3H45.416a2.49,2.49,0,0,0-2.462,2.49V70.3l-18.591.028A3.792,3.792,0,0,0,20.6,74.119l.028,17.657a3.792,3.792,0,0,0,3.763,3.792L51.5,95.511a3.792,3.792,0,0,0,3.763-3.792l-.028-24.958A2.49,2.49,0,0,0,52.774,64.3Z" transform="translate(-20.6 -62.884)" fill="#fff" opacity="0.1" style="isolation:isolate"/><ellipse cx="1.387" cy="1.387" rx="1.387" ry="1.387" transform="translate(29.825 27.704)" fill="#fff"/><path d="M86.093,65.014a.283.283,0,0,1-.283-.283V61a1.188,1.188,0,0,0-1.242-1.132H81.792a.283.283,0,0,1,0-.566h2.745a1.755,1.755,0,0,1,1.811,1.7v3.765a.283.283,0,0,1-.283.283ZM65.832,76.191a.707.707,0,0,1-.481-1.217L68.69,71.72l3.282,3.254a.707.707,0,0,1-.849,1.132.7.7,0,0,1-.141-.142L68.719,73.7,66.4,75.964a.707.707,0,0,1-.481.2Z" transform="translate(-52.533 -59.297)" fill="#fff"/><path d="M60.363,112.774a.707.707,0,0,1-.707-.707v-7.159a.707.707,0,0,1,1.415,0v7.159A.707.707,0,0,1,60.363,112.774Zm5.235,3.4H55.128a1.528,1.528,0,0,1-1.528-1.528v-3.82a.707.707,0,0,1,1.415,0v3.792a.113.113,0,0,0,.113.113H65.6a.2.2,0,0,0,.2-.2v-3.735a.707.707,0,0,1,1.415,0v3.735a1.613,1.613,0,0,1-1.613,1.613Z" transform="translate(-44.262 -91.494)" fill="#fff"/></g></g><text transform="translate(-3568.872 6063.566)" fill="#232323" font-size="18" font-family="SegoeUI, Segoe UI"><tspan x="0" y="0">Home</tspan></text><text transform="translate(-3243.229 6165.972)" fill="#232323" font-size="19" font-family="SegoeUI, Segoe UI"><tspan x="0" y="0">Android App Design</tspan></text><text transform="translate(-3243.229 6433.056)" fill="#232323" font-size="19" font-family="SegoeUI, Segoe UI"><tspan x="0" y="0">Customer Proposals</tspan></text><text transform="translate(-3344.635 5987.299)" fill="#232323" font-size="26" font-family="SegoeUI, Segoe UI"><tspan x="0" y="0">My projects</tspan></text><text transform="translate(-3568.872 6107.842)" fill="#232323" font-size="18" font-family="SegoeUI, Segoe UI"><tspan x="0" y="0">All Files</tspan></text><text transform="translate(-3568.872 6152.118)" fill="#3aaed5" font-size="18" font-family="SegoeUI, Segoe UI"><tspan x="0" y="0">My Projects</tspan></text><text transform="translate(-3568.872 6196.394)" fill="#232323" font-size="18" font-family="SegoeUI, Segoe UI"><tspan x="0" y="0">Shared</tspan></text><rect width="87.124" height="21.424" rx="10" transform="translate(-3344.635 6036.997)" fill="#f5f5f5"/><rect width="441.331" height="21.424" rx="10" transform="translate(-3243.229 6284.085)" fill="#f5f5f5"/><rect width="87.124" height="21.424" rx="10" transform="translate(-3113.258 6036.997)" fill="#f5f5f5"/><rect width="87.124" height="21.424" rx="10" transform="translate(-3228.947 6036.997)" fill="#f5f5f5"/><rect width="87.124" height="21.424" rx="10" transform="translate(-2997.569 6036.997)" fill="#f5f5f5"/><line x2="638.431" transform="translate(-3343.921 6227.669)" fill="none" stroke="#f9f9f9" stroke-width="1"/><line x2="638.431" transform="translate(-3343.921 6361.925)" fill="none" stroke="#f9f9f9" stroke-width="1"/><rect width="114" height="34" rx="17" transform="translate(-2884.435 5962.669)" fill="#3aaed5"/><text transform="translate(-2868.935 5985.19)" fill="#fff" font-size="15" font-family="SegoeUI, Segoe UI"><tspan x="0" y="0">Add Project</tspan></text><g transform="translate(-3367.894 6129.594)"><path d="M61.9,59.786l-2.448,2.448A1.731,1.731,0,1,1,57,59.786l2.448-2.448a1.732,1.732,0,0,0,0-2.448L57.2,52.64a1.731,1.731,0,1,1,2.448-2.448l2.25,2.25a5.2,5.2,0,0,1,0,7.344Z" transform="translate(-9.456 -14.447)" fill="#713708"/><path d="M62.264,72.435a3.462,3.462,0,0,1-4.9,0l-12.24-12.24,4.9-4.9,12.24,12.24a3.462,3.462,0,0,1,0,4.9Z" transform="translate(-6.151 -16.079)" fill="#994c0f"/><path d="M38.878,41.354l7.589,7.589-.148,4.749L37.753,62.26a5.245,5.245,0,0,1-7.393-.049l-4.9-4.9a5.149,5.149,0,0,1,.05-7.294l8.568-8.568Z" transform="translate(0 -12.024)" fill="#eefe31"/><path d="M44.283,46.67,48.1,50.488l-.148,4.749-8.568,8.568a5.245,5.245,0,0,1-7.393-.049l-2.4-2.4Z" transform="translate(-1.635 -13.57)" fill="#ffb759"/><g transform="translate(58.66 0)"><path d="M74.613,6.924a1.73,1.73,0,0,1-1.731-1.731V1.731a1.731,1.731,0,1,1,3.461,0V5.194a1.73,1.73,0,0,1-1.731,1.731ZM88.461,17.311H85a1.731,1.731,0,0,1,0-3.462h3.463a1.731,1.731,0,0,1,0,3.462ZM86.246,3.723a1.714,1.714,0,0,1,0,2.448L82.573,9.843A1.731,1.731,0,0,1,80.126,7.4L83.8,3.723A1.714,1.714,0,0,1,86.246,3.723Z" transform="translate(-72.881 0)" fill="#1bd9de"/></g><path d="M55.36,9.6,72.5,26.741c.49.489,1.1,5.655,1.738,5.753l-4.823,1A37.539,37.539,0,0,0,50.88,43.461l-.416.416L38.224,31.636l.416-.416a36.377,36.377,0,0,0,9.89-18.6l1-5.019L55.36,9.6Z" transform="translate(-4.144 -2.209)" fill="#cae8f9"/><path d="M41.184,53.362a1.714,1.714,0,0,1,0,2.448l-2.448,2.448a1.731,1.731,0,0,1-2.448-2.448l2.448-2.448a1.714,1.714,0,0,1,2.448,0Z" transform="translate(-3.431 -15.367)" fill="#e1e4fb"/><path d="M66.437,22.508l8.568,8.568c.49.489,1.1,5.655,1.738,5.753l-4.823,1A37.539,37.539,0,0,0,53.389,47.8l-.416.416-6.121-6.12L66.437,22.508Z" transform="translate(-6.653 -6.545)" fill="#b7e0f6"/><path d="M41.395,53.573a1.714,1.714,0,0,1,0,2.448l-2.448,2.448a1.714,1.714,0,0,1-2.448,0l4.9-4.9Z" transform="translate(-3.642 -15.577)" fill="#c5c9f7"/><path d="M59.985,3.11,82.017,25.142a3.471,3.471,0,0,1,0,4.9,2.021,2.021,0,0,1-.538.343,3.234,3.234,0,0,1-2.62.514,3.08,3.08,0,0,1-1.738-.857L55.089,8.006A3.4,3.4,0,0,1,54.158,6a3.433,3.433,0,0,1,.416-2.13,4.134,4.134,0,0,1,.514-.759A3.473,3.473,0,0,1,59.985,3.11Z" transform="translate(-8.768 -0.611)" fill="#eefe31"/><path d="M75.911,19.056,86.926,30.072a3.471,3.471,0,0,1,0,4.9,2.021,2.021,0,0,1-.538.343,3.234,3.234,0,0,1-2.62.514,3.084,3.084,0,0,1-1.738-.857L71.014,23.953l4.9-4.9Z" transform="translate(-13.678 -5.541)" fill="#ffb759"/></g><g transform="translate(-3368.609 6390.594)"><path d="M61.9,59.786l-2.448,2.448A1.731,1.731,0,1,1,57,59.786l2.448-2.448a1.732,1.732,0,0,0,0-2.448L57.2,52.64a1.731,1.731,0,1,1,2.448-2.448l2.25,2.25a5.2,5.2,0,0,1,0,7.344Z" transform="translate(-9.456 -14.447)" fill="#713708"/><path d="M62.264,72.435a3.462,3.462,0,0,1-4.9,0l-12.24-12.24,4.9-4.9,12.24,12.24a3.462,3.462,0,0,1,0,4.9Z" transform="translate(-6.151 -16.079)" fill="#994c0f"/><path d="M38.878,41.354l7.589,7.589-.148,4.749L37.753,62.26a5.245,5.245,0,0,1-7.393-.049l-4.9-4.9a5.149,5.149,0,0,1,.05-7.294l8.568-8.568Z" transform="translate(0 -12.024)" fill="#eefe31"/><path d="M44.283,46.67,48.1,50.488l-.148,4.749-8.568,8.568a5.245,5.245,0,0,1-7.393-.049l-2.4-2.4Z" transform="translate(-1.635 -13.57)" fill="#ffb759"/><g transform="translate(58.66 0)"><path d="M74.613,6.924a1.73,1.73,0,0,1-1.731-1.731V1.731a1.731,1.731,0,1,1,3.461,0V5.194a1.73,1.73,0,0,1-1.731,1.731ZM88.461,17.311H85a1.731,1.731,0,0,1,0-3.462h3.463a1.731,1.731,0,0,1,0,3.462ZM86.246,3.723a1.714,1.714,0,0,1,0,2.448L82.573,9.843A1.731,1.731,0,0,1,80.126,7.4L83.8,3.723A1.714,1.714,0,0,1,86.246,3.723Z" transform="translate(-72.881 0)" fill="#1bd9de"/></g><path d="M55.36,9.6,72.5,26.741c.49.489,1.1,5.655,1.738,5.753l-4.823,1A37.539,37.539,0,0,0,50.88,43.461l-.416.416L38.224,31.636l.416-.416a36.377,36.377,0,0,0,9.89-18.6l1-5.019L55.36,9.6Z" transform="translate(-4.144 -2.209)" fill="#cae8f9"/><path d="M41.184,53.362a1.714,1.714,0,0,1,0,2.448l-2.448,2.448a1.731,1.731,0,0,1-2.448-2.448l2.448-2.448a1.714,1.714,0,0,1,2.448,0Z" transform="translate(-3.431 -15.367)" fill="#e1e4fb"/><path d="M66.437,22.508l8.568,8.568c.49.489,1.1,5.655,1.738,5.753l-4.823,1A37.539,37.539,0,0,0,53.389,47.8l-.416.416-6.121-6.12L66.437,22.508Z" transform="translate(-6.653 -6.545)" fill="#b7e0f6"/><path d="M41.395,53.573a1.714,1.714,0,0,1,0,2.448l-2.448,2.448a1.714,1.714,0,0,1-2.448,0l4.9-4.9Z" transform="translate(-3.642 -15.577)" fill="#c5c9f7"/><path d="M59.985,3.11,82.017,25.142a3.471,3.471,0,0,1,0,4.9,2.021,2.021,0,0,1-.538.343,3.234,3.234,0,0,1-2.62.514,3.08,3.08,0,0,1-1.738-.857L55.089,8.006A3.4,3.4,0,0,1,54.158,6a3.433,3.433,0,0,1,.416-2.13,4.134,4.134,0,0,1,.514-.759A3.473,3.473,0,0,1,59.985,3.11Z" transform="translate(-8.768 -0.611)" fill="#eefe31"/><path d="M75.911,19.056,86.926,30.072a3.471,3.471,0,0,1,0,4.9,2.021,2.021,0,0,1-.538.343,3.234,3.234,0,0,1-2.62.514,3.084,3.084,0,0,1-1.738-.857L71.014,23.953l4.9-4.9Z" transform="translate(-13.678 -5.541)" fill="#ffb759"/></g></g></svg>