<svg xmlns="http://www.w3.org/2000/svg" viewBox="0 0 445.523 289.948"><g><path fill="#a0616a" d="M415.489 156.027l-1.178 16.1a3.586 3.586 0 0 1-3.338 3.316 3.586 3.586 0 0 1-3.823-3.663l.375-15.751 13.857-44.446-1.677-27.229 13.117-.468-.937 31.387z"/><path fill="#6c63ff" d="M435.533 89.415c-5.85-1.349-10.858.223-14.742 5.693l-3.008-22.752a5.975 5.975 0 0 1 4.487-6.409 5.975 5.975 0 0 1 7.158 4.007z"/><path fill="#2f2e41" d="M436.222 62.71c-13.517-5.749-27.4-2.107-43.846.422-.153-3.062-2.008-6.788-.065-8.924 2.36-2.6 2.143-5.322.723-8.064-3.632-7.013 1.572-14.475 6.826-20.679a11.636 11.636 0 0 1 9.712-4.076l9.733.7c4.85.346 6.025 3.667 7.4 8.331 2.324 3.161 3.568 6.312 2.785 9.448 3.481 2.379 4.066 5.25 2.5 8.487a4.879 4.879 0 0 0 .06 5.951 27.475 27.475 0 0 1 4.085 8.114z"/><path fill="#a0616a" d="M387.972 272.548h-6.466l-3.84-53.405 16.4-.469z"/><path fill="#2f2e41" d="M388.44 289.88c-1.724.787-3.168-5.588-4.623-4.159-4.068 4-13.827 3.1-13.827 3.1a2.543 2.543 0 0 1-1.6-3.314 2.543 2.543 0 0 1 1.764-1.574l4.326-1.082 6.793-11.946 6.934-.468a16.567 16.567 0 0 1 3.064 14.133c-.63 2.57-1.602 4.749-2.831 5.31z"/><path fill="#a0616a" d="M431.025 272.547h-6.466l-3.84-53.405 16.865-3.279z"/><path fill="#2f2e41" d="M431.495 289.881c-1.724.787-3.168-5.588-4.623-4.159-4.068 4-13.826 3.1-13.826 3.1a2.543 2.543 0 0 1-1.6-3.314 2.543 2.543 0 0 1 1.764-1.574l4.326-1.081 6.793-11.946 7.4-.937.187.306a19.087 19.087 0 0 1 2.045 15.608c-.619 1.969-1.454 3.535-2.466 3.997zM445.523 221.555c-10.45 4.624-16.71-.381-27.348 1.132-3.038.432-6.615-44.235-9.668-44.048-3.885.237-7.25 45.252-11.159 45.1a129.242 129.242 0 0 1-29.052-4.594c10.13-39.29 22.092-74.816 22.018-104l30.39-2.342 4.183 6.632c6.707 15.736 13.558 33.211 16.972 51.5z"/><circle cx="14.054" cy="14.054" r="14.054" fill="#a0616a" transform="translate(391.251 26.603)"/><path fill="#a0616a" d="M420.765 65.486l-17.333.937-2.811-15.46 14.054-2.342z"/><path fill="#6c63ff" d="M422.109 115.143l-22.208.535-9.587 1.339c-4.706-15.545-8.668-31.055.937-44.036l11.243-11.243 16.865-.469.223.128a13.581 13.581 0 0 1 6.222 15.8c-4.184 13.6-3.654 26.442-3.695 37.946z"/><path fill="#2f2e41" d="M421.26 40.586a17.087 17.087 0 0 0-4.321-11.381v-4.992h-15.24a8.849 8.849 0 0 0-8.849 8.849h10.158c-2.739 5.042-3.921 10.329-1.283 15.422 1.591 3.073 1.662 9.177-.518 12.108a30.2 30.2 0 0 0 3.441 0c4.708 0 17.547.612 20.647-2.458 3.14-3.11-4.035-12.781-4.035-17.548z"/><path fill="#e6e6e6" d="M397.628 157.502h-90.027a2.152 2.152 0 0 0-2.146 2.146v94.5a2.152 2.152 0 0 0 2.146 2.146h90.027a2.152 2.152 0 0 0 2.146-2.146v-94.504a2.152 2.152 0 0 0-2.146-2.142z"/><path fill="#fff" d="M395.482 160.184h-85.735a1.615 1.615 0 0 0-1.609 1.609v90.2a1.614 1.614 0 0 0 1.609 1.609h85.735a1.614 1.614 0 0 0 1.609-1.609v-90.2a1.614 1.614 0 0 0-1.609-1.609z"/><path fill="#a0616a" d="M389.846 158.71l-1.178 16.1a3.586 3.586 0 0 1-3.338 3.316 3.586 3.586 0 0 1-3.823-3.663l.375-15.751 11.712-44.5.468-27.171 13.117-.469-.937 31.387z"/><path fill="#6c63ff" d="M408.585 88.909c-5.561-2.261-10.755-1.5-15.459 3.279l.645-22.941a5.975 5.975 0 0 1 5.448-5.615 5.975 5.975 0 0 1 6.431 5.093z"/><path fill="#e6e6e6" d="M389.12 183.002a.924.924 0 0 1 .924.924v1.848a.924.924 0 0 1-.924.924h-73.011a.924.924 0 0 1-.924-.924v-1.848a.924.924 0 0 1 .924-.924h73.011M389.12 191.781a.924.924 0 0 1 .924.924v1.848a.924.924 0 0 1-.924.924h-73.011a.924.924 0 0 1-.924-.924v-1.849a.924.924 0 0 1 .924-.924h73.012"/><path fill="#6c63ff" d="M389.12 200.561a.924.924 0 0 1 .924.924v1.848a.924.924 0 0 1-.924.924h-73.011a.924.924 0 0 1-.924-.924v-1.848a.924.924 0 0 1 .924-.924h73.012"/><path fill="#e6e6e6" d="M389.12 209.534a.924.924 0 0 1 .924.924v1.848a.924.924 0 0 1-.924.924h-73.011a.924.924 0 0 1-.924-.924v-1.848a.924.924 0 0 1 .924-.924h73.012M389.12 218.313a.924.924 0 0 1 .924.924v1.844a.924.924 0 0 1-.924.924h-73.011a.924.924 0 0 1-.924-.924v-1.848a.924.924 0 0 1 .924-.924h73.012M389.12 227.093a.924.924 0 0 1 .924.924v1.848a.924.924 0 0 1-.924.924h-73.011a.924.924 0 0 1-.924-.924v-1.848a.924.924 0 0 1 .924-.924h73.012"/><path fill="#2f2e41" d="M66.909 270.036l-7.169.4-16.329-109.923-15.333 109.723-7.766-1.792c-4.313-47.3-9.928-96.187-5.974-117.49h54.563c8.102 21.176 2.693 70.893-1.992 119.082z"/><path fill="#2f2e41" d="M22.308 289.94a6.418 6.418 0 0 1-5.9-7.944l3.262-13.253c2.727-3.388 5.168-3.24 7.36 0l2.24-.96 1.6 11.52-2.207 6.446a6.418 6.418 0 0 1-6.355 4.191zM65.71 289.94a6.418 6.418 0 0 0 5.9-7.944l-3.262-13.253c-2.727-3.388-5.168-3.24-7.36 0l-2.24-.96-1.6 11.52 2.207 6.446a6.418 6.418 0 0 0 6.355 4.191z"/><circle cx="15.931" cy="15.931" r="15.931" fill="#ffb8b8" transform="translate(29.074 6.78)"/><path fill="#ffb8b8" d="M54.564 52.183H34.251l1.195-21.108h19.118z"/><path fill="#6c63ff" d="M76.07 153.344H11.55c9.407-31.719 7.753-65.7.8-100.762l17.524-5.576 4.779-3.983c6 7.3 12.629 7.244 19.914-.4l5.974 4.381 17.524 5.974c-9.247 33.784-10.75 67.271-1.995 100.366z"/><path fill="#2f2e41" d="M27.987 18.597a14.417 14.417 0 0 1 .978-11.714c1.947-3.452 5.7-6.689 12.9-6.871 15.725-.4 22.539 11.458 21.654 14.935s-4.056 11.749-4.056 11.749 1.966-7.965-1.966-8.762-19.165-3.983-23.588-.4a8.989 8.989 0 0 0-3.44 8.364z"/><path fill="#e6e6e6" d="M92.388 158.039H2.36a2.161 2.161 0 0 0-2.146 2.146v94.5a2.152 2.152 0 0 0 2.146 2.146h90.027a2.152 2.152 0 0 0 2.146-2.146v-94.5a2.152 2.152 0 0 0-2.145-2.146z"/><path fill="#fff" d="M90.241 160.721H4.506a1.614 1.614 0 0 0-1.609 1.609v90.2a1.614 1.614 0 0 0 1.609 1.609h85.735a1.614 1.614 0 0 0 1.609-1.609v-90.2a1.614 1.614 0 0 0-1.609-1.609z"/><path fill="#ffb8b8" d="M73.981 165.741a6.524 6.524 0 0 1-3.638-8.635l5.329-12.524-.8-39.827-2.788-13.541 14.338-5.576 2.788 18.719-5.177 43.013-1.194 12.892a6.524 6.524 0 0 1-8.861 5.479zM15.232 165.741a6.524 6.524 0 0 0 3.638-8.635l-5.329-12.524.8-39.827 2.788-13.541-14.338-5.576-2.788 18.719 5.178 43.013 1.194 12.892a6.524 6.524 0 0 0 8.861 5.479z"/><path fill="#6c63ff" d="M87.619 86.833a50.839 50.839 0 0 0-15.931 7.169l-3.584-10.753 9.16-30.667a13.084 13.084 0 0 1 8.921 11.586 124.762 124.762 0 0 0 1.435 22.665zM1.593 86.832a50.837 50.837 0 0 1 15.931 7.169l3.584-10.753-7.965-31.065c-5.056 1.685-9.779 6.666-10.115 11.985a124.764 124.764 0 0 1-1.435 22.665z"/><path fill="#e6e6e6" d="M83.88 183.04a.924.924 0 0 1 .924.924v1.851a.924.924 0 0 1-.924.924H10.869a.924.924 0 0 1-.924-.924v-1.848a.924.924 0 0 1 .924-.924H83.88M83.88 191.82a.924.924 0 0 1 .924.924v1.848a.924.924 0 0 1-.924.924H10.869a.924.924 0 0 1-.924-.924v-1.848a.924.924 0 0 1 .924-.924H83.88"/><path fill="#6c63ff" d="M83.88 200.6a.924.924 0 0 1 .924.924v1.849a.924.924 0 0 1-.924.924H10.869a.924.924 0 0 1-.924-.924v-1.849a.924.924 0 0 1 .924-.924H83.88"/><path fill="#e6e6e6" d="M83.88 209.572a.924.924 0 0 1 .924.924v1.848a.924.924 0 0 1-.924.924H10.869a.924.924 0 0 1-.924-.924v-1.848a.924.924 0 0 1 .924-.924H83.88M83.88 218.352a.924.924 0 0 1 .924.924v1.848a.924.924 0 0 1-.924.924H10.869a.924.924 0 0 1-.924-.924v-1.848a.924.924 0 0 1 .924-.924h73.012M83.88 227.132a.924.924 0 0 1 .924.924v1.848a.924.924 0 0 1-.924.924H10.869a.924.924 0 0 1-.924-.924v-1.848a.924.924 0 0 1 .924-.924h73.012M266.08 94.415h-90.027a2.149 2.149 0 0 0-2.146 2.146v157.593a2.152 2.152 0 0 0 2.146 2.146h90.028a2.152 2.152 0 0 0 2.146-2.146V96.561a2.149 2.149 0 0 0-2.147-2.146z"/><path fill="#fff" d="M265.506 98.364a1.732 1.732 0 0 0-.225-.542 1.624 1.624 0 0 0-1.346-.724h-85.736a1.611 1.611 0 0 0-1.609 1.613v153.3a1.614 1.614 0 0 0 1.609 1.609h85.736a1.614 1.614 0 0 0 1.609-1.609v-153.3a1.462 1.462 0 0 0-.038-.347z"/><path fill="#e6e6e6" d="M257.572 180.357a.924.924 0 0 1 .924.924v1.852a.924.924 0 0 1-.924.924h-73.017a.924.924 0 0 1-.924-.924v-1.848a.924.924 0 0 1 .924-.924h73.012M257.572 189.137a.924.924 0 0 1 .924.924v1.848a.924.924 0 0 1-.924.924h-73.017a.924.924 0 0 1-.924-.924v-1.847a.924.924 0 0 1 .924-.924h73.012"/><path fill="#6c63ff" d="M257.572 197.917a.924.924 0 0 1 .924.924v1.85a.924.924 0 0 1-.924.924h-73.017a.924.924 0 0 1-.924-.924v-1.85a.924.924 0 0 1 .924-.924h73.012"/><path fill="#e6e6e6" d="M257.572 206.889a.924.924 0 0 1 .924.924v1.848a.924.924 0 0 1-.924.924h-73.017a.924.924 0 0 1-.924-.924v-1.848a.924.924 0 0 1 .924-.924h73.012M257.572 215.669a.924.924 0 0 1 .924.924v1.848a.924.924 0 0 1-.924.924h-73.017a.924.924 0 0 1-.924-.924v-1.848a.924.924 0 0 1 .924-.924h73.012M257.572 224.449a.924.924 0 0 1 .924.924v1.848a.924.924 0 0 1-.924.924h-73.017a.924.924 0 0 1-.924-.924v-1.848a.924.924 0 0 1 .924-.924h73.012"/><path fill="#6c63ff" d="M185.084 111.824a1.074 1.074 0 0 0-1.073 1.073v49.845a1.074 1.074 0 0 0 1.073 1.073h71.954a1.074 1.074 0 0 0 1.073-1.073v-49.845a1.074 1.074 0 0 0-1.073-1.073z"/><path fill="#ccc" d="M296.835 73.114c1.955.831 3.9 1.752 5.777 2.738l.5-.95c-1.9-1-3.875-1.934-5.856-2.776zM319.052 85.957l-.716.8a77.358 77.358 0 0 1 4.583 4.454l.779-.738a77.013 77.013 0 0 0-4.646-4.516zM308.147 79.054a78.176 78.176 0 0 1 5.252 3.642l.648-.856a78.275 78.275 0 0 0-5.326-3.692zM284.716 69.09c2.065.5 4.131 1.1 6.141 1.766l.338-1.018a80.195 80.195 0 0 0-6.225-1.79zM343.585 130.494l-1.059.17c.335 2.09.584 4.225.739 6.344l1.07-.079a75.251 75.251 0 0 0-.75-6.435zM339.417 118.288c.694 2 1.307 4.063 1.824 6.121l1.04-.261a74.777 74.777 0 0 0-1.85-6.21zM334.221 106.634a75.11 75.11 0 0 1 2.85 5.716l.98-.437a76.194 76.194 0 0 0-2.891-5.8zM327.116 96.029a75.038 75.038 0 0 1 3.778 5.153l.892-.6a78.03 78.03 0 0 0-3.831-5.225zM275.067 61.598a32.4 32.4 0 0 1-9.393 4.678 32.427 32.427 0 0 1 8.928 5.515l-1.44-4.63c1.77.164 3.543.385 5.286.664l.17-1.059a81.571 81.571 0 0 0-5.411-.678zM104.248 111.909l.98.437a74.903 74.903 0 0 1 2.85-5.715l-.939-.519a81.057 81.057 0 0 0-2.891 5.797zM100.023 124.148l1.04.261a73.436 73.436 0 0 1 1.824-6.121l-1.014-.351a74.831 74.831 0 0 0-1.85 6.211zM97.969 136.93l1.07.079c.155-2.119.4-4.253.739-6.344l-1.059-.17a75.251 75.251 0 0 0-.75 6.435zM110.519 100.584l.891.6a76.372 76.372 0 0 1 3.778-5.153l-.838-.67a76.864 76.864 0 0 0-3.831 5.223zM139.192 74.903l.5.95a78.719 78.719 0 0 1 5.777-2.738l-.42-.988a80.494 80.494 0 0 0-5.857 2.776zM151.108 69.838l.338 1.018a78.94 78.94 0 0 1 6.142-1.766l-.255-1.043a80.328 80.328 0 0 0-6.225 1.791zM118.606 90.472l.779.738c1.458-1.539 3-3.037 4.583-4.453l-.715-.8a76.437 76.437 0 0 0-4.647 4.515zM128.257 81.839l.647.856a78.083 78.083 0 0 1 5.253-3.642l-.575-.906a79.234 79.234 0 0 0-5.325 3.692zM176.626 66.277a32.423 32.423 0 0 1-9.394-4.679l1.86 4.491a81.458 81.458 0 0 0-5.41.678l.17 1.059c1.742-.279 3.515-.5 5.285-.664l-1.44 4.629a32.373 32.373 0 0 1 8.929-5.514z"/><path fill="#6c63ff" d="M221.066 82.907a16.63 16.63 0 1 1 16.63-16.63 16.63 16.63 0 0 1-16.63 16.63zm0-32.187a15.557 15.557 0 1 0 15.557 15.557 15.557 15.557 0 0 0-15.557-15.557z"/><path fill="#6c63ff" d="M219.457 58.23h3.219v16.094h-3.219z"/><path fill="#6c63ff" d="M229.113 64.668v3.219h-16.094v-3.219z"/></g></svg>