<svg xmlns="http://www.w3.org/2000/svg" viewBox="0 0 64 64"><g xmlns="http://www.w3.org/2000/svg" fill="#00196d"><circle cx="38" cy="8" r="5" data-original="#000000"/><path d="M6 47c-.552 0-1 .449-1 1v8c0 .551.448 1 1 1h13v-9c0-.551-.448-1-1-1zm6 8c-1.654 0-3-1.346-3-3s1.346-3 3-3 3 1.346 3 3-1.346 3-3 3z" data-original="#000000"/><circle cx="18" cy="36" r="5" data-original="#000000"/><circle cx="48" cy="36" r="5" data-original="#000000"/><path d="M36 47c-.552 0-1 .449-1 1v8c0 .551.448 1 1 1h13v-9c0-.551-.448-1-1-1zm6 8c-1.654 0-3-1.346-3-3s1.346-3 3-3 3 1.346 3 3-1.346 3-3 3z" data-original="#000000"/><circle cx="42" cy="52" r="1" data-original="#000000"/><path d="M51 57h3c.552 0 1-.449 1-1v-1h-4z" data-original="#000000"/><circle cx="12" cy="52" r="1" data-original="#000000"/><path d="M56.816 57h2.126v-3c0-6.065-4.935-11-11-11-2.275 0-4.473.716-6.308 2H48c1.654 0 3 1.346 3 3v5h6v3c0 .352-.072.686-.184 1zm-30 0H29v-3c0-6.065-4.935-11-11-11-2.275 0-4.473.716-6.307 2H18c1.654 0 3 1.346 3 3v5h6v3c0 .352-.072.686-.184 1z" data-original="#000000"/><path d="M21 57h3c.552 0 1-.449 1-1v-1h-4zm24-29v-1h-4v2h3c.552 0 1-.449 1-1zm6 31H3v2h58v-2h-7zM13.111 31H3v2h8.685a7.016 7.016 0 0 1 1.426-2zm39.778 0a7.013 7.013 0 0 1 1.425 2H61v-2zm-11.204 2a7.033 7.033 0 0 1 1.425-2H22.889a7.013 7.013 0 0 1 1.425 2z" data-original="#000000"/><circle cx="32" cy="24" r="1" data-original="#000000"/><path d="M41 20v5h6v3c0 .352-.072.686-.184 1H49v-3c0-6.065-4.935-11-11-11-2.275 0-4.473.716-6.308 2H38c1.654 0 3 1.346 3 3z" data-original="#000000"/><path d="M26 29h13v-9c0-.551-.448-1-1-1H26c-.552 0-1 .449-1 1v8c0 .551.448 1 1 1zm6-8c1.654 0 3 1.346 3 3s-1.346 3-3 3-3-1.346-3-3 1.346-3 3-3zm-19.284-2.004l4.397 2.639c.399.239.856.365 1.321.365C19.849 22 21 20.849 21 19.37c0-.396-.094-.792-.271-1.147l-1.084-2.167A9.017 9.017 0 0 0 22 10a8.974 8.974 0 0 0-3.278-6.947c-2.082-1.717-4.821-2.4-7.517-1.878-3.521.684-6.347 3.509-7.03 7.029-.523 2.695.161 5.435 1.878 7.518a8.974 8.974 0 0 0 6.663 3.274zM16 9h2v2h-2zm-4 0h2v2h-2zM8 9h2v2H8z" data-original="#000000"/></g></svg>