<svg xmlns="http://www.w3.org/2000/svg" viewBox="0 0 446.458 337.085"><g><path fill="#3f3d56" d="M205.886 71.911H95.75a2.042 2.042 0 0 1-2.04-2.04v-27.32a2.042 2.042 0 0 1 2.04-2.04h110.136a2.042 2.042 0 0 1 2.04 2.04v27.32a2.042 2.042 0 0 1-2.04 2.04zM95.75 41.328a1.225 1.225 0 0 0-1.224 1.224v27.32a1.225 1.225 0 0 0 1.224 1.224h110.136a1.225 1.225 0 0 0 1.224-1.224v-27.32a1.225 1.225 0 0 0-1.224-1.224z"/><circle cx="8.308" cy="8.308" r="8.308" fill="#6c63ff" transform="translate(104.555 46.855)"/><path fill="#e6e6e6" d="M132.051 49.624a1.385 1.385 0 1 0 0 2.769h65.278a1.385 1.385 0 1 0 0-2.769zM132.051 57.932a1.385 1.385 0 1 0 0 2.769h28.089a1.385 1.385 0 1 0 0-2.769z"/><path fill="#3f3d56" d="M158.072 169.295h-48.95a2.042 2.042 0 0 1-2.04-2.04v-50.979a2.042 2.042 0 0 1 2.04-2.04h48.949a2.042 2.042 0 0 1 2.04 2.04v50.979a2.042 2.042 0 0 1-2.039 2.04zm-48.949-54.242a1.225 1.225 0 0 0-1.224 1.224v50.979a1.225 1.225 0 0 0 1.224 1.224h48.949a1.225 1.225 0 0 0 1.224-1.224v-50.98a1.225 1.225 0 0 0-1.224-1.224z"/><path fill="#e6e6e6" d="M119.548 124.749a1.385 1.385 0 0 0 0 2.769h28.089a1.385 1.385 0 0 0 0-2.769zM119.548 132.907a1.385 1.385 0 0 0 0 2.769h28.089a1.385 1.385 0 1 0 0-2.769z"/><path fill="#6c63ff" d="M133.598 158.782a8.716 8.716 0 1 1 8.716-8.716 8.716 8.716 0 0 1-8.716 8.716z"/><path fill="#3f3d56" d="M238.259 0h48.95a2.042 2.042 0 0 1 2.04 2.04v50.979a2.042 2.042 0 0 1-2.039 2.04h-48.951a2.042 2.042 0 0 1-2.04-2.04V2.04a2.042 2.042 0 0 1 2.04-2.04zm48.949 54.242a1.225 1.225 0 0 0 1.224-1.224V2.04a1.225 1.225 0 0 0-1.224-1.224h-48.949a1.225 1.225 0 0 0-1.224 1.224v50.979a1.225 1.225 0 0 0 1.224 1.224z"/><path fill="#e6e6e6" d="M276.779 44.545a1.385 1.385 0 0 0 0-2.769H248.69a1.385 1.385 0 1 0 0 2.769zM276.779 36.387a1.385 1.385 0 0 0 0-2.769H248.69a1.385 1.385 0 1 0 0 2.769z"/><path fill="#6c63ff" d="M262.734 10.513a8.716 8.716 0 1 1-8.716 8.716 8.716 8.716 0 0 1 8.716-8.716z"/><path fill="#3f3d56" d="M94.343 105.467a69.778 69.778 0 0 1 29.541-13.354 68.77 68.77 0 0 1 32.6 1.675 69.55 69.55 0 0 1 15.214 6.592 88.533 88.533 0 0 1 13.535 10.085c4.3 3.767 8.456 7.7 12.944 11.249a72.515 72.515 0 0 0 45.118 15.872q2.032 0 4.062-.112c.734-.04.738-1.187 0-1.146a71.346 71.346 0 0 1-46.64-14.094c-4.651-3.478-8.9-7.455-13.233-11.308a102.357 102.357 0 0 0-13.288-10.372 70.2 70.2 0 0 0-77.5 1.767 72.723 72.723 0 0 0-3.161 2.335c-.581.453.235 1.258.81.81z"/><circle cx="5.957" cy="5.957" r="5.957" fill="#3f3d56" transform="translate(87.775 99.095)"/><circle cx="5.957" cy="5.957" r="5.957" fill="#3f3d56" transform="translate(309.371 178.182)"/><path fill="#3f3d56" d="M346.53 150.207h-97.191a2.042 2.042 0 0 1-2.04-2.04V97.596a2.042 2.042 0 0 1 2.04-2.039h97.191a2.042 2.042 0 0 1 2.04 2.04v50.57a2.042 2.042 0 0 1-2.04 2.04zm-97.193-53.834a1.225 1.225 0 0 0-1.224 1.224v50.571a1.225 1.225 0 0 0 1.224 1.224h97.193a1.225 1.225 0 0 0 1.224-1.224V97.597a1.225 1.225 0 0 0-1.224-1.224z"/><circle cx="8.308" cy="8.308" r="8.308" fill="#6c63ff" transform="translate(257.328 105.163)"/><path fill="#e6e6e6" d="M284.824 107.932a1.385 1.385 0 1 0 0 2.769h52.335a1.385 1.385 0 1 0 0-2.769zM284.824 116.241a1.385 1.385 0 1 0 0 2.769h28.089a1.385 1.385 0 1 0 0-2.769zM259.264 129.523c-1.053 0-1.91.621-1.91 1.385s.857 1.385 1.91 1.385h77.12c1.053 0 1.91-.621 1.91-1.385s-.857-1.385-1.91-1.385zM259.264 137.831c-1.053 0-1.91.621-1.91 1.385s.857 1.385 1.91 1.385h77.12c1.053 0 1.91-.621 1.91-1.385s-.857-1.385-1.91-1.385z"/><path fill="#3f3d56" d="M241.526 189.685c5.483-2.379 11.605-.3 16.773 1.887 2.662 1.129 5.3 2.334 8.05 3.226a45.9 45.9 0 0 0 7.1 1.682 50.156 50.156 0 0 0 14.579.089 50.9 50.9 0 0 0 14.07-4.091 47.578 47.578 0 0 0 12.177-7.961q.692-.625 1.357-1.279c.528-.517-.283-1.327-.811-.811a46.224 46.224 0 0 1-11.879 8.386 49.761 49.761 0 0 1-13.8 4.434 48.739 48.739 0 0 1-14.543.251 45.793 45.793 0 0 1-7.121-1.548 75.339 75.339 0 0 1-7.859-3.052c-5.216-2.24-11.012-4.434-16.744-2.889a13.981 13.981 0 0 0-1.923.687c-.675.293-.092 1.281.578.99z"/><path fill="#6c63ff" d="M239.408 203.741h-45.919l10.806-18.717a2.207 2.207 0 0 1 3.822 0l4.616 8 7.85-13.6a2.763 2.763 0 0 1 4.786 0z"/><path fill="#3f3d56" d="M239.451 203.736h-48.95a2.042 2.042 0 0 1-2.04-2.04v-27.32a2.042 2.042 0 0 1 2.04-2.04h48.949a2.042 2.042 0 0 1 2.039 2.04v27.32a2.042 2.042 0 0 1-2.038 2.04zm-48.949-30.583a1.225 1.225 0 0 0-1.224 1.224v27.32a1.225 1.225 0 0 0 1.224 1.224h48.949a1.225 1.225 0 0 0 1.224-1.224v-27.32a1.225 1.225 0 0 0-1.224-1.224z"/><path fill="#ffb8b8" d="M335.457 179.692l-8.725 4.431c-3.114 1.581-6.12 1.311-7.271-1.987a5.769 5.769 0 0 1 4.388-7.573l8.292-1.548 35.516-11.783 21.514-15.255 7.886 12.565-24.858 13.414zM376.189 326.757l-6.676-1.113.742-12.609h7.047zM440.979 314.445l-6.461 2.016-5.021-11.59 6.29-3.176z"/><path fill="#2f2e41" d="M437.381 303.392l-8.159 3.338-38.94-51.18-12.239 60.08-8.159-1.483c-5.234-51.8-9.5-104.629-4.265-129.617l30.225-1.3 13.723 43.764 6.676 29.669zM375.822 336.952a5.858 5.858 0 0 1-3.631-.386l-3.966-1.784c-3.325-.171-5.589.492-7.441-1.924a4.852 4.852 0 0 1-.566-4.891 4.885 4.885 0 0 1 3.99-2.9l5.447-3.432.286 2.573c2.489 1.41 5.445.8 8.577-.572l1.71 5.983a5.858 5.858 0 0 1-4.405 7.337zM443.62 324.681a5.858 5.858 0 0 1-3.56.814l-4.33-.4c-3.2.918-5.127 2.28-7.662.6a4.852 4.852 0 0 1-2.124-4.442 4.885 4.885 0 0 1 2.831-4.041l4.037-5.015 1.106 2.341c2.812.526 5.41-1.01 7.926-3.326l3.56 5.1a5.857 5.857 0 0 1-1.784 8.37z"/><circle cx="13.351" cy="13.351" r="13.351" fill="#ffb8b8" transform="translate(371.367 103.868)"/><path fill="#ffb8b8" d="M401.041 145.404l-17.431-3.709-2.225-14.464 12.238-2.6z"/><path fill="#6c63ff" d="M396.216 185.087h-31.153l7.022-17.63c-.51-6.066 2.061-10.528 5.74-14.412l4.668-11.72c7.543-4.964 13.229-4.593 19.285 1.854 7.178 10.165 2.211 25.446-5.562 41.908z"/><path fill="#ffb8b8" d="M382.123 222.544l-.886 9.745c-.316 3.478-2.143 5.88-5.548 5.1a5.769 5.769 0 0 1-4.081-7.743l3.1-7.846 8.9-36.345-1.484-26.331h14.835l-1.854 28.186z"/><path fill="#6c63ff" d="M398.07 159.868h-17.06l1.2-11.129a7.72 7.72 0 0 1 7.328-7.4 7.72 7.72 0 0 1 8.1 7.408z"/><circle cx="5.018" cy="5.018" r="5.018" fill="#2f2e41" transform="translate(396.224 93.454)"/><path fill="#2f2e41" d="M396.071 97.244a5.014 5.014 0 0 1 5.016-4.69c-.1-.013-.206-.029-.312-.036a5.018 5.018 0 0 0-.644 10.016c.106.007.21 0 .314 0a5.014 5.014 0 0 1-4.374-5.29z"/><path fill="#2f2e41" d="M396.043 99.389c-4.475-3.713-17.312 1.006-18.141 3.5-6.052.825-10.634 4.356-10.634 10.634 3.6 1.474 7.69 1.292 12.114 0 7.052 5.747 7.535 12.971 3.247 21.269l5.276.105 6.54-9.558.313 9.7 12.094-.243v-13.897a29.049 29.049 0 0 0-3.1-13.308c-1.887-3.662-4.812-5.802-7.709-8.202z"/><ellipse cx="2.4" cy="3.36" fill="#ffb8b8" rx="2.4" ry="3.36" transform="translate(382.382 117.216)"/><path fill="#ffb9b9" d="M82.834 124.837s1.445-25 8.944-19.322-3.275 21.641-3.275 21.641zM54.933 199.005s16.659 18.7 7.338 19.987-12.991-17.618-12.991-17.618z"/><path fill="#575a89" d="M33.194 110.481a10.971 10.971 0 0 1 8.072 9.083l5.3 37.716 7.429 30.086s3.714 3.343 2.229 5.2 1.857 9.657 1.857 9.657l-9.286 2.971s-1.114-7.8-2.971-8.171c-1.632-.326-19.9-49.133-24.306-60.957l-.951-2.557s.742-24.885 12.627-23.028z"/><path fill="#ffb9b9" d="M34.887 307.166l5.7 10.107c4.417 9.43.492 11.143-10.338 6.469l-2.462-11.935z"/><path fill="#2f2e41" d="M37.769 320.599s2.707-4.408 3.687-3.67 5.018 3.935 5.018 3.935l5.261 5.039s17.775 1.879 6.48 8.107-17.537 1.064-17.537 1.064-15.82.823-15.564-3.591 5.357-11.4 5.357-11.4 6.43 4.316 7.298.516zM9.581 192.918l5.347 64.7s.178 38.677 5.882 46.163 5.882 11.229 5.882 11.229l11.763-6.06s-6.06-10.1-4.812-11.644a8.616 8.616 0 0 0 1.6-3.328l-3.208-39.925 6.06-69.512z"/><path fill="#ffb9b9" d="M24.196 307.167l-4.991 13.189-11.318-4.732 5.971-9.884z"/><path fill="#2f2e41" d="M15.871 315.913s4.245-2.653 4.775-1.592 2.653 5.571 2.653 5.571l2.388 6.632s14.592 9.286 2.122 9.816-15.653-6.632-15.653-6.632-14.061-6.1-11.939-9.816 9.551-7.566 9.551-7.566 3.715 6.506 6.103 3.587zM54.853 193.096l2.852 59.53s-26.022 53.827-28.874 55.253a7.159 7.159 0 0 0-3.565 4.273l-15.685-3.921 7.129-11.407 15.685-38.142a6.289 6.289 0 0 0 3.208-4.63c.713-3.565 2.139-3.565-1.426-4.278a4.428 4.428 0 0 1-3.565-4.278l-11.764-54.183z"/><circle cx="14.259" cy="14.259" r="14.259" fill="#ffb9b9" transform="rotate(-80.783 69.972 33.536)"/><path fill="#ffb9b9" d="M29.365 86.334s-1.069 18.18-2.5 19.962 14.972 1.426 14.972 1.426-1.069-15.328 0-16.754-12.472-4.634-12.472-4.634z"/><path fill="#575a89" d="M55.925 197.017s-40.281-3.564-47.765 0c0 0 2.755-10.22 2.043-11.288-.518-.781.911-29.894.462-46.688-.254-9.476-2.441-18.731 3.915-25.766a19.786 19.786 0 0 1 7.123-5.376s-.712-6.772 2.852-7.128c0 0 13.549-1.428 18.537 2.852 1.595 1.359 2.6 5.5 2.7 9.069-2.468 12.139-1.595 25.609.67 39.583.139.888.291 1.78.444 2.672 2.405 13.859 6.038 28.147 9.019 42.07z"/><path fill="#2f2e41" d="M34.571 89.644a18.983 18.983 0 0 1 3.581.495 9.063 9.063 0 0 0 9.687-6.757 5.184 5.184 0 0 1 .5-1.614c.659-1.077 2.161-1.282 3.4-1.034a26.244 26.244 0 0 0 3.672.893 5.623 5.623 0 0 0 4.853-2.747 9.314 9.314 0 0 0 1.191-5.625l-.933.979a4.74 4.74 0 0 1-.423-2.576 2.989 2.989 0 0 0-2.831.724c-.823.088-.2-1.526-.813-2.084a1.414 1.414 0 0 0-.995-.186c-1.75.017-3.167-1.322-4.546-2.4a19.317 19.317 0 0 0-8.159-3.721 10.734 10.734 0 0 0-5.953.289 12.716 12.716 0 0 0-4.02 2.852 24.542 24.542 0 0 0-6.755 10.022 16.871 16.871 0 0 0-.081 9.783c.492 1.66 1.975 7.347 4.145 7.479 2.723.166 1.085-4.569 4.48-4.772z"/><path fill="#575a89" d="M40.473 112.231l5.108.547s5.015 9.729 4.651 11.758-1.157.8 1.1 4.044 8.662 11.639 9.455 12.871 22.414-15.264 21.07-20.207c0 0 6.829 4.9 9.754 5.551 0 0-22.282 29.223-25.387 32.963s-5.6 2.972-9.871.754-25.855-24.335-25.855-24.335z"/><path d="M46.907 154.948l-17.755-17.755 4.493-1.465 12.818 16.549c.138.886.292 1.778.444 2.671z" opacity=".1"/></g></svg>