<svg id="Capa_1" enable-background="new 0 0 512 512" height="512" viewBox="0 0 512 512" width="512" xmlns="http://www.w3.org/2000/svg"><g><path d="m254.979.029c-.011-.011-.018-.018-.029-.029h-239.95c-8.284 0-15 6.716-15 15v482c0 8.284 6.716 15 15 15h360c8.284 0 15-6.716 15-15v-361.5l-88.968-49.447z" fill="#eef9ff"/><path d="m390 135.5v361.5c0 8.28-6.72 15-15 15h-180v-512h59.95c.01.01.02.02.03.03l46.05 86.02z" fill="#c4eaf5"/><path d="m254.979.001.063 120.506c.004 8.281 6.719 14.992 15 14.992h119.958z" fill="#98cee6"/><g><g fill="#c4eaf5"><path d="m59.975 210h105.075c8.284 0 15-6.716 15-15s-6.716-15-15-15h-105.075c-8.284 0-15 6.716-15 15s6.715 15 15 15z"/><path d="m165 241h-105.075c-8.284 0-15 6.716-15 15s6.716 15 15 15h105.075c8.284 0 15-6.716 15-15s-6.716-15-15-15z"/><path d="m164.95 301h-104.975c-8.284 0-15 6.716-15 15s6.716 15 15 15h104.975c8.284 0 15-6.716 15-15s-6.716-15-15-15z"/><path d="m164.95 360h-104.975c-8.284 0-15 6.716-15 15s6.716 15 15 15h104.975c8.284 0 15-6.716 15-15s-6.716-15-15-15z"/><path d="m164.95 419h-104.975c-8.284 0-15 6.716-15 15s6.716 15 15 15h104.975c8.284 0 15-6.716 15-15s-6.716-15-15-15z"/></g></g><path d="m443.29 261.32-132.8 80.32c-1.67-10.46-7.41-19.57-15.54-25.66l132.61-80.2c1.75 10.44 7.55 19.51 15.73 25.54z" fill="#3187ce"/><path d="m443.16 434.9c-8.15 6.06-13.92 15.15-15.63 25.6l-132.62-80.45c8.13-6.08 13.89-15.19 15.57-25.64z" fill="#3187ce"/><g fill="#5ca7e5"><circle cx="271" cy="348" r="45"/><circle cx="467" cy="467" r="45"/><circle cx="467" cy="229.129" r="45"/></g></g></svg>