<svg xmlns="http://www.w3.org/2000/svg" viewBox="0 0 512 512"><g xmlns="http://www.w3.org/2000/svg" fill="#959595"><path d="M214.139 201.43c8.284 0 15-6.716 15-15 0-53.172 43.259-96.43 96.431-96.43 8.284 0 15-6.716 15-15s-6.716-15-15-15c-69.714 0-126.431 56.716-126.431 126.43 0 8.284 6.716 15 15 15z" data-original="#000000"/><path d="M46.819 507.606c5.857 5.858 15.355 5.859 21.213 0l117.932-117.933c5.858-5.858 5.858-15.355 0-21.213l-10.602-10.602 29.423-29.428c33.686 28.64 76.025 44.43 120.79 44.43C428.37 372.86 512 289.226 512 186.425 511.999 83.63 428.369 0 325.574 0c-102.8 0-186.435 83.63-186.435 186.425 0 44.875 15.863 87.189 44.433 120.792l-29.422 29.428-10.611-10.611c-5.854-5.855-15.357-5.857-21.213 0L4.393 443.967c-5.854 5.853-5.858 15.356 0 21.213zm122.32-321.181C169.139 100.172 239.316 30 325.574 30c86.253 0 156.425 70.172 156.425 156.425 0 86.259-70.172 156.435-156.425 156.435-86.258 0-156.435-69.907-156.435-156.435zm-36.207 171.429l21.213 21.213-96.719 96.719-21.214-21.213z" data-original="#000000"/></g></svg>