<svg xmlns="http://www.w3.org/2000/svg" viewBox="0 0 347.637 262.473"><g><path fill="#3f3d56" d="M160.315 55.994H74.557a1.59 1.59 0 0 1-1.588-1.588V33.133a1.59 1.59 0 0 1 1.588-1.588h85.758a1.59 1.59 0 0 1 1.588 1.588v21.273a1.59 1.59 0 0 1-1.588 1.588zM74.557 32.18a.954.954 0 0 0-.953.953v21.273a.954.954 0 0 0 .953.953h85.758a.954.954 0 0 0 .953-.953V33.133a.954.954 0 0 0-.953-.953z"/><circle cx="6.469" cy="6.469" r="6.469" fill="#6c63ff" transform="translate(81.412 36.484)"/><path fill="#e6e6e6" d="M102.823 38.64a1.078 1.078 0 0 0 0 2.156h50.829a1.078 1.078 0 0 0 0-2.156zM102.822 45.109a1.078 1.078 0 0 0 0 2.156h21.872a1.078 1.078 0 1 0 0-2.156z"/><path fill="#3f3d56" d="M123.084 131.822H84.969a1.59 1.59 0 0 1-1.588-1.588V90.539a1.59 1.59 0 0 1 1.588-1.588h38.115a1.59 1.59 0 0 1 1.588 1.588v39.691a1.59 1.59 0 0 1-1.588 1.592zM84.969 89.586a.954.954 0 0 0-.953.953v39.7a.954.954 0 0 0 .953.953h38.115a.954.954 0 0 0 .953-.953v-39.7a.954.954 0 0 0-.953-.953z"/><path fill="#e6e6e6" d="M93.092 97.137a1.078 1.078 0 0 0 0 2.156h21.872a1.078 1.078 0 0 0 0-2.156zM93.092 103.489a1.078 1.078 0 0 0 0 2.156h21.872a1.078 1.078 0 1 0 0-2.156z"/><path fill="#6c63ff" d="M104.027 123.636a6.787 6.787 0 1 1 6.787-6.787 6.787 6.787 0 0 1-6.787 6.787z"/><path fill="#3f3d56" d="M185.522 0h38.111a1.59 1.59 0 0 1 1.588 1.588v39.7a1.59 1.59 0 0 1-1.588 1.588h-38.111a1.59 1.59 0 0 1-1.588-1.588v-39.7A1.59 1.59 0 0 1 185.522 0zm38.111 42.236a.954.954 0 0 0 .953-.953V1.588a.954.954 0 0 0-.953-.953h-38.111a.954.954 0 0 0-.953.953v39.7a.954.954 0 0 0 .953.953z"/><path fill="#e6e6e6" d="M215.515 34.685a1.078 1.078 0 1 0 0-2.156h-21.871a1.078 1.078 0 1 0 0 2.156zM215.515 28.333a1.078 1.078 0 0 0 0-2.156h-21.871a1.078 1.078 0 0 0 0 2.156z"/><path fill="#6c63ff" d="M204.58 8.186a6.787 6.787 0 1 1-6.787 6.787 6.787 6.787 0 0 1 6.787-6.787z"/><path fill="#3f3d56" d="M73.458 82.123a54.333 54.333 0 0 1 23-10.4 53.548 53.548 0 0 1 25.386 1.3 54.156 54.156 0 0 1 11.846 5.133 68.937 68.937 0 0 1 10.539 7.853c3.347 2.934 6.584 6 10.079 8.759a56.464 56.464 0 0 0 35.133 12.365q1.583 0 3.163-.087c.571-.031.575-.924 0-.892a55.554 55.554 0 0 1-36.319-10.975c-3.622-2.708-6.928-5.8-10.3-8.805a79.7 79.7 0 0 0-10.347-8.076 54.66 54.66 0 0 0-60.353 1.375 57.399 57.399 0 0 0-2.462 1.818c-.453.352.183.98.631.631z"/><circle cx="4.638" cy="4.638" r="4.638" fill="#3f3d56" transform="translate(68.346 77.161)"/><circle cx="4.638" cy="4.638" r="4.638" fill="#3f3d56" transform="translate(240.893 138.742)"/><path fill="#3f3d56" d="M269.829 116.959h-75.68a1.59 1.59 0 0 1-1.588-1.588V75.996a1.59 1.59 0 0 1 1.588-1.588h75.68a1.59 1.59 0 0 1 1.588 1.588v39.377a1.59 1.59 0 0 1-1.588 1.586zm-75.68-41.918a.954.954 0 0 0-.953.953v39.377a.954.954 0 0 0 .953.953h75.68a.954.954 0 0 0 .953-.953V75.996a.954.954 0 0 0-.953-.953z"/><circle cx="6.469" cy="6.469" r="6.469" fill="#6c63ff" transform="translate(200.37 81.886)"/><path fill="#e6e6e6" d="M221.78 84.042a1.078 1.078 0 1 0 0 2.156h40.751a1.078 1.078 0 1 0 0-2.156zM221.78 90.511a1.078 1.078 0 0 0 0 2.156h21.871a1.078 1.078 0 1 0 0-2.156zM201.877 100.854c-.82 0-1.488.484-1.488 1.078s.667 1.078 1.488 1.078h60.05c.82 0 1.488-.484 1.488-1.078s-.667-1.078-1.488-1.078zM201.877 107.323c-.82 0-1.488.484-1.488 1.078s.667 1.078 1.488 1.078h60.05c.82 0 1.488-.484 1.488-1.078s-.667-1.078-1.488-1.078z"/><path fill="#3f3d56" d="M188.066 147.697c4.27-1.852 9.036-.237 13.061 1.47 2.073.879 4.123 1.818 6.268 2.512a35.733 35.733 0 0 0 5.526 1.31 39.053 39.053 0 0 0 11.352.069 39.637 39.637 0 0 0 10.956-3.186 37.047 37.047 0 0 0 9.482-6.2q.539-.487 1.057-1c.411-.4-.22-1.034-.631-.631a35.994 35.994 0 0 1-9.25 6.53 38.747 38.747 0 0 1-10.747 3.452 37.95 37.95 0 0 1-11.324.2 35.655 35.655 0 0 1-5.545-1.205 58.659 58.659 0 0 1-6.12-2.377c-4.062-1.744-8.575-3.453-13.038-2.25a10.88 10.88 0 0 0-1.5.535c-.526.228-.072 1 .45.771z"/><path fill="#6c63ff" d="M186.416 158.645h-35.755l8.414-14.574a1.718 1.718 0 0 1 2.976 0l3.594 6.226 6.112-10.586a2.151 2.151 0 0 1 3.726 0z"/><path fill="#3f3d56" d="M186.45 158.64h-38.115a1.59 1.59 0 0 1-1.588-1.588v-21.27a1.59 1.59 0 0 1 1.588-1.588h38.115a1.59 1.59 0 0 1 1.588 1.588v21.27a1.59 1.59 0 0 1-1.588 1.588zm-38.115-23.814a.954.954 0 0 0-.953.953v21.273a.954.954 0 0 0 .953.953h38.115a.954.954 0 0 0 .953-.953v-21.27a.954.954 0 0 0-.953-.953z"/><path fill="#ffb8b8" d="M261.207 139.918l-6.794 3.45c-2.425 1.231-4.765 1.021-5.661-1.547a4.492 4.492 0 0 1 3.417-5.9l6.457-1.205 27.654-9.175 16.752-11.878 6.141 9.783-19.356 10.448zM292.921 254.431l-5.2-.866.578-9.818h5.487zM343.371 244.841l-5.031 1.569-3.909-9.025 4.9-2.473z"/><path fill="#2f2e41" d="M340.567 236.238l-6.353 2.6-30.32-39.851-9.53 46.782-6.353-1.155c-4.075-40.332-7.4-81.47-3.321-100.927l23.535-1.011 10.685 34.075 5.2 23.1zM292.635 262.371a4.561 4.561 0 0 1-2.827-.3l-3.092-1.39c-2.589-.133-4.352.383-5.794-1.5a3.778 3.778 0 0 1-.441-3.809 3.8 3.8 0 0 1 3.107-2.26l4.241-2.672.223 2c1.938 1.1 4.24.624 6.678-.445l1.331 4.659a4.561 4.561 0 0 1-3.43 5.713zM345.428 252.815a4.561 4.561 0 0 1-2.772.634l-3.372-.312c-2.492.715-3.992 1.775-5.966.464a3.778 3.778 0 0 1-1.654-3.459 3.8 3.8 0 0 1 2.2-3.147l3.143-3.9.861 1.823c2.19.409 4.213-.787 6.172-2.59l2.772 3.974a4.561 4.561 0 0 1-1.389 6.517z"/><circle cx="10.396" cy="10.396" r="10.396" fill="#ffb8b8" transform="translate(289.167 80.877)"/><path fill="#ffb8b8" d="M312.269 113.224l-13.573-2.888-1.732-11.262 9.529-2.021z"/><path fill="#6c63ff" d="M308.515 144.121h-24.257l5.468-13.727c-.4-4.723 1.6-8.2 4.47-11.222l3.635-9.126c5.873-3.866 10.3-3.577 15.016 1.444 5.585 7.913 1.721 19.811-4.332 32.631z"/><path fill="#ffb8b8" d="M297.542 173.285l-.69 7.588c-.246 2.708-1.668 4.579-4.32 3.973a4.492 4.492 0 0 1-3.178-6.029l2.412-6.11 6.931-28.3-1.155-20.5h11.551l-1.444 21.947z"/><path fill="#6c63ff" d="M309.96 124.482h-13.284l.931-8.665a6.011 6.011 0 0 1 5.706-5.759 6.011 6.011 0 0 1 6.307 5.768z"/><circle cx="3.908" cy="3.908" r="3.908" fill="#2f2e41" transform="translate(308.522 72.769)"/><path fill="#2f2e41" d="M308.403 75.717a3.9 3.9 0 0 1 3.906-3.652c-.081-.01-.161-.023-.243-.028a3.908 3.908 0 0 0-.5 7.8c.082.005.163 0 .245 0a3.9 3.9 0 0 1-3.408-4.12z"/><path fill="#2f2e41" d="M308.379 77.388c-3.485-2.891-13.48.783-14.125 2.727-4.713.642-8.281 3.392-8.281 8.281 2.8 1.148 5.988 1.006 9.433 0 5.491 4.475 5.867 10.1 2.528 16.561l4.108.082 5.092-7.443.244 7.549 9.417-.189V94.138a22.619 22.619 0 0 0-2.416-10.362c-1.464-2.852-3.741-4.516-6-6.388z"/><ellipse cx="1.869" cy="2.616" fill="#ffb8b8" rx="1.869" ry="2.616" transform="translate(297.743 91.271)"/><path fill="#ffb9b9" d="M64.499 97.206s1.125-19.469 6.964-15.045-2.55 16.851-2.55 16.851zM42.771 154.956s12.971 14.562 5.714 15.563-10.114-13.718-10.114-13.718z"/><path fill="#575a89" d="M25.847 86.026a8.543 8.543 0 0 1 6.286 7.073l4.126 29.368 5.784 23.426s2.892 2.6 1.735 4.049 1.446 7.52 1.446 7.52l-7.23 2.314s-.868-6.073-2.314-6.363c-1.271-.254-15.5-38.258-18.926-47.464-.473-1.269-.74-1.991-.74-1.991s.578-19.378 9.833-17.932z"/><path fill="#ffb9b9" d="M27.167 239.177l4.441 7.87c3.439 7.343.383 8.676-8.049 5.037l-1.923-9.292z"/><path fill="#2f2e41" d="M29.409 249.637s2.108-3.432 2.871-2.858 3.908 3.064 3.908 3.064l4.1 3.924s13.841 1.463 5.046 6.313-13.655.829-13.655.829-12.318.641-12.119-2.8 4.171-8.874 4.171-8.874 5.003 3.36 5.678.402zM7.461 150.217l4.163 50.378s.139 30.116 4.58 35.945 4.58 8.743 4.58 8.743l9.16-4.719s-4.719-7.863-3.747-9.066a6.709 6.709 0 0 0 1.249-2.591l-2.5-31.087 4.719-54.126z"/><path fill="#ffb9b9" d="M18.841 239.177l-3.886 10.27-8.813-3.687 4.649-7.7z"/><path fill="#2f2e41" d="M12.358 245.988s3.305-2.066 3.718-1.239 2.066 4.338 2.066 4.338l1.859 5.164s11.362 7.23 1.653 7.643-12.188-5.164-12.188-5.164-10.949-4.751-9.3-7.643 7.437-5.892 7.437-5.892 2.896 5.065 4.755 2.793zM42.711 150.356l2.221 46.35s-20.262 41.912-22.483 43.023a5.574 5.574 0 0 0-2.776 3.331L7.46 240.006l5.551-8.882 12.213-29.7a4.9 4.9 0 0 0 2.5-3.608c.555-2.776 1.665-2.776-1.11-3.331a3.448 3.448 0 0 1-2.776-3.331l-9.16-42.19z"/><circle cx="11.103" cy="11.103" r="11.103" fill="#ffb9b9" transform="rotate(-80.783 54.484 26.113)"/><path fill="#ffb9b9" d="M22.865 67.224s-.833 14.156-1.943 15.544 11.658 1.11 11.658 1.11-.833-11.935 0-13.046-9.715-3.608-9.715-3.608z"/><path fill="#575a89" d="M43.544 153.409s-31.365-2.775-37.193 0c0 0 2.145-7.958 1.591-8.79-.4-.608.709-23.277.36-36.354-.2-7.379-1.9-14.585 3.049-20.063a15.406 15.406 0 0 1 5.547-4.186s-.554-5.273 2.221-5.55c0 0 10.55-1.112 14.434 2.221 1.242 1.058 2.023 4.283 2.106 7.062-1.922 9.452-1.242 19.941.522 30.822.108.691.227 1.386.346 2.08 1.869 10.791 4.699 21.917 7.017 32.758z"/><path fill="#2f2e41" d="M26.919 69.802a14.783 14.783 0 0 1 2.788.385 7.057 7.057 0 0 0 7.543-5.262 4.037 4.037 0 0 1 .386-1.257 2.49 2.49 0 0 1 2.647-.805 20.435 20.435 0 0 0 2.859.7 4.378 4.378 0 0 0 3.779-2.139 7.252 7.252 0 0 0 .927-4.38l-.727.763a3.691 3.691 0 0 1-.329-2.006 2.328 2.328 0 0 0-2.2.564c-.641.068-.157-1.188-.633-1.623a1.1 1.1 0 0 0-.775-.145c-1.363.013-2.466-1.029-3.54-1.869a15.042 15.042 0 0 0-6.353-2.9 8.358 8.358 0 0 0-4.635.225 9.9 9.9 0 0 0-3.13 2.221 19.11 19.11 0 0 0-5.259 7.8 13.137 13.137 0 0 0-.063 7.617c.383 1.293 1.538 5.721 3.228 5.824 2.119.131.844-3.555 3.487-3.713z"/><path fill="#575a89" d="M31.515 87.389l3.978.426s3.9 7.575 3.621 9.156-.9.621.856 3.149 6.744 9.063 7.362 10.022 17.454-11.886 16.407-15.734c0 0 5.317 3.814 7.6 4.322 0 0-17.35 22.755-19.768 25.667s-4.364 2.314-7.686.587-20.132-18.949-20.132-18.949z"/><path d="M36.524 120.651l-13.825-13.825 3.5-1.141 9.981 12.886c.107.691.225 1.386.344 2.08z" opacity=".1"/></g></svg>