<svg xmlns="http://www.w3.org/2000/svg" width="205.334" height="207.159" viewBox="0 0 205.334 207.159"><g transform="translate(-85.333 -82.299)"><g transform="translate(88.71 82.299)"><path d="M148.774,96.949l12.1-12.1L166.92,90.9l-12.1,12.1Z" transform="translate(-113.987 -83.316)" fill="#26415b"/><path d="M90.946,154.767l12.1-12.1,6.049,6.049-12.1,12.1Z" transform="translate(-90.946 -106.353)" fill="#26415b"/><path d="M90.949,88.348,97,82.3l12.1,12.1-6.049,6.049Z" transform="translate(-90.947 -82.299)" fill="#26415b"/></g><path d="M254.278,190.111a25.583,25.583,0,0,0,25.667,25.667,23.71,23.71,0,0,0,8.555-1.54v31.485a8.559,8.559,0,0,1-8.555,8.555h-48.6a25.215,25.215,0,0,1,.932,14.237c-.8,3.79-6.614,19.986-25.059,19.986a25.633,25.633,0,0,1-25.667-25.667,23.725,23.725,0,0,1,1.54-8.555H138.778a8.558,8.558,0,0,1-8.555-8.555V214.238a23.713,23.713,0,0,1-8.555,1.54,25.667,25.667,0,1,1,0-51.333,23.712,23.712,0,0,1,8.555,1.54V138.778a8.558,8.558,0,0,1,8.555-8.555H183.1a25.215,25.215,0,0,1-.932-14.237c.8-3.79,6.614-19.986,25.059-19.986a25.633,25.633,0,0,1,25.667,25.667,23.725,23.725,0,0,1-1.54,8.555h48.6a8.559,8.559,0,0,1,8.555,8.555v27.207a23.71,23.71,0,0,0-8.555-1.54A25.632,25.632,0,0,0,254.278,190.111Z" transform="translate(-4.25 -5.459)" fill="#fdbf5e"/><path d="M256.875,130.228a25.215,25.215,0,0,1-.933-14.237c.659-3.106,4.817-14.425,16.41-18.446a25.449,25.449,0,0,0-8.462-1.532c-18.446,0-24.263,16.2-25.059,19.986a25.21,25.21,0,0,0,.932,14.237h17.111Z" transform="translate(-60.919 -5.465)" fill="#ecab44"/><path d="M255.333,367.666a23.712,23.712,0,0,1,1.54-8.555H239.762a23.726,23.726,0,0,0-1.54,8.555A25.6,25.6,0,0,0,272.539,391.8,25.562,25.562,0,0,1,255.333,367.666Z" transform="translate(-60.917 -110.292)" fill="#ecab44"/><path d="M147.333,268.389V236.9a23.71,23.71,0,0,1-8.555,1.54,25.667,25.667,0,1,1,0-51.333,23.71,23.71,0,0,1,8.555,1.54V161.444a8.559,8.559,0,0,1,8.556-8.555H138.778a8.558,8.558,0,0,0-8.555,8.555v27.207a23.712,23.712,0,0,0-8.555-1.54,25.667,25.667,0,1,0,0,51.333,23.713,23.713,0,0,0,8.555-1.54v31.485a8.558,8.558,0,0,0,8.555,8.555h17.111A8.559,8.559,0,0,1,147.333,268.389Z" transform="translate(-4.25 -28.126)" fill="#ecab44"/><path d="M202.972,290.667a32.122,32.122,0,0,1-32.083-32.084c0-.718.025-1.429.068-2.139H134.528a14.989,14.989,0,0,1-14.972-14.972v-23.6c-15.819.967-34.222-11.276-34.222-32.015a32.117,32.117,0,0,1,32.084-32.083c.718,0,1.429.026,2.139.069V134.528a14.989,14.989,0,0,1,14.972-14.972h36.421a33.384,33.384,0,0,1,.685-9.155c1.84-8.667,10.746-25.068,31.339-25.068a32.117,32.117,0,0,1,32.083,32.084c0,.718-.025,1.429-.069,2.139h40.708a14.989,14.989,0,0,1,14.972,14.972v27.207a6.42,6.42,0,0,1-8.735,5.989,17.194,17.194,0,0,0-6.237-1.1,19.268,19.268,0,0,0-19.25,19.25,19.066,19.066,0,0,0,19.25,19.25,17.127,17.127,0,0,0,6.237-1.1,6.411,6.411,0,0,1,8.735,5.972v31.485a14.989,14.989,0,0,1-14.972,14.972H235a33.358,33.358,0,0,1-.685,9.155c-1.831,8.667-10.746,25.068-31.339,25.068Zm-77-87.1a6.412,6.412,0,0,1,6.417,6.417v31.485a2.139,2.139,0,0,0,2.139,2.139h44.318a6.42,6.42,0,0,1,5.989,8.735,17.525,17.525,0,0,0-1.1,6.237,19.273,19.273,0,0,0,19.25,19.25c15.451,0,18.754-14.75,18.78-14.9a18.788,18.788,0,0,0-.642-10.592,6.416,6.416,0,0,1,5.989-8.726h48.6a2.14,2.14,0,0,0,2.139-2.139v-23.6c-.71.043-1.42.069-2.139.069a32.083,32.083,0,0,1,0-64.167c.719,0,1.429.026,2.139.069V134.528a2.139,2.139,0,0,0-2.139-2.139h-48.6a6.42,6.42,0,0,1-5.989-8.735,17.194,17.194,0,0,0,1.1-6.237,19.268,19.268,0,0,0-19.25-19.25c-15.451,0-18.754,14.75-18.78,14.9a18.873,18.873,0,0,0,.642,10.592,6.42,6.42,0,0,1-5.989,8.735H134.528a2.139,2.139,0,0,0-2.139,2.139v27.207a6.42,6.42,0,0,1-8.735,5.989,17.019,17.019,0,0,0-6.237-1.112,19.268,19.268,0,0,0-19.25,19.25,19.066,19.066,0,0,0,19.25,19.25,17.127,17.127,0,0,0,6.237-1.1A6.432,6.432,0,0,1,125.972,203.571Z" transform="translate(0 -1.209)" fill="#26415b"/></g></svg>