<svg xmlns="http://www.w3.org/2000/svg" width="190.279" height="184.333" viewBox="0 0 190.279 184.333"><g transform="translate(-85.333 -85.333)"><path d="M274.589,147.534h46.729a15.834,15.834,0,0,1,8.792,2.664L349.9,163.391V103.928A7.931,7.931,0,0,0,341.971,96H274.581a7.932,7.932,0,0,0-7.929,7.928v35.677A7.943,7.943,0,0,0,274.589,147.534Z" transform="translate(-80.241 -4.721)" fill="#fff"/><circle cx="17.839" cy="17.839" r="17.839" transform="translate(111.1 186.419)" fill="#fff"/><path d="M96,393.971V382.079a15.852,15.852,0,0,1,15.856-15.857h43.606a15.852,15.852,0,0,1,15.856,15.857v11.892Z" transform="translate(-4.721 -124.305)" fill="#fdbf5e"/><circle cx="17.839" cy="17.839" r="17.839" transform="translate(214.168 186.419)" fill="#fff"/><path d="M280.889,393.971V382.079a15.852,15.852,0,0,1,15.856-15.857h43.606a15.852,15.852,0,0,1,15.856,15.857v11.892Z" transform="translate(-86.542 -124.305)" fill="#fdbf5e"/><path d="M187.176,175.978H124.589a15.835,15.835,0,0,0-8.792,2.664L96,191.835V132.373a7.932,7.932,0,0,1,7.928-7.929h83.247a7.932,7.932,0,0,1,7.928,7.929V168.05A7.931,7.931,0,0,1,187.176,175.978Z" transform="translate(-4.721 -17.308)" fill="#fdbf5e"/><path d="M111.856,132.373a7.932,7.932,0,0,1,7.929-7.929H103.928A7.932,7.932,0,0,0,96,132.373v59.462l15.856-10.568Z" transform="translate(-4.721 -17.308)" fill="#ecab44"/><path d="M282.523,139.605V103.928A7.931,7.931,0,0,1,290.452,96H274.6a7.931,7.931,0,0,0-7.928,7.928v35.677a7.931,7.931,0,0,0,7.928,7.928h15.856A7.931,7.931,0,0,1,282.523,139.605Z" transform="translate(-80.248 -4.721)" fill="#e4e4e4"/><path d="M389.378,191.108a15.873,15.873,0,0,0-8.793-2.664H364.729a15.833,15.833,0,0,1,8.792,2.664L393.31,204.3V193.733Z" transform="translate(-123.644 -45.631)" fill="#d5dbe1"/><path d="M147.412,284.506a17.779,17.779,0,0,1,9.91-15.9,17.84,17.84,0,1,0,0,31.808A17.788,17.788,0,0,1,147.412,284.506Z" transform="translate(-20.456 -80.248)" fill="#d5dbe1"/><path d="M332.3,284.506a17.779,17.779,0,0,1,9.91-15.9,17.84,17.84,0,1,0,0,31.808A17.788,17.788,0,0,1,332.3,284.506Z" transform="translate(-102.276 -80.248)" fill="#d5dbe1"/><path d="M127.713,366.222H111.856A15.852,15.852,0,0,0,96,382.079v11.892h15.856V382.079A15.852,15.852,0,0,1,127.713,366.222Z" transform="translate(-4.721 -124.305)" fill="#ecab44"/><path d="M312.6,366.222H296.745a15.852,15.852,0,0,0-15.856,15.857v11.892h15.856V382.079A15.852,15.852,0,0,1,312.6,366.222Z" transform="translate(-86.542 -124.305)" fill="#ecab44"/><path d="M345.193,164.616a5.924,5.924,0,0,1-3.3-1l-19.789-13.193a9.839,9.839,0,0,0-5.494-1.665H269.875A13.889,13.889,0,0,1,256,134.885V99.208a13.89,13.89,0,0,1,13.875-13.875h67.391A13.89,13.89,0,0,1,351.14,99.208V158.67a5.95,5.95,0,0,1-5.946,5.946ZM269.875,97.226a1.983,1.983,0,0,0-1.982,1.982v35.677a1.983,1.983,0,0,0,1.982,1.982h46.737A21.725,21.725,0,0,1,328.7,140.53l10.544,7.033V99.208a1.983,1.983,0,0,0-1.982-1.982Z" transform="translate(-75.527)" fill="#26415b"/><path d="M91.279,193.061a5.872,5.872,0,0,1-2.807-.706,5.95,5.95,0,0,1-3.14-5.241V127.653a13.89,13.89,0,0,1,13.875-13.875H158.67V125.67H99.208a2,2,0,0,0-1.982,1.982v48.378L107.81,169a21.328,21.328,0,0,1,12.091-3.687h62.555V177.2H119.9a9.747,9.747,0,0,0-5.446,1.649L94.562,192.07A5.9,5.9,0,0,1,91.279,193.061Z" transform="translate(0 -12.588)" fill="#26415b"/><path d="M144.674,303.57a23.785,23.785,0,1,1,23.784-23.785A23.814,23.814,0,0,1,144.674,303.57Zm0-35.677a11.893,11.893,0,1,0,11.892,11.893A11.907,11.907,0,0,0,144.674,267.892Z" transform="translate(-15.735 -75.527)" fill="#26415b"/><path d="M172.545,389.251H160.652V377.359a9.924,9.924,0,0,0-9.91-9.91H107.136a9.924,9.924,0,0,0-9.91,9.91v11.892H85.333V377.359a21.821,21.821,0,0,1,21.8-21.8h43.606a21.821,21.821,0,0,1,21.8,21.8Z" transform="translate(0 -119.585)" fill="#26415b"/><path d="M329.563,303.57a23.785,23.785,0,1,1,23.785-23.785A23.814,23.814,0,0,1,329.563,303.57Zm0-35.677a11.893,11.893,0,1,0,11.893,11.893A11.907,11.907,0,0,0,329.563,267.892Z" transform="translate(-97.556 -75.527)" fill="#26415b"/><path d="M357.434,389.251H345.541V377.359a9.924,9.924,0,0,0-9.91-9.91H292.025a9.924,9.924,0,0,0-9.91,9.91v11.892H270.222V377.359a21.821,21.821,0,0,1,21.8-21.8h43.606a21.821,21.821,0,0,1,21.8,21.8Z" transform="translate(-81.821 -119.585)" fill="#26415b"/></g></svg>