<svg xmlns="http://www.w3.org/2000/svg" width="257.866" height="161.167" viewBox="0 0 257.866 161.167"><g transform="translate(-28.444 -142.222)"><g transform="translate(66.721 148.266)"><path d="M269.254,152.889a8.061,8.061,0,0,1,8.058,8.058v88.642H96V160.947a8.061,8.061,0,0,1,8.058-8.058Z" transform="translate(-96 -152.889)" fill="#fff"/></g><g transform="translate(66.721 244.966)"><path d="M96,323.556H277.312V343.7a8.061,8.061,0,0,1-8.058,8.058h-165.2A8.061,8.061,0,0,1,96,343.7Z" transform="translate(-96 -323.556)" fill="#fdbf5e"/></g><g transform="translate(131.188 273.169)"><path d="M250.069,373.333s1.974,14.223,11.926,24.175H209.778c10.073-10.073,11.926-24.175,11.926-24.175Z" transform="translate(-209.778 -373.333)" fill="#fdbf5e"/></g><g transform="translate(66.721 148.266)"><path d="M122.189,152.889H104.058A8.061,8.061,0,0,0,96,160.947v88.642h18.131V160.947A8.061,8.061,0,0,1,122.189,152.889Z" transform="translate(-96 -152.889)" fill="#dedede"/></g><g transform="translate(141.261 174.455)"><path d="M233.6,247.46a6.034,6.034,0,0,1-6.043-6.043V205.155a6.036,6.036,0,0,1,8.735-5.407l36.262,18.131a6.04,6.04,0,0,1,.009,10.814L236.3,246.824a6.036,6.036,0,0,1-2.7.636Zm6.044-32.523v16.7l16.705-8.348Z" transform="translate(-227.556 -199.11)" fill="#26415b"/></g><g transform="translate(60.677 142.222)"><path d="M264.631,279.213H99.435a14.118,14.118,0,0,1-14.1-14.1V156.324a14.118,14.118,0,0,1,14.1-14.1h165.2a14.118,14.118,0,0,1,14.1,14.1V265.111A14.118,14.118,0,0,1,264.631,279.213Zm-165.2-124.9a2.015,2.015,0,0,0-2.014,2.014V265.111a2.015,2.015,0,0,0,2.014,2.015h165.2a2.015,2.015,0,0,0,2.014-2.015V156.324a2.015,2.015,0,0,0-2.014-2.014Z" transform="translate(-85.333 -142.222)" fill="#26415b"/></g><g transform="translate(66.721 238.922)"><path d="M96,312.889H277.312v12.087H96Z" transform="translate(-96 -312.889)" fill="#26415b"/></g><g transform="translate(125.147 272.323)"><path d="M257.536,402.9H205.157a6.041,6.041,0,0,1-4.271-10.315c8.429-8.429,10.2-20.589,10.218-20.71l11.975,1.6a54.071,54.071,0,0,1-5.987,17.341h28.382a55.732,55.732,0,0,1-6.012-17.293l11.967-1.684c.024.121,1.8,11.757,9.557,20.057a6.044,6.044,0,0,1-3.449,11.008Z" transform="translate(-199.116 -371.84)" fill="#26415b"/></g><g transform="translate(28.444 291.301)"><path d="M28.444,405.333H286.31v12.088H28.444Z" transform="translate(-28.444 -405.333)" fill="#26415b"/></g></g></svg>