<svg xmlns="http://www.w3.org/2000/svg" width="79.933" height="80" viewBox="0 0 79.933 80"><g transform="translate(-0.213)"><g transform="translate(0.213 36.667)"><path d="M18.546,25.132H1.879A1.667,1.667,0,0,0,.213,26.8v40a1.668,1.668,0,0,0,1.666,1.668H18.546A1.668,1.668,0,0,0,20.213,66.8v-40A1.664,1.664,0,0,0,18.546,25.132Z" transform="translate(-0.213 -25.132)" fill="#3aaed5"/></g><g transform="translate(30.147)"><path d="M39.062,0H22.4A1.667,1.667,0,0,0,20.73,1.666V78.332A1.667,1.667,0,0,0,22.4,80H39.062a1.668,1.668,0,0,0,1.668-1.668V1.666A1.668,1.668,0,0,0,39.062,0Z" transform="translate(-20.73)" fill="#008cbd"/></g><g transform="translate(60.146 16.666)"><path d="M59.625,11.423H42.958a1.668,1.668,0,0,0-1.666,1.668v60a1.668,1.668,0,0,0,1.666,1.668H59.625a1.668,1.668,0,0,0,1.666-1.668v-60A1.668,1.668,0,0,0,59.625,11.423Z" transform="translate(-41.292 -11.423)" fill="#3aaed5"/></g></g></svg>