<svg xmlns="http://www.w3.org/2000/svg" width="72.402" height="80" viewBox="0 0 72.402 80"><g transform="translate(-24.311)"><path d="M36.33,20.2a2.5,2.5,0,0,1-2.5-2.5V2.5a2.5,2.5,0,1,1,5.009,0V17.7A2.505,2.505,0,0,1,36.33,20.2Z" transform="translate(7.842)" fill="#008cbd"/><path d="M54.245,20.2a2.505,2.505,0,0,1-2.5-2.5V2.5a2.5,2.5,0,1,1,5.009,0V17.7A2.505,2.505,0,0,1,54.245,20.2Z" transform="translate(22.608)" fill="#008cbd"/><path d="M24.311,19.05V53.612A10.7,10.7,0,0,0,35,64.3H86.029A10.7,10.7,0,0,0,96.713,53.612V19.05Z" transform="translate(0 15.702)" fill="#3aaed5"/><path d="M96.713,26.31V14.85A10.7,10.7,0,0,0,86.029,4.166H84.367v10.1a7.514,7.514,0,1,1-15.028,0V4.164H51.685v10.1a7.515,7.515,0,0,1-15.03,0V4.164H35A10.7,10.7,0,0,0,24.311,14.85V26.31Z" transform="translate(0 3.432)" fill="#008cbd"/></g></svg>