<svg xmlns="http://www.w3.org/2000/svg" viewBox="0 0 784.398 733.607"><g><path fill="#ffb8b8" d="M624.745 521.217s97.041 5.017 74.438 35.565-81.995-17.92-81.995-17.92z"/><path fill="#575a89" d="M445.916 230.251l19.752 4.938s11.522 34.566 19.752 65.84 24.69 125.1 24.69 125.1l127.61 89.433-15.221 34.041-170-67-37.857-148.653z"/><path d="M464.5 291.607l-7.362 154.165 15.362 45.835-45-33z" opacity=".2"/><path fill="#2f2e41" d="M491.181 565.214s21.4 57.61 24.69 97.114 6.584 70.778 6.584 70.778H422.049l-19.75-29.627v29.624H285.43s-32.92-106.99-19.752-120.158 138.265-69.132 138.265-69.132z"/><path fill="#3f3d56" d="M101.5 731.607h581v2h-581z"/><circle cx="62.548" cy="62.548" r="62.548" fill="#ffb8b8" transform="translate(302.713 42.607)"/><path fill="#ffb8b8" d="M317.527 131.491l-4.938 72.424 62.548 83.946 31.275-79.009s-27.982-18.106-11.522-55.964z"/><path fill="#575a89" d="M500.23 579.203c0 14.82-41.15 37.86-41.15 37.86v8.23l-16.46 8.23-36.21-72.42-9.87 79s-72.43 11.53-95.47 0-34.57-6.58-67.49-18.1 13.17-166.25 13.17-166.25l-32.92-238.67 71.92-35.96 3.79-1.9 9.89-1.82 15.16-2.8 50.67 34.25 4.08 21.4 2.51 13.17 13.16-14.82 9.94-32.69 70.72 39.28-19.75 158.01s54.31 171.19 54.31 186z"/><path fill="#ffb8b8" d="M258.271 630.231s75.716 60.9 39.5 72.424-55.96-62.552-55.96-62.552z"/><path fill="#575a89" d="M230.289 220.375l-16.46-3.292s-24.69 13.168-26.336 39.5-23.044 210.693-23.044 210.693l69.132 186 55.964-21.4-54.318-174.473 41.15-151.433z"/><circle cx="6" cy="6" r="6" fill="#2f2e41" transform="translate(366.5 258.607)"/><circle cx="6" cy="6" r="6" fill="#2f2e41" transform="translate(366.5 297.607)"/><circle cx="6" cy="6" r="6" fill="#2f2e41" transform="translate(400.5 554.607)"/><path fill="#2f2e41" d="M312.453 41.077l-11.562-4.629s24.175-26.617 57.811-24.3l-9.46-10.415s23.125-9.258 44.147 15.044c11.051 12.775 23.837 27.791 31.808 44.707h12.383l-5.168 11.379 18.087 11.377-18.566-2.044a63.584 63.584 0 0 1 .5 18.875 24.421 24.421 0 0 1-8.943 15.976s-14.339-29.681-14.339-34.31v11.572s-11.562-10.415-11.562-17.358l-6.307 8.1h-42.04l6.307-10.415-24.176 3.467 9.46-12.73-37.434 52.57s-21.429-59.508 9.054-76.866z"/><circle cx="100" cy="100" r="100" fill="#3f3d56" transform="translate(584.398 283.545)"/><circle cx="86" cy="86" r="86" opacity=".1" transform="translate(598.398 297.545)"/><path fill="#6c63ff" d="M680.277 434.293v-12.517c-6.327-.123-12.873-2.355-16.691-5.453l2.618-8.3a26.682 26.682 0 0 0 15.709 5.328c7.746 0 12.982-5.081 12.982-12.145 0-6.816-4.255-11.03-12.328-14.748-11.128-4.957-18-10.658-18-21.44 0-10.287 6.437-18.094 16.473-19.953v-12.52h6.764v12.021a26.543 26.543 0 0 1 14.182 4.337l-2.728 8.18a24.106 24.106 0 0 0-13.745-4.214c-8.4 0-11.564 5.7-11.564 10.658 0 6.444 4.036 9.666 13.528 14.129 11.236 5.2 16.909 11.649 16.909 22.679 0 9.79-6 18.962-17.237 21.068v12.89z"/><path d="M250.005 504.87L290 629.8l-32-130z" opacity=".2"/><path fill="#3f3d56" d="M46.093 260.803H20.707a4.178 4.178 0 0 1-4.173-4.173v-36.494a4.178 4.178 0 0 1 4.173-4.173h25.387a4.178 4.178 0 0 1 4.173 4.173v36.493a4.178 4.178 0 0 1-4.174 4.174zm-25.387-42.84a2.176 2.176 0 0 0-2.173 2.173v36.493a2.176 2.176 0 0 0 2.174 2.174h25.387a2.176 2.176 0 0 0 2.173-2.173v-36.494a2.176 2.176 0 0 0-2.173-2.173zM92.463 260.803H69.537a5.41 5.41 0 0 1-5.4-5.4v-73.7a5.41 5.41 0 0 1 5.4-5.4h22.926a5.41 5.41 0 0 1 5.4 5.4v73.7a5.41 5.41 0 0 1-5.4 5.4zm-22.926-82.507a3.408 3.408 0 0 0-3.4 3.4v73.7a3.408 3.408 0 0 0 3.4 3.4h22.926a3.408 3.408 0 0 0 3.4-3.4v-73.693a3.408 3.408 0 0 0-3.4-3.4zM139.178 260.803h-21.155a6.3 6.3 0 0 1-6.289-6.289V146.092a6.3 6.3 0 0 1 6.289-6.289h21.155a6.3 6.3 0 0 1 6.289 6.289v108.422a6.3 6.3 0 0 1-6.289 6.289zm-21.155-119a4.294 4.294 0 0 0-4.289 4.289v108.422a4.294 4.294 0 0 0 4.289 4.289h21.155a4.294 4.294 0 0 0 4.289-4.289V146.092a4.294 4.294 0 0 0-4.289-4.289z"/><path fill="#6c63ff" d="M23.88 222.913h19.04v30.94H23.88zM71.48 183.643h19.04v70.21H71.48zM119.08 147.15h19.04v106.703h-19.04z"/><path fill="#3f3d56" d="M722.999 145.803h-133a1 1 0 0 1-1-1v-135a1 1 0 0 1 2 0v134h132a1 1 0 0 1 0 2zM158.999 274.803h-158a1 1 0 0 1-1-1v-157a1 1 0 0 1 2 0v156h157a1 1 0 0 1 0 2z"/><path fill="#3f3d56" d="M635.899 133.27h-25.387a4.178 4.178 0 0 1-4.174-4.173V92.603a4.178 4.178 0 0 1 4.174-4.173h25.387a4.178 4.178 0 0 1 4.173 4.173v36.493a4.178 4.178 0 0 1-4.172 4.173zm-25.387-42.84a2.176 2.176 0 0 0-2.174 2.173v36.494a2.176 2.176 0 0 0 2.174 2.173h25.387a2.176 2.176 0 0 0 2.173-2.173V92.603a2.176 2.176 0 0 0-2.173-2.173zM687.888 133.27h-23.366a5.19 5.19 0 0 1-5.184-5.184v-66.1a5.189 5.189 0 0 1 5.184-5.183h23.366a5.189 5.189 0 0 1 5.184 5.184v66.1a5.19 5.19 0 0 1-5.184 5.184zm-23.366-74.467a3.187 3.187 0 0 0-3.184 3.184v66.1a3.187 3.187 0 0 0 3.184 3.184h23.366a3.187 3.187 0 0 0 3.184-3.184v-66.1a3.187 3.187 0 0 0-3.184-3.184z"/><path fill="#6c63ff" d="M613.228 95.727h19.04v30.94h-19.04zM666.685 65.105h19.04v59.864h-19.04z"/><circle cx="9" cy="9" r="9" fill="#6c63ff" transform="translate(614 59.803)"/><circle cx="9" cy="9" r="9" fill="#6c63ff" transform="translate(667 25.803)"/></g></svg>