<svg xmlns="http://www.w3.org/2000/svg" viewBox="0 0 512 512"><g xmlns="http://www.w3.org/2000/svg" fill="#00196d"><path d="M391 421h-90v61h-30v-91h-90v91h-30V301H60v181H30V181H0v331h512v-30H391z" data-original="#000000"/><path d="M278.31 383.881l94.834-9.595-36.167-88.183-27.745 11.367 11.399 27.813L82.72 183.139l-15.44 25.722 237.904 142.14-29.892 3.026zM271 121c0 61.135 45.886 112.542 105 120v-47.763c-17.422-6.213-30-22.707-30-42.237h30c0 8.276 6.724 15 15 15s15-6.724 15-15-6.724-15-15-15c-24.814 0-45-20.186-45-45 0-19.53 12.578-36.024 30-42.237V0c-59.114 7.458-105 59.863-105 121z" data-original="#000000"/><path d="M391 76c-8.276 0-15 6.724-15 15s6.724 15 15 15c24.814 0 45 20.186 45 45 0 19.53-12.578 36.024-30 42.237V241c59.114-7.458 106-58.865 106-120C512 59.863 465.114 7.458 406 0v48.763C423.422 54.976 436 71.47 436 91h-30c0-8.276-6.724-15-15-15z" data-original="#000000"/></g></svg>