<svg xmlns="http://www.w3.org/2000/svg" viewBox="0 0 349 301.19"><circle cx="32.135" cy="32.135" r="32.135" fill="#a0616a" transform="translate(158.363 19.608)"/><path fill="#a0616a" d="M166.513 67.811s6.055 45.642-3.26 50.765 55.422 5.589 55.422 5.589-14.437-39.587-7.917-51.7z"/><path fill="#d0cde1" d="M265.945 124.395l-5.384 24.52-11.384 51.867-.341 2.841-3.929 32.884-2.614 21.842-1.752 14.674c-10.654 5.476-18.376 9.256-18.376 9.256s-.664-3.33-1.735-7.591c-7.477 2.242-21.312 5.961-33.037 6.7 4.269 4.759 6.232 9.229 3.57 12.529-8.032 9.946-41.192-10.89-52.79-18.66a31.393 31.393 0 0 0-.306 5.62l-8.875-6.826.878-15.706 1.481-26.574 1.862-33.326a34.992 34.992 0 0 1-1.473-4.383c-2.718-9.666-6.018-28.969-8.548-45.155a1579.29 1579.29 0 0 1-3.955-26.84l49.132-21.71c3.492 8.1 19.8 10.532 19.8 10.532a54.683 54.683 0 0 0 24.1-8.054z"/><path fill="#a0616a" d="M225.895 272.966s-2.08.712-5.463 1.722c-7.477 2.242-21.312 5.961-33.037 6.7-10.095.647-18.625-.909-20.185-7.495a6.96 6.96 0 0 1 2.347-7.075c6.17-5.72 22.287-7.77 35.069-8.473 3.61-.2 6.948-.288 9.728-.323 4.72-.061 7.814.035 7.814.035l.074.288z"/><path fill="#2f2e41" d="M163.764 21.346l-6.009-2.405s12.564-13.83 30.043-12.63L182.882.899s12.017-4.811 22.942 7.818c5.743 6.639 12.387 14.442 16.529 23.232h6.438l-2.686 5.913 9.4 5.913-9.648-1.062a33.047 33.047 0 0 1 .262 9.808 12.691 12.691 0 0 1-4.647 8.3s-7.452-15.424-7.452-17.83v6.02s-6.008-5.412-6.008-9.02l-3.277 4.209-1.639-6.615-20.21 6.615 3.277-5.412-12.563 1.8 4.916-6.615s-14.2 7.818-14.748 14.433-4.7 12.883-4.7 12.883-11.145-30.923 4.696-39.943z"/><path fill="#d0cde1" d="M300.875 237.102c-3.273 3.548-11.384 8.893-21.216 14.679a529.179 529.179 0 0 1-11.524 6.568c-9.479 5.257-19.4 10.466-27.592 14.674-10.654 5.476-18.376 9.256-18.376 9.256s-.664-3.33-1.735-7.591c-1.433-5.7-3.592-13.075-5.843-16.339a9.04 9.04 0 0 0-.236-.323c-.656-.861-1.315-1.363-1.966-1.363l32.522-20.159 14.054-8.714-10.125-24.17-12.7-30.319 7.665-24.389 7.7-24.516h14.438s4.781 10.436 10.894 24.988a957.014 957.014 0 0 1 2.819 6.787c12.582 30.588 28.261 73.305 21.221 80.931z"/><path fill="#a0616a" d="M190.965 293.92c-8.032 9.946-41.192-10.89-52.79-18.66-2.526-1.691-4.029-2.762-4.029-2.762l10.61-14.15 3.361-4.479s3.007 1.6 7.451 4.191c.162.1.323.192.489.288 3.833 2.251 8.644 5.192 13.5 8.473 6.7 4.532 13.473 9.7 17.838 14.57 4.269 4.759 6.231 9.23 3.57 12.529z"/><path fill="#d0cde1" d="M155.568 258.06a20.88 20.88 0 0 0-3.54.288c-10.047 1.726-13.009 10.82-13.853 16.912a31.4 31.4 0 0 0-.306 5.62l-8.875-6.826-3.234-2.487c-7.783-2.714-14.718-7.534-20.731-13.219a104.216 104.216 0 0 1-13.962-16.558 146.022 146.022 0 0 1-10.8-18.529 13.627 13.627 0 0 1-.188-11.559l10.991-24.494 16.064-35.8q.177-1.278.389-2.5c3.186-18.267 11.72-26.377 11.72-26.377h6.52l4.361 26.377 5.419 32.771-3.8 12.385-8.775 28.6 8.386 9.107z"/><path fill="#6c63ff" d="M162.947 181.707l5.574 6.5a160.85 160.85 0 0 0 6.461-1.38l-1.6-5.123 3.914 4.567c23.6-5.8 52.845-17.087 52.845-17.087s-31.576 2.315-55.153-2.836a22.434 22.434 0 0 0-25.445 12.674c-2.488 5.686-2.1 10.612 6.727 10.612a58.287 58.287 0 0 0 8.894-.837z"/><path fill="#3f3d56" d="M290.015 288.588v2.653a5.83 5.83 0 0 1-.4 2.128 5.976 5.976 0 0 1-.424.874 5.872 5.872 0 0 1-5.047 2.867H89.008a5.872 5.872 0 0 1-5.047-2.867 5.979 5.979 0 0 1-.424-.874 5.83 5.83 0 0 1-.4-2.128v-2.653a5.867 5.867 0 0 1 5.869-5.869h11.248v-1.236a.244.244 0 0 1 .245-.245h5.869a.244.244 0 0 1 .245.245v1.237h3.666v-1.237a.244.244 0 0 1 .245-.245h5.869a.244.244 0 0 1 .245.245v1.237h3.67v-1.237a.244.244 0 0 1 .245-.245h5.869a.244.244 0 0 1 .245.245v1.237h3.666v-1.237a.244.244 0 0 1 .245-.245h5.869a.244.244 0 0 1 .245.245v1.237h3.666v-1.237a.244.244 0 0 1 .245-.245h5.869a.244.244 0 0 1 .245.245v1.237h3.671v-1.237a.244.244 0 0 1 .245-.245h5.869a.244.244 0 0 1 .245.245v1.237h3.661v-1.237a.244.244 0 0 1 .245-.245h45.972a.244.244 0 0 1 .245.245v1.237h3.671v-1.237a.244.244 0 0 1 .245-.245h5.869a.247.247 0 0 1 .245.245v1.237h3.666v-1.237a.244.244 0 0 1 .245-.245h5.869a.244.244 0 0 1 .245.245v1.237h3.666v-1.237a.244.244 0 0 1 .245-.245h5.872a.244.244 0 0 1 .245.245v1.237h3.671v-1.237a.244.244 0 0 1 .245-.245h5.869a.243.243 0 0 1 .24.245v1.237h3.671v-1.237a.244.244 0 0 1 .245-.245h5.869a.244.244 0 0 1 .245.245v1.237h3.666v-1.237a.244.244 0 0 1 .245-.245h5.869a.244.244 0 0 1 .245.245v1.237h17.117a5.867 5.867 0 0 1 5.869 5.869z"/><path fill="#3f3d56" d="M26.439 293.369H346.76v.874H26.439zM274.303 176.879h-72.736v-1.5h-32.981v1.5H95.552a4.92 4.92 0 0 0-4.92 4.92v99.6a4.92 4.92 0 0 0 4.92 4.92h178.751a4.92 4.92 0 0 0 4.92-4.92v-99.6a4.92 4.92 0 0 0-4.92-4.92z"/><circle cx="10.925" cy="10.925" r="10.925" fill="none" stroke="#d0cde1" stroke-miterlimit="10" stroke-width="2" transform="translate(174.144 200.725)"/><circle cx="10.925" cy="10.925" r="10.925" fill="#d0cde1" transform="translate(170.648 204.658)"/><path fill="#d0cde1" d="M35.155 288.954h12.236v12.236H35.155z"/><path fill="#3f3d56" d="M39.963 279.341v14.858h14.858v-14.858zm14.211 14.211H40.605v-13.564h13.569z"/><path fill="#d0cde1" d="M318.331 288.954h12.236v12.236h-12.236z"/><path fill="#3f3d56" d="M323.139 279.341v14.858h14.858v-14.858zm14.211 14.211h-13.569v-13.564h13.569z"/><circle cx="34.672" cy="34.672" r="34.672" fill="#6c63ff" transform="translate(6.66 31.216)"/><path fill="#3f3d56" d="M53.414 24.686a37.475 37.475 0 0 0-9.456 0 36.869 36.869 0 0 0-30.422 25.657 36.369 36.369 0 0 0-1.6 9.466c-.016.447-.026.9-.026 1.35a36.81 36.81 0 0 0 36.776 36.774c.783 0 1.565-.026 2.338-.074a36.372 36.372 0 0 0 5.39-.746 36.777 36.777 0 0 0-3-72.427zm6.782 70.294h-.005a35.357 35.357 0 0 1-9.167 1.823c-.772.053-1.555.079-2.338.079a35.766 35.766 0 0 1-35.72-35.722c0-.452.011-.9.026-1.35a35.722 35.722 0 1 1 47.206 35.171z"/><path fill="#3f3d56" d="M48.161 27.539h1.051v7.355h-1.051zM24.542 37.758l.743-.743 5.2 5.2-.742.744zM15.065 61.685v-1.051h7.355v1.051zM25.284 85.304l-.743-.743 5.2-5.2.744.742zM67.631 42.957l-.743-.743 5.2-5.2.744.742zM74.953 61.685v-1.051h7.355v1.051zM66.889 80.104l.743-.743 5.2 5.2-.742.744zM48.161 87.426h1.051v7.355h-1.051zM50.263 59.058a2.627 2.627 0 0 0-3.152 0 2.7 2.7 0 0 0-.751.883 2.627 2.627 0 1 0 3.9-.883zm-1.576 3.677a1.581 1.581 0 0 1-1.576-1.576 1.6 1.6 0 0 1 .278-.893 1.574 1.574 0 1 1 1.3 2.469zM43.958 15.456h9.456v9.456h-9.456z"/><ellipse cx="12.608" cy="4.465" fill="#3f3d56" rx="12.608" ry="4.465" transform="translate(36.078 8.101)"/><path fill="#3f3d56" d="M47.11 41.197h3.152v17.861H47.11zM0 96.332h98.762v1.051H0z"/><path fill="#d0cde1" d="M65.805 262.093c.408 13.962-7.75 19.079-17.988 19.378q-.357.01-.71.013-.712.005-1.411-.024c-9.259-.384-16.589-5.3-16.968-18.284-.392-13.438 16.287-30.9 17.538-32.189l.072-.074s19.067 17.218 19.467 31.18z"/><path fill="#3f3d56" d="M47.084 279.354l6.5-9.671-6.49 10.712.014 1.088q-.712.005-1.411-.024l.323-13.989-.009-.108.012-.021.031-1.322-7.122-10.341 7.114 9.351.025.279.244-10.569-6.149-10.721 6.169 8.864-.064-21.9v-.064.072l.408 17.258 5.606-7.01-5.588 8.5.122 9.454 5.159-9.227-5.14 10.617.068 5.257 7.5-12.853-7.48 14.687z"/><path fill="#d0cde1" d="M348.981 262.093c.408 13.962-7.75 19.079-17.988 19.378q-.357.01-.71.013-.712.005-1.41-.024c-9.259-.384-16.589-5.3-16.968-18.284-.392-13.438 16.286-30.9 17.538-32.189l.072-.074s19.066 17.218 19.466 31.18z"/><path fill="#3f3d56" d="M330.26 279.354l6.5-9.671-6.49 10.712.014 1.088q-.712.005-1.411-.024l.323-13.989-.009-.108.012-.021.031-1.322-7.122-10.341 7.114 9.351.025.279.244-10.569-6.149-10.721 6.169 8.864-.064-21.9v-.064.072l.408 17.258 5.607-7.01-5.588 8.5.122 9.454 5.159-9.227-5.14 10.617.068 5.257 7.5-12.853-7.48 14.687z"/></svg>