<svg xmlns="http://www.w3.org/2000/svg" viewBox="0 0 512 512"><path xmlns="http://www.w3.org/2000/svg" fill="#00196d" d="M464 104l-80-80H184a24 24 0 0 0-24 24v416a24 24 0 0 0 24 24h256a24 24 0 0 0 24-24z" data-original="#eedc9a"/><path xmlns="http://www.w3.org/2000/svg" fill="#00196d" d="M384 24v56a24 24 0 0 0 24 24h56z" data-original="#eebe33"/><path xmlns="http://www.w3.org/2000/svg" fill="#00196d" d="M232 416h48v48h-48z" data-original="#e44042"/><path xmlns="http://www.w3.org/2000/svg" fill="#00196d" d="M312 376h48v88h-48z" data-original="#2d80b3"/><path xmlns="http://www.w3.org/2000/svg" fill="#00196d" d="M392 344h48v120h-48z" data-original="#a2c32a"/><circle xmlns="http://www.w3.org/2000/svg" cx="128" cy="384" r="80" fill="#00196d" data-original="#8acce7"/><path xmlns="http://www.w3.org/2000/svg" fill="#fff" d="M469.657 98.343l-80-80A8.002 8.002 0 0 0 384 16H184a32.037 32.037 0 0 0-32 32v232h16V48a16.018 16.018 0 0 1 16-16h192v48a32.037 32.037 0 0 0 32 32h48v352a16.018 16.018 0 0 1-16 16H184a15.966 15.966 0 0 1-10.664-4.072l-10.672 11.922A31.947 31.947 0 0 0 184 496h256a32.037 32.037 0 0 0 32-32V104a8.002 8.002 0 0 0-2.343-5.657zM392 80V43.313L444.687 96H408a16.018 16.018 0 0 1-16-16z" data-original="#000000"/><path xmlns="http://www.w3.org/2000/svg" fill="#fff" d="M184 48h32v16h-32zm48 0h56v16h-56zm-48 32h48v16h-48zm0 48h56v16h-56zm72 0h64v16h-64zm-72 32h72v16h-72zm40 32h80v16h-80zm96 0h72v16h-72zm88 0h32v16h-32zm-224 32h80v16h-80zm96 0h72v16h-72zm88 0h72v16h-72zm-184 32h120v16H184zm136 0h72v16h-72zm88 0h32v16h-32zM232 408a8 8 0 0 0-8 8v48a8 8 0 0 0 8 8h48a8 8 0 0 0 8-8v-48a8 8 0 0 0-8-8zm40 48h-32v-32h32zm32 8a8 8 0 0 0 8 8h48a8 8 0 0 0 8-8v-88a8 8 0 0 0-8-8h-48a8 8 0 0 0-8 8zm16-80h32v72h-32zm72 88h48a8 8 0 0 0 8-8V344a8 8 0 0 0-8-8h-48a8 8 0 0 0-8 8v120a8 8 0 0 0 8 8zm8-120h32v104h-32zM56 384a72.084 72.084 0 0 1 68.6-71.914l-10.257 10.257 11.314 11.314 24-24a8.001 8.001 0 0 0 0-11.314l-24-24-11.314 11.314 10.41 10.41a88.006 88.006 0 0 0-40.759 164.156l8.012-13.85A72.282 72.282 0 0 1 56 384zm160 0a88.328 88.328 0 0 0-43.994-76.223l-8.012 13.85A72.006 72.006 0 0 1 131.4 455.914l10.257-10.257-11.314-11.314-24 24a8.001 8.001 0 0 0 0 11.314l24 24 11.314-11.314-10.41-10.41A88.102 88.102 0 0 0 216 384z" data-original="#000000"/><path xmlns="http://www.w3.org/2000/svg" fill="#fff" d="M133.657 389.657A8.002 8.002 0 0 0 136 384v-40h-16v36.687l-21.657 21.656 11.314 11.314z" data-original="#000000"/></svg>