<svg xmlns="http://www.w3.org/2000/svg" xmlns:xlink="http://www.w3.org/1999/xlink" viewBox="0 0 350 330"><defs><linearGradient id="a" x1=".5" x2=".5" y1="1.012" y2=".028" gradientUnits="objectBoundingBox"><stop offset="0" stop-color="gray" stop-opacity=".251"/><stop offset=".54" stop-color="gray" stop-opacity=".122"/><stop offset="1" stop-color="gray" stop-opacity=".102"/></linearGradient><linearGradient id="b" x1=".5" x2=".5" y1="1" y2="0" xlink:href="#a"/><linearGradient id="c" x1=".5" x2=".5" y1="1" y2="0" xlink:href="#a"/><linearGradient id="d" x1=".499" x2=".499" y1="1.015" y2=".014" xlink:href="#a"/><linearGradient id="e" x1=".5" x2=".5" y1="1.001" y2=".038" xlink:href="#a"/><linearGradient id="f" x1="0" x2="1.001" y1=".5" y2=".5" xlink:href="#a"/><linearGradient id="g" x1=".499" x2=".499" y1="1" y2=".001" xlink:href="#a"/><linearGradient id="h" x1=".5" x2=".5" y1="1" y2="0" xlink:href="#a"/><linearGradient id="i" x1=".499" x2=".499" y1=".997" y2=".012" xlink:href="#a"/><linearGradient id="j" x1=".499" x2=".499" y1=".997" y2=".013" gradientUnits="objectBoundingBox"><stop offset="0" stop-opacity=".09"/><stop offset=".55" stop-opacity=".071"/><stop offset="1" stop-opacity=".02"/></linearGradient><linearGradient id="k" x1="0" x2="1" y1=".5" y2=".5" xlink:href="#a"/></defs><rect width="64.67" height="117.776" fill="url(#a)" rx="10" transform="translate(36.28 85.74)"/><rect width="61.69" height="113.103" fill="#fff" rx="10" transform="translate(37.77 87.676)"/><path fill="#e6e6e6" d="M44.91 95.526l47.762-.067.128 92.041-47.761.067z"/><ellipse cx="3.807" cy="3.902" fill="#dbdbdb" rx="3.807" ry="3.902" transform="rotate(-.08 136297.654 -46537.896)"/><ellipse cx=".762" cy=".78" fill="#dbdbdb" rx=".762" ry=".78" transform="rotate(-.08 64797.533 -43491.691)"/><rect width="11.806" height="1.169" fill="#dbdbdb" rx=".585" transform="rotate(-.08 64934.988 -46491.03)"/><path fill="url(#b)" d="M0 0h27.042v28.394H0z" transform="translate(55.332 148.865)"/><path fill="#6c63ff" d="M56.51 150.099h24.691v25.925H56.51z"/><path fill="url(#c)" d="M291.709 430.671v-.489h1.3v-2.508a4.015 4.015 0 1 0-6.821-.186v2.694h1.434v.576a8.324 8.324 0 0 0-6.111 8.021v7.3h16.67v-7.3a8.32 8.32 0 0 0-6.472-8.108z" opacity=".5" transform="translate(-220.985 -268.822)"/><path fill="#f55f44" d="M65.562 156.765h6.172v4.937h-6.172z"/><path fill="#fdd835" d="M66.896 161.961h3.9a5.57 5.57 0 0 1 5.57 5.57v8.567h-15.04v-8.575a5.57 5.57 0 0 1 5.57-5.562z"/><rect width="3.686" height="4.608" fill="#fda57d" rx="1.843" transform="translate(66.857 159.493)"/><path fill="#fda57d" d="M67.996 163.963l.689 1 .723-1z"/><path d="M64.158 167.591s-.732 7.285-.26 7.757M73.21 167.591s.732 7.285.26 7.757" opacity=".1"/><path d="M68.702 161.732a3.057 3.057 0 0 0 1.819-.6 1.845 1.845 0 0 0-1.819-1.555 1.845 1.845 0 0 0-1.819 1.555 3.057 3.057 0 0 0 1.819.6z" opacity=".05"/><circle cx="3.634" cy="3.634" r="3.634" fill="#f55f44" transform="translate(65.068 153.803)"/><circle cx="3.071" cy="3.071" r="3.071" fill="#fda57d" transform="translate(65.631 155.5)"/><ellipse cx=".217" cy=".39" fill="#fda57d" rx=".217" ry=".39" transform="translate(65.406 157.982)"/><ellipse cx=".217" cy=".39" fill="#fda57d" rx=".217" ry=".39" transform="translate(71.569 157.982)"/><path fill="#fff" d="M48.013 101.447h41.681v1.81H48.013zM48.013 105.067h41.681v1.81H48.013zM48.013 108.692h23.56v1.81h-23.56zM48.013 112.317h34.431v1.81H48.013zM48.013 115.941h28.996v1.81H48.013zM48.013 119.566h41.681v1.81H48.013zM49.827 125h36.246v14.496H49.827z"/><path fill="#e0e0e0" d="M258.596 197.958s6.063 41.659 41.659 55.5l-72.024.1-72.024.1c35.54-13.937 41.512-55.614 41.512-55.614z"/><path fill="url(#d)" d="M0 0h145.407v8.8H0z" transform="rotate(-.08 181738.283 -111236.1)"/><path fill="#f5f5f5" d="M156.219 253.645l144.047-.201.01 6.79-144.048.202z"/><path fill="url(#e)" d="M734.219 180l-234.261.325a4.807 4.807 0 0 0-4.69 4.92l.182 136.676v4.552c0 10.394 8.069 18.792 18 18.779l207.716-.286c9.922 0 17.956-8.441 17.943-18.827v-4.548l-.182-136.676a4.807 4.807 0 0 0-4.7-4.916z" transform="translate(-389.104 -131.927)"/><path fill="#fff" d="M113.634 52.643h228.453a4.656 4.656 0 0 1 4.656 4.656v130.067H108.974V57.299a4.656 4.656 0 0 1 4.66-4.656z"/><path fill="#f5f5f5" d="M330.463 208.975l-204.576.281a16.6 16.6 0 0 1-16.618-16.574v-5.63l237.769-.329v5.63a16.6 16.6 0 0 1-16.575 16.622z"/><path fill="#e6e6e6" d="M120.72 63.556h215.165v108.759H120.72z"/><path fill="url(#b)" d="M0 0h38.086v39.992H0z" transform="translate(279.276 70.73)"/><path fill="#6c63ff" d="M280.93 72.471h34.777v36.514H280.93z"/><path fill="url(#f)" d="M926.163 257.7l-.433-.156-.026.039h-.026v-1.178a2.71 2.71 0 0 0-.035-.434 4.508 4.508 0 0 0 1.546-2.039 5.314 5.314 0 1 0-8.415 0 4.508 4.508 0 0 0 1.546 2.04 2.709 2.709 0 0 0-.035.433v1.3a11.018 11.018 0 0 0-8.086 10.619v9.662h22v-9.675a11.018 11.018 0 0 0-8.036-10.611z" opacity=".5" transform="translate(-625.466 -168.996)"/><path fill="#514abf" d="M297.067 88.468h1.343a9.931 9.931 0 0 1 9.931 9.931v9.961h-21.222v-9.961a9.931 9.931 0 0 1 9.948-9.931z"/><rect width="5.193" height="6.492" fill="#fda57d" rx="2.596" transform="translate(294.928 85.008)"/><path d="M293.126 89.616l1.741 3.733 1.728-1.728-1.728-2.655z" opacity=".05"/><path fill="#fff" d="M293.187 89.434l1.732 3.733 1.732-1.732-1.732-2.651-.8.243a1.993 1.993 0 0 0-.229.087z"/><path d="M301.927 89.434l-1.745 3.915-1.732-1.728 1.78-2.793z" opacity=".05"/><path fill="#fff" d="M301.861 89.252l-1.732 3.9-1.732-1.732 1.78-2.793.325.1a8.657 8.657 0 0 1 1.035.368z"/><path fill="#fda57d" d="M296.526 91.301l.97 1.412 1.022-1.412z"/><path d="M291.121 96.415s-1.031 10.26-.364 10.927M303.871 96.415s1.031 10.26.364 10.927" opacity=".1"/><path d="M297.522 88.157a4.331 4.331 0 0 0 2.564-.84 2.6 2.6 0 0 0-2.564-2.187 2.6 2.6 0 0 0-2.564 2.187 4.331 4.331 0 0 0 2.564.84z" opacity=".05"/><circle cx="5.115" cy="5.115" r="5.115" transform="translate(292.407 76.992)"/><circle cx="4.327" cy="4.327" r="4.327" fill="#fda57d" transform="translate(293.195 79.383)"/><path d="M294.036 79.422l1.091 1.334s4.794.433 5.34-.667-3.157-1.884-3.157-1.884z" opacity=".05"/><path d="M294.036 79.301l1.091 1.334s4.794.433 5.34-.667-3.157-1.884-3.157-1.884z"/><ellipse cx=".303" cy=".546" fill="#fda57d" rx=".303" ry=".546" transform="translate(292.884 82.882)"/><ellipse cx=".303" cy=".546" fill="#fda57d" rx=".303" ry=".546" transform="translate(301.563 82.882)"/><path fill="url(#b)" d="M0 0h38.086v39.992H0z" transform="translate(279.497 118.698)"/><path fill="#6c63ff" d="M281.151 120.435h34.777v36.514h-34.777z"/><path fill="url(#g)" d="M926.788 365.8v-1.542a4.794 4.794 0 0 0 1.62-2.165 5.652 5.652 0 0 0-2.36-8.692 1.923 1.923 0 1 0-3.781-.16 5.652 5.652 0 0 0-2.811 8.857 4.8 4.8 0 0 0 1.62 2.165v1.621a10.6 10.6 0 0 0-8.606 10.394v11.395h23.43v-11.38a10.6 10.6 0 0 0-9.112-10.493z" opacity=".5" transform="translate(-625.619 -228.911)"/><path fill="#fff" d="M297.868 137.13h1.343a9.931 9.931 0 0 1 9.931 9.931v9.961H287.92v-9.961a9.931 9.931 0 0 1 9.931-9.931z"/><rect width="5.193" height="6.492" fill="#fdb797" rx="2.596" transform="translate(295.725 133.67)"/><path fill="#fdb797" d="M297.327 139.963l.97 1.412 1.018-1.412z"/><path d="M291.922 145.072s-1.031 10.26-.364 10.927M304.672 145.072s1.031 10.26.364 10.927" opacity=".1"/><path d="M298.342 136.819a4.331 4.331 0 0 0 2.564-.84 2.6 2.6 0 0 0-2.564-2.187 2.6 2.6 0 0 0-2.6 2.187 4.331 4.331 0 0 0 2.6.84z" opacity=".05"/><circle cx="5.115" cy="5.115" r="5.115" fill="#fdd835" transform="translate(293.208 125.654)"/><circle cx="4.327" cy="4.327" r="4.327" fill="#fdb797" transform="translate(293.997 128.045)"/><ellipse cx=".303" cy=".546" fill="#fdb797" rx=".303" ry=".546" transform="translate(293.68 131.544)"/><ellipse cx=".303" cy=".546" fill="#fdb797" rx=".303" ry=".546" transform="translate(302.364 131.544)"/><circle cx="1.737" cy="1.737" r="1.737" fill="#fdd835" transform="translate(296.803 123.918)"/><path fill="#fdd835" d="M295.062 127.391s1.732 3.465 6.956 1.732l-1.732-1.732z"/><path fill="#fff" d="M156.118 77.205h95.705v4.162h-95.705zM156.118 85.524h95.705v4.162h-95.705zM159.616 93.847h54.093v4.162h-54.093zM157.627 102.166h79.061v4.162h-79.061zM158.659 110.489h66.575v4.162h-66.575zM156.118 118.808h95.705v4.162h-95.705zM160.804 131.292h83.219v33.288h-83.219z"/><path fill="none" stroke="#3ad29f" stroke-dasharray="12" stroke-miterlimit="10" stroke-width="6" d="M60.105 264.46H14.331V14.794h270.472V35.6"/><circle cx="15.721" cy="15.721" r="15.721" fill="url(#h)" opacity=".5"/><circle cx="14.794" cy="14.794" r="14.794" fill="#69f0ae" transform="translate(.927 .927)"/><path fill="#fff" d="M10.174 14.795l5.548 5.085 7.856-11.56 2.776 2.313-10.632 13.872-7.861-8.783z"/><rect width="120.036" height="186.075" fill="url(#i)" rx="17.17" transform="rotate(-.08 103108.214 -42243.829)"/><path fill="url(#j)" d="M0 0h103.661v156.065H0z" transform="rotate(-.08 113284.236 -47787.255)"/><rect width="112.734" height="177.504" fill="#fff" rx="12.68" transform="rotate(-.08 105119.544 -44650.28)"/><path fill="#e6e6e6" d="M69.753 160.285l97.355-.136.208 148.88-97.355.136z"/><ellipse cx="4.01" cy="4.11" fill="#dbdbdb" rx="4.01" ry="4.11" transform="translate(112.011 312.65)"/><ellipse cx="1.338" cy="1.369" fill="#dbdbdb" rx="1.338" ry="1.369" transform="rotate(-.08 109234.116 -71348.682)"/><rect width="17.384" height="1.369" fill="#dbdbdb" rx=".684" transform="rotate(-.08 109619.82 -76011.575)"/><path fill="url(#b)" d="M0 0h38.086v39.992H0z" transform="translate(113.791 251.943)"/><path fill="#6c63ff" d="M115.388 253.684h34.777v36.514h-34.777z"/><path fill="url(#k)" d="M476.563 676.183l-.433-.156-.026.039h-.026v-1.178a2.719 2.719 0 0 0-.035-.433 4.508 4.508 0 0 0 1.546-2.04 5.314 5.314 0 1 0-8.415 0 4.508 4.508 0 0 0 1.546 2.04 2.712 2.712 0 0 0-.035.433v1.3a11.018 11.018 0 0 0-8.086 10.619v9.662h22.023v-9.68a11.018 11.018 0 0 0-8.06-10.607z" opacity=".5" transform="translate(-341.043 -406.258)"/><path fill="#3ad29f" d="M131.879 269.683h1.343a9.931 9.931 0 0 1 9.931 9.931v9.961h-21.222v-9.961a9.931 9.931 0 0 1 9.948-9.931z"/><rect width="5.193" height="6.492" fill="#be7c5e" rx="2.596" transform="translate(129.517 266.222)"/><path fill="#be7c5e" d="M131.068 272.515l.97 1.412 1.022-1.412z"/><path d="M126.435 277.63s-1.031 10.26-.364 10.927M137.606 277.63s1.031 10.26.364 10.927" opacity=".1"/><path d="M132.11 269.353a4.331 4.331 0 0 0 2.564-.84 2.6 2.6 0 0 0-2.564-2.187 2.6 2.6 0 0 0-2.564 2.187 4.331 4.331 0 0 0 2.564.84z" opacity=".05"/><circle cx="5.115" cy="5.115" r="5.115" fill="#444" transform="translate(127.072 258.211)"/><circle cx="4.327" cy="4.327" r="4.327" fill="#be7c5e" transform="translate(127.837 260.602)"/><path d="M128.673 260.642l1.091 1.334s4.794.433 5.34-.667-3.157-1.884-3.157-1.884z" opacity=".05"/><path fill="#444" d="M128.673 260.523l1.091 1.334s4.794.433 5.34-.667-3.157-1.884-3.157-1.884z"/><ellipse cx=".303" cy=".546" fill="#be7c5e" rx=".303" ry=".546" transform="translate(127.919 264.096)"/><ellipse cx=".303" cy=".546" fill="#be7c5e" rx=".303" ry=".546" transform="translate(135.57 264.096)"/><path fill="#444" d="M128.743 258.572a2.6 2.6 0 0 1 1.334-.9 6.961 6.961 0 0 1 2.98-.7.5.5 0 0 1 .281.082.969.969 0 0 1 .169.247c.312.463 1.187.433 1.3.979.03.178-.043.368 0 .541.113.433.723.39 1.083.637a.987.987 0 0 1 .087 1.377 2.6 2.6 0 0 1-1.325.754 5.11 5.11 0 0 1-2.793.247c-1.314-.341-4.385-1.19-3.116-3.264z"/><path fill="url(#b)" d="M0 0h38.086v39.992H0z" transform="translate(79.911 251.51)"/><path fill="#6c63ff" d="M81.461 253.251h34.777v36.514H81.461z"/><path fill="url(#k)" d="M386.563 675.183l-.433-.156-.026.039h-.026v-1.178a2.719 2.719 0 0 0-.035-.433 4.509 4.509 0 0 0 1.546-2.04 5.314 5.314 0 1 0-8.415 0 4.508 4.508 0 0 0 1.546 2.04 2.713 2.713 0 0 0-.035.433v1.3a11.018 11.018 0 0 0-8.086 10.619v9.662h22.023v-9.68a11.018 11.018 0 0 0-8.059-10.606z" opacity=".5" transform="translate(-285.141 -405.691)"/><path fill="#514abf" d="M97.771 269.249h1.343a9.931 9.931 0 0 1 9.931 9.931v9.961H87.823v-9.961a9.931 9.931 0 0 1 9.948-9.931z"/><rect width="5.193" height="6.492" fill="#fda57d" rx="2.596" transform="translate(95.209 265.789)"/><path d="M92.073 277.197s-1.031 10.26-.364 10.927M103.243 277.197s1.031 10.26.364 10.927" opacity=".1"/><path d="M97.801 268.92a4.331 4.331 0 0 0 2.564-.84 2.6 2.6 0 0 0-2.564-2.187 2.6 2.6 0 0 0-2.564 2.187 4.331 4.331 0 0 0 2.564.84z" opacity=".05"/><circle cx="5.115" cy="5.115" r="5.115" fill="#444" transform="translate(92.825 257.778)"/><circle cx="4.327" cy="4.327" r="4.327" fill="#fda57d" transform="translate(93.57 260.169)"/><path d="M94.381 260.209l1.091 1.334s4.794.433 5.34-.667-3.157-1.884-3.157-1.884z" opacity=".05"/><path fill="#444" d="M94.381 260.09l1.091 1.334s4.794.433 5.34-.667-3.157-1.884-3.157-1.884z"/><ellipse cx=".303" cy=".546" fill="#fda57d" rx=".303" ry=".546" transform="translate(93.556 263.669)"/><ellipse cx=".303" cy=".546" fill="#fda57d" rx=".303" ry=".546" transform="translate(101.208 263.669)"/><path fill="#fff" d="M79.954 179.21h70.737v3.075H79.954zM79.954 185.36h70.737v3.075H79.954zM81.111 191.509h39.983v3.075H81.111zM80.442 197.663h58.437v3.075H80.442zM80.786 203.812h49.208v3.075H80.786zM79.954 209.961h70.737v3.075H79.954zM82.968 219.188h61.512v24.604H82.968z"/><path fill="#444" d="M94.904 262.863a7.043 7.043 0 0 0 .541-1.213 2.975 2.975 0 0 1 5.3-.208c.355.637.472 1.39.866 2.005a.507.507 0 0 0 .732-.134.961.961 0 0 0 .048-.823c-.091-.269-.243-.515-.342-.78a6.174 6.174 0 0 0-.433-1.247 2.573 2.573 0 0 0-.866-.723 3.1 3.1 0 0 0-4.175-.342l-1.377.866a4.331 4.331 0 0 0-1.169.957c-.3.39-.866 1.555-.6 2.057.305.573 1.202-.055 1.475-.415z"/><path fill="#fff" d="M96.623 271.952v17.207h2.542l-.377-17.207z"/><path fill="#fda57d" d="M96.234 271.718l1.473 2.144 1.55-2.144z"/></svg>