<svg xmlns="http://www.w3.org/2000/svg" xmlns:xlink="http://www.w3.org/1999/xlink" viewBox="0 0 470.458 271.813"><defs><linearGradient id="a" x1=".536" x2=".536" y1=".879" y2=".113" gradientUnits="objectBoundingBox"><stop offset="0" stop-color="gray" stop-opacity=".251"/><stop offset=".54" stop-color="gray" stop-opacity=".122"/><stop offset="1" stop-color="gray" stop-opacity=".102"/></linearGradient><linearGradient id="b" x1=".527" x2=".527" y1=".642" y2=".348" xlink:href="#a"/><linearGradient id="c" x1="1.343" x2="1.343" y1="1.571" y2=".718" xlink:href="#a"/><linearGradient id="d" x1=".474" x2=".474" y1=".977" y2="-.023" xlink:href="#a"/><linearGradient id="e" x1=".502" x2=".502" y1=".908" y2="-.092" xlink:href="#a"/><linearGradient id="f" x1="-.447" x2="-.447" y1="-.584" y2="-1.584" xlink:href="#a"/><linearGradient id="g" x1=".5" x2=".5" y1="1" y2="0" xlink:href="#a"/><linearGradient id="h" x1=".5" x2=".5" y1="1" y2=".001" xlink:href="#a"/></defs><g transform="translate(.005 .002)"><path fill="#f5f5f5" d="M218.49 35.901l1.569-10.324 244.283 37.12-1.569 10.323z"/><path fill="url(#a)" d="M0 0h197.497v257.529H0z" transform="rotate(-81.36 219.132 .037)"/><path fill="#f5f5f5" d="M191.428 213.951l27.055-178.052 244.283 37.119-27.055 178.052z"/><circle cx="2.553" cy="2.553" r="2.553" fill="#ff5252" transform="rotate(-81.36 130.819 -112.44)"/><circle cx="2.553" cy="2.553" r="2.553" fill="#ff0" transform="rotate(-81.36 134.9 -115.951)"/><circle cx="2.553" cy="2.553" r="2.553" fill="#69f0ae" transform="rotate(-81.36 138.984 -119.46)"/><path fill="url(#b)" d="M0 0h65.253v221.859H0z" transform="rotate(-81.36 176.876 -67.045)"/><path fill="#6c63ff" d="M228.591 56.355l214.61 32.61-9.083 59.782-214.61-32.61z"/><path fill="url(#c)" d="M0 0h12.617v14.791H0z" transform="rotate(-81.36 217.812 -63.955)"/><path fill="#6c63ff" d="M250.743 149.479l13.761 2.091-1.569 10.323-13.76-2.09z"/><path fill="#ff5252" d="M248.056 167.113l13.761 2.091-1.569 10.323-13.76-2.09z"/><path fill="#ff9800" d="M245.38 184.747l13.761 2.091-1.569 10.323-13.76-2.09z"/><path fill="#6c63ff" d="M286.969 157.184l110.958 16.86-.914 6.019-110.959-16.86zM284.288 174.818l110.958 16.86-.914 6.019-110.959-16.86zM281.611 192.453l110.958 16.86-.914 6.019-110.959-16.86z" opacity=".4"/><path fill="#f5f5f5" d="M5.716 62.039L262.451 4.652l2.242 10.026L7.957 72.066z"/><path fill="url(#d)" d="M0 0h274.185v194.346H0z" transform="rotate(-12.6 270.865 29.927)"/><path fill="#f5f5f5" d="M7.955 72.072L264.69 14.685l38.66 172.954-256.735 57.387z"/><ellipse cx="2.716" cy="2.511" fill="#ff5252" rx="2.716" ry="2.511" transform="rotate(-12.6 293.868 -12.967)"/><ellipse cx="2.716" cy="2.511" fill="#ff0" rx="2.716" ry="2.511" transform="rotate(-12.6 290.151 -46.819)"/><ellipse cx="2.716" cy="2.511" fill="#69f0ae" rx="2.716" ry="2.511" transform="rotate(-12.6 286.415 -80.654)"/><path fill="url(#e)" d="M0 0h236.209v64.213H0z" transform="rotate(-12.6 396.56 -58.253)"/><path fill="#6c63ff" d="M25.532 87.002L251.08 36.586l12.98 58.068L38.512 145.07z"/><path fill="url(#f)" d="M0 0h15.747v12.412H0z" transform="rotate(-12.6 779.656 -285.287)"/><path fill="#6c63ff" d="M83.023 164.656l14.526-3.261 2.26 10.068-14.526 3.261z"/><path fill="#ff5252" d="M85.703 181.018l14.466-3.234 2.241 10.027-14.466 3.234z"/><path fill="#ff9800" d="M90.779 199.039l14.526-3.261 2.26 10.068-14.526 3.261z"/><path fill="#6c63ff" d="M120.759 157.389l116.613-26.066 1.308 5.849-116.614 26.066zM124.587 174.52L241.2 148.454l1.308 5.849-116.614 26.066zM128.415 191.646l116.613-26.066 1.308 5.849-116.614 26.066z" opacity=".4"/><path fill="#f5f5f5" d="M89.328 9.706h298.347v12.606H89.328z"/><path fill="url(#g)" d="M0 0h310.953v238.468H0z" transform="translate(83.551 5.504)"/><path fill="#fff" d="M89.328 22.312h298.347v217.457H89.328z"/><circle cx="3.083" cy="3.083" r="3.083" fill="#ff5252" transform="translate(93.531 12.925)"/><circle cx="3.083" cy="3.083" r="3.083" fill="#ff0" transform="translate(102.003 12.925)"/><circle cx="3.083" cy="3.083" r="3.083" fill="#69f0ae" transform="translate(110.475 12.925)"/><path fill="url(#g)" d="M0 0h267.882v78.789H0z" transform="translate(101.935 41.746)"/><path fill="#6c63ff" d="M105.086 44.898H367.19v73.011H105.086z"/><path fill="url(#g)" d="M0 0h17.859v15.233H0z" transform="translate(147.632 151)"/><path fill="#6c63ff" d="M148.42 152.051h16.808v12.606H148.42z"/><path fill="#ff5252" d="M148.42 173.586h16.808v12.606H148.42z"/><path fill="#ff9800" d="M148.42 195.122h16.808v12.606H148.42z"/><path fill="#6c63ff" d="M193.067 154.677h135.517v7.354H193.067zM193.067 176.213h135.517v7.354H193.067zM193.067 197.748h135.517v7.354H193.067z" opacity=".4"/><path fill="url(#g)" d="M0 0h97.698v80.365H0z" transform="translate(191.229 191.445)"/><path fill="url(#g)" d="M552.226 499.759a27.358 27.358 0 0 1 54.716 0v17.507h7.658v-17.507a35.018 35.018 0 1 0-70.035 0v17.507h7.658z" transform="translate(-338.453 -321.093)"/><path fill="#fff" d="M214.866 178.314a26.263 26.263 0 0 1 52.526 0v16.808h7.354v-16.808a33.617 33.617 0 0 0-67.233 0v16.808h7.354z"/><path fill="#6c63ff" d="M195.431 194.072h91.395v74.587h-91.395z"/><path fill="#fff" d="M195.431 194.072h91.395v74.587h-91.395z"/><path fill="#6c63ff" d="M195.431 208.779h91.395v45.172h-91.395z"/><path fill="url(#h)" d="M611.885 609.413A6.7 6.7 0 1 0 600.329 614v14.3a4.874 4.874 0 1 0 9.749 0V614a6.671 6.671 0 0 0 1.807-4.587z" transform="translate(-364.049 -386.579)"/><path d="M246.907 224.011a5.778 5.778 0 1 0-9.98 3.955v12.328a4.2 4.2 0 0 0 8.4 0v-12.328a5.778 5.778 0 0 0 1.58-3.955z" opacity=".2"/></g></svg>