<svg xmlns="http://www.w3.org/2000/svg" xmlns:xlink="http://www.w3.org/1999/xlink" viewBox="0 0 352.43 252"><defs><linearGradient id="a" x1=".5" x2=".5" y1="1" gradientUnits="objectBoundingBox"><stop offset="0" stop-color="gray" stop-opacity=".251"/><stop offset=".54" stop-color="gray" stop-opacity=".122"/><stop offset="1" stop-color="gray" stop-opacity=".102"/></linearGradient><linearGradient id="b" x1=".5" x2=".5" y1="1" xlink:href="#a"/></defs><g transform="translate(.03 -.003)"><path fill="#6c63ff" d="M346.819 169.421c-8.166 16.846-24.748 28.11-41.932 35.539a159.4 159.4 0 0 1-73.737 12.294q-6.6-.439-13.17-1.4a166.105 166.105 0 0 1-44.034-12.823q-6.067-2.732-11.888-5.966a152.089 152.089 0 0 1-18.583-12.153q-2.222-1.7-4.383-3.479c-1-.824-1.989-1.666-2.994-2.483a37.779 37.779 0 0 0-6.737-4.589 24.067 24.067 0 0 0-2.256-1c-7.708-2.932-16.6-1.826-24.622.461-6.1 1.74-12.054 4.122-18.152 5.821a60.244 60.244 0 0 1-8.271 1.758 44.016 44.016 0 0 1-18.582-1.632l-.513-.16q-1.291-.406-2.56-.888l-.513-.2q-1.229-.473-2.407-1.017l-.513-.234q-1.229-.572-2.407-1.208c-.283-.148-.562-.307-.839-.458a50.3 50.3 0 0 1-12.036-9.371c-.1-.1-.2-.206-.307-.307a46.704 46.704 0 0 1-1.945-2.232q-.827-1.008-1.6-2.062c-.077-.1-.151-.206-.224-.307a44.44 44.44 0 0 1-5.175-9.365 6.085 6.085 0 0 1-.12-.307q-.615-1.583-1.122-3.218c-.138-.455-.27-.922-.387-1.377a10.34 10.34 0 0 1-.111-.409c-1.7-6.679-1.89-13.622-1.89-20.525v-2.413c.049-11.166.221-22.523 1.869-33.535a1.4 1.4 0 0 1 .034-.227 104.733 104.733 0 0 1 2.247-11.009 81.218 81.218 0 0 1 3.783-11.157c3.79-8.913 9.3-17.024 15.42-24.542C61.576 24.324 81.79 8.441 105.45 2.498A87.25 87.25 0 0 1 179.844 18.6c6.27 4.991 11.9 10.9 18.945 14.728 6.147 3.332 13.342 4.712 19.926 2.09 5.44-2.167 8.981-3.243 15.091-2.914a126.493 126.493 0 0 1 36.993 7.748c.479.175.959.357 1.435.538 30.953 11.842 57.561 35.37 71.392 65.6q.55 1.2 1.067 2.416c8.246 19.267 11.226 41.842 2.126 60.615z" opacity=".1"/><ellipse cx="27.133" cy="4.358" fill="#6c63ff" opacity=".1" rx="27.133" ry="4.358" transform="translate(10.146 219.645)"/><ellipse cx="48.11" cy="4.672" fill="#6c63ff" opacity=".1" rx="48.11" ry="4.672" transform="translate(232.58 242.659)"/><rect width="292.086" height="165.457" fill="url(#a)" rx="12.49" transform="translate(36.001 33.119)"/><rect width="291.191" height="162.58" fill="#fff" rx="12.49" transform="translate(36.465 35.446)"/><rect width="291.191" height="162.58" fill="#fff" rx="12.49" transform="translate(36.465 35.446)"/><rect width="291.191" height="162.58" fill="#fff" opacity=".04" rx="12.49" transform="translate(36.465 35.446)"/><path fill="#5a5773" d="M326.178 33.58H37.945a1.478 1.478 0 0 0-1.478 1.478v6.248h291.178v-6.248a1.478 1.478 0 0 0-1.466-1.478z"/><g fill="#fff" transform="translate(40.282 35.446)"><circle cx="1.998" cy="1.998" r="1.998"/><circle cx="1.998" cy="1.998" r="1.998" transform="translate(5.379)"/><circle cx="1.998" cy="1.998" r="1.998" transform="translate(10.757)"/></g><path fill="#6c63ff" d="M60.447 55.839h78.144v6.633H60.447z" opacity=".2"/><path fill="#5a5773" d="M60.447 82.434h243.226v102.029H60.447z" opacity=".1"/><path d="M202.859 89.088h-4.166v-8.09a16.633 16.633 0 1 0-33.265-.224v8.314h-4.155a6.952 6.952 0 0 0-6.931 6.931v33.262a6.952 6.952 0 0 0 6.931 6.931h41.585a6.949 6.949 0 0 0 6.928-6.931V96.015a6.949 6.949 0 0 0-6.928-6.931zm-18.366 21.622v11.913a2.487 2.487 0 0 1-2.3 2.492 2.431 2.431 0 0 1-2.545-2.428v-11.983a5.532 5.532 0 1 1 4.85 0zm9.356-21.622h-23.57v-8.314a11.781 11.781 0 0 1 23.562 0z" opacity=".1"/><path fill="#6c63ff" d="M202.859 88.474h-4.166v-8.09a16.633 16.633 0 1 0-33.265-.224v8.314h-4.155a6.952 6.952 0 0 0-6.931 6.931v33.262a6.952 6.952 0 0 0 6.931 6.931h41.585a6.949 6.949 0 0 0 6.928-6.931V95.401a6.949 6.949 0 0 0-6.928-6.931zm-18.366 21.622v11.913a2.487 2.487 0 0 1-2.3 2.492 2.431 2.431 0 0 1-2.545-2.428V110.09a5.532 5.532 0 1 1 4.85 0zm9.356-21.622h-23.57V80.16a11.781 11.781 0 0 1 23.562 0z"/><path fill="#5a5773" d="M279.054 72.614h24.619v5.812h-24.619z" opacity=".1"/><path fill="url(#b)" d="M906.941 461.412a8.747 8.747 0 0 0-.824-2.339l-3.688-5.508h.022s-.581-2.766 0-4.125-2.072-4.7-2.072-4.7a1.982 1.982 0 0 1 .519-1.872c.842-1.033-.519-4.057-.519-4.057s-.645-6.316-.71-7.281-.584-6.313-.584-6.313l-1.229-11.338-2.188-30.05-.04-.562a7.99 7.99 0 0 0 .415-.215l-.436-16.615.378-.341c3.3-2.987 10.914-9.9 10.837-10.053s-.922-11.547-1.02-14.4a17.16 17.16 0 0 0-1.309-5.9c-.191-.378-.741-2.871-.968-3.925l-.1-.47s-2.231-4.254-2.038-6.187.581-3.381-4.177-4.057a18.437 18.437 0 0 1-6.374-2.222 18.134 18.134 0 0 0-4.567-2.287s-1.334-2.459-2.262-1.626a12.907 12.907 0 0 1-.876-2.738l-.028-.172a9.057 9.057 0 0 0 3.578-5.12c.031-.117.055-.237.083-.353a1 1 0 0 0 .286.052c.808 0 1.306-.9 2.062-1.186.307-.12.685-.138.922-.381a.9.9 0 0 0 .2-.679 1.379 1.379 0 0 0 0-.252v-.089.031c-.206-1.119-1.073-2.112-.977-3.249.092-1.07 1.033-2.01.956-3.052a1.667 1.667 0 0 0-.022-.246v.037a2.632 2.632 0 0 0-.615-1.088 3.492 3.492 0 0 0-1.266-1.063c-.427-.187-.922-.23-1.322-.455-1.174-.639-1.171-2.305-1.869-3.442a3.046 3.046 0 0 0-2.849-1.411c-.873.086-1.663.55-2.526.7a6.606 6.606 0 0 1-3.5-.615 9.637 9.637 0 0 0-3.455-.922 2.934 2.934 0 0 0-2.865 1.749c-.194.615-.1 1.276-.246 1.9a4.136 4.136 0 0 1-2.228 2.434c-.615.341-1.346.732-1.537 1.377v-.049a1.191 1.191 0 0 0-.031.157 1.16 1.16 0 0 0 0 .206 3.875 3.875 0 0 0 .39 1.285 3.544 3.544 0 0 1-.018 2.477c-.228.584-.615 1.1-.836 1.678a3.307 3.307 0 0 0-.2.842v-.049a3.384 3.384 0 0 0 0 .393 2.766 2.766 0 0 0 .307 1.291 2.318 2.318 0 0 0 1.38 1.159c.615.141 1-.461 1.647-.307a2.592 2.592 0 0 1 .341.108c.022.138.043.277.068.412a9.033 9.033 0 0 0 3.117 5.277 1.97 1.97 0 0 0 .034.224 20.642 20.642 0 0 1 .255 3.707s-.968-1.417-2.3 1.319a27.893 27.893 0 0 1-4.659 2.225c-1.2.227-5.44 1.706-5.44 1.706a3.744 3.744 0 0 1-2.2.71c-1.325 0-2.425 2.9-2.265 4.475s-.1 2.739-1.328 2.8-.559 2.563-.55 2.606l-.114.538c-.24 1.1-.762 3.461-.947 3.83a17.213 17.213 0 0 0-1.312 5.9c-.1 2.852-.922 14.206-1.017 14.4-.065.126 5.151 4.893 8.818 8.225l.532.479-1.685 15.76a4.207 4.207 0 0 0 1.733 3.074c0 .184 0 .372-.018.566a19.7 19.7 0 0 1-.516 4.659c-.516 1.033-.387 6.571-.387 6.571s-.519 11.274-1.165 12.5a8.528 8.528 0 0 0-.584 4.3c.194.5-.648 14.043-.648 14.043l-.646 6.058s.194 5.8-.39 5.926-.907 4.125-.907 4.125-2.068 2.834-1.165 3.863-.132 1.484-.227 1.74-1.973 1.229-.615 4.832a1.059 1.059 0 0 0 .043.1c-1.272 1.767-5.3 7.469-5.059 8.335a2.284 2.284 0 0 0 1.076 1.291c.95.569 2.579.833 5.17 0 4.3-1.386 4-2.385 4-2.385a1.826 1.826 0 0 1 1.813-1.74 5.093 5.093 0 0 0 3.107-1.77l-.209-.778-.286-1.076c.034-.307.252-.845 1.229-1.143 1.491-.452 1.1-3.286 1.1-3.286s-.129-2.963.516-3.35.39-5.283.39-5.283a36.314 36.314 0 0 1 1.746-5.929c1.033-2.385 2.268-16.554 2.268-16.554s.839-6.958 1.617-8.956a50.7 50.7 0 0 0 1.491-7.6s4.792-9.279 4.853-11.341c0 0 .615-1.933 1.229.194s2.342 7.217 2.342 7.217l1.681 6.248 2.007 9.34 1.3 7.862s-.2 2.963.307 4 1.229 3.412.842 3.863.775 2.579 1.1 3.027 0 9.986 0 9.986 1.488 8.117 3.624 9.528a2.613 2.613 0 0 0 .473.246c-.031.879-.062 2.056-.021 2.671a1.022 1.022 0 0 0 .068.4 11.234 11.234 0 0 0 2.849 2c.455 0 2.068 1.128 2.136 1.675s4.73 2.865 5.391 2.932 3.863.642 4.3-.258a1.491 1.491 0 0 0 .089-.833zm-11.455-116.093l.332.286s.341 2.659.584 3.455a6.672 6.672 0 0 1-.049 2.345 5.4 5.4 0 0 0 .341 1.69c.289.581-.584 1.844-.584 1.844h-.778l-.243-9.952zM872.364 315.6v-.058a.191.191 0 0 0-.009.058zm-11.941 38.311a1.122 1.122 0 0 1-.049-.821 2.461 2.461 0 0 0 .163-.455 7.046 7.046 0 0 0 .178-1.229.086.086 0 0 0 0-.015 6.5 6.5 0 0 1-.046-2.33c.231-.756.581-3.455.581-3.455l.221-.187.513-.446a3.651 3.651 0 0 1 .037-.44 34.229 34.229 0 0 1 .055 5.047c-.258.255-1.2 2.766-.971 2.865a11.763 11.763 0 0 1-.2 2.391 4.9 4.9 0 0 1-.481-.92z" transform="translate(-594.89 -212.674)"/><path fill="#c37098" d="M290.306 105.387v3.823l-7.844 3.943s-7.788-4.712-5.867-6.587c1.229-1.186.993-4.444.661-6.685-.194-1.3-.418-2.259-.418-2.259s13.991-4 11.876-.962a4.771 4.771 0 0 0-.526 3.627 16.474 16.474 0 0 0 2.118 5.1z"/><path fill="#3f3d56" d="M268.815 142.777l-1.007 12.451s-1.515-1.374-3.476-3.163c-3.636-3.316-8.8-8.059-8.738-8.185.1-.194.922-11.492 1.011-14.332a17.152 17.152 0 0 1 1.3-5.864 36.462 36.462 0 0 0 .922-3.814c.074-.341.12-.562.12-.562l1.7-.682s7.069 7.887 7.069 8.031-.483 6.2-.483 6.2l-.5.436-.218.187s-.338 2.646-.578 3.439a6.174 6.174 0 0 0 .046 2.317 7.158 7.158 0 0 1-.175 1.229 2.582 2.582 0 0 1-.163.452 1.128 1.128 0 0 0 .049.818 4.943 4.943 0 0 0 .529 1.011zM311.661 143.883c.074.151-7.466 7.032-10.733 10l-1.483 1.347-1-12.454h2.6s.867-1.251.578-1.829a5.343 5.343 0 0 1-.335-1.681 6.7 6.7 0 0 0 .046-2.333c-.24-.8-.578-3.439-.578-3.439l-.329-.283-.39-.341s-.483-6.058-.483-6.2 7.069-8.031 7.069-8.031l1.684.673s.037.181.1.47c.227 1.048.771 3.528.959 3.906a17.149 17.149 0 0 1 1.3 5.864c.073 2.839.897 14.137.995 14.331zM311.692 249.594c-.452.9-3.624.307-4.278.258s-5.277-2.376-5.342-2.92-1.666-1.666-2.115-1.666a11.238 11.238 0 0 1-2.821-1.989.981.981 0 0 1-.065-.4c-.068-1.054.065-3.768.065-3.768l9.3.513 4.518 6.8a8.766 8.766 0 0 1 .818 2.327 1.537 1.537 0 0 1-.077.848z"/><path d="M311.692 249.594c-.452.9-3.624.307-4.278.258s-5.277-2.376-5.342-2.92-1.666-1.666-2.115-1.666a11.238 11.238 0 0 1-2.821-1.989.981.981 0 0 1-.065-.4c-.068-1.054.065-3.768.065-3.768l9.3.513 4.518 6.8a8.766 8.766 0 0 1 .818 2.327 1.537 1.537 0 0 1-.077.848z" opacity=".1"/><path d="M311.692 249.594c-.452.9-3.624.307-4.278.258s-5.277-2.376-5.342-2.92-1.666-1.666-2.115-1.666a11.238 11.238 0 0 1-2.821-1.989.981.981 0 0 1-.065-.4l3.012 1.906a12.711 12.711 0 0 1 2.437 1.958c.513.728 4.558 2.244 4.893 2.274a23.03 23.03 0 0 1 4.355-.27 1.537 1.537 0 0 1-.077.848z" opacity=".1"/><path fill="#3f3d56" d="M267.741 243.985a5.03 5.03 0 0 1-3.073 1.761 1.81 1.81 0 0 0-1.795 1.73s.307 1-3.943 2.376c-2.566.827-4.18.565-5.12 0a2.287 2.287 0 0 1-1.067-1.285c-.289-1.023 5.385-8.815 5.385-8.815l5.164-.307 3.688 1.666.566 2.112z"/><path d="M267.741 243.985a5.03 5.03 0 0 1-3.073 1.761 1.81 1.81 0 0 0-1.795 1.73s.307 1-3.943 2.376c-2.566.827-4.18.565-5.12 0a2.287 2.287 0 0 1-1.067-1.285c-.289-1.023 5.385-8.815 5.385-8.815l5.164-.307 3.688 1.666.566 2.112z" opacity=".1"/><path fill="none" d="M267.739 243.985a5.03 5.03 0 0 1-3.074 1.761 1.81 1.81 0 0 0-1.795 1.73s.307 1-3.943 2.376c-2.566.827-4.18.566-5.12 0 2.419-.252 7.764-1.78 8.3-2.308.642-.642 1.445-2.407 1.989-2.437a21.411 21.411 0 0 0 3.452-1.9z"/><path d="M267.739 243.985a5.03 5.03 0 0 1-3.074 1.761 1.81 1.81 0 0 0-1.795 1.73s.307 1-3.943 2.376c-2.566.827-4.18.566-5.12 0 2.419-.252 7.764-1.78 8.3-2.308.642-.642 1.445-2.407 1.989-2.437a21.411 21.411 0 0 0 3.452-1.9z" opacity=".1"/><path fill="#3f3d56" d="M307.331 236.835c-.578 1.346 0 4.1 0 4.1s-8.606.449-10.708-.962-3.59-9.491-3.59-9.491.307-9.488 0-9.937-1.475-2.563-1.091-3.012-.307-2.821-.833-3.848-.307-3.974-.307-3.974l-1.285-7.825-1.985-9.294-1.687-6.221s-1.73-5.065-2.317-7.18-1.208-.194-1.208-.194c-.062 2.053-4.807 11.286-4.807 11.286a50.79 50.79 0 0 1-1.475 7.564c-.768 1.985-1.6 8.913-1.6 8.913s-1.229 14.1-2.244 16.477a36.352 36.352 0 0 0-1.712 5.9s.258 4.875-.384 5.259-.538 3.335-.538 3.335.384 2.818-1.091 3.27-1.229 1.411-1.229 1.411-8.206 1.346-9.552-2.247.513-4.549.615-4.807 1.125-.7.227-1.733 1.153-3.845 1.153-3.845.323-3.974.9-4.1.387-5.9.387-5.9l.639-6.027s.836-13.465.642-13.978a8.54 8.54 0 0 1 .578-4.3c.642-1.229 1.153-12.442 1.153-12.442s-.129-5.511.384-6.537a19.053 19.053 0 0 0 .51-4.638c.055-1.392.068-2.545.068-2.545l7.18-2.692 9.221-2.948 7.758 3.719 11.351 2.179.141 1.958 2.167 29.908 1.229 11.283s.513 5.32.578 6.282.7 7.247.7 7.247 1.346 3.012.513 4.039a1.947 1.947 0 0 0-.513 1.844s2.64 3.357 2.062 4.703z"/><path d="M288.724 96.661a4.771 4.771 0 0 0-.526 3.627 9.018 9.018 0 0 1-10.932-.409c-.194-1.3-.418-2.259-.418-2.259s13.987-3.99 11.876-.959z" opacity=".1"/><path fill="#c37098" d="M291.991 92.739a8.962 8.962 0 1 1-2.625-6.38 9.005 9.005 0 0 1 2.625 6.38z"/><path d="M293.862 107.704l-2.951 52.542-16.028-3.366-3.175-21.063 3.144-28.276 2.367.3 4.174.532 4.134.255 4.481-.5z" opacity=".1"/><path fill="#6c63ff" d="M293.862 108.089l-2.951 52.542-16.028-3.366-3.175-21.063 3.144-28.273 2.367.3 4.174.532 4.134.255 4.481-.5z"/><path fill="#3f3d56" d="M280.69 109.499l5.772.194-1.623 2.271s.114 4.589.885 5.9.544 21.638.544 21.638l-1.537 2.917-2.628-3.27.034-26.832z"/><path d="M280.69 109.499l5.772.194-1.623 2.271s.114 4.589.885 5.9.544 21.638.544 21.638l-1.537 2.917-2.628-3.27.034-26.832z" opacity=".1"/><path d="M289.729 103.537l-5.385 5.963 3.077 3.206 5.1-4.97z" opacity=".1"/><path fill="#6c63ff" d="M289.729 103.152l-5.385 5.963 3.077 3.206 5.1-4.97z"/><path d="M282.07 109.21l-5.452-5.449-.513 2.852 2.5 6.252z" opacity=".1"/><path fill="#6c63ff" d="M282.26 108.826l-5.449-5.449-.513 2.852 2.5 6.252z"/><path d="M300.61 171.535a26.607 26.607 0 0 1-8.3 2.4c-5.29.673-8.75-6.058-8.75-6.058l-2.019 2.628c-.642 2.791-10.419 3.495-14.393 2.437a6.359 6.359 0 0 1-2.281-1.079c.055-1.392.068-2.545.068-2.545l7.18-2.692 9.221-2.948 7.758 3.719 11.35 2.179zM293.866 108.092l-2.948 52.539-16.031-3.366-3.181-21.06 3.141-28.276 2.367.307a28.721 28.721 0 0 1-.347 3.073c-.384 1.8 1.989 14.556 1.989 14.556s4.509 14.307 6.537 12.245 4.913-12.951 4.913-12.951c1.958-4.039.034-15.368-.111-15.6a4.578 4.578 0 0 1-.184-1.03zM300.79 148.748l.135 5.148-1.48 1.343-1-12.463h2.213zM265.98 139.251a7.152 7.152 0 0 1-.175 1.229c0-.114 0-.178-.025-.187-.092-.025.019-.495.2-1.042zM268.822 142.776l-1.011 12.454s-1.515-1.374-3.476-3.163l.234-2.207s.827-5.422 1.128-8.1a4.943 4.943 0 0 0 .529 1.011z" opacity=".1"/><path fill="#3f3d56" d="M277.515 103.567s-.959-1.411-2.274 1.312a27.5 27.5 0 0 1-4.61 2.213c-1.18.224-5.379 1.7-5.379 1.7a3.713 3.713 0 0 1-2.179.7c-1.315 0-2.406 2.886-2.247 4.457s-.1 2.726-1.312 2.791-.547 2.594-.547 2.594l8.111 9.3s.513 8.56.258 8.818-1.186 2.766-.962 2.852-1.229 9.552-1.229 9.552l-1.955 18.37s0 3.074 3.977 4.134 13.76.36 14.39-2.431l2.019-2.631s3.461 6.734 8.75 6.061a25.437 25.437 0 0 0 8.658-2.6l-.578-22.016-.384-15.869 8.259-13.57s-2.213-4.232-2.019-6.147.575-3.366-4.137-4.039a18.091 18.091 0 0 1-6.316-2.213 18.053 18.053 0 0 0-4.518-2.274s-1.322-2.459-2.241-1.617a30.221 30.221 0 0 1 .845 4 13.219 13.219 0 0 0 .289 3.11c.144.243 2.068 11.556.111 15.6 0 0-2.874 10.889-4.918 12.952s-6.537-12.245-6.537-12.245-2.373-12.761-1.989-14.556.664-8.308.664-8.308z"/><circle cx="1.411" cy="1.411" r="1.411" fill="#3f3d56" transform="translate(282.964 142.776)"/><circle cx="1.411" cy="1.411" r="1.411" fill="#3f3d56" transform="translate(282.964 149.427)"/><circle cx="1.411" cy="1.411" r="1.411" opacity=".1" transform="translate(282.964 142.776)"/><circle cx="1.411" cy="1.411" r="1.411" opacity=".1" transform="translate(282.964 149.427)"/><path stroke="#6c63ff" stroke-miterlimit="10" d="M297.053 234.911s5.791.449 6.365.9-6.365-.9-6.365-.9zM262.577 230.359s1.229 1.537.707 2.244-.707-2.244-.707-2.244zM264.053 235.901s2.244-1.475 3.141-.495-3.141.495-3.141.495z" opacity=".1"/><path d="M291.991 92.739a8.963 8.963 0 0 1-.289 2.277 1.023 1.023 0 0 1-.6-1c.04-.366.283-.7.23-1.063-.077-.559-.753-.787-1.109-1.229a2.86 2.86 0 0 1-.307-2c.037-.692-.138-1.537-.787-1.773-.194-.071-.406-.077-.593-.157-.51-.215-.667-.848-1.008-1.285a2.656 2.656 0 0 0-3.074-.443 14.617 14.617 0 0 1-1.383.578 1.807 1.807 0 0 1-1.448-.108c-.2-.129-.366-.307-.575-.436a1.984 1.984 0 0 0-2.207.538 7.627 7.627 0 0 1-1.844 1.589c-.341.154-.762.246-.922.578a1.211 1.211 0 0 0-.1.575 17.181 17.181 0 0 1-.108 3.581c-.16.753-.688 1.607-1.454 1.515a1.434 1.434 0 0 1-.28-.071 9.005 9.005 0 1 1 17.857-1.666z" opacity=".1"/><path fill="#3f3d56" d="M273.737 93.889c.23.052.449.172.685.2.765.092 1.294-.762 1.454-1.515a16.576 16.576 0 0 0 .111-3.581 1.171 1.171 0 0 1 .1-.575c.175-.332.6-.424.922-.578a7.959 7.959 0 0 0 1.844-1.589 1.964 1.964 0 0 1 2.2-.538c.206.123.372.307.575.436a1.844 1.844 0 0 0 1.451.108c.476-.141.922-.39 1.38-.578a2.67 2.67 0 0 1 3.074.44c.341.44.5 1.07 1.008 1.285.188.08.4.089.593.16.648.243.815 1.082.787 1.773a2.98 2.98 0 0 0 .307 2c.357.436 1.033.664 1.109 1.229.049.363-.191.7-.23 1.063a1.02 1.02 0 0 0 .962 1.088c.8 0 1.294-.894 2.041-1.18a2.426 2.426 0 0 0 .922-.381 1.017 1.017 0 0 0 .19-.833c-.151-1.177-1.094-2.2-.993-3.381.1-1.131 1.143-2.118.922-3.23a2.619 2.619 0 0 0-.615-1.1 3.553 3.553 0 0 0-1.254-1.06 12.907 12.907 0 0 1-1.312-.452c-1.162-.636-1.159-2.3-1.844-3.427a3.009 3.009 0 0 0-2.8-1.4c-.864.086-1.647.544-2.5.7a6.486 6.486 0 0 1-3.467-.615 9.481 9.481 0 0 0-3.421-.922 2.917 2.917 0 0 0-2.84 1.74c-.191.615-.1 1.272-.243 1.89a4.126 4.126 0 0 1-2.207 2.422c-.673.375-1.481.805-1.561 1.571a3.238 3.238 0 0 0 .384 1.392 3.544 3.544 0 0 1-.018 2.459c-.224.581-.6 1.091-.827 1.669a3 3 0 0 0 .08 2.459 2.293 2.293 0 0 0 1.4 1.153c.605.156.986-.443 1.631-.302z"/><g opacity=".1"><path d="M275.876 91.906c-.16.753-.692 1.607-1.457 1.515-.237-.031-.452-.151-.685-.2-.642-.141-1.023.461-1.629.307a2.3 2.3 0 0 1-1.408-1.153 2.66 2.66 0 0 1-.286-1.005 2.806 2.806 0 0 0 .286 1.583 2.3 2.3 0 0 0 1.408 1.153c.615.141.987-.461 1.629-.307a6.947 6.947 0 0 0 .685.2c.765.1 1.3-.759 1.457-1.512a8.883 8.883 0 0 0 .148-2.019 7.572 7.572 0 0 1-.148 1.438zM271.665 87.278a3.537 3.537 0 0 0-.2-1.484 7.851 7.851 0 0 1-.353-.971 1.384 1.384 0 0 0-.031.157 3.293 3.293 0 0 0 .384 1.392 3.525 3.525 0 0 1 .2.906zM295.147 85.658c-.144.873-.851 1.694-.922 2.612a2.191 2.191 0 0 0 0 .473c.154-1.072 1.104-2.022.922-3.085zM295.199 92.143a.723.723 0 0 1-.175.344c-.227.243-.615.261-.922.381-.747.286-1.229 1.189-2.041 1.18a1.03 1.03 0 0 1-.922-.713 1.6 1.6 0 0 0-.043.2 1.02 1.02 0 0 0 .962 1.085c.8 0 1.294-.894 2.041-1.177.307-.12.682-.138.922-.381a1.017 1.017 0 0 0 .191-.833c-.001-.034-.01-.058-.013-.086zM291.345 91.888c-.077-.559-.753-.787-1.11-1.229a1.684 1.684 0 0 1-.338-1.008 2.269 2.269 0 0 0 .338 1.586c.353.43.891.615 1.063 1.057a.987.987 0 0 0 .047-.406zM289.914 88.67c.025-.692-.141-1.537-.79-1.773-.191-.071-.4-.08-.59-.157-.51-.215-.67-.848-1.008-1.285a2.663 2.663 0 0 0-3.073-.443c-.461.187-.9.436-1.38.578a1.807 1.807 0 0 1-1.448-.108c-.2-.129-.369-.307-.575-.436a1.982 1.982 0 0 0-2.207.538 7.637 7.637 0 0 1-1.844 1.589c-.344.154-.762.246-.941.578a1.208 1.208 0 0 0-.1.575v.36a.873.873 0 0 1 .089-.357c.178-.332.6-.424.94-.578a7.958 7.958 0 0 0 1.844-1.589 1.967 1.967 0 0 1 2.207-.538c.206.123.372.307.575.433a1.8 1.8 0 0 0 1.448.108 14.205 14.205 0 0 0 1.38-.575 2.664 2.664 0 0 1 3.074.44c.338.436.5 1.07 1.008 1.285.188.08.4.089.59.16a1.475 1.475 0 0 1 .781 1.371z"/></g><g opacity=".1"><path d="M274.781 91.887a2.357 2.357 0 0 1 1.776-2.2 7.376 7.376 0 0 1 4.143.187c2.917.965-.369 4.438-.369 4.438s-2.185 2.151-4.223.649a3.193 3.193 0 0 1-1.189-1.844 4.7 4.7 0 0 1-.138-1.23zM290.813 91.887a2.357 2.357 0 0 0-1.78-2.2 7.376 7.376 0 0 0-4.14.188c-2.917.965.369 4.438.369 4.438s2.182 2.151 4.223.648a3.193 3.193 0 0 0 1.189-1.844 4.706 4.706 0 0 0 .139-1.23z"/><path d="M280.148 89.589v.144h5.326v-.172zM281.847 91.129h.169v-.489a1.4 1.4 0 0 1 1.438 0v.436h.307v-.286h-.151s.061-.593-.941-.5c0 0-.805-.077-.787.433h-.184z"/></g><path fill="#6c63ff" d="M274.781 91.688a2.357 2.357 0 0 1 1.776-2.2 7.416 7.416 0 0 1 4.143.188c2.917.968-.369 4.438-.369 4.438s-2.185 2.151-4.223.649a3.175 3.175 0 0 1-1.189-1.844 4.674 4.674 0 0 1-.138-1.226zM290.814 91.688a2.357 2.357 0 0 0-1.78-2.2 7.4 7.4 0 0 0-4.14.187c-2.917.968.369 4.438.369 4.438s2.182 2.151 4.223.648a3.175 3.175 0 0 0 1.189-1.844 4.674 4.674 0 0 0 .139-1.229z"/><path fill="#6c63ff" d="M280.149 89.396v.148h5.326v-.175zM281.848 90.935h.169v-.489a1.408 1.408 0 0 1 1.438 0v.44h.307v-.289h-.151s.061-.59-.941-.5c0 0-.805-.074-.787.433h-.184z"/><path fill="#535461" d="M36.406 140.52h1.746v39.31h-1.746z"/><path fill="#3f3d56" d="M49.125 179.71l-.111 1.77-.154 2.5-.065 1.042-.154 2.5-.068 1.042-.154 2.5-1.761 28.421a4.813 4.813 0 0 1-4.8 4.518h-9.153a4.81 4.81 0 0 1-4.8-4.518l-1.77-28.421-.154-2.5-.065-1.042-.151-2.508-.065-1.042-.154-2.5-.111-1.77a2.493 2.493 0 0 1 2.49-2.646H46.64a2.49 2.49 0 0 1 2.486 2.652z"/><path fill="#9d9cb5" d="M49.013 181.481l-.154 2.5H25.695l-.154-2.5zM48.796 185.022l-.154 2.5H25.917l-.157-2.5zM48.574 188.566l-.154 2.5H26.141l-.157-2.5z"/><path fill="#6c63ff" d="M22.877 155.255c10.167 7.355 14.4 18.862 14.4 18.862s-12.247-.421-22.434-7.776-14.4-18.862-14.4-18.862 12.263.421 22.434 7.776z"/><path fill="none" stroke="#535461" stroke-miterlimit="10" stroke-width="2" d="M.455 147.479s12.718 7.069 16.8 12.909 20.027 13.732 20.027 13.732"/><path fill="#6c63ff" d="M29.439 140.449a24.645 24.645 0 0 1 7.841 10.266 24.651 24.651 0 0 1-12.203-4.228 24.649 24.649 0 0 1-7.84-10.27 24.457 24.457 0 0 1 12.202 4.232z"/><path fill="none" stroke="#535461" stroke-miterlimit="10" stroke-width="2" d="M17.237 136.202s6.922 3.842 9.141 7.023 10.9 7.475 10.9 7.475"/><path fill="#6c63ff" d="M45.322 150.383a34.075 34.075 0 0 0-7.7 16.114 30.976 30.976 0 0 0 23.021-25.3 34.079 34.079 0 0 0-15.321 9.186z"/><path fill="none" stroke="#535461" stroke-miterlimit="10" stroke-width="2" d="M60.64 141.196s-8.28 7.161-10.385 12.1-12.635 13.216-12.635 13.216"/></g></svg>