<svg xmlns="http://www.w3.org/2000/svg" viewBox="0 0 472.814 310.183"><g><ellipse cx="236.407" cy="14.839" fill="#e6e6e6" rx="236.407" ry="14.839" transform="translate(0 280.505)"/><path fill="#e6e6e6" d="M361.325 0a1.683 1.683 0 0 0-1.681 1.681v65.891a1.683 1.683 0 0 0 1.681 1.681h76.966a1.683 1.683 0 0 0 1.681-1.681V1.681A1.683 1.683 0 0 0 438.291 0z"/><path fill="#fff" d="M371.999 39.66a.739.739 0 0 0 0 1.448h56.31a.739.739 0 0 0 0-1.448zM371.307 48.265a.739.739 0 0 0 0 1.448h56.307a.739.739 0 0 0 0-1.448zM371.999 56.871a.739.739 0 0 0 0 1.448h56.31a.739.739 0 0 0 0-1.448zM371.999 10.933a.739.739 0 0 0 0 1.449h56.31a.739.739 0 0 0 0-1.449zM371.307 19.539a.739.739 0 0 0 0 1.449h56.307a.739.739 0 0 0 0-1.449zM371.999 28.144a.739.739 0 0 0 0 1.449h56.31a.739.739 0 0 0 0-1.449z"/><path fill="#6c63ff" d="M326.926 26.944a1.683 1.683 0 0 0-1.681 1.681v65.891a1.683 1.683 0 0 0 1.681 1.681h76.962a1.683 1.683 0 0 0 1.681-1.681V28.625a1.683 1.683 0 0 0-1.681-1.681z"/><path fill="#fff" d="M337.599 66.604a.739.739 0 0 0 0 1.448h56.306a.739.739 0 0 0 0-1.448zM336.907 75.209a.739.739 0 0 0 0 1.448h56.306a.739.739 0 0 0 0-1.448zM337.599 83.815a.739.739 0 0 0 0 1.448h56.306a.739.739 0 0 0 0-1.448zM337.6 37.878a.739.739 0 0 0 0 1.449h56.306a.739.739 0 0 0 0-1.449zM336.907 46.483a.739.739 0 0 0 0 1.449h56.306a.739.739 0 0 0 0-1.449zM337.6 55.089a.739.739 0 0 0 0 1.449h56.306a.739.739 0 0 0 0-1.449z"/><path fill="#fbbebe" d="M435.647 272.744l.4 7.664 8.471-.807-.806-7.664zM402.973 263.87l.4 7.664 8.471-.807-.807-7.664z"/><path fill="#2f2e41" d="M441.496 168.47l-30.657 5.244-2.017 55.667-8.068 35.5 12.908 5.647 12.5-35.094 4.437-31.061 3.227 31.061.4 39.128 19.766-1.21-4.727-76.622a71.286 71.286 0 0 0-7.779-28.257zM436.857 277.585s-2.824-3.227-2.824-2.017-1.614 12.908-1.614 12.908 10.891 3.227 10.891 5.244 15.732 5.244 15.328 1.21-14.117-19.362-14.117-19.362-5.647-.806-7.664 2.017z"/><path fill="#2f2e41" d="M404.674 268.76s-.86-4.2-1.458-3.149-7.782 10.424-7.782 10.424 7.873 8.188 6.877 9.942 11.085 12.334 12.728 8.628-2.7-23.81-2.7-23.81-4.516-3.493-7.665-2.035zM404.056 124.002l22.332 2.135 7.444-20.286-21.379-5.15z"/><circle cx="11.295" cy="11.295" r="11.295" fill="#fbbebe" transform="translate(411.04 97.272)"/><path fill="#fbbebe" d="M415.882 115.425s0 7.664-6.051 10.891 14.522 6.858 14.522 6.858l2.017-6.858s-6.051-2.824-.807-9.278z"/><path fill="#575a89" d="M425.562 124.299s-7.388 4.576-13.577.473l-2.559-.473-7.664 1.614-3.63 13.715 13.715 34.288s23.8 4.034 28.64-4.841l-2.824-36.3-7.664-9.278z"/><path fill="#575a89" d="M429.193 124.703l13.311-18.552-1.21-2.017-17.345-8.883v-5.648l27.027 7.261 1.829 2.9-15.947 34.617zM402.57 126.316l-.806-.4-20.169-.806 15.329-13.312-4.841-6.05-22.994 17.342v4.034l32.674 13.715z"/><path fill="#fbbebe" d="M391.88 107.559l2.824-1.614s6.051-8.068 8.471-4.841-5.647 9.278-5.647 9.278l-4.437 1.614zM425.159 90.821l-4.437-2.42s-13.312 1.21-11.7 4.034 10.891.4 10.891.4l5.244 1.614z"/><path fill="#2f2e41" d="M413.664 97.666s-5.185 1.728-5.448 8.553a12.112 12.112 0 0 0 .36 3.241c.292 1.237.48 3.9-1.783 7.378a73.064 73.064 0 0 0-4.145 7.131l-.016.032 5.694.712 1.211-9.439a47 47 0 0 1 3.732-13.25l.039-.088s2.491 4.627 7.474 4.627l-1.779-1.779s7.83 3.2 10.677 3.2c0 0 2.135 1.424 0 3.559s-6.406 7.118-3.915 11.033.356 4.982.356 4.982l3.915-2.135 1.779-1.068v1.424l9.253-1.068s2.491-.356-2.847-6.406c0 0-1.41-2.349-.793-4.376a10.221 10.221 0 0 0 .388-4.78c-1.196-6.669-5.888-19.933-24.152-11.483z"/><path fill="#e6e6e6" d="M89.026 104.255a1.053 1.053 0 0 0-1.052 1.052v80.384a1.053 1.053 0 0 0 1.052 1.052h183.5a1.053 1.053 0 0 0 1.048-1.052v-80.385a1.053 1.053 0 0 0-1.052-1.052z"/><path fill="#fff" d="M247.694 120.11H113.858a1.263 1.263 0 0 1 0-2.525h133.836a1.263 1.263 0 0 1 0 2.525zM247.694 130.215H113.858a1.263 1.263 0 1 1 0-2.525h133.836a1.263 1.263 0 0 1 0 2.525zM247.694 140.315H113.858a1.263 1.263 0 1 1 0-2.525h133.836a1.263 1.263 0 0 1 0 2.525zM247.694 150.34H113.858a1.263 1.263 0 1 1 0-2.525h133.836a1.263 1.263 0 0 1 0 2.525zM247.694 160.441H113.858a1.263 1.263 0 1 1 0-2.525h133.836a1.263 1.263 0 0 1 0 2.525zM213.722 168.845a.361.361 0 0 0-.36.36v9.557a.361.361 0 0 0 .36.361h33.432a.361.361 0 0 0 .361-.361v-9.557a.361.361 0 0 0-.361-.361z"/><path fill="#2f2e41" d="M30.587 186.562s-2.76 33.19-3.353 40.3a50.579 50.579 0 0 1-2.963 13.039 12.261 12.261 0 0 0-1.185 4.741v30.226a1.762 1.762 0 0 0-1.778 2.371c.593 2.371 1.185 6.519 1.185 6.519h8.89a1.836 1.836 0 0 1 1.185-2.371c1.778-.593 0-5.334 0-5.334l9.483-35.56 14.224-29.633s8.3 26.67 10.075 29.633c0 0 6.519 33.189 7.7 36.152s1.778 2.963 1.185 4.149-.593 2.371 0 2.963 11.853 0 11.853 0l-2.963-42.079-5.334-50.376-27.262-8.3z"/><path fill="#2f2e41" d="M29.013 279.017s-2.963-10.668-7.7-2.371-4.741 11.26-4.741 11.26-7.7 11.261 2.963 10.075 8.3-6.519 8.3-6.519 4.149-2.371 4.149-4.149-2.971-8.296-2.971-8.296zM77.018 277.832s2.963-10.668 7.7-2.371 4.741 11.261 4.741 11.261 7.7 11.26-2.963 10.075-8.3-6.519-8.3-6.519-4.149-2.371-4.149-4.149 2.971-8.297 2.971-8.297z"/><path fill="#ffb9b9" d="M49.163 106.553s1.185 7.7-2.371 9.483 7.7 8.3 10.668 8.3 8.3-5.927 8.3-5.927-2.963-8.89-2.371-10.668z"/><circle cx="12.446" cy="12.446" r="12.446" fill="#ffb9b9" transform="translate(43.237 87.588)"/><path fill="#cfcce0" d="M79.982 125.522l-14.816-8.976s-8.43 9.569-17.55-1.1l-15.639 4.149 2.371 40.3s-3.556 16-2.371 18.965-2.963 4.149-1.778 4.741 0 4.741 0 4.741 23.114 11.853 48.6 2.963l-2.371-7.7a6.219 6.219 0 0 0-1.185-5.927s2.371-3.556-.593-6.519c0 0 1.185-5.334-1.778-7.7l-.593-8.3 1.778-4.149z"/><path fill="#2f2e41" d="M49.313 94.254s-1.484 3.211 4.451 1.927c0 0 2.226 1.284 2.226-.642 0 0 2.968 3.211 3.71 1.284s2.226.642 2.226.642l1.484-3.211 1.484 1.927h5.193s1.484-12.845-16.322-11.56-9.046 21.635-9.046 21.635.143-3.653 1.627-1.726 2.967-10.276 2.967-10.276z"/><path fill="#ffb9b9" d="M85.316 149.219l.593 12.446s2.371 23.114-2.371 33.189v5.334s-1.185 13.631-7.112 13.039 1.778-19.558 1.778-19.558l-1.185-26.077-1.185-14.817z"/><path fill="#cfcce0" d="M73.458 126.111l5.912-.961a28.865 28.865 0 0 1 8.312 15.184c1.778 9.483 2.371 11.261 2.371 11.261l-14.224 3.556-7.7-14.816z"/><path fill="#6c63ff" d="M48.646 129.622a1.053 1.053 0 0 0-1.052 1.052v80.386a1.053 1.053 0 0 0 1.052 1.052h183.5a1.053 1.053 0 0 0 1.052-1.052v-80.387a1.053 1.053 0 0 0-1.052-1.052z"/><path fill="#fff" d="M207.317 145.481H73.478a1.263 1.263 0 1 1 0-2.525h133.839a1.263 1.263 0 1 1 0 2.525zM207.317 155.582H73.478a1.263 1.263 0 1 1 0-2.525h133.839a1.263 1.263 0 1 1 0 2.525zM207.317 165.683H73.478a1.263 1.263 0 1 1 0-2.525h133.839a1.263 1.263 0 1 1 0 2.525zM207.317 175.707H73.478a1.263 1.263 0 1 1 0-2.525h133.839a1.263 1.263 0 1 1 0 2.525zM207.317 185.808H73.478a1.263 1.263 0 1 1 0-2.525h133.839a1.263 1.263 0 1 1 0 2.525zM173.342 194.213a.361.361 0 0 0-.361.361v9.557a.361.361 0 0 0 .361.36h33.432a.361.361 0 0 0 .36-.36v-9.557a.361.361 0 0 0-.36-.361z"/><path fill="#ffb9b9" d="M23.086 142.113s-5.334 22.521 1.185 22.521 21.928-25.484 21.928-25.484 16-8.3 9.483-11.261-14.817 4.741-14.817 4.741l-9.574 13.292-.5-6.773z"/><path fill="#cfcce0" d="M35.532 123.147l-3.556-3.556s-7.112 4.149-7.7 8.3-3.556 17.187-3.556 17.187l10.964.889 3.556-5.334z"/></g></svg>