<svg xmlns="http://www.w3.org/2000/svg" viewBox="0 0 512 512"><path xmlns="http://www.w3.org/2000/svg" fill="#00196d" d="M383 462.5h-37v-19H166v19h-37c-8.284 0-15 6.716-15 15s6.716 15 15 15h254c8.284 0 15-6.716 15-15s-6.716-15-15-15zm114-443H90v60h422v-45c0-8.284-6.716-15-15-15zM0 34.5v364c0 8.284 6.716 15 15 15h45v-394H15c-8.284 0-15 6.716-15 15zm90 379h407c8.284 0 15-6.716 15-15v-289H90zm362-78.998c0 8.284-6.716 15-15 15h-63.848c-8.284 0-15-6.716-15-15s6.716-15 15-15H437c8.284 0 15 6.716 15 15zm-39-60c0 8.284-6.716 15-15 15H267c-8.284 0-15-6.716-15-15s6.716-15 15-15h131c8.284 0 15 6.716 15 15zM307.5 229.5h-40.826c-8.284 0-15-6.716-15-15s6.716-15 15-15H307.5c8.284 0 15 6.716 15 15s-6.716 15-15 15zm-171.5-90h171c8.284 0 15 6.716 15 15s-6.716 15-15 15H136c-8.284 0-15-6.716-15-15s6.716-15 15-15z" data-original="#000000"/></svg>