<svg xmlns="http://www.w3.org/2000/svg" viewBox="0 0 512 512"><g xmlns="http://www.w3.org/2000/svg" fill="#00196d"><path d="M390.341 198.974l-13.008 27.041 63.164 30.41 41.206-64.863-25.313-16.084-14.313 22.52c-10.583-33.735-30.359-64.722-57.112-88.262l-19.805 22.529c23.602 20.766 40.699 48.382 49.316 78.325zM89.425 154.818C71.043 185.195 60.881 220.538 61 256.044l30-.088c-.101-31.287 9.311-62.364 26.129-88.744l7.269 25.829 28.887-8.145-19.028-67.559-75.82 12.026 4.688 29.619zM316 61c0-33.091-26.909-61-60-61s-60 27.909-60 61 26.909 60 60 60 60-26.909 60-60zm30 150c0-49.629-40.371-90-90-90s-90 40.371-90 90v30h180z" data-original="#000000"/><circle cx="91" cy="331" r="60" data-original="#000000"/><path d="M181 481c0-49.629-40.371-90-90-90S0 431.371 0 481v31h181z" data-original="#000000"/><circle cx="421" cy="331" r="60" data-original="#000000"/><path d="M331 481v31h181v-31c0-49.629-41.371-90-91-90s-90 40.371-90 90zm-97.236-101.396l-48.721 46.377 38.511 62.065 25.488-15.82-14.097-22.712c7.006.76 14.02 1.531 21.055 1.531 24.287 0 48.56-4.512 71.294-13.477l-11.016-27.92c-25.737 10.155-53.78 13.53-81.125 10.06l19.294-18.365z" data-original="#000000"/></g></svg>