<svg xmlns="http://www.w3.org/2000/svg" viewBox="0 0 512 512"><path xmlns="http://www.w3.org/2000/svg" fill="#00196d" d="M496.766 88.852l-210.86-.32-50.868-49.899a15.256 15.256 0 0 0-10.684-4.366H83.297c-33.635 0-61.83 23.661-68.861 55.207a79.693 79.693 0 0 1 35.238-8.177h128.278c4.55 0 8.863 2.031 11.761 5.538l60.363 73.048 261.924.358v-56.132c0-8.418-6.817-15.244-15.234-15.257z" data-original="#000000"/><path xmlns="http://www.w3.org/2000/svg" fill="#00196d" d="M242.862 190.388a15.257 15.257 0 0 1-11.74-5.538l-60.355-73.039H49.674C22.24 111.811 0 134.051 0 161.485v301.249c0 8.284 6.716 15 15 15h481.36c8.284 0 15-6.716 15-15v-271.98l-268.498-.366zm-19.984 227.853H77.483c-8.426 0-15.257-6.831-15.257-15.257 0-8.426 6.831-15.257 15.257-15.257h145.395c8.426 0 15.257 6.831 15.257 15.257 0 8.426-6.831 15.257-15.257 15.257zm3.507-55.096H77.483c-8.426 0-15.257-6.831-15.257-15.257-.001-8.426 6.83-15.257 15.257-15.257h148.902c8.426 0 15.257 6.831 15.257 15.257 0 8.426-6.831 15.257-15.257 15.257zm108.684-60.599c0-13.231 10.726-23.957 23.957-23.957h.077c13.231 0 23.957 10.726 23.957 23.957v8.244c0 13.231-10.726 23.957-23.957 23.957h-.077c-13.231 0-23.957-10.726-23.957-23.957v-8.244zm73.726 107.52h-99.461v-40.353c1.514-5.832 25.622-16.084 49.73-16.084 24.108 0 48.216 10.252 49.731 16.084v40.353z" data-original="#000000"/></svg>