<svg xmlns="http://www.w3.org/2000/svg" viewBox="0 0 464 464"><g fill="#00196d"><path xmlns="http://www.w3.org/2000/svg" d="M344 112H104c-13.23 0-24 10.77-24 24v192c0 13.23 10.77 24 24 24h240c13.23 0 24-10.77 24-24V136c0-13.23-10.77-24-24-24zM112 272H96v-16h16zm0-32H96v-16h16zm32-96h-32v64H96v-64c0-8.824 7.176-16 16-16h32zm16 164.945v-153.89L313.887 232zM352 320h-16v-16h16zm0-32h-16v-16h16zm0-32h-16v-16h16zm0 0" data-original="#000000"/><path xmlns="http://www.w3.org/2000/svg" d="M64 328V224H24c-13.23 0-24 10.77-24 24v192c0 13.23 10.77 24 24 24h240c13.23 0 24-10.77 24-24v-72H104c-22.055 0-40-17.945-40-40zm-48-72h16v16H16zm0 32h16v16H16zm0 32h16v16H16zm256 112H104v16H56v-16H16v-16h40v-16h48v16h168zm-96-251.055v102.11L278.113 232zm0 0" data-original="#000000"/><path xmlns="http://www.w3.org/2000/svg" d="M72 416h16v16H72zm360-248a8 8 0 1 1-16 0 8 8 0 0 1 16 0zM320 32h112v16H320zm0 0" data-original="#000000"/><path xmlns="http://www.w3.org/2000/svg" d="M440 0H200c-13.23 0-24 10.77-24 24v72h128V16h144v152c0 13.23-10.77 24-24 24s-24-10.77-24-24 10.77-24 24-24c2.816 0 5.48.574 8 1.48V64H320v32h24c22.055 0 40 17.945 40 40v104h56c13.23 0 24-10.77 24-24V24c0-13.23-10.77-24-24-24zM288 64h-96V48h96zm0-32h-96V16h96zm0 0" data-original="#000000"/></g></svg>