<svg xmlns="http://www.w3.org/2000/svg" viewBox="0 0 512 512"><path xmlns="http://www.w3.org/2000/svg" fill="#00196d" d="M190.28 214h131.44v59.98H190.28z" data-original="#000000"/><path xmlns="http://www.w3.org/2000/svg" fill="#00196d" d="M409.07 273.98l-13.34-80.01c-6.57-39.39-40.32-67.97-80.24-67.97h-6.9C321.82 112.63 330 94.25 330 74c0-40.8-33.2-74-74-74s-74 33.2-74 74c0 20.25 8.18 38.63 21.41 52h-6.9c-39.93 0-73.67 28.58-80.24 67.97l-13.34 80.01h57.35V184h191.44v89.98h57.35zm-388.56 30v67.01h37.499V512h395.982V370.99h37.499v-67.01z" data-original="#000000"/></svg>