<?xml version="1.0"?>
<svg xmlns="http://www.w3.org/2000/svg" xmlns:xlink="http://www.w3.org/1999/xlink" xmlns:svgjs="http://svgjs.com/svgjs" version="1.1" width="512" height="512" x="0" y="0" viewBox="0 0 511 511.99995" style="enable-background:new 0 0 512 512" xml:space="preserve" class=""><g>
<g xmlns="http://www.w3.org/2000/svg" id="surface1">
<path d="M 198.257812 216.042969 C 216 216.042969 230.359375 201.683594 230.359375 183.941406 C 230.359375 166.199219 216 151.839844 198.257812 151.839844 C 180.511719 151.839844 166.15625 166.199219 166.15625 183.941406 C 166.15625 201.550781 180.511719 216.042969 198.257812 216.042969 Z M 198.257812 216.042969 " style="" fill="#636e72" data-original="#000000"/>
<path d="M 261.917969 319.253906 C 261.917969 290.402344 238.078125 266.835938 209.09375 266.835938 L 187.421875 266.835938 C 158.570312 266.835938 134.59375 290.269531 134.59375 319.253906 L 134.59375 371.132812 L 261.917969 371.132812 Z M 261.917969 319.253906 " style="" fill="#636e72" data-original="#000000"/>
<path d="M 314.609375 123.257812 L 381.113281 123.257812 L 279.527344 16.660156 L 279.527344 88.3125 C 279.527344 107.683594 295.101562 123.257812 314.609375 123.257812 Z M 314.609375 123.257812 " style="" fill="#636e72" data-original="#000000"/>
<path d="M 257.855469 88.3125 L 257.855469 0 L 49.804688 0 C 22.847656 0 0.5 22.214844 0.5 49.167969 L 0.5 462.832031 C 0.5 489.789062 22.847656 512 49.804688 512 L 346.710938 512 C 373.664062 512 396.011719 489.785156 396.011719 462.832031 L 396.011719 144.929688 L 314.605469 144.929688 C 283.183594 144.929688 257.855469 119.601562 257.855469 88.3125 Z M 198.257812 130.167969 C 227.921875 130.167969 252.03125 154.277344 252.03125 183.941406 C 252.03125 213.605469 227.921875 237.714844 198.257812 237.714844 C 168.59375 237.714844 144.484375 213.605469 144.484375 183.941406 C 144.484375 154.277344 168.59375 130.167969 198.257812 130.167969 Z M 112.921875 319.253906 C 112.921875 278.347656 146.515625 245.164062 187.421875 245.164062 L 209.09375 245.164062 C 250 245.164062 283.589844 278.351562 283.589844 319.253906 L 283.589844 381.832031 C 283.589844 387.792969 278.308594 392.804688 272.347656 392.804688 L 124.167969 392.804688 C 118.207031 392.804688 112.925781 387.792969 112.925781 381.832031 L 112.925781 319.253906 Z M 320.566406 429.375 C 320.566406 435.335938 315.691406 440.210938 309.730469 440.210938 L 86.78125 440.210938 C 80.820312 440.210938 75.945312 435.335938 75.945312 429.375 C 75.945312 423.414062 80.820312 418.539062 86.78125 418.539062 L 309.867188 418.539062 C 315.828125 418.539062 320.566406 423.417969 320.566406 429.375 Z M 320.566406 429.375 " style="" fill="#636e72" data-original="#000000"/>
</g>
</g></svg>
