<svg xmlns="http://www.w3.org/2000/svg" viewBox="0 0 472 472"><path fill="#ebe5dd" d="M44 104L236 0l192 104h40v32h-16v32H20v-32H4v-32z"/><path fill="#d4c8b8" d="M4 104h464v16H4z"/><path fill="#e7b900" d="M350.667 104H372L236 32l-136 72h69.333L260 56z"/><path fill="#ffd422" d="M260 56l-90.667 48h181.334z"/><path fill="#ebe5dd" d="M20 408h432v32H20z"/><g fill="#d4c8b8"><path d="M20 136h432v16H20zM20 424h432v16H20z"/></g><path fill="#ebe5dd" d="M4 440h464v32H4z"/><path fill="#d4c8b8" d="M4 456h464v16H4z"/><path fill="#5eac24" d="M396 200h24v176h-24z"/><path fill="#69c229" d="M420 200h16v176h-16z"/><path fill="#47821b" d="M308 200v176h24V200z"/><g fill="#5eac24"><path d="M332 200h16v176h-16zM52 200h24v176H52z"/></g><path fill="#69c229" d="M36 200h16v176H36z"/><path fill="#47821b" d="M164 200v176h-24V200z"/><path fill="#5eac24" d="M124 200h16v176h-16z"/><circle cx="236" cy="288" r="64" fill="#ffd422"/><g fill="#fff"><path d="M201.715 258.906l-11.438-11.188C202.429 235.3 218.668 228.46 236 228.46v16c-12.992.001-25.168 5.13-34.285 14.446zM261.004 351.363l-6.25-14.727c11.957-5.078 21.164-14.559 25.914-26.695l14.898 5.836c-6.332 16.176-18.609 28.813-34.562 35.586z"/></g><g fill="#e7b900"><path d="M236 208c-44.113 0-80 35.887-80 80s35.887 80 80 80 80-35.887 80-80-35.887-80-80-80zm0 144c-35.289 0-64-28.711-64-64s28.711-64 64-64 64 28.711 64 64-28.711 64-64 64z"/><path d="M260 304c0-13.234-10.766-24-24-24-4.41 0-8-3.59-8-8s3.59-8 8-8h16v-16h-8v-8h-16v9.474c-9.292 3.313-16 12.11-16 22.526 0 13.234 10.766 24 24 24 4.41 0 8 3.59 8 8s-3.59 8-8 8h-16v16h8v8h16v-9.474c9.292-3.313 16-12.11 16-22.526z"/></g></svg>