<svg xmlns="http://www.w3.org/2000/svg" viewBox="0 0 512 512"><path fill="#7ed8f6" d="M271 15v94.7c0 8.28-6.72 15-15 15s-15-6.72-15-15V15c0-8.28 6.72-15 15-15s15 6.72 15 15zM271 402.3V497c0 8.28-6.72 15-15 15s-15-6.72-15-15v-94.7c0-8.28 6.72-15 15-15s15 6.72 15 15z"/><path fill="#6aa9ff" d="M271 15v94.7c0 8.28-6.72 15-15 15V0c8.28 0 15 6.72 15 15zM271 402.3V497c0 8.28-6.72 15-15 15V387.3c8.28 0 15 6.72 15 15z"/><path fill="#7ed8f6" d="M169.696 124.696c-8.284 0-15-6.716-15-15V30H95.825c-8.284 0-15-6.716-15-15s6.716-15 15-15h73.871c8.284 0 15 6.716 15 15v94.696c0 8.284-6.716 15-15 15z"/><g fill="#6aa9ff"><path d="M342.648 124.696c-8.284 0-15-6.716-15-15V15c0-8.284 6.716-15 15-15s15 6.716 15 15v94.696c0 8.284-6.715 15-15 15zM497 184.696h-94.696c-8.284 0-15-6.716-15-15s6.716-15 15-15H482V95.825c0-8.284 6.716-15 15-15s15 6.716 15 15v73.871c0 8.284-6.716 15-15 15zM497 271h-94.696c-8.284 0-15-6.716-15-15s6.716-15 15-15H497c8.284 0 15 6.716 15 15s-6.716 15-15 15zM497 357.648h-94.696c-8.284 0-15-6.716-15-15s6.716-15 15-15H497c8.284 0 15 6.716 15 15s-6.716 15-15 15zM416.175 512h-73.871c-8.284 0-15-6.716-15-15v-94.696c0-8.284 6.716-15 15-15s15 6.716 15 15V482h58.871c8.284 0 15 6.716 15 15s-6.716 15-15 15z"/></g><path fill="#7ed8f6" d="M169.352 512c-8.284 0-15-6.716-15-15v-94.696c0-8.284 6.716-15 15-15s15 6.716 15 15V497c0 8.284-6.716 15-15 15zM15 431.175c-8.284 0-15-6.716-15-15v-73.871c0-8.284 6.716-15 15-15h94.696c8.284 0 15 6.716 15 15s-6.716 15-15 15H30v58.871c0 8.284-6.716 15-15 15zM109.696 271H15c-8.284 0-15-6.716-15-15s6.716-15 15-15h94.696c8.284 0 15 6.716 15 15s-6.716 15-15 15zM109.696 184.352H15c-8.284 0-15-6.716-15-15s6.716-15 15-15h94.696c8.284 0 15 6.716 15 15s-6.716 15-15 15z"/><path fill="#fcbe00" d="M417.3 133.43v245.14c0 21.36-17.37 38.73-38.73 38.73H133.43c-21.36 0-38.73-17.37-38.73-38.73V133.43c0-21.36 17.37-38.73 38.73-38.73h245.14c21.36 0 38.73 17.37 38.73 38.73z"/><path fill="#f87f02" d="M417.3 133.43v245.14c0 21.36-17.37 38.73-38.73 38.73H256V94.7h122.57c21.36 0 38.73 17.37 38.73 38.73z"/><path fill="#e7f2ff" d="M224.716 367.304h-65.021c-8.284 0-15-6.716-15-15V179.696c0-8.284 6.716-15 15-15s15 6.716 15 15v157.608h50.021c8.284 0 15 6.716 15 15s-6.716 15-15 15z"/><path fill="#d0e8ff" d="M352.648 347.304c-8.284 0-15-6.716-15-15V174.696h-50.021c-8.284 0-15-6.716-15-15s6.716-15 15-15h65.021c8.284 0 15 6.716 15 15v172.608c0 8.284-6.715 15-15 15z"/><path fill="#e7f2ff" d="M301 226v60c0 8.28-6.72 15-15 15h-60c-8.28 0-15-6.72-15-15v-60c0-8.28 6.72-15 15-15h60c8.28 0 15 6.72 15 15z"/><path fill="#d0e8ff" d="M301 226v60c0 8.28-6.72 15-15 15h-30v-90h30c8.28 0 15 6.72 15 15z"/></svg>