<svg xmlns="http://www.w3.org/2000/svg" viewBox="0 0 512 512"><path fill="#f1f1f4" d="M159.643 132l-4.191-57L113 51 66.548 75 56.474 212 61 227l-6.732 15-3.228 43.9A14.998 14.998 0 0 0 66 302h90a15 15 0 0 0 14.96-16.1L161.85 162 143 147z"/><path fill="#e2dff4" d="M170.96 285.9L161.85 162 143 147l16.643-15-4.191-57L113 51l-2 1.033V302h45a15 15 0 0 0 14.96-16.1z"/><path fill="#bebcdd" d="M126 132c-8.284 0-15 6.716-15 15s6.716 15 15 15h35.849l-2.206-30z"/><path fill="#e2dff4" d="M101 227c0-8.284-6.716-15-15-15H56.474l-2.206 30H86c8.284 0 15-6.716 15-15z"/><path fill="#ffb454" d="M150.96 13.9C150.383 6.063 143.857 0 136 0H86c-7.858 0-14.383 6.063-14.96 13.9L66.548 75h88.904z"/><g><path fill="#ff8659" d="M150.96 13.9C150.383 6.063 143.857 0 136 0h-25v75h44.452z"/></g><g><path fill="#e2dff4" d="M376 348.075h-15.686A108.936 108.936 0 0 0 352.393 330H159.607a108.863 108.863 0 0 0-7.921 18.075H136c-8.284 0-15 6.716-15 15v40c0 8.284 6.716 15 15 15h15.686a108.89 108.89 0 0 0 21.856 37.822l-7.853 13.601c-4.144 7.174-1.685 16.349 5.49 20.49l34.641 20c7.174 4.142 16.348 1.684 20.49-5.49l7.851-13.598a110.295 110.295 0 0 0 21.838 2.176c7.369 0 14.676-.729 21.838-2.176l7.851 13.598c4.142 7.174 13.316 9.632 20.49 5.49l34.641-20c7.175-4.142 9.633-13.315 5.49-20.49l-7.853-13.601a108.865 108.865 0 0 0 21.856-37.822H376c8.284 0 15-6.716 15-15v-40c0-8.285-6.716-15-15-15zm-120 75.001c-22.091 0-40-17.909-40-40s17.909-40 40-40 40 17.909 40 40-17.909 40-40 40z"/><path fill="#bebcdd" d="M376 348.075h-15.686A108.936 108.936 0 0 0 352.393 330H256v13.076c22.091 0 40 17.909 40 40s-17.909 40-40 40v69.999c7.369 0 14.676-.729 21.838-2.176l7.851 13.598c4.142 7.174 13.316 9.632 20.49 5.49l34.641-20c7.175-4.142 9.633-13.315 5.49-20.49l-7.853-13.601a108.865 108.865 0 0 0 21.856-37.822H376c8.284 0 15-6.716 15-15v-40c0-8.284-6.716-14.999-15-14.999z"/><path fill="#f1f1f4" d="M311 383.076c0 30.327-24.673 55-55 55s-55-24.673-55-55 24.673-55 55-55 55 24.673 55 55zm-80 0c0 13.785 11.215 25 25 25s25-11.215 25-25-11.215-25-25-25-25 11.215-25 25z"/><path fill="#e2dff4" d="M256 328.076v30c13.785 0 25 11.215 25 25s-11.215 25-25 25v30c30.327 0 55-24.673 55-55s-24.673-55-55-55z"/></g><g><path fill="#ff6b6b" d="M496 363.076H16c-8.284 0-15-6.716-15-15V287c0-8.284 6.716-15 15-15h205V117a15 15 0 0 1 6.462-12.333l86.667-60A14.998 14.998 0 0 1 337.668 57v31.371l63.129-43.704A15.002 15.002 0 0 1 424.336 57v31.371l63.128-43.704A14.998 14.998 0 0 1 511 57v291.076c0 8.284-6.716 15-15 15z"/></g><g><path fill="#ff405c" d="M502.961 43.713a14.998 14.998 0 0 0-15.5.954l-63.128 43.704V57a15.002 15.002 0 0 0-23.539-12.333L366 68.756v294.32h130c8.284 0 15-6.716 15-15V57a15.002 15.002 0 0 0-8.039-13.287z"/></g><g><path fill="#c8ffff" d="M296 167h140v120H296z"/><path fill="#acceff" d="M366 167h70v120h-70z"/><path fill="#ffb454" d="M436 152H296c-8.284 0-15 6.716-15 15v120c0 8.284 6.716 15 15 15h140c8.284 0 15-6.716 15-15V167c0-8.284-6.716-15-15-15zm-15 60h-40v-30h40zm-70-30v30h-40v-30zm-40 60h40v30h-40zm70 30v-30h40v30z"/><path fill="#ff8659" d="M436 152h-70v150h70c8.284 0 15-6.716 15-15V167c0-8.284-6.716-15-15-15zm-15 120h-40v-30h40zm0-60h-40v-30h40z"/></g></svg>