<svg xmlns="http://www.w3.org/2000/svg" viewBox="0 0 491.631 491.631"><path fill="#3a556a" d="M481.984 119.031l-142.9-38.6c-5.6-1.5-11.4 1.8-12.9 7.4l-54.3 200.6c-1.5 5.6 1.8 11.4 7.4 12.9l142.9 38.7c5.6 1.5 11.4-1.8 12.9-7.4l54.3-200.6c1.5-5.7-1.8-11.5-7.4-13z"/><path fill="#64798a" d="M483.284 114.131l-142.9-38.6c-5.6-1.5-11.4 1.8-12.9 7.4l-54.3 200.6c-1.5 5.6 1.8 11.4 7.4 12.9l142.9 38.7c5.6 1.5 11.4-1.8 12.9-7.4l54.3-200.6c1.5-5.7-1.8-11.5-7.4-13z"/><path fill="#44c4a1" d="M343.018 89.515l130.797 35.378-14.543 53.766-130.797-35.378z"/><path fill="#3ea69b" d="M330.524 135.877l130.797 35.379-2.011 7.433-130.796-35.379z"/><path fill="#fcd462" d="M309.097 215.103l16.319-60.33 60.33 16.318-16.319 60.33z"/><path fill="#27a2db" d="M379.551 234.17l16.319-60.33 60.33 16.319-16.319 60.33z"/><path fill="#f6c358" d="M309.163 214.993l2.271-8.398 60.33 16.318-2.27 8.398z"/><path fill="#2d93ba" d="M379.607 234.068l2.272-8.398 60.33 16.319-2.272 8.398z"/><path fill="#e56353" d="M290.02 285.551l16.318-60.33 60.33 16.319-16.318 60.33z"/><path fill="#ebf0f3" d="M360.473 304.626l16.319-60.33 60.33 16.318-16.318 60.33z"/><path fill="#d15241" d="M290.059 285.542l2.271-8.398 60.33 16.319-2.271 8.398z"/><g fill="#dc8744"><path d="M366.023 195.38l-1.358 5.02-35.813-9.688 1.358-5.02z"/><path d="M354.826 175.88l-9.687 35.812-5.02-1.357 9.687-35.813z"/></g><g fill="#fff"><path d="M316.834 248.759l4.51-2.59 18.471 32.173-4.51 2.59z"/><path d="M311.012 270.55l32.173-18.472 2.589 4.51-32.173 18.471z"/></g><g fill="#64798a"><path d="M382.874 270.762l1.358-5.02 35.813 9.687-1.358 5.02zM377.649 289.834l1.357-5.02 35.813 9.688-1.358 5.02z"/></g><path fill="#fff" d="M399.4 209.81l1.358-5.02 35.813 9.687-1.358 5.02z"/><path fill="#e1e6e9" d="M360.514 304.615l2.271-8.398 60.33 16.318-2.271 8.398z"/><path fill="#fcd462" d="M227.584 150.731c-15.9-21.9-22.7-47.3-20.8-72.8 1.5-20.1 7.8-39.4 14.3-58.3 1.1-3.4 2.1-6.9 2.2-10.5.1-2.9-3.2-4.5-5.5-2.9-1.8 1.2-3.6 2.3-5.5 3.1-3.8 1.6-8.1 2.3-12 1-6.2-2.1-10.2-8.8-16.6-10.1-5.3-1.1-10.5 1.9-14.5 5.5-3.9 3.7-7.1 8.1-11.5 11.3-5.2 3.8-11.8 5.3-18.2 5-2.9-.1-5.9-.6-8.3-2.4-3.1-2.3-4.5-6.3-7.6-8.6-5.1-3.8-12.4-1.3-17.9 1.9s-11.4 7.2-17.7 6c-2.8-.5-5.1-2-7.1-3.9-2.5-2.4-6.6-.3-5.9 3.1 3.2 17.3 12.3 34 12.2 51.8l.3.2c.1 2.6.3 5.3.5 7.9 1.9 25.4-5 50.8-20.8 72.8-40.7 56.2-66.6 115-66.6 167 0 57.4 65.2 113.8 146.8 113.8s146.8-56.4 146.8-113.8c0-56.9-25.9-110.9-66.6-167.1z"/><g fill="#dc8744"><path d="M326.084 122.631c-42.7-36.1-119.4-30.9-119.4-30.9h-118.7c-.6 11-2.7 21.9-6.6 32.4h131.9c59.3-1.9 97.1 23.8 97.1 23.8l-10.9-22.1 26.6-3.2zM143.584 351.031v-12.6c-15.8-1.6-30-7.9-42.5-18.8l12.6-15c9.7 8.4 19.6 13.4 29.9 15v-33.5c-13-3.1-22.6-7.2-28.6-12.3s-9.1-12.6-9.1-22.6 3.5-18.1 10.5-24.5c7-6.3 16-9.8 27.2-10.4v-8.6h11.1v8.8c12.7.9 24.7 5.2 36 13l-11.4 15.9c-7.6-5.4-15.8-8.8-24.7-10v32.4h.5c13.3 3.1 23 7.3 29.2 12.6 6.2 5.3 9.3 13 9.3 23.1s-3.6 18.3-10.7 24.6c-7.1 6.3-16.6 9.8-28.3 10.4v12.4h-11v.1zm-12.2-111.6c-2.9 2.6-4.4 5.8-4.4 9.7 0 3.9 1.1 6.9 3.5 9.2 2.3 2.2 6.7 4.4 13.1 6.5v-30c-5.2.5-9.3 2-12.2 4.6zm36.4 75.8c3.2-2.7 4.8-6 4.8-10s-1.3-7.2-3.8-9.6-7.3-4.6-14.2-6.7v31.1c5.5-.5 9.9-2.1 13.2-4.8z"/></g><path fill="#31978c" d="M134.684 470.831h240v20.8h-240z"/><path fill="#3ea69b" d="M134.684 374.031h240v100.3h-240z"/><path fill="#44c4a1" d="M357.184 381.631h-205.1c0 4.2-3.9 7.5-8.7 7.5v70.1c4.8 0 8.7 3.4 8.7 7.5h205.1c0-4.2 3.9-7.5 8.7-7.5v-70.1c-4.8 0-8.7-3.4-8.7-7.5z"/><g fill="#3ea69b"><ellipse cx="254.584" cy="424.231" rx="26" ry="32"/><ellipse cx="343.584" cy="424.231" rx="7.2" ry="6.2"/><ellipse cx="165.684" cy="424.231" rx="7.2" ry="6.2"/></g><path fill="#31978c" d="M134.684 447.431h240v20.8h-240z"/><path fill="#3ea69b" d="M134.684 350.731h240v100.3h-240z"/><path fill="#44c4a1" d="M357.184 358.231h-205.1c0 4.2-3.9 7.5-8.7 7.5v70.1c4.8 0 8.7 3.4 8.7 7.5h205.1c0-4.2 3.9-7.5 8.7-7.5v-70c-4.8 0-8.7-3.4-8.7-7.6z"/><g fill="#3ea69b"><ellipse cx="254.584" cy="400.831" rx="26" ry="32"/><ellipse cx="343.584" cy="400.831" rx="7.2" ry="6.2"/><ellipse cx="165.684" cy="400.831" rx="7.2" ry="6.2"/></g><path fill="#31978c" d="M134.684 424.031h240v20.8h-240z"/><path fill="#3ea69b" d="M134.684 327.331h240v100.3h-240z"/><path fill="#44c4a1" d="M357.184 334.831h-205.1c0 4.2-3.9 7.5-8.7 7.5v70.1c4.8 0 8.7 3.4 8.7 7.5h205.1c0-4.2 3.9-7.5 8.7-7.5v-70.1c-4.8.1-8.7-3.3-8.7-7.5z"/><g fill="#3ea69b"><ellipse cx="254.584" cy="377.431" rx="26" ry="32"/><ellipse cx="343.584" cy="377.431" rx="7.2" ry="6.2"/><ellipse cx="165.684" cy="377.431" rx="7.2" ry="6.2"/></g><path fill="#31978c" d="M134.684 400.631h240v20.8h-240z"/><path fill="#3ea69b" d="M134.684 303.931h240v100.3h-240z"/><path fill="#44c4a1" d="M357.184 311.531h-205.1c0 4.2-3.9 7.5-8.7 7.5v70.1c4.8 0 8.7 3.4 8.7 7.5h205.1c0-4.2 3.9-7.5 8.7-7.5v-70.1c-4.8 0-8.7-3.4-8.7-7.5z"/><g fill="#3ea69b"><ellipse cx="254.584" cy="354.131" rx="26" ry="32"/><ellipse cx="343.584" cy="354.131" rx="7.2" ry="6.2"/><ellipse cx="165.684" cy="354.131" rx="7.2" ry="6.2"/></g><path fill="#31978c" d="M134.684 377.331h240v20.8h-240z"/><path fill="#3ea69b" d="M134.684 280.631h240v100.3h-240z"/><path fill="#44c4a1" d="M357.184 288.131h-205.1c0 4.2-3.9 7.5-8.7 7.5v70.2c4.8 0 8.7 3.4 8.7 7.5h205.1c0-4.2 3.9-7.5 8.7-7.5v-70.1c-4.8 0-8.7-3.4-8.7-7.6z"/><g fill="#3ea69b"><ellipse cx="254.584" cy="330.731" rx="26" ry="32"/><ellipse cx="343.584" cy="330.731" rx="7.2" ry="6.2"/><ellipse cx="165.684" cy="330.731" rx="7.2" ry="6.2"/></g><path fill="#fff" d="M231.484 380.831h46.2v110.7h-46.2z"/><g fill="#fcd462"><path d="M235.184 380.831h2.5v110.7h-2.5zM271.484 380.831h2.5v110.7h-2.5z"/></g></svg>