<svg xmlns="http://www.w3.org/2000/svg" viewBox="0 0 512 512"><path fill="#ff4d4d" d="M358.18 25v50c0 8.28-6.707 15-14.971 15H256c-8.264 0-14.971-6.72-14.971-15l3.386-49.134c0-8.28 3.322-15.866 11.586-15.866h87.209c8.263 0 14.97 6.72 14.97 15z"/><path fill="#607882" d="M270.971 15v119.35h-29.942V15c0-8.28 6.707-15 14.971-15s14.971 6.72 14.971 15z"/><path fill="#495959" d="M270.971 15v119.35H256V0c8.264 0 14.971 6.72 14.971 15z"/><path fill="#e6ecf2" d="M481 278.7V497c0 8.28-6.707 15-14.971 15H45.97C37.706 512 31 505.28 31 497V278.7c0-8.29 6.707-15 14.971-15H466.03c8.264 0 14.97 6.71 14.97 15z"/><path fill="#b9c9d9" d="M481 278.7V497c0 8.28-6.707 15-14.971 15H256V263.7h210.03c8.264 0 14.97 6.71 14.97 15z"/><path fill="#b9c9d9" d="M512 228.35v40.85c0 8.28-6.707 15-14.971 15H14.971C6.707 284.2 0 277.48 0 269.2v-40.85c0-6.25 3.872-11.85 9.711-14.04l.329-.13 240.71-90.36c3.573-1.353 7.614-1.205 10.679.07l240.85 90.41A15.01 15.01 0 0 1 512 228.35z"/><path fill="#8fa7bf" d="M512 228.35v40.85c0 8.28-6.707 15-14.971 15H256V122.87c1.966-.01 3.842.36 5.429 1.02l240.85 90.41A15.01 15.01 0 0 1 512 228.35z"/><path fill="#8fa7bf" d="M293.696 210.24c0 20.927-16.902 37.99-37.772 38.219h-.424c-21.064 0-38.195-17.148-38.195-38.219 0-21.063 17.131-38.219 38.195-38.219h.424c20.87.229 37.772 17.3 37.772 38.219z"/><path fill="#607882" d="M255.925 248.459v-76.438c20.869.229 37.772 17.3 37.772 38.219-.001 20.927-16.903 37.99-37.772 38.219z"/><path fill="#8fa7bf" d="M135.489 353.697h-.008c-16.569 0-30 13.431-30 30V512h60.008V383.697c0-16.569-13.432-30-30-30z"/><path fill="#607882" d="M376.519 353.697h-.008c-16.569 0-30 13.431-30 30V512h60.008V383.697c0-16.569-13.432-30-30-30z"/><path fill="#8fa7bf" d="M285.502 353.4V512H225.5V353.4c0-16.57 13.404-30 29.942-30h.12c.15 0 .299 0 .439.01 16.337.23 29.501 13.57 29.501 29.99z"/><path fill="#607882" d="M285.502 353.4V512H256V323.41c16.338.23 29.502 13.57 29.502 29.99z"/></svg>