<svg xmlns="http://www.w3.org/2000/svg" viewBox="0 0 512.001 512"><path fill="#7d7d7d" d="M504.5 512H7.5c-4.14 0-7.5-3.36-7.5-7.5v-14.207a7.503 7.503 0 0 1 7.5-7.504h497c4.14 0 7.5 3.36 7.5 7.504V504.5c0 4.14-3.36 7.5-7.5 7.5zm0 0"/><path fill="#525252" d="M0 490.516v5.41h512v-5.41a7.726 7.726 0 0 0-7.727-7.727H7.727A7.726 7.726 0 0 0 0 490.516zm0 0"/><path fill="#b6e5f0" d="M127.031 129.973H384.97v352.816H127.03zm0 0"/><path fill="#7d7d7d" d="M396.832 102.16a7.726 7.726 0 0 1 7.727 7.727v12.36c0 4.269-3.461 7.726-7.727 7.726H115.168a7.726 7.726 0 0 1-7.727-7.727v-12.36a7.729 7.729 0 0 1 7.727-7.726zm0 0"/><path fill="#525252" d="M356.613 102.16v27.813h40.219a7.726 7.726 0 0 0 7.727-7.727v-12.36a7.729 7.729 0 0 0-7.727-7.726zm0 0"/><path fill="#7d7d7d" d="M127.031 209.46H7.5c-4.14 0-7.5-3.358-7.5-7.503v-12.809a7.5 7.5 0 0 1 7.5-7.5h119.531zm0 0"/><path fill="#525252" d="M102.504 181.648h24.527v27.813h-24.527zm0 0"/><path fill="#525252" d="M102.504 181.648h24.527v27.813h-24.527zm0 0"/><path fill="#5b9ed6" d="M325.023 482.79H186.977V374.175c0-11.785 9.554-21.34 21.34-21.34h95.367c11.785 0 21.336 9.555 21.336 21.34v108.613zm0 0"/><path fill="#4d86b5" d="M238.316 352.836h35.368v129.953h-35.368zm0 0"/><path fill="#b6e5f0" d="M11.16 209.46h115.871v273.333H11.161zm0 0"/><path fill="#9bc3cc" d="M102.504 209.46h24.527v273.333h-24.527zm0 0"/><path fill="#9bc3cc" d="M102.504 209.46h24.527v273.333h-24.527zm0 0"/><path fill="#b6e5f0" d="M500.84 482.79H384.969V209.46h115.87zm0 0"/><path fill="#9bc3cc" d="M384.969 209.46h24.527v273.333H384.97zm0 0"/><g fill="#5b9ed6"><path d="M189.223 268.02H163.44a8.057 8.057 0 0 1-8.054-8.06v-66.983a8.057 8.057 0 0 1 8.054-8.059h25.782c4.449 0 8.054 3.61 8.054 8.059v66.984c.004 4.45-3.605 8.059-8.054 8.059zm0 0M268.89 268.02h-25.78a8.057 8.057 0 0 1-8.055-8.06v-66.983a8.057 8.057 0 0 1 8.054-8.059h25.782c4.449 0 8.054 3.61 8.054 8.059v66.984a8.057 8.057 0 0 1-8.054 8.059zm0 0M348.559 268.02h-25.782a8.057 8.057 0 0 1-8.054-8.06v-66.983a8.057 8.057 0 0 1 8.054-8.059h25.782c4.449 0 8.054 3.61 8.054 8.059v66.984a8.057 8.057 0 0 1-8.054 8.059zm0 0M81.984 387.676H56.207a8.06 8.06 0 0 1-8.059-8.059v-66.984a8.06 8.06 0 0 1 8.059-8.059h25.777a8.058 8.058 0 0 1 8.059 8.059v66.984a8.055 8.055 0 0 1-8.059 8.059zm0 0M430.016 387.676h25.777a8.06 8.06 0 0 0 8.059-8.059v-66.984a8.06 8.06 0 0 0-8.059-8.059h-25.777a8.058 8.058 0 0 0-8.059 8.059v66.984a8.055 8.055 0 0 0 8.059 8.059zm0 0"/></g><path fill="#7d7d7d" d="M504.273 181.648a7.724 7.724 0 0 1 7.727 7.727v12.36a7.726 7.726 0 0 1-7.727 7.726H384.97v-27.813zm0 0"/><path fill="#525252" d="M384.969 181.648h24.527v27.813H384.97zm0 0"/><path fill="#ef2d57" d="M327.91 102.16V16.64c0-9.19-7.45-16.64-16.64-16.64H200.73c-9.19 0-16.64 7.45-16.64 16.64v85.52zm0 0"/><path fill="#d4284d" d="M302.5 0v102.16h25.41V16.64c0-9.19-7.45-16.64-16.64-16.64zm0 0"/><path fill="#fff" d="M279.695 43.355h-15.968V27.387c0-4.27-3.457-7.727-7.727-7.727s-7.727 3.457-7.727 7.727v15.968h-15.968a7.726 7.726 0 1 0 0 15.454h15.968v15.964a7.727 7.727 0 1 0 15.454 0V58.805h15.968a7.725 7.725 0 0 0 0-15.45zm0 0"/></svg>