<svg xmlns="http://www.w3.org/2000/svg" viewBox="0 0 512 512"><g xmlns="http://www.w3.org/2000/svg" fill="#e8eaea"><path d="M0 91.4h113.067V437H0zM398.933 91.4H512V437H398.933z" data-original="#e8eaea"/></g><path xmlns="http://www.w3.org/2000/svg" fill="#ff7058" d="M0 97.8h512c0-12.8-10.667-23.467-23.467-23.467H23.467C10.667 74.333 0 85 0 97.8z" data-original="#ff7058"/><path xmlns="http://www.w3.org/2000/svg" fill="#f2f2f2" d="M113.067 33.8h285.867V437H113.067z" data-original="#f2f2f2"/><path xmlns="http://www.w3.org/2000/svg" fill="#ff7058" d="M414.933 10.333H97.067c-6.4 0-11.733 5.333-11.733 11.733S90.667 33.8 97.067 33.8h317.867c6.4 0 11.733-5.333 11.733-11.733s-5.334-11.734-11.734-11.734z" data-original="#ff7058"/><g xmlns="http://www.w3.org/2000/svg"><path fill="#54c0eb" d="M32 123.4h49.067v54.4H32zM32 199.133h49.067v54.4H32zM32 274.867h49.067v54.4H32zM32 350.6h49.067V405H32zM430.933 123.4H480v54.4h-49.067zM430.933 199.133H480v54.4h-49.067zM430.933 274.867H480v54.4h-49.067zM430.933 350.6H480V405h-49.067z" data-original="#54c0eb"/></g><path xmlns="http://www.w3.org/2000/svg" fill="#84dbff" d="M145.067 218.333H198.4v54.4h-53.333z" data-original="#84dbff"/><path xmlns="http://www.w3.org/2000/svg" fill="#40596b" d="M198.4 303.667h114.133V437H198.4z" data-original="#40596b"/><path xmlns="http://www.w3.org/2000/svg" fill="#acb3ba" d="M0 414.6h512V437H0z" data-original="#acb3ba"/><g xmlns="http://www.w3.org/2000/svg"><path fill="#84dbff" d="M145.067 66.867H198.4v54.4h-53.333zM145.067 142.6H198.4V197h-53.333zM229.333 66.867h53.333v54.4h-53.333zM229.333 142.6h53.333V197h-53.333zM229.333 218.333h53.333v54.4h-53.333zM313.6 66.867h53.333v54.4H313.6zM313.6 142.6h53.333V197H313.6zM313.6 218.333h53.333v54.4H313.6z" data-original="#84dbff"/></g><g xmlns="http://www.w3.org/2000/svg"><path fill="#40596b" d="M147.2-73.933h13.867V-11H147.2v-24.533h-25.6V-11h-13.867v-62.933H121.6v26.667h25.6v-26.667zM229.333-19.533c-6.4 6.4-13.867 9.6-23.467 9.6s-17.067-3.2-23.467-9.6c-6.4-6.4-9.6-13.867-9.6-23.467s3.2-17.067 9.6-23.467C188.8-71.8 196.267-75 205.867-75s17.067 3.2 23.467 9.6c6.4 6.4 9.6 13.867 9.6 23.467-.001 8.533-3.201 17.066-9.601 22.4zm-4.266-22.4c0-5.333-2.133-10.667-5.333-14.933-3.2-4.267-8.533-6.4-13.867-6.4s-9.6 2.133-13.867 6.4c-3.2 4.267-5.333 8.533-5.333 14.933S188.8-31.267 192-28.067c4.267 4.267 8.533 6.4 13.867 6.4 5.333 0 9.6-2.133 13.867-6.4s5.333-8.533 5.333-13.866zM276.267-61.133v51.2H262.4v-51.2h-18.133v-12.8H294.4V-62.2h-18.133v1.067zM349.867-73.933v12.8h-32v12.8h28.8V-36.6h-28.8v12.8h32V-11h-46.933v-62.933h46.933zM363.733-9.933v-64H377.6V-23.8h26.667V-11h-40.533v1.067z" data-original="#40596b"/></g></svg>