<svg xmlns="http://www.w3.org/2000/svg" viewBox="0 0 512 512"><path xmlns="http://www.w3.org/2000/svg" fill="#713708" d="M278.032 404.637l-21.847 21.847c-6.038 6.038-15.81 6.038-21.847 0-6.038-6.038-6.038-15.81 0-21.847l21.847-21.847c6.027-6.027 6.027-15.82 0-21.847l-20.087-20.087c-6.038-6.038-6.038-15.81 0-21.847 6.038-6.038 15.81-6.038 21.847 0l20.087 20.087c18.072 18.07 18.072 47.469 0 65.541z" data-original="#713708"/><path xmlns="http://www.w3.org/2000/svg" fill="#994c0f" d="M310.803 502.95c-12.066 12.066-31.629 12.066-43.694 0L157.872 393.713l43.694-43.695 109.237 109.237c12.067 12.066 12.067 31.629 0 43.695z" data-original="#994c0f"/><path xmlns="http://www.w3.org/2000/svg" fill="#eefe31" d="M156.997 261.753l67.728 67.728-1.311 42.384-76.466 76.466c-18.133 18.133-47.846 17.697-65.979-.438l-43.695-43.695c-17.915-17.915-17.697-46.972.438-65.105l76.466-76.466 42.819-.874z" data-original="#fe318f"/><path xmlns="http://www.w3.org/2000/svg" fill="#ffb759" d="M190.643 295.4l34.082 34.082-1.311 42.384-76.466 76.466c-18.133 18.133-47.846 17.697-65.979-.438l-21.411-21.411L190.643 295.4z" data-original="#fd0f7f"/><g xmlns="http://www.w3.org/2000/svg" fill="#1bd9de"><path d="M348.994 61.798c-8.523.01-15.446-6.913-15.446-15.446l-.01-30.904C333.536 6.913 340.449 0 348.984 0c8.523-.01 15.446 6.913 15.446 15.446l.01 30.904c.001 8.535-6.911 15.448-15.446 15.448zM472.58 154.49l-30.904-.01c-8.534 0-15.458-6.923-15.446-15.446 0-8.534 6.913-15.446 15.446-15.446l30.904.01c8.534 0 15.458 6.923 15.446 15.446 0 8.533-6.912 15.446-15.446 15.446zM452.812 33.23c6.117 6.117 6.118 15.73 0 21.847l-32.771 32.771c-6.118 6.118-15.731 6.117-21.847 0-6.118-6.118-6.118-15.73 0-21.847l32.771-32.771c6.117-6.118 15.729-6.118 21.847 0z" data-original="#1bd9de"/></g><path xmlns="http://www.w3.org/2000/svg" fill="#cae8f9" d="M267.109 66.001l152.932 152.932c4.37 4.37 9.831 50.467 15.511 51.342l-43.038 8.958c-63.795 12.671-124.312 47.846-165.385 88.919l-3.714 3.714-109.239-109.238 3.714-3.714c43.259-43.259 75.155-100.5 88.263-166.041l8.957-44.787 51.999 17.915z" data-original="#cae8f9"/><path xmlns="http://www.w3.org/2000/svg" fill="#e1e4fb" d="M146.947 339.094c6.117 6.117 6.118 15.73 0 21.847L125.1 382.789c-6.118 6.118-15.731 6.117-21.847 0-6.118-6.118-6.118-15.73 0-21.847l21.847-21.847c6.118-6.118 15.73-6.118 21.847-.001z" data-original="#e1e4fb"/><path xmlns="http://www.w3.org/2000/svg" fill="#b7e0f6" d="M343.575 142.467l76.466 76.466c4.37 4.37 9.831 50.467 15.511 51.342l-43.038 8.958c-63.795 12.671-124.312 47.846-165.385 88.919l-3.714 3.714-54.619-54.619 174.779-174.78z" data-original="#b7e0f6"/><path xmlns="http://www.w3.org/2000/svg" fill="#c5c9f7" d="M146.947 339.094c6.117 6.117 6.118 15.73 0 21.847L125.1 382.789c-6.118 6.118-15.731 6.117-21.847 0l43.694-43.695z" data-original="#c5c9f7"/><path xmlns="http://www.w3.org/2000/svg" fill="#eefe31" d="M267.109 22.307l196.627 196.627c12.016 12.016 12.016 31.679 0 43.695-1.311 1.311-3.059 2.184-4.808 3.058-6.991 4.808-15.292 6.555-23.377 4.588-5.679-.873-11.141-3.276-15.511-7.646L223.413 66.001c-5.026-5.026-7.428-11.361-8.303-17.915-.873-6.554.439-13.11 3.715-19.007 1.529-2.404 2.621-4.806 4.588-6.773 12.016-12.015 31.68-12.015 43.696.001z" data-original="#fe318f"/><path xmlns="http://www.w3.org/2000/svg" fill="#ffb759" d="M365.422 120.62l98.313 98.313c12.016 12.016 12.016 31.679 0 43.695-1.311 1.311-3.059 2.184-4.808 3.058-6.991 4.808-15.292 6.555-23.377 4.588-5.679-.873-11.141-3.276-15.511-7.646l-98.313-98.313 43.696-43.695z" data-original="#fd0f7f"/></svg>