<svg xmlns="http://www.w3.org/2000/svg" viewBox="0 0 512 512"><path fill="#dae7ef" d="M199.008 353.594h111.158v87.017H199.008z"/><path fill="#c1d5e4" d="M237.742 353.594h72.424v87.017h-72.424z"/><path fill="#98b9d3" d="M340.249 448.096H168.925a7.485 7.485 0 1 1 0-14.97h171.324a7.485 7.485 0 1 1 0 14.97z"/><path fill="#dae7ef" d="M17.466 278.832l-9.981 21.55v46.796c0 11.024 8.937 19.961 19.961 19.961h457.107c11.024 0 19.961-8.937 19.961-19.961v-46.796l-9.98-21.55z"/><path fill="#c1d5e4" d="M494.534 278.832h-35.078v23.288c0 11.024-8.937 19.961-19.961 19.961H7.485v25.097c0 11.024 8.937 19.961 19.961 19.961h457.107c11.024 0 19.961-8.937 19.961-19.961v-46.796z"/><path fill="#61a2f9" d="M484.554 37.342H27.446c-11.024 0-19.961 8.937-19.961 19.961v243.079h497.029V57.303c.001-11.024-8.936-19.961-19.96-19.961z"/><path fill="#4a81f6" d="M484.554 37.342h-25.097v263.04h45.058V57.303c0-11.024-8.937-19.961-19.961-19.961z"/><path fill="#98b9d3" d="M484.554 374.625H27.446C12.312 374.625 0 362.312 0 347.178V57.303c0-15.134 12.312-27.446 27.446-27.446h457.107c15.134 0 27.446 12.313 27.446 27.446v289.875c.001 15.134-12.311 27.447-27.445 27.447zM27.446 44.827c-6.879 0-12.476 5.596-12.476 12.476v289.875c0 6.879 5.596 12.476 12.476 12.476h457.107c6.879 0 12.476-5.596 12.476-12.476V57.303c0-6.879-5.596-12.476-12.476-12.476z"/><path fill="#2b4d66" d="M296.811 122.777l-58.542-33.799c-4-2.309-9 .577-9 5.196v67.598c0 4.619 5 7.506 9 5.196l58.542-33.799c4-2.31 4-8.083 0-10.392z"/><path fill="#407093" d="M408.653 226.979H77.973a7.485 7.485 0 1 1 0-14.97h330.68a7.485 7.485 0 1 1 0 14.97z"/><circle cx="126.911" cy="219.494" r="21.216" fill="#407093"/><path fill="#2b4d66" d="M134.951 199.859a21.137 21.137 0 0 1 1.581 8.04c0 11.717-9.499 21.216-21.216 21.216-2.846 0-5.56-.564-8.04-1.581 3.168 7.73 10.764 13.177 19.635 13.177 11.717 0 21.216-9.499 21.216-21.216 0-8.872-5.446-16.468-13.176-19.636z"/><path fill="#f6f9f9" d="M443.698 214.286a27.668 27.668 0 0 0-7.431.221c-2.263.378-4.115-1.79-3.474-3.993a27.32 27.32 0 0 0 1.084-7.64c0-15.113-12.251-27.364-27.364-27.364h-.031c-1.599.002-2.982-1.14-3.178-2.727-1.773-14.417-14.752-25.366-29.961-23.85-12.162 1.213-22.181 10.614-24.176 22.672a27.593 27.593 0 0 0-.245 7.225 3.159 3.159 0 0 1-3.83 3.418 27.447 27.447 0 0 0-5.83-.623c-8.427 0-15.964 3.809-20.984 9.8-1.244 1.485-3.583 1.485-4.826 0-5.02-5.991-12.557-9.8-20.984-9.8-15.113 0-27.364 12.251-27.364 27.364 0 1.591.143 3.147.404 4.663-.135-.002-.268-.01-.404-.01-15.698 0-28.309 13.219-27.308 29.134.852 13.538 11.794 24.567 25.325 25.524 5.843.413 11.325-1.016 15.937-3.756a27.225 27.225 0 0 0 14.745 4.318 27.254 27.254 0 0 0 18.226-6.959 27.248 27.248 0 0 0 17.659 6.468c3.097 0 6.07-.522 8.846-1.47 4.797 7.907 13.487 13.191 23.411 13.191 10.006 0 18.754-5.374 23.526-13.39a27.321 27.321 0 0 0 9.431 1.669c9.506 0 17.877-4.85 22.782-12.208 4.856 7.632 13.382 12.699 23.097 12.699 16.102 0 28.956-13.908 27.203-30.367-1.347-12.689-11.595-22.887-24.286-24.209z"/><path fill="#dae7ef" d="M467.988 238.494c-1.351-12.688-11.598-22.885-24.289-24.208a27.668 27.668 0 0 0-7.431.221c-2.263.378-4.114-1.79-3.474-3.993a27.32 27.32 0 0 0 1.084-7.64c0-15.113-12.251-27.364-27.364-27.364h-.031c-1.599.002-2.983-1.139-3.178-2.727-1.773-14.417-14.752-25.366-29.961-23.85a26.871 26.871 0 0 0-9.244 2.675c8.087 3.991 13.919 11.855 15.065 21.175.195 1.587 1.578 2.729 3.178 2.727h.031c15.113 0 27.364 12.251 27.364 27.364 0 2.652-.379 5.215-1.084 7.64-.641 2.203 1.211 4.371 3.474 3.993a27.67 27.67 0 0 1 7.431-.221c12.691 1.323 22.938 11.52 24.289 24.208 1.281 12.029-5.244 22.687-15.133 27.558a27.214 27.214 0 0 0 12.07 2.809c16.102 0 28.955-13.908 27.203-30.367z"/><path fill="#dd5790" d="M455.647 256.594h-15.924L432.062 260l-7.344-3.406h-24.637l-7.207 3.594-7.773-3.594H360.43l-7.485 3.969-7.486-3.969h-24.671l-7.413 3.594-7.566-3.594h-24.637l-7.359 2.844-7.646-2.844h-15.923c-7.183 0-12.751 6.28-11.89 13.412l24.329 201.596a11.977 11.977 0 0 0 11.89 10.542h6.713l7.527-4.081 7.477 4.081h17.199l7.675-4.268 7.304 4.268h16.991l7.485-4.081 7.485 4.081h16.992l7.979-4.081 7 4.081h17.2l7.65-4.081 7.355 4.081h6.713c6.06 0 11.164-4.526 11.89-10.542l24.329-201.596c.861-7.132-4.707-13.412-11.89-13.412z"/><circle cx="310.166" cy="218.429" r="9.602" fill="#f6e266"/><circle cx="349.851" cy="229.096" r="9.602" fill="#f6e266"/><path fill="#da387d" d="M455.647 256.594h-15.924l-3.12 2.684-22.153 183.566a11.977 11.977 0 0 1-11.89 10.542H260.484l2.198 18.217a11.977 11.977 0 0 0 11.89 10.542h6.713l7.527-4.081 7.477 4.081h17.199l7.675-4.268 7.304 4.268h16.991l7.485-4.081 7.485 4.081h16.992l7.979-4.081 7 4.081H409.6l7.65-4.081 7.355 4.081h6.713c6.06 0 11.164-4.526 11.89-10.542l24.329-201.596c.861-7.133-4.707-13.413-11.89-13.413z"/><path fill="#dae7ef" d="M345.46 256.593h14.971V482.1H345.46zM281.285 482.143h15.005l-15.118-225.549h-15.005zM313.489 482.143h14.979l-7.68-225.549h-14.979zM377.422 482.143h14.98l7.68-225.549h-14.98zM409.6 482.143h15.005l15.118-225.549h-15.005z"/><ellipse cx="352.945" cy="358.872" fill="#f6f9f9" rx="59.565" ry="42.7"/><path fill="#dae7ef" d="M352.945 409.057c-17.462 0-33.969-4.94-46.48-13.908-13.265-9.51-20.571-22.393-20.571-36.277 0-13.885 7.306-26.768 20.571-36.277 12.511-8.969 29.018-13.908 46.48-13.908s33.969 4.94 46.48 13.908c13.265 9.509 20.571 22.392 20.571 36.277 0 13.884-7.306 26.767-20.571 36.277-12.511 8.969-29.018 13.908-46.48 13.908zm0-85.399c-28.717 0-52.08 15.797-52.08 35.214s23.363 35.214 52.08 35.214 52.08-15.797 52.08-35.214-23.363-35.214-52.08-35.214z"/><g fill="#c1d5e4"><path d="M436.927 256.594l-22.477 186.25a11.926 11.926 0 0 1-2.628 6.146l-2.222 33.154h15.005l15.118-225.549h-2.796zM378.401 453.385l-.979 28.758h14.98l.979-28.758zM345.46 453.385h14.971V482.1H345.46zM312.51 453.385l.979 28.758h14.979l-.979-28.758zM279.358 453.385l1.927 28.758h15.005l-1.928-28.758z"/></g></svg>