<svg xmlns="http://www.w3.org/2000/svg" viewBox="0 0 512 512"><path fill="#74d6d0" d="M260.243 160.435l-3.635.009c-16.601.042-30.091-13.381-30.132-29.982l-.081-32.427-129.665.326.081 32.427c.042 16.599-13.38 30.091-29.982 30.132l-3.077.008c-33.952.085-61.407 27.678-61.323 61.63l.493 196.779c.085 33.952 27.678 61.407 61.63 61.323l196.49-.491c33.952-.085 61.406-27.678 61.32-61.63l-.493-196.779c-.083-33.954-27.674-61.41-61.626-61.325z"/><path fill="#ccf7f5" d="M162.041 98.197H97.208v32.427c0 16.599-13.455 30.057-30.057 30.057h-3.077c-33.952 0-61.477 27.524-61.477 61.477v196.779c0 33.953 27.525 61.476 61.477 61.476h97.967V98.197z"/><path fill="#e0e0e0" d="M2.598 250.298h207.394v140.191H2.598z"/><path fill="#f4f4f4" d="M2.598 250.298H162.04v140.191H2.598z"/><path fill="#06aba4" d="M497.731 436.309c15.787 15.786 15.787 41.381 0 57.169-15.787 15.786-41.379 15.786-57.166 0l-67.484-67.483c-15.787-15.787-15.787-41.382 0-57.168 15.787-15.787 41.382-15.787 57.169 0l67.481 67.482z"/><g fill="#e03905"><path d="M359.984 431.152c22.326 0 40.425 18.097 40.425 40.425 0 22.325-18.099 40.424-40.425 40.424H264.55c-22.326 0-40.425-18.099-40.425-40.424 0-22.326 18.099-40.425 40.425-40.425h95.434zM256.93 79.643c0 16.601-13.457 30.057-30.057 30.057H97.765c-16.599 0-30.057-13.457-30.057-30.057V30.057C67.709 13.457 81.165 0 97.765 0h129.108c16.599 0 30.057 13.457 30.057 30.057v49.586z"/></g><path fill="#ff8546" d="M162.041 0H97.765c-16.6 0-30.058 13.457-30.058 30.057v49.587c0 16.601 13.457 30.057 30.057 30.057h64.276V0h.001z"/></svg>