<svg xmlns="http://www.w3.org/2000/svg" viewBox="0 0 512.089 512.089"><path fill="#4d2ee6" d="M308.336 451.642h-98.793V163.928a7.943 7.943 0 0 1 7.943-7.943h82.908a7.943 7.943 0 0 1 7.943 7.943v287.714z"/><path fill="#012f7e" d="M300.393 155.985h-42.834v295.657h50.777V163.928a7.943 7.943 0 0 0-7.943-7.943z"/><path fill="#ff4a4a" d="M146.834 451.595h-79.07c-5.613 0-10.163-4.55-10.163-10.163V209.749c0-5.613 4.55-10.163 10.163-10.163h79.07c5.613 0 10.163 4.55 10.163 10.163v231.682c0 5.614-4.55 10.164-10.163 10.164z"/><path fill="#8ee26b" d="M445.421 449.229h-80.242a9.622 9.622 0 0 1-9.622-9.622V227.449a9.622 9.622 0 0 1 9.622-9.622h80.242a9.622 9.622 0 0 1 9.622 9.622v212.157c.001 5.315-4.307 9.623-9.622 9.623z"/><path fill="#444" d="M497.054 456.697H15.035C6.731 456.697 0 449.494 0 440.609s6.731-16.089 15.035-16.089h482.019c8.303 0 15.035 7.203 15.035 16.089 0 8.885-6.732 16.088-15.035 16.088z"/><path fill="#292929" d="M497.054 424.52H257.562v32.177h239.492c8.303 0 15.035-7.203 15.035-16.089 0-8.885-6.732-16.088-15.035-16.088z"/><path fill="#ffe470" d="M505.207 112.47c.498-6.269-3.156-13.967-11.523-15.914l-48.465-11.78c-8.053-1.963-16.162 2.982-18.118 11.032-1.957 8.05 2.982 16.162 11.032 18.118l13.708 3.332-38.858 23.979-147.336-83.88a14.991 14.991 0 0 0-13.794-.543l-146.454 68.742-70.011-43.693c-7.027-4.389-16.28-2.245-20.667 4.783-4.386 7.027-2.244 16.28 4.784 20.667l76.936 48.015a14.998 14.998 0 0 0 14.315.854l146.805-68.907 148.31 84.435c3.859 2.024 9.238 3.073 15.299-.271l47.105-29.069-3.137 14.692c-3.452 19.543 24.213 25.093 29.338 6.266l10.398-48.694c.118-.684.162-.588.333-2.164z"/><path fill="#ffda2d" d="M493.684 96.555l-48.465-11.78c-8.053-1.963-16.162 2.982-18.118 11.032-1.957 8.05 2.982 16.162 11.032 18.118l13.708 3.332-38.858 23.979-147.336-83.88a14.97 14.97 0 0 0-8.088-1.929v31.847l.002-.001 148.31 84.435c3.858 2.024 9.238 3.073 15.299-.271l47.105-29.069-3.137 14.692c-3.452 19.543 24.213 25.093 29.338 6.266l10.398-48.694c.119-.683.164-.587.334-2.163.497-6.268-3.157-13.967-11.524-15.914z"/></svg>