<svg xmlns="http://www.w3.org/2000/svg" viewBox="0 0 512 512.001"><path fill="#ff637b" d="M140.582 189.781c-31.55-4.289-68.355 9.352-93.762 34.762L4.395 266.969a14.997 14.997 0 0 0-2.383 18.105c3.316 5.805 10.261 8.762 16.87 6.992 26.923-7.218 62.555-9.62 71.317-2.93zm0 0"/><path fill="#e63950" d="M321.305 371.637l-99.5 48c5.543 7.55 5.105 31.433-1.356 75.168a14.966 14.966 0 0 0 8.09 15.586 14.972 14.972 0 0 0 17.348-2.786l42.425-42.425c23.97-23.97 36.926-60.688 32.993-93.543zm0 0"/><path fill="#7c8388" d="M236.762 424.754c-35 18.879-39.453 19.941-44.758 23.547-5.941 3.816-13.578 2.969-18.668-2.121L67.27 340.113c-4.88-4.879-5.938-12.73-2.122-18.668 3.606-5.304 4.032-8.699 23.122-45.183l42.003-.426L236.34 381.902zm0 0"/><path fill="#575f64" d="M236.762 424.754c-35 18.879-39.453 19.941-44.758 23.547-5.941 3.816-13.578 2.969-18.668-2.121L120.3 393.145l63.64-63.637 52.395 52.394zm0 0"/><path fill="#faecd8" d="M236.762 424.754L88.27 276.262C161.879 137.316 250.34 50.55 353.012 16.613l72.125 71.7 70.425 70.43c-33.937 102.245-120.488 191.339-258.8 266.01zm0 0"/><path fill="#f4d7af" d="M236.762 424.754l-74.035-74.035 262.41-262.406 70.426 70.425c-33.938 102.25-120.489 191.344-258.801 266.016zm0 0"/><path fill="#64e1dc" d="M378.89 134.559l-.636-.637c-29.274-29.274-76.793-29.277-106.067 0-29.273 29.273-29.273 76.793 0 106.062l.637.637c29.274 28.426 76.367 28.426 105.43-.637 29.062-29.058 29.062-76.156.637-105.425zm0 0"/><path fill="#00c8c8" d="M378.254 239.984c-29.063 29.063-76.156 29.063-105.43.637L378.891 134.56c28.425 29.27 28.425 76.367-.637 105.425zm0 0"/><path fill="#ff637b" d="M495.563 158.738c-32.454-2.332-67.243-17.605-95.458-45.394l-.636-.637c-28.426-28.426-44.336-63.43-46.457-96.098 9.758-3.394 19.726-6.152 29.699-8.484 36.273-8.273 74.246-10.184 113.703-5.938 3.816.422 7.422 2.333 9.543 5.301 2.121 2.121 3.61 4.88 3.82 8.063 4.457 39.242 2.121 77.215-6.152 113.488-2.332 9.973-4.879 19.73-8.063 29.7zm0 0"/><path fill="#e63950" d="M495.563 158.738c-32.454-2.332-67.243-17.605-95.458-45.394L505.957 7.488c2.121 2.121 3.605 4.88 3.82 8.063 4.453 39.246 2.121 77.215-6.152 113.488-2.332 9.973-4.879 19.73-8.063 29.7zm0 0"/><path fill="#ff637b" d="M234.215 292.809c-.211-3.61-1.695-6.79-4.242-9.336-2.547-3.395-6.575-5.727-10.817-5.727-55.156-.426-67.46 19.09-70.64 22.274-91.852 91.851-92.914 137.039-92.914 141.703.21 4.03 1.695 7.64 4.453 10.394.21.211.425.426.851.426 2.121 2.121 5.09 3.395 8.27 3.605 7.636.848 50.699-.21 142.976-92.488 20.793-20.789 22.278-40.094 22.063-70.851zm0 0"/><path fill="#e63950" d="M234.215 292.809c.215 30.757-1.27 50.062-22.063 70.851-92.277 92.278-135.34 93.336-142.972 92.488-3.184-.21-6.153-1.484-8.274-3.605l169.07-169.07c2.544 2.547 4.028 5.726 4.239 9.336zm0 0"/></svg>