<svg xmlns="http://www.w3.org/2000/svg" viewBox="0 0 512 512"><path xmlns="http://www.w3.org/2000/svg" fill="#565656" d="M362.484 90h-62.402V26.4l-30-26.4h-225c-24.902 0-45 20.099-45 45v422c0 24.899 20.098 45 45 45h300c24.902 0 45-20.101 45-45V120l-27.598-30z" data-original="#cae8f9"/><path xmlns="http://www.w3.org/2000/svg" d="M390.082 120v347c0 24.899-20.098 45-45 45h-150V0h75l30 26.4V90h62.402l27.598 30z" data-original="#b7e0f6"/><path xmlns="http://www.w3.org/2000/svg" fill="#565656" d="M390.082 99v21h-105c-8.401 0-15-6.601-15-15V0h15c.901 0 2.102 0 2.999.3 12.601.298 22.8 4.499 30.601 11.699l57.301 54.6C384.984 75 390.082 86.7 390.082 99z" data-original="#81c8ee"/><g xmlns="http://www.w3.org/2000/svg"><path fill="#fff" d="M240.082 105c0 8.399-6.599 15-15 15h-150c-8.401 0-15-6.601-15-15 0-8.401 6.599-15 15-15h150c8.401 0 15 6.599 15 15zM330.082 196c0 8.399-6.599 15-15 15h-240c-8.401 0-15-6.601-15-15 0-8.401 6.599-15 15-15h240c8.401 0 15 6.599 15 15zM330.082 286c0 8.399-6.599 15-15 15h-240c-8.401 0-15-6.601-15-15 0-8.401 6.599-15 15-15h240c8.401 0 15 6.599 15 15zM240.082 376c0 8.399-6.599 15-15 15h-150c-8.401 0-15-6.601-15-15 0-8.401 6.599-15 15-15h150c8.401 0 15 6.599 15 15z" data-original="#32d736"/></g><g xmlns="http://www.w3.org/2000/svg"><path fill="#fff" d="M240.082 376c0 8.399-6.599 15-15 15h-30v-30h30c8.401 0 15 6.599 15 15zM225.082 120h-30V90h30c8.401 0 15 6.599 15 15 0 8.399-6.599 15-15 15zM330.082 286c0 8.399-6.599 15-15 15h-120v-30h120c8.401 0 15 6.599 15 15zM315.082 211h-120v-30h120c8.401 0 15 6.599 15 15 0 8.399-6.599 15-15 15z" data-original="#10bb67"/></g><path xmlns="http://www.w3.org/2000/svg" fill="#fedb41" d="M355.285 356.8l-22.203-18.6-31.499 12-.3.298-4.801 6c-4.501 5.4-7.5 11.4-9.598 18.6l-13.802 58.5c-1.198 5.4.601 11.1 5.101 14.7 4.797 4.2 11.4 4.501 15.601 2.401l54.899-24c6.302-2.701 12.301-6.901 16.498-12.301l5.105-6.299 2.695-36.601-17.696-14.698z" data-original="#fedb41"/><path xmlns="http://www.w3.org/2000/svg" fill="#787780" d="M511.684 219.699c-.901-11.999-6.699-22.8-15.401-30-9.302-7.8-20.702-11.4-32.703-10.499-11.997.899-23.101 6.599-30.601 15.899l-9.899 11.7-3.9 35.7 19.2 15.899 21.603 18.301 32.098-12.301 9.598-11.1v-.3c7.802-9.299 11.202-21.298 10.005-33.299z" data-original="#787780"/><path xmlns="http://www.w3.org/2000/svg" fill="#fcbf29" d="M355.285 356.8l17.695 14.7-2.695 36.601-5.105 6.299c-4.197 5.4-10.195 9.6-16.498 12.301l-54.899 24c-4.2 2.1-10.803 1.8-15.601-2.401l77.103-91.5z" data-original="#fcbf29"/><path xmlns="http://www.w3.org/2000/svg" fill="#57555c" d="M501.681 252.999v.3l-9.598 11.1-32.099 12.301-21.603-18.301 57.902-68.699c8.701 7.2 14.5 18.001 15.401 30 1.197 12-2.203 23.999-10.003 33.299z" data-original="#57555c"/><path xmlns="http://www.w3.org/2000/svg" fill="#fd3c65" d="M457.582 235.6l-.01-.01-34.49-28.79-121.8 143.7 34.8 29.1.02.02 34.18 28.48 121.8-143.7-34.5-28.8z" data-original="#fd3c65"/><path xmlns="http://www.w3.org/2000/svg" fill="#fd003a" d="M492.082 264.4l-121.8 143.7-34.18-28.48 121.47-144.03.01.01z" data-original="#fd003a"/></svg>