<svg xmlns="http://www.w3.org/2000/svg" viewBox="0 0 512 512"><g xmlns="http://www.w3.org/2000/svg"><path fill="#ff6673" d="M196 241H76c-41.353 0-76 33.647-76 75v30l30.066 59.672L30 497c0 8.291 6.709 15 15 15h61l30-35.455L271 316c0-41.353-33.647-75-75-75z" data-original="#ff6673"/><path fill="#ffebdc" d="M60 376v-30c0-8.284-6.716-15-15-15H15c-8.284 0-15 6.716-15 15v30c0 41.421 34.579 75 76 75h105v-60H76c-8.284 0-16-6.716-16-15z" data-original="#ffebdc"/><path fill="#e62e2e" d="M196 241h-60v235.545L271 316c0-41.353-33.647-75-75-75z" data-original="#e62e2e"/><path fill="#4d6699" d="M298.173 307.226A15.018 15.018 0 0 0 286 301H166a14.984 14.984 0 0 0-14.224 10.254l-60 181a14.992 14.992 0 0 0 2.051 13.521A15.02 15.02 0 0 0 106 512h120c6.46 0 12.188-4.131 14.224-10.254l60-181a14.986 14.986 0 0 0-2.051-13.52z" data-original="#4d6699"/><path fill="#404b80" d="M231.769 301l-69.945 211H226c6.46 0 12.188-4.131 14.224-10.254l60-181a14.985 14.985 0 0 0-2.051-13.521A15.02 15.02 0 0 0 286 301z" data-original="#404b80"/><path fill="#ffd2c8" d="M271 436h-15c-8.284 0-15-6.716-15-15v-30c0-8.284 6.716-15 15-15h15c16.569 0 30 13.431 30 30 0 16.569-13.431 30-30 30z" data-original="#ffd2c8"/><path fill="#ff6673" d="M467 0H286c-24.814 0-45 20.186-45 45v121c0 24.814 20.186 45 45 45h15v45a14.983 14.983 0 0 0 9.258 13.857c5.533 2.309 12.023 1.071 16.348-3.252L376 217.211l6.211-6.211H467c24.814 0 45-20.186 45-45V45c0-24.814-20.186-45-45-45z" data-original="#7ed96c"/><path fill="#e62e2e" d="M467 211c24.814 0 45-20.186 45-45V45c0-24.814-20.186-45-45-45h-91v217.211l6.211-6.211z" data-original="#48b348"/><path fill="#f9f4f3" d="M416.605 80.395c-5.859-5.859-15.352-5.859-21.211 0L376 99.789l-15 15-11.895-11.895c-5.859-5.859-15.352-5.859-21.211 0s-5.859 15.352 0 21.211l22.5 22.5c2.93 2.93 6.768 4.395 10.605 4.395s7.676-1.465 10.605-4.395l4.395-4.395 40.605-40.605c5.861-5.859 5.861-15.351.001-21.21z" data-original="#f9f4f3"/><path fill="#f0e6e1" d="M416.605 80.395c-5.859-5.859-15.352-5.859-21.211 0L376 99.789v42.422l40.605-40.605c5.86-5.86 5.86-15.352 0-21.211z" data-original="#f0e6e1"/><circle cx="136" cy="166" r="75" fill="#ffebdc" data-original="#ffebdc"/><path fill="#ffd2c8" d="M211 166c0-41.353-33.647-75-75-75v150c41.353 0 75-33.647 75-75z" data-original="#ffd2c8"/></g></svg>