<svg viewBox="0 0 356.62 356.62" xmlns="http://www.w3.org/2000/svg"><g fill="#0f2a2c"><path d="m178.31 0c-98.32 0-178.31 79.99-178.31 178.311s79.99 178.309 178.31 178.309 178.31-79.989 178.31-178.31-79.99-178.31-178.31-178.31zm0 326.62c-81.778 0-148.31-66.531-148.31-148.309s66.532-148.311 148.31-148.311 148.31 66.532 148.31 148.311-66.532 148.309-148.31 148.309z"/><path d="m178.31 66.949c-35.58 0-64.527 28.947-64.527 64.527 0 8.284 6.716 15 15 15s15-6.716 15-15c0-19.038 15.489-34.527 34.527-34.527s34.527 15.489 34.527 34.527-15.489 34.527-34.527 34.527c-8.284 0-15 6.716-15 15v33.915c0 8.284 6.716 15 15 15s15-6.716 15-15v-20.675c28.371-6.779 49.527-32.35 49.527-62.768 0-35.579-28.947-64.526-64.527-64.526z"/><circle cx="178.31" cy="265.899" r="20.999"/></g></svg>