<svg xmlns="http://www.w3.org/2000/svg" viewBox="0 0 223.73 285.57"><defs><style>.cls-17,.cls-18,.cls-3,.cls-4,.cls-7{fill-rule:evenodd}.cls-2,.cls-3{fill:#fff}.cls-4{fill:#cdbfbd}.cls-7{fill:#d22e2f}.cls-17{fill:#4f2808}.cls-18{fill:#250d08}</style></defs><g id="Layer_2" data-name="Layer 2"><g id="OBJECTS"><path fill="#f2f2f2" fill-rule="evenodd" d="M106.78 282.2q7.43.89 14.86 1.72c6.25.7 12.28 1.11 18.53 1.57a71.48 71.48 0 0 0 7.16-.06 23.09 23.09 0 0 0 4.52-.82 16 16 0 0 0 3.69-1.62 12.33 12.33 0 0 0 4.69-4.92 13 13 0 0 0-.35-12.71 18.68 18.68 0 0 0-2.88-3.64c2.66-5.38-1-12.15-11.54-15.73l1-.08a9.11 9.11 0 0 0 4.32.54 126.73 126.73 0 0 0 13.45-1.36c.88-.17 26 8.18 36.48 7.6a59.81 59.81 0 0 0 6.22-.77 18.87 18.87 0 0 0 3.82-1 14.5 14.5 0 0 0 3-1.54 8.88 8.88 0 0 0 3.38-4 7.85 7.85 0 0 0 .44-4.53 9.09 9.09 0 0 0-2.54-4.57 16.29 16.29 0 0 0-3-2.32c1.66-4.43-3.22-9.26-14.4-10.4-3.52-.19-20-11.38-35.83-12a9.14 9.14 0 0 0-2-2.76 16.32 16.32 0 0 0-3-2.16c1.66-4.12-3.22-8.61-14.4-9.67-10.29-.52-102.53-6.4-105.67 2.79a28 28 0 0 0-5.2 1.46 11.88 11.88 0 0 0-5.71 4.35 6.35 6.35 0 0 0-1 3.78 6.82 6.82 0 0 0 1.12 3.35 11.59 11.59 0 0 0 1.51 1.84 14.1 14.1 0 0 0-4.17 2.19 7.66 7.66 0 0 0-2.18 2.6 5.21 5.21 0 0 0-.42 3.58 6.57 6.57 0 0 0 1.64 2.93 10.83 10.83 0 0 0 2.14 1.74 19 19 0 0 0 3.54 1.66l.9.27c-2.81.62-4.68 1.62-5.32 3.07a26.86 26.86 0 0 0-6.2 1.32 15.14 15.14 0 0 0-7.38 5.47 11.83 11.83 0 0 0-2.08 5.36 12.19 12.19 0 0 0 .46 5.08 16.73 16.73 0 0 0 1.26 2.94 15.63 15.63 0 0 0-5.21 2.54 11.51 11.51 0 0 0-3.07 3.46A9.91 9.91 0 0 0 0 263.9a10.59 10.59 0 0 0 1.15 4.54 13.2 13.2 0 0 0 2 2.88 19.22 19.22 0 0 0 3.79 3.16c4.51 2.64 8.4 3.31 13.58 4.1.09 0 .92.13 1.08.15 5 .65 10 1 15 1.45 12.73 1 25.49 1.14 38.21 1.71l7.26.34c1.11 1 3.29 1.32 4.74 1.42a119.94 119.94 0 0 0 15.42.29 14.37 14.37 0 0 0 2.74-.74 7.64 7.64 0 0 0 1.76-1zm-29.72-53.53a9 9 0 0 0 .68 1.44 12.24 12.24 0 0 0 1.51 2c-.49.19-.93.37-1.34.56-6.57-1-13-1.93-19.11-2.62 6.11-.37 12.2-.87 18.26-1.38z"/><path d="M191.1 89.33c-2.11-.16-1.86 1.58-2.19 2.79-1.1 4-1.89 8.18-3.63 12-.79 1.74-2 3.32-1.36 5.42.2.72-.34 1.3-.85 1.81a23.92 23.92 0 0 1-4.85 4c-2.94 1.73-6 3.14-8.88 5.06s-2.95 2-.61 4.63c2.85 3.14 2.63 6.09-.66 8.78a12.3 12.3 0 0 1-4.62 2.38 29.77 29.77 0 0 1-13.49.34c-7.53-1.42-15-3-22.7-3.62-6.5-.55-12.17-3.68-16.79-8.38-2-2.08-1.58-3.81 1.05-4.71 1.41-.48 3.45-.93 3.16-2.55s-2.42-1.63-4-1.66a1.1 1.1 0 0 0-.49.18.47.47 0 0 0-.1.71c.22.3.56.26.87.3-.32 0-.64 0-.87.26-.43.46-1.15 0-1.58.51a.68.68 0 0 1-.32.2 2.64 2.64 0 0 1-2.37 2.86c-3.91.37-7.66 2.56-11.46 3.48-1.55.38-3.12.62-4.67 1 1 4.46-2.73 11.19-3.43 14.71a2.06 2.06 0 0 1-1.63 1.73 1.49 1.49 0 0 1-.22.85.43.43 0 0 1 0 .4 1.8 1.8 0 0 0-.38 1.47 3.43 3.43 0 0 0 .26.75c.11.24.22.48.35.72a4.54 4.54 0 0 1 .35 3.3c-2 8.15-2.33 16.52-3.36 24.8-.5 4-1.17 7.89-3.41 11.39a20.48 20.48 0 0 0-2.5 5.16 12 12 0 0 1 0 2.71 2.3 2.3 0 0 1 2.4 2.4 26.11 26.11 0 0 1-3 12.51 4.09 4.09 0 0 0 .85.51c1.47-3.71 1.81-7.69 2.69-11.69a15.66 15.66 0 0 1 2.82 8.33c0 .78.19 1.45.91 1.72 2.37.89 4.12 2.87 6.67 3.53 2.09.54 4.08 1.57 6.15 2.23 6.22 2 9.27 6.3 10.09 12.66 1.83 14.29 2.71 28.67 4.08 43 .25 2.65 1.08 5.37-.49 7.92 0 .53.34.73.71.94a5.34 5.34 0 0 0 .51.55 3.1 3.1 0 0 0 .52.53h.52a1.63 1.63 0 0 0 .49-.56 1.82 1.82 0 0 0 .54-.52 3.26 3.26 0 0 0 .54-.51 6.57 6.57 0 0 1 .54-.47c.22-.35.72-.24 1-.57a2.64 2.64 0 0 0 .58-.49 16.29 16.29 0 0 0 3.66-3.69 1.1 1.1 0 0 0 .11-1.21c-2.8-2.07-3.4-5-3.62-8.29-.31-4.52-1-9-1.29-13.55-.26-3.91-1.72-8 .59-11.77a1.45 1.45 0 0 0-.27-1.71c-2.84-3.3-2.29-7.41-2.58-11.25-.26-3.37.72-4 4.19-4 7.35-.14 14.63 1.08 22 1 4.63 0 8.83.84 12.51 3.75a3 3 0 0 0 4.27-.2 15.73 15.73 0 0 0 4.41-6.42 147.39 147.39 0 0 0 7.18-24.98c1.4-7.2 1.89-14.57 3.93-21.65a3.27 3.27 0 0 0-1.13-3.51 14.54 14.54 0 0 1-3.3-4.65c-3.28-7.51.94-15.89 7.18-20.38a3.7 3.7 0 0 1 3.27-.4c1.51.41 2.48 1.56 3.6 2.54s2 2.74 3.92 2.78l.19-.58a1.4 1.4 0 0 1 .42-.47 2.86 2.86 0 0 1 .5-.5 2.93 2.93 0 0 1 .5-.5 3 3 0 0 1 .5-.5c.15-.18.31-.36.47-.54.7-1.18-.13-2.56.52-3.75 0-.5 0-1 .06-1.5.61-1.55-.18-3.24.46-4.79 0-.32 0-.65.05-1a6.74 6.74 0 0 0 0-3.67c-.39-.33-.29-.67 0-1a2.3 2.3 0 0 0 .52-.55.27.27 0 0 0 .11-.14c0-.11 0-.22-.12-.34-.16-.18-.31-.37-.46-.56a1.74 1.74 0 0 1-.48-.48 1.76 1.76 0 0 1-.48-.48 1.84 1.84 0 0 1-.48-.48 1.72 1.72 0 0 1-.24-.19c-3.64 0-7.26-.39-10.89-.42a2.43 2.43 0 0 1-2.35-3 .78.78 0 0 1-.18-.07c-.42-.32-.34-.66 0-1 .3-.27.79-.18 1-.55.32-.24.82-.15 1.06-.55a5 5 0 0 0 .58-.45.38.38 0 0 1 .35-.1c.39-.18.89-.13 1.19-.52.33-.22.79-.16 1.05-.51.32-.24.79-.17 1.06-.51.31-.26.78-.19 1.07-.5.42-.47 1.16 0 1.57-.53a7.53 7.53 0 0 0 5.24-4.78.58.58 0 0 1 .05-.45c.51-.64-.05-1.52.48-2.15a.63.63 0 0 1 .06-.48c.4-.46 0-1.14.47-1.58.59-.6 0-1.51.54-2.1.45-.49.12-1.2.49-1.71a.42.42 0 0 1 .06-.4c.44-.47.06-1.17.48-1.64a.62.62 0 0 1 .07-.47c.4-.46 0-1.14.47-1.58.58-.62 0-1.53.52-2.17a.64.64 0 0 1 .07-.47c.38-.49.06-1.17.45-1.66a.5.5 0 0 1 0-.43c.53-.65 0-1.54.48-2.2a.5.5 0 0 1 0-.43 4.47 4.47 0 0 0 .15-2.78zM222.41 229.36a.43.43 0 0 1-.05-.4c-.38-.5 0-1.22-.51-1.69-.29-.3-.2-.76-.47-1.07a.33.33 0 0 1-.09-.34 1.85 1.85 0 0 0-.43-.72c-.36-.23-.23-.76-.59-1a6.91 6.91 0 0 0-.49-.57c-.33-.24-.22-.74-.57-1a1.37 1.37 0 0 0-.53-.55 1.63 1.63 0 0 0-.52-.52 1.85 1.85 0 0 0-.51-.54 3 3 0 0 0-.52-.54 4.06 4.06 0 0 0-.53-.53 4.17 4.17 0 0 0-.53-.53 4.18 4.18 0 0 0-.54-.54 4.27 4.27 0 0 0-.54-.54 2.89 2.89 0 0 0-.54-.52 1.75 1.75 0 0 0-.53-.51 1.07 1.07 0 0 0-.7-.52.36.36 0 0 1-.34-.12 3.45 3.45 0 0 0-.61-.42.61.61 0 0 1-.44-.13c-.2-.14-.41-.27-.61-.39a.58.58 0 0 1-.43-.09c-.34-.25-.79-.19-1.13-.43l-1-.11c-1-.42-2.16 0-3.16-.47-.51.46-1.06.9-1.53 1.39a3.45 3.45 0 0 0-1.26 1.71c1.26-.47 2.31-.84 3.34-1.25a2.72 2.72 0 0 1 1.54-.18 1.07 1.07 0 0 1 .82.58c.16.37 0 .64-.3.89a81.3 81.3 0 0 0-6.28 5.53 13.39 13.39 0 0 0-2.79 4.39 6.26 6.26 0 0 0 1.61 6.92 12.22 12.22 0 0 0 10.71 2.83 3 3 0 0 1 2 .05 2.05 2.05 0 0 0 2-.22 5.19 5.19 0 0 0 1.8-1.49 4 4 0 0 1 3-1.34c.46 0 .49.38.58.7.22.14.38.08.47-.16a.52.52 0 0 1 .11-.4c.24-.31.15-.76.45-1 .47-.43 0-1.16.53-1.59a3 3 0 0 0 .11-2.57z" class="cls-2"/><path d="M197.68 54.63a1.1 1.1 0 0 0-.53-.54 2 2 0 0 0-.49-.58 4.75 4.75 0 0 1-.47-.55 1.76 1.76 0 0 1-.48-.48 1.76 1.76 0 0 1-.48-.48 1.74 1.74 0 0 1-.37-.34 9 9 0 0 1-1.21-.21c-5.88-1.47-12.36-1.3-18.39-2.29a152.64 152.64 0 0 1-18.28-3.77c-6.05-1.77-11.7-2.3-17.91-3.05-2.53-.31-5.34-1.47-7.85-1.55a22.87 22.87 0 0 1-4.66-.57 8.75 8.75 0 0 1-1.72.68c-3.11.86-5.82 2.62-8.84 3.71-2.69 1-5.42 1.78-8.13 2.71-4.44 1.52-8.55 3.83-13 5.37.82 3.49.45 7.13-.16 10.79-.9 4.71-1.71 9.52-2.52 14.42-1.81 11.06-1.8 22.57-4.66 33.43a3.57 3.57 0 0 1 .46.45 5.23 5.23 0 0 0 .57.48c.46.54 1.2.16 1.71.52h.2l.18.08c.49.46 1.2.11 1.71.48h.2l.19.07c.8.61 1.85-.09 2.65.51 1.19.71 2.58-.11 3.78.51h.2l.2.07a2.58 2.58 0 0 0 2.08.16c.06-1.65-1.4-1.55-2.33-1.9-3.18-1.18-6.47-2.08-9.49-3.73.17-.24.32-.29.51-.25 13.13 2.56 26.32 4.73 39.63 6.23 9.13 1 18.1 3.09 27.18 4.48 1.31.2 2.62.44 3.82-.33 4.19-2.69 8.59-5.09 12.14-8.67 9.83-9.94 15.62-22 18.48-35.56 1-4.89 1.62-9.87 2.72-15.1.92 1.93.26 3.73 1.12 5.23a.43.43 0 0 0 .71 0 .57.57 0 0 1 .05-.45c.5-.66 0-1.53.46-2.19a.5.5 0 0 1 0-.43c.59-.81-.1-1.86.5-2.68a.64.64 0 0 1 .05-.48c.49-.65-.05-1.52.46-2.16a.62.62 0 0 1 .06-.47c.26-.53.41-1.06-.13-1.53zM55.53 193.23a4.77 4.77 0 0 1-1.12-2.32 18.92 18.92 0 0 1 .17-4.2c-3.32 1.34-6.91 1.95-10.07 3.73s-2.06 6.34-6.19 7.67c-3 1-6.32-1.79-8.71-3.07-4.27-2.28-8.13-2.11-12.2-.56a1.59 1.59 0 0 1 0 .25c0 .68.47.83 1 1 3.73 1.19 7.45 2.44 11.2 3.58a2.07 2.07 0 0 1 1.74 2 2.64 2.64 0 0 0 .55 1.45c1.2 1.35 1.29 3.1 1.39 4.67.17 2.6.86 5.17.65 7.8a2 2 0 0 0 .06.77 17.52 17.52 0 0 1 .46 5.19 5.93 5.93 0 0 0 .07 1.57 19.39 19.39 0 0 1 .4 5.72v7.86a11.7 11.7 0 0 0 .19 2.34 37.12 37.12 0 0 1 .86 6.17c.16 4.17-.32 8.37.49 12.53a2 2 0 0 1-1.82 2.43 7.91 7.91 0 0 1-1.3.06q-.08 0-.1.22c0 .12.09.19.29.22a.46.46 0 0 1 .38.1.84.84 0 0 0 1 0h.56l.54.47a2.66 2.66 0 0 0 .54.54 1.79 1.79 0 0 0 .56.53.58.58 0 0 0 1 0 5.43 5.43 0 0 0 .57-.48c.25-.34.77-.22 1-.58.22-.13.37-.33.57-.47.24-.35.77-.22 1-.59a3.43 3.43 0 0 0 .57-.49c.25-.32.75-.22 1-.57a1.5 1.5 0 0 0 .55-.51c.21-.13.36-.32.56-.46a24.89 24.89 0 0 0 3.66-3.61l.05-.07a.42.42 0 0 0 0-.46c-1.27-.12-1.86-1.19-2.69-1.92a3.45 3.45 0 0 1-1.13-2.25c-.4-2.74-1-5.44-1.43-8.17-.27-1.71-.44-3.43-.6-5.15a17.05 17.05 0 0 0-.34-2.83 12.56 12.56 0 0 1-.15-4.15c.13-1.75 1.27-3 2.51-4.05.82-6-.58-11.9-.47-17.9.73.19 1.25 1.07 2.14.62a8.83 8.83 0 0 0 0-1c-.22-1.41.47-2.23 1.62-3a52.46 52.46 0 0 1 5.56-2.9 7.92 7.92 0 0 0 4.19-4.75 1.4 1.4 0 0 0-.18-1.47 12.53 12.53 0 0 1-1.15-1.51z" class="cls-2"/><path d="M186.17 144.3zM114.2 275.52z" class="cls-3"/><path d="M118.55 270.38c-2.09-.76-3.54-2-3.81-4.42-.4-3.54-.91-7.08-1-10.65-.83-2.34-.25-4.86-.89-7.25-.31-1.15.14-2.53-.25-3.63-.61-1.72.28-3.45-.37-5.12-.2-.5.17-1 .46-1.46.44-.65.93-1.25 1.45-1.95a4.92 4.92 0 0 0-.84-1 5 5 0 0 1-2-4.08c-.12-2.62-.81-5.18-.67-7.81a7.34 7.34 0 0 1 .35-2.31 2.79 2.79 0 0 1 2.91-2c2.7.33 5.41.06 8.11.18a9.46 9.46 0 0 1 3.11.34 1.9 1.9 0 0 0 .77.12c4.37-.25 8.69.91 13.06.57a17 17 0 0 1 9.28 2.26 11.1 11.1 0 0 1 2.33 1.68c1.26 1.13 1.86 1.07 3.17 0a15.06 15.06 0 0 0 4.11-5.68 123 123 0 0 0 4.29-12.63c1-3.34 1.9-6.71 2.61-10.12.59-2.81 1-5.64 1.53-8.47.84-4.88 1.27-9.84 2.6-14.63.07-.25 0-.57.16-.76 1-1.52.28-2.48-.88-3.51-3.54-3.14-4.63-7.28-4.44-11.81a14.59 14.59 0 0 1 1-4.05 16.11 16.11 0 0 1 4.45-7.29c.79-.68 1.47-1.49 2.24-2.21a5.09 5.09 0 0 1 7.08-.06c1.35 1.24 2.61 2.59 3.91 3.88.37.36.77.7 1.16 1h.18a.92.92 0 0 0 .44.47l.06.06a1.43 1.43 0 0 0 .45.5c.14.2.33.36.47.56a1.37 1.37 0 0 1 .51.6l-.05-.05c.42.19.29.74.64 1 .15.21.38.36.44.63l-.06-.06c.45.23.36.74.57 1.09.45.29.38.81.55 1.23a.24.24 0 0 0 .12.32c.26.3.15.77.48 1 .29.31.24.77.47 1.11.55.44.19 1.15.49 1.66.47.18.35.73.63 1 .37.33.33.82.51 1.23a.25.25 0 0 0 .1.34c.27.31.2.77.45 1.09.38.32.34.82.52 1.23a.24.24 0 0 0 .1.33c.27.31.19.77.46 1.08.36.32.3.81.5 1.2a.31.31 0 0 0 .1.38c.26.32.19.77.45 1.08.54.39.06 1.15.58 1.55.29.34.26.82.46 1.2a.33.33 0 0 0 .11.39c.24.31.16.76.45 1.06a3.17 3.17 0 0 1 .48 1.27.2.2 0 0 0 .08.3 4.24 4.24 0 0 1 .45 1.26.22.22 0 0 0 .09.32c.39.49.11 1.15.4 1.67.49.23.39.78.6 1.15a.32.32 0 0 0 .1.38c.25.35.22.81.43 1.18a.33.33 0 0 0 .11.39c.24.31.16.76.45 1.06.33.35.31.83.48 1.24a.25.25 0 0 0 .1.34c.27.31.19.77.46 1.08.37.34.34.83.5 1.25a.22.22 0 0 0 .1.32c.29.3.2.77.47 1.08.35.34.32.83.5 1.24a.24.24 0 0 0 .1.34c.27.32.2.77.45 1.09.63.61.06 1.51.51 2.17a.86.86 0 0 1 .57.74.18.18 0 0 0 .09.27c.28.31.2.77.47 1.09.53.41.1 1.16.55 1.6.35.34.33.83.49 1.25a.21.21 0 0 0 .08.31c.31.34.25.82.46 1.2a.32.32 0 0 0 .1.39c.26.32.19.77.44 1.09.55.41.11 1.16.55 1.6.37.34.35.83.5 1.26a.2.2 0 0 0 .08.3 3.94 3.94 0 0 1 .45 1.27.2.2 0 0 0 .08.3c.54.61-.06 1.5.5 2.11.32.28.23.77.53 1.06.48.43.07 1.16.52 1.6.5.46.14 1.2.51 1.7v2.26c-.16.43-.13.93-.51 1.26-.27.31-.16.84-.6 1.05l.05-.06a1.29 1.29 0 0 1-.49.61 5.48 5.48 0 0 0-.45.56c-.22.3-.29.68-.52 1a4.33 4.33 0 0 1-1.24 1.15c1.56-.22 3.4-1.49 4.29.33s-1.32 2.53-2.37 3.48c-2.26 2-4.71 3.89-6.09 6.73-1.64 3.39-.92 6.09 2.17 8.16a12.68 12.68 0 0 0 8.22 2c2.67-.18 5.31-.19 7.4-2.43.58-.62 2.31-1.77 3 .4a1.14 1.14 0 0 1-.22.7v.53a.68.68 0 0 1 0 1c-.29.29-.16.85-.65 1l.07-.07c-.15.49-.72.35-1 .65a1 1 0 0 1-.63.45v-.06c-.17.5-.71.37-1 .62a1.23 1.23 0 0 1-.68.42 6.4 6.4 0 0 0-2.27 1.26c-6.34 5.54-18.2 2.46-22-5.37-1.92-3.93-.63-7.87.82-11.69.4-1.06 1.44-2.21-.1-3.24a3.69 3.69 0 0 1-.86-.81 1.5 1.5 0 0 1-.58-.52 2.4 2.4 0 0 1-.54-.54 2.38 2.38 0 0 1-.54-.54 2.52 2.52 0 0 1-.54-.54 2.42 2.42 0 0 1-.54-.54 2.46 2.46 0 0 1-.54-.54 2.47 2.47 0 0 1-.54-.54 1.45 1.45 0 0 1-.51-.59v.06c-.44-.31-.39-.83-.55-1.26a.2.2 0 0 0-.11-.29c-.27-.3-.17-.77-.48-1.05-.32-.3-.25-.77-.5-1.1-.39-.33-.36-.83-.52-1.26v-.09c.07-.26.2-.52 0-.76a1.26 1.26 0 0 1-.51-.61l.06.06c-.46-.26-.38-.79-.57-1.19a.28.28 0 0 0-.11-.35c-.25-.32-.19-.77-.44-1.09-.38-.33-.36-.83-.51-1.26a.19.19 0 0 0-.07-.3c-.32-.32-.24-.81-.48-1.16a.38.38 0 0 0-.11-.42c-.24-.32-.16-.76-.44-1.06-.33-.33-.3-.82-.49-1.21a.29.29 0 0 0-.12-.37c-.24-.32-.16-.76-.44-1.06-.34-.33-.29-.81-.5-1.2a.32.32 0 0 0-.12-.38c-.25-.3-.15-.76-.46-1-.3-.31-.24-.77-.49-1.1-.14-.1-.19-.21-.15-.32s.08-.17.12-.17c.12-.12.15-.24.09-.34s-.1-.15-.15-.15v-.06a2 2 0 0 0-.46-.52c-.16-.2-.38-.35-.46-.62v.05c-.43-.24-.34-.74-.56-1.09-.42-.25-.34-.75-.56-1.1-1-.28-.82.53-.87 1.05-.13 1.25.23 2.53-.21 3.76a2.19 2.19 0 0 0-.11 1.39c-.46.89.06 1.93-.43 2.82 0 .3-.06.6-.09.91-.51.87.1 1.92-.46 2.78a.33.33 0 0 0 0 .41c-.47.67 0 1.54-.45 2.21a.4.4 0 0 0-.07.45c-.56.83.07 1.86-.46 2.7l-.09.91c-.55 1 .12 2.26-.46 3.3a.38.38 0 0 0 0 .44c-.58 1 .09 2.21-.45 3.23l-.08 1c-.63 1.19.15 2.57-.48 3.76a.34.34 0 0 0-.05.41c-.53.64.15 1.6-.59 2.18l.05-.07a1 1 0 0 1-.56.58 1 1 0 0 1-.57.57 1 1 0 0 1-.57.57 1 1 0 0 1-.57.57 1 1 0 0 1-.57.57 1 1 0 0 1-.57.57.8.8 0 0 1-.6.53l.05-.06c-.18.49-.72.37-1 .61-.24.41-.74.32-1.08.55-.23.4-.75.29-1 .58-.25.35-.75.23-1 .56-.2.16-.34.4-.63.43v-.05c-.19.47-.72.36-1.05.6-.23.4-.75.29-1 .59-.25.33-.75.21-1 .55-.2.15-.35.38-.62.43-.2.46-.73.34-1 .6-.24.37-.75.26-1 .57a8.3 8.3 0 0 1-1.64 1c-.22.42-.74.31-1 .59a1 1 0 0 1-.62.47l.05-.06c-.18.49-.72.37-1 .61-.23.4-.74.3-1 .57-2.38.8-4.91-.19-7.29.58-.36.24-.23.74-.56 1-.3.29-.19.81-.6 1-.08.25-.31.4-.45.61-.36.24-.23.75-.57 1-.3.29-.17.84-.64 1l.06-.06a1.15 1.15 0 0 1-.47.63c-.3.28-.17.84-.65 1l.06-.06a.94.94 0 0 1-.51.62 3.29 3.29 0 0 1-.48.58c-.45.45-.61 1.13-1.16 1.51h.05a1.11 1.11 0 0 1-.53.6 1.71 1.71 0 0 1-.53.57 2.4 2.4 0 0 1-.54.54 2.45 2.45 0 0 1-.54.54 2.45 2.45 0 0 1-.54.54 2.47 2.47 0 0 1-.54.54 2.47 2.47 0 0 1-.54.54 1.91 1.91 0 0 1-.56.53 2 2 0 0 1-.53.56 47.7 47.7 0 0 1-6.23 6.34 1.91 1.91 0 0 0-.48.48 2 2 0 0 0-.48.48 3.57 3.57 0 0 0-.52.47 5.8 5.8 0 0 1-.55.5 2.48 2.48 0 0 1-.54.54 2 2 0 0 1-.55.53 1.33 1.33 0 0 1-.59.52 1.06 1.06 0 0 1-.56.57 1.45 1.45 0 0 1-.52.59 2.24 2.24 0 0 1-.54.55 2.57 2.57 0 0 1-.54.54 6.33 6.33 0 0 1-.5.55 3 3 0 0 0-.47.52c-.49.41-.64 1.09-1.15 1.49a1.57 1.57 0 0 1-.52.58 2.36 2.36 0 0 1-.54.54 2.37 2.37 0 0 1-.54.54 2.54 2.54 0 0 1-.54.54 2.52 2.52 0 0 1-.54.54c.21-.84.08-.8-.11-.97zM75.85 208.46a31.79 31.79 0 0 1 .87-5.65c.43-2.09 1.26-4.17.92-6.41-.06-.43.36-.93.67-1.64 1 1.38 2.08 2.4 2.31 3.92a5.44 5.44 0 0 0 1 2.4c1 1.39 1.41 2.79.35 4.34-.08.11 0 .33 0 .59.63.24 1.27.52 1.93.71.95.27 1.83.55 2.2 1.63.16.47.68.44 1.09.58a111.46 111.46 0 0 1 11.7 4.55 20.24 20.24 0 0 1 4.17 3.12 3.94 3.94 0 0 1 1.3 2.22c.21 1 .61 2 .91 3a41.81 41.81 0 0 1 1.23 6.92c.33 2.67.4 5.37.86 8 .4 2.31.48 4.67.67 7a8.84 8.84 0 0 0 .33 2.59 1.9 1.9 0 0 1 .15.77c-.18 3 .52 5.9.55 8.87a69.69 69.69 0 0 0 1 9.6 16.8 16.8 0 0 1 .11 1.83 18.8 18.8 0 0 0 .38 3.89 4.8 4.8 0 0 1-1.45 5.22 1 1 0 0 1-1.53 0c-.33-.25-.79-.17-1.1-.46l-.13-.12h-.18c-.42-.15-.9-.14-1.25-.48-.43-.46-1.17 0-1.57-.55-.32-.27-.8-.18-1.07-.54-.23-1.52-1.1-2-2.6-1.88s-2.87.38-4.25-.26c-.46-.42-1.16 0-1.61-.48l-.15-.11h-.18c-.54-.33-1.26 0-1.75-.49-.61-.54-1.52.08-2.11-.53-.62-.54-1.52.07-2.13-.52l-.14-.1-.16.06c-.73-.4-1.63.07-2.32-.47l-.14-.1-.16.06a1.52 1.52 0 0 1-.75-.43 2.26 2.26 0 0 0-.49-.48 2 2 0 0 0-.48-.48 1.9 1.9 0 0 0-.48-.48 1.93 1.93 0 0 0-.48-.48 2.3 2.3 0 0 0-.48-.5c-.6-1.38.17-2.91-.46-4.29l-.06-1c-.63-1.56.18-3.25-.47-4.81v-1c-.66-1.55.18-3.26-.48-4.81a2.41 2.41 0 0 0-.08-1.5c-.55-1.42.13-3-.42-4.39a2.25 2.25 0 0 0-.08-1.38c-.63-1.56.18-3.25-.47-4.81v-1c-.93-.9.81-2.69-1.09-3.26a20.78 20.78 0 0 1-2.14 1.08c-.21.44-.74.32-1 .6a1 1 0 0 1-.62.48v-.06c-.19.49-.72.37-1 .6-.21.41-.74.28-1 .6-.19.18-.34.41-.62.45v-.05c-.19.47-.73.35-1 .61-.5.4-1.28.41-1.59 1.09a1.92 1.92 0 0 1-.54.55 1.07 1.07 0 0 1-.61.49v-.06c-.17.46-.72.32-1 .65a2.25 2.25 0 0 1-.59.48c-.2.39-.74.25-1 .61h-.05l-.58.45a9.78 9.78 0 0 1-1.68.99 1 1 0 0 1-.62.49l.05-.06c-.17.47-.72.34-1 .63a1.24 1.24 0 0 1-.61.49v-.05c-.19.44-.73.31-1 .63-.18.18-.34.41-.62.46v-.05c-.19.45-.73.33-1 .62a1 1 0 0 1-.63.46l.06-.05c-.3.7-1.13.15-1.52.65a3.35 3.35 0 0 1-.55.51 1.42 1.42 0 0 1-.59.51c-.21.41-.74.29-1 .6a1.25 1.25 0 0 1-.62.47v-.05c-.2.46-.73.35-1 .59-.22.39-.75.26-1 .59a1.66 1.66 0 0 1-.61.46c-.19.42-.73.29-1 .63a2.74 2.74 0 0 1-.59.47c-.2.39-.75.25-1 .62h-.05a3.45 3.45 0 0 1-.84.29 5 5 0 0 1-4.06-4.26 148.7 148.7 0 0 1-2.62-18.12c-.23-2.53.31-4.88 2.5-6.54 1.5-2 3.8-2.75 5.84-3.88 6.64-3.68 13.1-7.69 20.28-10.34 2.44-.87 4.93-.77 6.87-2.31zM101.7 114.32c-1.76-1-3.76-1.34-5.63-2a64.53 64.53 0 0 1-6.55-2.65 6.17 6.17 0 0 1-1.13-.66.68.68 0 0 1-.21-.93.9.9 0 0 1 .6-.4 4.52 4.52 0 0 1 1.28.16c3.29.84 6.64 1.36 10 1.89 3.69.58 7.35 1.33 11 1.94 2.75.45 5.51.77 8.26 1.2 3.18.5 6.4.73 9.59 1.1 3.79.45 7.55 1.22 11.32 1.85l10.55 1.77c2.49.42 5 .77 7.45 1.29a2.66 2.66 0 0 0 2.23-.31c3.5-2.45 7.39-4.34 10.57-7.24a47.91 47.91 0 0 0 7.25-7.9A67.68 67.68 0 0 0 186 89.74c.51-1.3 1.22-2.52 1.75-3.81A60.6 60.6 0 0 0 191 73.6c.72-4 1.46-8 2.06-12.09a18.42 18.42 0 0 1 .85-3c.1-.3.34-.68.77-.49a1 1 0 0 1 .37.6 33.28 33.28 0 0 1 .59 6.49 2.15 2.15 0 0 1-.05 2 .27.27 0 0 0 0 .38c-.56 1.22.11 2.58-.43 3.81a2.31 2.31 0 0 0-.1 1.43c-.55 1 .13 2.26-.47 3.3a.34.34 0 0 0-.05.41c-.48.67 0 1.54-.46 2.21a.34.34 0 0 0-.06.41c-.38.5-.06 1.19-.45 1.68a.35.35 0 0 0-.08.42c-.39.5 0 1.2-.47 1.68a.26.26 0 0 0-.08.36c-.18.39-.16.85-.43 1.21a.28.28 0 0 0-.09.37c-.19.39-.16.86-.45 1.21a.21.21 0 0 0-.09.32c-.43.71.11 1.63-.53 2.29-.11.23-.16.51-.45.6-.91 1-1.71 2-1.28 3.45a1.57 1.57 0 0 1-.23 1 21.75 21.75 0 0 0-1.54 5 25 25 0 0 1-3.33 8.2 1.31 1.31 0 0 0-.17 1.45 3.48 3.48 0 0 1 .37 1.25c.07 1 .1 2-1.14 2.3a1.54 1.54 0 0 0-1 .81 5.77 5.77 0 0 1-2.48 2.26c-1.72 1-3.41 2.14-5.22 3-2.46 1.17-4.61 2.84-7 4.12a.69.69 0 0 0-.12 1.25c.33.28.68.55 1 .81a7.42 7.42 0 0 1 2.48 4.21 4.39 4.39 0 0 1-.9 4.17 12.56 12.56 0 0 1-5.69 4 16.4 16.4 0 0 1-5.1 1 12.74 12.74 0 0 0-1.81.24 7 7 0 0 1-1.55.2c-2.08-.2-4.16-.39-6.22-.71a70 70 0 0 1-11.95-2.75 8 8 0 0 0-2.33-.16 21.47 21.47 0 0 1-5.46-.42c-1.25-.35-2.59-.09-3.9-.31a28.25 28.25 0 0 1-6.47-2 30.65 30.65 0 0 1-10.39-6.91 4.24 4.24 0 0 1-1-3.86 1.47 1.47 0 0 1 .75-1 3.74 3.74 0 0 1 1.68-.68 6.22 6.22 0 0 0 1.29-.16c1-.29 2.33-1.45 2.11-1.72-.55-.66-1.38-.65-2.15-.81s-1.46-.64-2.28-.36a2.11 2.11 0 0 1-2-.14c-.62-.54-1.52.06-2.13-.51l-.14-.11-.17.05c-.71-.42-1.63.11-2.29-.52-.29-.41-1.07.11-1.44-.52zM24 257.7l-.15-.11-.17.05c-.71-.42-1.62.07-2.3-.48l-.15-.1-.17.06c-.71-.41-1.6.05-2.3-.46l-.17-.11h-.2c-.68-.46-1.59.09-2.24-.51l-.57-.45a2 2 0 0 0-.48-.48 2 2 0 0 0-.48-.48 1.92 1.92 0 0 0-.48-.48 1.94 1.94 0 0 0-.48-.48 3.23 3.23 0 0 0-.48-.52c-.7-2.82.18-5.73-.47-8.55a3.85 3.85 0 0 0-.09-2c-.59-1.93.17-4-.45-5.88a5.94 5.94 0 0 0-.08-2.52c-.47-3.1-.08-6.23-.22-9.34 0-.94.23-1.91-.23-2.81a8.23 8.23 0 0 0-.08-3.07c-.59-2.65.19-5.37-.43-8a2.4 2.4 0 0 0-.08-1.43c-.63-1.92.18-3.94-.47-5.86v-1.92c.68-2.45-.19-5 .49-7.43a1.89 1.89 0 0 0 .45-.53l.06-.06a1.32 1.32 0 0 0 .49-.46 1.92 1.92 0 0 1 .72-.42.26.26 0 0 0 .34-.09 2.27 2.27 0 0 1 2.08 0 .23.23 0 0 0 .33.09c.42.2.9.13 1.33.29 2.51 2.75 6.05 3.53 9.38 4.24 5.73 1.23 7.37 5.25 8 10.2a134.63 134.63 0 0 1 1.49 17.71c-.08 9.18 1.56 18.26 1.24 27.43a29.32 29.32 0 0 0 .29 3.91c.25 2.67-.55 3.47-3.42 3.59-.45 0-.92.07-1.31-.27l-.14-.11h-.17c-.55-.31-1.27 0-1.78-.49-.61-.54-1.51.07-2.11-.53-.62-.55-1.52.07-2.13-.52l-.14-.11-.16.06c-.71-.41-1.42-.12-1.91-.57z" class="cls-4"/><path d="M84.87 144.91a4 4 0 0 1 .89 3.86 43.37 43.37 0 0 0-1.44 8.23c0 .85-1 1.32-.83 2.13a5 5 0 0 1 .27 2.3c-.69 2.19-.33 4.49-.86 6.71a49.71 49.71 0 0 0-.67 5.89c-.2 1.72-.38 3.46-.7 5.16a9.24 9.24 0 0 1-1.53 4.05 22.93 22.93 0 0 0-1.74 3.22c-.74 1.38-1.49 2.75-2.23 4.12a3.85 3.85 0 0 1-.32 1.9 16.51 16.51 0 0 1-2.19 3.23c-2.12 2.41-4.14 4.62-5.45 7.89-1.77 4.42-6.24 6.72-11.16 7.67a12.76 12.76 0 0 1-11.69-3.41c-.83-2.3.14-3.83 2.1-5 1.73-1 3.57-1.8 5.31-2.79 3.48-2 3.85-3.63 2.05-7.1a8.63 8.63 0 0 1 .32-8.67 13.64 13.64 0 0 0 1.13-1.09 1.94 1.94 0 0 1 .47-.61c.33-.25.2-.81.65-1l-.06.06a1.19 1.19 0 0 1 .49-.62 4 4 0 0 0 .4-.54.23.23 0 0 0 .17-.29 1 1 0 0 1 .54-.75 1.35 1.35 0 0 1 .55-.57c.25-.32.17-.82.55-1.08.14-.19.28-.39.43-.57a.2.2 0 0 0 .13-.28 1 1 0 0 1 .52-.76c.12-.22.32-.38.45-.59.37-.22.24-.75.59-1 .15-.18.28-.36.41-.55a.24.24 0 0 0 .16-.31 1.11 1.11 0 0 1 .49-.74c.29-.29.17-.84.64-1l-.06.06a1.19 1.19 0 0 1 .47-.63c.3-.28.18-.83.63-1l-.06.05a1.29 1.29 0 0 1 .48-.62c.31-.29.19-.82.61-1l-.05.05a1.85 1.85 0 0 1 .46-.62c.33-.26.21-.78.6-1a5.58 5.58 0 0 1 .45-.6c.37-.23.23-.75.58-1a4.16 4.16 0 0 0 .4-.54.25.25 0 0 0 .17-.31 1 1 0 0 1 .53-.73 1.77 1.77 0 0 1 .52-.58c.28-.31.21-.77.48-1.08.35-.25.22-.78.61-1a1.91 1.91 0 0 1 .5-.58c.17-.19.34-.36.52-.53l.52-.53c.48-.43.06-1.14.51-1.58.33-.26.22-.78.58-1 .12-.22.33-.37.45-.59a1.28 1.28 0 0 0 .46-.49l.06-.06a1.08 1.08 0 0 0 .46-.46l.06-.06a1.09 1.09 0 0 0 .46-.46l.05-.06c.67-.53 0-1.47.59-2 .28-.3.18-.82.59-1.05v.05c.08-.25.31-.4.44-.62.37-.23.23-.76.6-1 .27-.31.17-.84.59-1.06v.05c.08-.26.3-.41.45-.62.36-.24.23-.75.58-1 .29-.3.18-.82.6-1v.05c.08-.26.3-.42.46-.62a1.77 1.77 0 0 0 .45-.52l.06-.06a1.06 1.06 0 0 0 .46-.46l.06-.06a1.07 1.07 0 0 0 .46-.46l.06-.06a1.08 1.08 0 0 0 .46-.46l.06-.06a1.09 1.09 0 0 0 .46-.46l.07-.07a5.33 5.33 0 0 0 .59-.42c.17-.19.32-.18.44.05.61.07.83.58 1.13 1a4.73 4.73 0 0 1 .05.71z" class="cls-4"/><path fill="#d42e2e" fill-rule="evenodd" d="M163.45 19.86h-.22l-.17.14c-.33.22-.77.13-1.07.43l-.5.08a12.9 12.9 0 0 1-4.7 0l-.23-.12h-.26c-.3-.3-.79-.2-1.09-.52a1.52 1.52 0 0 0-.51-.38.26.26 0 0 0-.34-.21.74.74 0 0 1-.66-.6l.07.06a.66.66 0 0 1-.58-.58l.06.06a.66.66 0 0 1-.58-.58l.06.06a.66.66 0 0 1-.58-.58l.06.06a.66.66 0 0 1-.58-.58l.06.06a.66.66 0 0 1-.58-.58l.06.06a.64.64 0 0 1-.58-.59l.07.07c-.5-.13-.35-.72-.69-1a1.29 1.29 0 0 1-.45-.75.2.2 0 0 0-.12-.31c-.26-.35-.21-.81-.43-1.17a1 1 0 0 0-.08-.93 3.45 3.45 0 0 1 0-2.61.79.79 0 0 0 .1-.82c.32-.55 0-1.3.54-1.78.23-.34.15-.84.55-1.09a1.23 1.23 0 0 1 .56-.57 1.28 1.28 0 0 1 .56-.56 1.28 1.28 0 0 1 .56-.56 1.27 1.27 0 0 1 .56-.56 1.27 1.27 0 0 1 .56-.56 1.18 1.18 0 0 1 .58-.56c.2-.41.75-.27 1-.63a1.47 1.47 0 0 1 .75-.43.21.21 0 0 0 .32-.13c.3-.25.77-.15 1-.47.22-.13.92.25 1.47-.13a6.83 6.83 0 0 0 2.39 0c.5.37 1.16.09 1.67.4l.84.15a1.81 1.81 0 0 1 .73.35.38.38 0 0 0 .37.1 4.93 4.93 0 0 1 .65.44 1.1 1.1 0 0 0 .49.45l.06.06a20.85 20.85 0 0 1 2.57 2.57l.06.06a.89.89 0 0 0 .46.46l.06.07a1.59 1.59 0 0 0 .44.53 1.51 1.51 0 0 1 .45.72v6.92a1.5 1.5 0 0 1-.42.78c-.37.23-.23.76-.61 1a2.71 2.71 0 0 1-.5.59c-.18.17-.35.35-.52.53a6.7 6.7 0 0 0-.52.52 6.82 6.82 0 0 0-.52.52 6.52 6.52 0 0 0-.52.52 6.89 6.89 0 0 0-.52.52 6.44 6.44 0 0 0-.52.52l-.54.51a1.5 1.5 0 0 1-.6.57z"/><path fill="#979898" fill-rule="evenodd" d="M193.36 220.57c.42.11.85.2 1.26.33 1 .32 1 .46.68 1.26-.52 1.2-1 2.4-1.57 3.59a16 16 0 0 0-1.25 7.14 7.64 7.64 0 0 0 1.15 3.7c2 3.36 5.06 5.24 8.65 6.36a13.57 13.57 0 0 0 8.49 0 7.4 7.4 0 0 0 3.56-2.11 3 3 0 0 1 2.82-1 .3.3 0 0 1 .11.35c0 .11-.09.16-.14.16a3.7 3.7 0 0 1-.54.54 2.89 2.89 0 0 1-.54.54 3 3 0 0 1-.54.54 2.08 2.08 0 0 1-.56.53 1.53 1.53 0 0 1-.57.54c-.24.4-.75.3-1.05.57-.28.35-.76.27-1.08.52-.45.54-1.19.15-1.69.53h-.2l-.19.07a21.45 21.45 0 0 1-7.35 0l-.19-.07h-.2c-.51-.37-1.22 0-1.7-.49-.42-.48-1.18 0-1.57-.57-.33-.25-.82-.16-1.08-.54a2.82 2.82 0 0 1-.57-.49c-.26-.32-.79-.2-1-.6a1.36 1.36 0 0 1-.56-.54 1.48 1.48 0 0 1-.55-.55 1.49 1.49 0 0 1-.55-.55 1.5 1.5 0 0 1-.55-.55 1.48 1.48 0 0 1-.55-.55 1.52 1.52 0 0 1-.55-.55 1.45 1.45 0 0 1-.55-.56c-.39-.2-.24-.75-.62-1v-.05a5.71 5.71 0 0 0-.45-.56c-.33-.26-.22-.77-.56-1-.29-.3-.21-.77-.5-1.08-.58-.64 0-1.55-.51-2.22 0-.49 0-1-.07-1.46a3.37 3.37 0 0 1 0-2.61.61.61 0 0 0 0-.48c.53-.63 0-1.51.48-2.15a.55.55 0 0 0 .06-.43c.24-.35.18-.82.47-1.16.34-.27.24-.74.5-1 .54-.38 0-1.15.58-1.53a2.31 2.31 0 0 1 1.34-.82z"/><path d="M95.91 167.56a1.16 1.16 0 0 1 1.22.13c.93.63 1.86 1.25 2.79 1.9a8.07 8.07 0 0 0 2.19 1.35 2.28 2.28 0 0 1-.4.65 1.44 1.44 0 0 0-.25 2.09 8.27 8.27 0 0 0 .69.79c.6.78.6 1-.14 1.77-.55.56-1.16 1.06-1.74 1.59a2 2 0 0 0-.44 2.56 5.28 5.28 0 0 0 2.14 1.88 1.37 1.37 0 0 0 1.46-.1 20.26 20.26 0 0 1 2.29-1.27c1.11-.53 1.59-.38 2.18.61.31.53.57 1.09.85 1.63s.47.94.71 1.4c.92 1.75 2.13 3 4.32 2.32 1.19 2-.36 3.15-1.55 4.17-1.52 1.29-2.43 2.49-1.74 4.66a2.85 2.85 0 0 1-2 3.74c-1.88 1.4-1.88 1.42-4.19.8-1.07-.29-2.24-.36-3-1.33-.24-.3-.62-.22-1-.11a2.4 2.4 0 0 1-2.55-.84 5.8 5.8 0 0 0-2-1.68 2.42 2.42 0 0 1-1.21-1.64 22 22 0 0 0-2.38-5.75 9.78 9.78 0 0 0-1-1.17 3.07 3.07 0 0 1-.75-4 2.43 2.43 0 0 0 .25-1.71 4.6 4.6 0 0 1 .05-1.55c.3-2.41.69-4.8.9-7.21a3.7 3.7 0 0 1 1.13-2.53c1.13-1.02 2.14-2.09 3.17-3.15zM143.05 176.94a2.44 2.44 0 0 1-.44-.28 1.56 1.56 0 0 0-2.31-.17c-.91.68-1.86 1.29-2.79 1.94a.94.94 0 0 1-1.39 0 32.66 32.66 0 0 1-4.42-4.89l1.61-2a1.9 1.9 0 0 0 0-2.43c-.66-1-1.43-1.77-2.82-1.26a6.21 6.21 0 0 1-1.56.05 2.37 2.37 0 0 1-2.09-.84 3 3 0 0 0-.56-.55c-1.86-1.26-2.16-3.26-2.5-5.24a1.67 1.67 0 0 1 .93-1.72c2.07-2.27 2.1-2.37 5.08-1.46 3.48 1.07 7.07 1.78 10.47 3.11a2.32 2.32 0 0 0 1.25 0 6.55 6.55 0 0 1 6.19 2.59 2.17 2.17 0 0 1 .58 2.4c-1.08 1.91-.79 4.07-1.37 6.07a4.77 4.77 0 0 1-1.31 2.47 11.38 11.38 0 0 1-2.55 2.21z" class="cls-4"/><path d="M102.81 133.35a5.16 5.16 0 0 1 5.65 5.25c.06 2.85-3.31 5.54-5.61 5.6s-5.32-2.73-5.26-5.55c0-1.83 1.32-3 2.27-4.27a2.94 2.94 0 0 1 2.95-1.03z" class="cls-7"/><path fill="#fafdff" fill-rule="evenodd" d="M108.51 199.44a4.1 4.1 0 0 0 1.19-4.68 23.44 23.44 0 0 1-.45-2.32 12.42 12.42 0 0 0 1.83-1c.62-.46 1.09-1.13 1.71-1.61a2.9 2.9 0 0 0 1-3 6.24 6.24 0 0 1 1 0 3.72 3.72 0 0 1 3.39 4.56 2.25 2.25 0 0 1-1.45 2 2.5 2.5 0 0 1-.72.28c-1.88 0-2.86 1.45-4.06 2.55a2.13 2.13 0 0 0-.35 3.19.75.75 0 0 1-.74.53 4.5 4.5 0 0 1-2.35-.5z"/><path fill="#d33430" fill-rule="evenodd" d="M120.6 139.91a3.31 3.31 0 0 1-3.1 3.22c-1.38-.09-2.63-1.72-2.6-3.38a2.85 2.85 0 1 1 5.7.17z"/><path fill="#f6f4f4" fill-rule="evenodd" d="M92.24 188.89a5.15 5.15 0 0 1 2.63 4.2 7.82 7.82 0 0 0 1 3.19 8.7 8.7 0 0 1-3.51-.7 1.59 1.59 0 0 1-1.23-1.5 11.49 11.49 0 0 1 1.11-5.19z"/><path fill="#d3d4d3" fill-rule="evenodd" d="M76 193.74c-.16-.57.07-1.29-.63-1.66l.59-1.49c1.04 1.03.57 2.09.04 3.15z"/><path fill="#c3c7ca" fill-rule="evenodd" d="M84.87 144.91a.61.61 0 0 1-.55-.59.75.75 0 0 1 .55.59z"/><path d="M140 110.75a34.94 34.94 0 0 1-6-1.22c-8.21-2-16.4-4.09-24.58-6.17a36.09 36.09 0 0 1-3.5-1.09 2.22 2.22 0 0 1-1.68-2.6 4.42 4.42 0 0 1 .17-1.29c.45-1.31.45-2.77 1.28-3.95 1.41-.35 2.71.23 4 .49 3.93.73 7.88 1.38 11.8 2.15 2.56.5 5.09 1.18 7.64 1.74q6.88 1.52 13.77 3a4.07 4.07 0 0 1 1.7.63.83.83 0 0 1 .33.65 32.08 32.08 0 0 1-1.29 5.58c-.73 2.04-.74 2.11-3.64 2.08zM105.86 74.1v-1.84a3.41 3.41 0 0 1 .84-2.43 35.28 35.28 0 0 1 3.56-3.83 4.82 4.82 0 0 1 4.93-.71 10.65 10.65 0 0 1 7.16 7.4c.93 3.18-.25 5.05-2.06 6.81a10.69 10.69 0 0 1-3.83 2.22 8.76 8.76 0 0 1-9.75-3.13 4.18 4.18 0 0 1-.84-2.44c0-.66-.01-1.36-.01-2.05zM138.92 79.77a8.17 8.17 0 0 1 .42-2.57 4.74 4.74 0 0 1 3.5-3.18 16.09 16.09 0 0 1 2.55-.49 7 7 0 0 1 6.26 2.55 8 8 0 0 1 1.91 4.77 6.34 6.34 0 0 1-1.35 4.15 10.22 10.22 0 0 1-4.07 3.16 4.74 4.74 0 0 1-4.26-.29 9 9 0 0 1-4.39-4.3 8.6 8.6 0 0 1-.57-3.8z" class="cls-4"/><path d="M174.09 91.61a19.4 19.4 0 0 1 1.59-7.9 10.93 10.93 0 0 1 1.13-2.06 1.79 1.79 0 0 1 1.54-.85 3 3 0 0 0 1 0c.56-.2 1.06-.7 1.71-.4a3.8 3.8 0 0 1 1.78 1.85 9.64 9.64 0 0 1 1 3.5 18.42 18.42 0 0 1-.89 8 7.25 7.25 0 0 1-3.06 4.11c-2.2 1.25-3.81.8-5.19-1.63a5.34 5.34 0 0 1-.67-2.52c.05-.71.06-1.4.06-2.1z" class="cls-7"/><path d="M142.7 46.71a14.15 14.15 0 0 1 6 1.45 4 4 0 0 1 1.84 2.09 2.87 2.87 0 0 1-1.12 3.89c-1.72 1.31-3.62 2.36-6 2.06a8.43 8.43 0 0 1-3.2-1 5.3 5.3 0 0 1-2.81-6.2 1.86 1.86 0 0 1 .67-1.08c1.34-1.1 1.84-1.26 4.62-1.21z" class="cls-4"/><path fill="#8b8c8c" fill-rule="evenodd" d="M144.3 225.59a2.81 2.81 0 0 1 2.55.94.56.56 0 0 1 0 .88.68.68 0 0 1-.92.13 3.63 3.63 0 0 1-1.63-1.95z"/><path fill="#949394" fill-rule="evenodd" d="M149.43 122.25c2.62 0 5.12.81 7.69 1.15a6 6 0 0 1 1.59.82c.45.22 1.19.14 1.29.73.13.75-.74.82-1.15 1.2a.78.78 0 0 1-1.16-.1c-1.41-1.64-3.51-1.79-5.34-2.53a1.51 1.51 0 0 0-1.26.08c-.85.4-1.28-.15-1.68-.76a.35.35 0 0 1-.12-.38c.05-.15.1-.21.14-.21z"/><path fill="#858787" fill-rule="evenodd" d="M149.43 122.25v.57a137.06 137.06 0 0 1-14.27-2.88 1.44 1.44 0 0 1 1.35-.25c3.37.82 6.87 1 10.22 1.94.88.27 1.94-.23 2.7.62z"/><path fill="#858585" fill-rule="evenodd" d="M59 197.43c-.13.08-.28.24-.39.22-.41-.07-.49-.39-.4-.74 0-.1.25-.25.33-.22a.58.58 0 0 1 .46.74z"/><path d="M174.78 96.17a5.43 5.43 0 0 0 1.31 3.09 3.19 3.19 0 0 0 3.78 1 5.6 5.6 0 0 0 3.08-2.7A16.71 16.71 0 0 0 184 84.83a4.59 4.59 0 0 0-1.18-2 2.74 2.74 0 0 0-.81-.64 1.39 1.39 0 0 0-2 .65 4.56 4.56 0 0 0 .87.56 3.19 3.19 0 0 1 2 2.55 16.22 16.22 0 0 1-.88 10.23 4.59 4.59 0 0 1-1.81 2.19 2.37 2.37 0 0 1-3.68-1.09 5.66 5.66 0 0 1-.43-1.5 18.88 18.88 0 0 1 .93-9 6.23 6.23 0 0 1 2.16-3.49.37.37 0 0 0 0-.64.73.73 0 0 0-.48-.11 2.69 2.69 0 0 0-1.85 1.7 21.23 21.23 0 0 0-2.06 11.93z" class="cls-17"/><path d="M172.58 71.27a9 9 0 0 0 2.53-1.76 4.56 4.56 0 0 0 .38-.61c-.06-.12-.08-.23-.13-.25s-.33-.17-.46-.13a5.59 5.59 0 0 0-2.7 1.91.42.42 0 0 0-.1.23 1.82 1.82 0 0 0 .08.49c.05.22.2.24.4.12zM110.84 59.92c2 .71 3.93 1.46 5.93 2.07a115.34 115.34 0 0 0 16.63 3.58 167.86 167.86 0 0 1 24.71 5.79A111.14 111.14 0 0 0 169 74.08a.52.52 0 0 0 .41-.23.65.65 0 0 0 .08-.49 1.33 1.33 0 0 0-1.15-.93 54.07 54.07 0 0 1-5.86-1.4c-4.34-1.35-8.63-2.83-13-4s-8.65-2.15-13-2.86a168.27 168.27 0 0 1-20.75-4.37c-1.5-.44-3.06-.66-4.46-.95-.46.14-.95 0-.87.53-.03.23.23.47.44.54z" class="cls-18"/><path d="M153.18 76.63a4.12 4.12 0 0 0-1.67.71c-1.27.76-2.56 1.48-3.82 2.27a1 1 0 0 1-1.39-.14c-1-1-2-1.94-3-2.89-.63-.59-1.28-1.18-1.95-1.73a.82.82 0 0 0-1 0 1 1 0 0 0-.42.9 4.42 4.42 0 0 0 .9 2.41c.86 1.3 1.74 2.59 2.74 4.07-1.05.8-2 1.45-2.85 2.17a1.62 1.62 0 0 0-.43 2.1 1.53 1.53 0 0 0 1.84.56 29.47 29.47 0 0 0 3.12-1.31 1.38 1.38 0 0 1 1.85.32c.41.45.85.88 1.3 1.29.9.82 1.8 1.64 2.73 2.43a1 1 0 0 0 1 .23 2.28 2.28 0 0 0 1.49-3.44 8.21 8.21 0 0 0-1-1.18c-.66-.76-2.05-1.2-1.88-2.29s1.62-1.15 2.41-1.81a5.17 5.17 0 0 1 .66-.41 4 4 0 0 0 1.19-1.35 1.88 1.88 0 0 0 .15-2 2.06 2.06 0 0 0-1.97-.91zM136.24 111.77c1.69.42 3.4.8 5.11 1.1s2.18 0 2.86-1.57a23.07 23.07 0 0 0 1-3c.24-.84.4-1.7.56-2.55.08-.4.58-.77.22-1.18a3.41 3.41 0 0 0-1.07-.7 4.41 4.41 0 0 0-1-.32c-4.09-.88-8.22-1.61-12.27-2.66-8-2.06-16.07-3.26-24.1-4.91-1-.21-1.31-.11-1.58.79a23 23 0 0 0-1.09 4.87c0 1.49.23 2 1.44 2.4 1.48.52 3 1 4.5 1.38q12.69 3.18 25.39 6.3zm-29.29-9c-.87-.23-1.07-.47-.83-1.26a20.6 20.6 0 0 1 1.12-4c1.41-.2 2.71.36 4 .62 3.77.73 7.55 1.4 11.31 2.17 2.22.45 4.41 1.06 6.62 1.57l14.28 3.29c.64.15.91.51.76 1.13-.34 1.35-.75 2.69-1.12 4-.15.53-.53.63-1.37.55l-1.43-.3c-6.69-1.29-13.24-3.14-19.88-4.66-4.17-1-8.33-1.94-12.49-2.91-.29.03-.64-.07-.97-.16zM107.08 79.34a8.52 8.52 0 0 0 4.11-.52c.86-.36 1.71-1.31 2.62-.87s1.35 1.32 2 2a17.77 17.77 0 0 0 3 2.91 2.38 2.38 0 0 0 .93.46c.81.11 2.23-1.42 2.13-2.26a4.31 4.31 0 0 0-1.39-2.42c-3.32-3.49-3.34-2.66 1-5 .54-.28 1.12-.49 1.65-.78a7.44 7.44 0 0 0 1.28-.9 2 2 0 0 0 .19-2.82 1.73 1.73 0 0 0-2.28-.71c-.94.45-1.89.89-2.82 1.37-1.24.63-2.46 1.32-3.71 1.94-1 .51-1.21.46-2-.44-.64-.72-1.21-1.49-1.86-2.2-.82-.91-1.65-1.8-2.52-2.66a3.47 3.47 0 0 0-1.1-.67c-.55-.23-1.35.45-1.16 1a11.33 11.33 0 0 0 .85 1.93c1.07 1.89 2.17 3.77 3.25 5.63a10 10 0 0 1-4.31 2.94 8.18 8.18 0 0 0-.94.41.73.73 0 0 0-.07 1.13 2 2 0 0 0 1.15.53zM118.2 145a3.53 3.53 0 0 0 3.34-3.4 3.06 3.06 0 0 0-2.83-2.91c-2 0-3.21 1.1-3.23 3a3.23 3.23 0 0 0 2.72 3.31zm-1-4.25c.18-.31.5-.47 1.18-.41a5.15 5.15 0 0 1 .88.46 1.23 1.23 0 0 1-1 2.19 1.58 1.58 0 0 1-1.09-2.22zM103.53 146.1a6.08 6.08 0 0 0 5.7-5.77c-.05-3.29-2.32-5.31-5.86-5.31a3.34 3.34 0 0 0-2.84 1c-1.07 1.35-2.44 2.63-2.35 4.54a5.78 5.78 0 0 0 5.35 5.5zm-2.6-7.11c.34-.1.71-.16.81-.53.26-.93 1-.79 1.69-.81a5 5 0 0 1 2 .33 2.5 2.5 0 0 1 1.5 3 3.53 3.53 0 0 1-6.83-.28c-.1-.7-.1-1.46.83-1.7z" class="cls-17"/><path d="M222.6 227c-2.27-5.64-6-9.78-12.08-11.43-.49-.13-1.06-.06-1.46-.49s0-.83.09-1.24a10.46 10.46 0 0 0-.18-5.18c-.36-1.08-.55-2.2-.9-3.28q-3.79-11.58-8.3-22.91c-.81-2-1.65-4-2.35-6.11a263.6 263.6 0 0 0-10-25.34 3.37 3.37 0 0 1-.24-2c.25-1.73.42-3.47.53-5.22a97.62 97.62 0 0 1 1.77-14.56 3.17 3.17 0 0 0-2.3-4.07 21.83 21.83 0 0 0-2.55-.6 74.12 74.12 0 0 0-8.85-1c-.38 0-.88.14-1.11-.38.26-.66.89-.84 1.42-1.06 3-1.26 5.78-2.88 8.65-4.36a4.29 4.29 0 0 0 2.45-3.16c.4-2 .88-3.92 1.39-5.86 1.29-4.9 2.64-9.79 3.48-14.79 1.17-6.89 2.51-13.75 4-20.59a137.91 137.91 0 0 0 2.56-14.18 16.21 16.21 0 0 0-.17-6 2.35 2.35 0 0 0-1.63-1.89c-2.46-.58-4.75-1.73-7.32-2a61.33 61.33 0 0 1-9.05-1.44c-3.06-.75-6.14-1.36-9.26-1.81-2.59-.37-5.2-.68-7.79-1.07-4-.6-7.83-1.79-11.76-2.64-.49-.11-1.06-.1-1.42-.66.07-.3.13-.64.24-1a118.37 118.37 0 0 1 5.77-14.9c.15-.32.31-.62.47-.94a1.37 1.37 0 0 1 1.46-.87c.26 0 .52.07.78.08a10.94 10.94 0 0 0 9.93-4.79 12.27 12.27 0 0 0 1.8-11.92 9.66 9.66 0 0 0-5.5-6 13.16 13.16 0 0 0-4.85-1 9.29 9.29 0 0 0-7.6 3.44 26.93 26.93 0 0 0-1.8 2.57 9.62 9.62 0 0 0-1.42 3.08c-1.08 4.51-.19 8.5 3.13 11.82a1.52 1.52 0 0 1 .36 2.05 89.27 89.27 0 0 0-4.5 10.89c-.69 2-1.39 4-2 6-.22.7-.59 1-1.32.93-.35 0-.7-.07-1-.13-4.3-.83-8.67-1.07-13-1.52a21.68 21.68 0 0 0-5.38.3 42.78 42.78 0 0 0-8.54 2.4c-1.56.56-3.12 1.15-4.72 1.57A108.36 108.36 0 0 0 97 49a10.47 10.47 0 0 0-2.26 1.29 2 2 0 0 0-.9 2 10.72 10.72 0 0 1-.34 4.39 158.87 158.87 0 0 0-2.7 16.59c-.66 6-1.13 12-1.71 18-.26 2.7-.45 5.41-.86 8.08-.57 3.71-1.29 7.4-2 11.09a7.52 7.52 0 0 0-.2 2.33 1.56 1.56 0 0 0 1.85 1.34 4 4 0 0 1 2.05 0l14 3.55a10 10 0 0 1 1.26.37c.33.13.84 0 1 .6a6.24 6.24 0 0 1-.94.5c-3.24 1-6.49 2.09-9.75 3.08a17.35 17.35 0 0 1-4.63.84 2.6 2.6 0 0 0-2.87 2.73 69.92 69.92 0 0 1-1.41 9.05 9.19 9.19 0 0 1-1.38 3.35c-1.29 2-2.6 3.95-3.75 6a4.86 4.86 0 0 1-2.68 2.26c-3.94 1.55-7 4-7.54 8.56a2.22 2.22 0 0 1-1.36 1.78c-1.09.56-2.13 1.21-3.17 1.86a18.62 18.62 0 0 0-4.06 3.29 20.14 20.14 0 0 0-1.55 2.1.48.48 0 0 0 .08.45.46.46 0 0 0 .44.06c.49-.5.92-1 1.41-1.55a15 15 0 0 1 7.49-4.08.81.81 0 0 1 .94.25 1 1 0 0 1 .14 1.21c-.26.46-.53.9-.81 1.35-4.7 7.48-9.49 14.89-14.52 22.15a2.5 2.5 0 0 1-2.11 1.2 17.55 17.55 0 0 0-10.56 4.75 10.47 10.47 0 0 0-3.26 5c-.12.42-.25.84-.37 1.26a1 1 0 0 1-1.18.8 21.17 21.17 0 0 1-3.08-.57c-3.26-1-6.5-2-9.75-3.07a8.2 8.2 0 0 1-2.14-1 2.79 2.79 0 0 0-2.73-.21 84.15 84.15 0 0 1-8.26 2.53 1.56 1.56 0 0 0-1.32 1.44c-.07.52-.1 1-.15 1.57a136.25 136.25 0 0 0-.15 15.72c.1 5.68.44 11.35.67 17 .12 3 .19 5.94.35 8.91.24 4.63.75 9.24.71 13.88a30.13 30.13 0 0 0 .15 3.41 1.55 1.55 0 0 0 2.13 1.51 2.49 2.49 0 0 1 2 .2A63 63 0 0 0 28.9 262c2 .46 3.88 1 5.81 1.58a2.58 2.58 0 0 1 1.44 1c1.07 1.4 1.31 1.44 2.77.45 2.83-1.91 5.6-3.89 8.39-5.85a3.84 3.84 0 0 0 1.42-1.51 5.76 5.76 0 0 1 2.38-2.36c1.53-1 3.08-2 4.63-3a179.9 179.9 0 0 0 21.58-15.32c.26-.22.56-.52.91-.22a1.07 1.07 0 0 1 .3.67c.27 3 .52 6.1.79 9.14.59 6.7 1.21 13.4 1.79 20.11.1 1.22 0 2.45.08 3.67a2 2 0 0 0 1.66 2.06c.59.17 1.2.25 1.8.35a122.67 122.67 0 0 1 20.87 6 19.89 19.89 0 0 1 2.16.94.82.82 0 0 1 .32 1.29h2.62a9.8 9.8 0 0 1 2.51-1.35c1.14-.65 2.29-1.27 3.43-1.92a3.23 3.23 0 0 0 1.71-1.91 4.41 4.41 0 0 1 1.69-2.24c1.15-1.07 2.31-2.14 3.37-3.3 2.9-3.16 6-6.11 9.11-9.06 4.38-4.15 8.72-8.36 11.91-13.56a4 4 0 0 1 2-1.6 51.79 51.79 0 0 0 5-2.39c4.57-2.58 9.09-5.23 13.64-7.85 2-1.13 3.91-2.31 5.93-3.35a6.58 6.58 0 0 0 3.73-5.61c.21-2.09.45-4.17.75-6.25q1.6-11.16 3.26-22.3c.05-.38-.06-.88.65-1.07a12 12 0 0 1 .62 1.06c.91 2 1.85 4 2.68 6 2 4.85 4 9.71 5.84 14.6a7.77 7.77 0 0 0 3.72 4.5 5.45 5.45 0 0 1 .86.7 20.09 20.09 0 0 0-2.25 9.11 13.38 13.38 0 0 0 4.1 10.42c5 4.76 14.94 6.72 21.58 1.82a18.65 18.65 0 0 0 6.56-8.93 12.83 12.83 0 0 0-.41-9.47zm-14.45 16.39a17.37 17.37 0 0 1-8.37-1.72 9.06 9.06 0 0 1-5.17-7.37 19.27 19.27 0 0 1 .79-9 1.26 1.26 0 0 1 1.32-1 9.24 9.24 0 0 0 5.36-1.81 11.62 11.62 0 0 0 1.52-1c1.09-1 2.27-1.64 3.38-1.27a10.74 10.74 0 0 1 9 3.78 15.42 15.42 0 0 1 3.65 6.56 6.37 6.37 0 0 1-.16 4.1c-.07.16-.09.34-.15.5-1.88 5.22-5.47 8.16-11.14 8.29zM171 224.71c-.56 3.77-.54 3.11-3.13 4.58-3.88 2.2-7.72 4.46-11.57 6.71a17.91 17.91 0 0 1-3.52 1.81 6.51 6.51 0 0 1 0-2.68c.12-1.39.23-2.79.33-4.18 0-.13-.18-.4-.23-.39-.23.05-.6.14-.64.29-.26.92-.45 1.86-.65 2.8-.32 1.54-.62 3.08-1 4.62-.11.51-.22 1-.79 1.28-.24.1-.5.31-.7.26-.47-.1-.31-.52-.25-.84a7.86 7.86 0 0 1 .26-1 11.63 11.63 0 0 0-.87-8.92 10.83 10.83 0 0 0-9-6.36 16.55 16.55 0 0 0-10.58 2.18 59.06 59.06 0 0 0-11.81 8.67c-.34.35-.66.85-1.29.73-.09-.14-.23-.27-.25-.41-.2-1.56-.43-3.12-.54-4.69a80.58 80.58 0 0 1-.11-12.05 11.17 11.17 0 0 0-.89-4.33 2.32 2.32 0 0 0-1.8-1.38c-1.44-.38-2.88-.72-4.31-1.11l-16.42-4.52c-1.18-.32-2.37-.61-3.56-.86s-2.11.69-3.23.9c-2 .37-3.82 1.22-5.84 1.39-.48-.32-.27-.76-.21-1.17l2-13.49c.13-.86.2-1.74.25-2.61a9.24 9.24 0 0 1 1.14-4.26c.74-1.24.66-2.68.89-4 1-5.95 1.66-11.94 2.24-17.95A106.06 106.06 0 0 1 87.49 149c.25-1.06.42-1.17 1.42-1a15.55 15.55 0 0 1 6.82 3.19 2.17 2.17 0 0 1 .87 2.71c-.63 1.82-1.14 3.67-1.65 5.52a127.52 127.52 0 0 0-3.6 19.31c-.58 5-1.57 9.83-2.46 14.74a24.79 24.79 0 0 0-.81 4.9 1.8 1.8 0 0 0 .79 1.55c.38.28.79.5 1.18.21 1-.71 1.68-.37 2.55.27a6.44 6.44 0 0 0 2.23.7c1.35.34 2.73.6 4.07 1a133.17 133.17 0 0 0 17.68 3.74c7.34 1.16 14.68 2.3 21.93 3.93 2.38.53 3.89-.52 4-3a57.25 57.25 0 0 1 .65-5.73q1.06-6.6 2.17-13.19a8 8 0 0 1 .4-1.52c.15-.4.51-.42.84-.2a7.63 7.63 0 0 1 2.21 2.22 16.72 16.72 0 0 1 2.41 11.05.85.85 0 0 1-.88.79 6.35 6.35 0 0 0-4 1.75 4.2 4.2 0 0 0-1 4.38A2.79 2.79 0 0 0 149 208a5.09 5.09 0 0 0 2.45-1.89c.44-.65.85-1.31 1.42-2.19a13.51 13.51 0 0 1 1.36.48c2.13 1 2.15 1.08 1.81 3.39-.57 3.89-1.22 7.77-1.7 11.67-.31 2.51-.36 5.05-.53 7.58a.54.54 0 0 0 .34.62c.55.14.49-.35.54-.64.54-3.28 1.07-6.55 1.57-9.84.42-2.76.79-5.54 1.2-8.3a1.78 1.78 0 0 1 .58-1.22 6.75 6.75 0 0 1 2.11 2.56c1.77 2.75 3.1 5.68 2.76 9.09 0 .29 0 .52.36.51a.51.51 0 0 0 .35-.29 5.91 5.91 0 0 0 .33-3.09 40.27 40.27 0 0 0-1.52-6.37 12.37 12.37 0 0 0-3.07-5.42 3.14 3.14 0 0 1-1-3.06c.45-3 .86-6.06 1.26-9.09.85-6.5 1.88-13 2.45-19.51.28-3.13.72-6.25 1.09-9.38a1.26 1.26 0 0 1 .14-.5.63.63 0 0 1 .37-.31.46.46 0 0 1 .34.28c1.58 6.27 4.72 11.81 8.09 17.24a14.78 14.78 0 0 1 .88 1.9c.11.24.16.5.26.74a35.26 35.26 0 0 1 2.14 5.62c.4 2-.4 4-.57 6a63.77 63.77 0 0 1-.57 7c-.5 2.57-.76 5.19-1.22 7.76-.87 4.82-1.36 9.69-2 14.54 0 .26 0 .52-.08.79zm-52 43.86c-.33-.08-.33-.38-.36-.62q-.54-5.19-1.07-10.4c-.34-3.38-.7-6.76-1-10.14-.11-1.12-.13-2.24-.22-3.89a15.1 15.1 0 0 1 5.56 6.14 49.67 49.67 0 0 1 3.42 10.94 2.51 2.51 0 0 1-.78 2.58c-1.69 1.64-3.25 3.4-4.86 5.11a.66.66 0 0 1-.67.27zm7.57-7.94c-.39-2-.73-3.92-1.21-5.85a36 36 0 0 0-1.34-4 17.07 17.07 0 0 0-6.63-8.22l-.43-.3c-1.25-.94-1.3-1.54-.24-2.78.28-.33.59-.64.91-.95 1.19-1.16 2.4-2.29 3.57-3.47a4 4 0 0 1 4.78-.93 9.85 9.85 0 0 1 4.3 3.31 21.44 21.44 0 0 1 2.51 4.27 44.69 44.69 0 0 1 2.38 6.92 17.32 17.32 0 0 1 .38 2.58 2 2 0 0 1-.58 1.67 98.36 98.36 0 0 1-7.91 7.63c-.11.09-.33 0-.5.06zm10.8-10.39a.41.41 0 0 1-.64-.16 10.22 10.22 0 0 1-.33-1.53 28.83 28.83 0 0 0-1.59-6.6 23.67 23.67 0 0 0-3-5.21 11.67 11.67 0 0 0-5.57-4.18 7.52 7.52 0 0 1-1-.56 27.81 27.81 0 0 1 6.82-3.84 15.17 15.17 0 0 1 8.77-.32c2.87.63 5.72 4.78 4.79 8.28a19.23 19.23 0 0 1-1.16 3.19 49.63 49.63 0 0 1-6.41 10.17 4.48 4.48 0 0 1-.72.75zM76.9 233.52a36.13 36.13 0 0 0-3.61 2.12c-1.3.8-1.84 1.22-2.13-.85a30.1 30.1 0 0 0-1.16-4.55 15.89 15.89 0 0 0-6.64-8.82c-.5-.33-1-.69-1.46-1a1.38 1.38 0 0 1 .75-.79 75.84 75.84 0 0 1 10-4 23.9 23.9 0 0 1 3.08-.61.89.89 0 0 1 1.11.81 9.5 9.5 0 0 1 .17 1.29c.35 4.79.68 9.58 1.05 14.37a1.75 1.75 0 0 1-1.12 2zm-29.08 17.94c-.33-1.89-.63-3.79-1-5.68-.81-4.73-1.3-9.51-1.69-14.29-.05-.69.32-1 1-.82A11.21 11.21 0 0 1 52.5 235a19.33 19.33 0 0 1 3.5 9.92v1.38a1.73 1.73 0 0 1-.81 1.54c-2.13 1.36-4.25 2.74-6.39 4.1a.65.65 0 0 1-1-.48zm-10.11 8.44a2.21 2.21 0 0 1-.59-1.68c-.13-3.06-.35-6.11-.39-9.16-.1-6.82-.58-13.62-1-20.42-.34-5.41-.87-10.8-1.29-16.2-.14-1.83-.41-3.65-.67-5.46a6 6 0 0 0-.48-1.49.86.86 0 0 0-.83-.53c-.45 0-.55.36-.55.72a10.27 10.27 0 0 0 .06 1.57c.59 4 1 8 1.25 12 .48 6.71 1 13.42 1.36 20.14.36 6 .61 12 .9 18.07 0 .34 0 .69-.09 1.37-2.74-.69-5.27-1.38-7.82-2-3.23-.74-6.48-1.41-9.74-2.07a1.14 1.14 0 0 1-1.05-1.25v-3.93c-.31-5.76-.68-11.51-1-17.27-.15-3.23-.09-6.47-.25-9.7-.23-4.45-.32-8.9-.8-13.34-.36-3.39-.5-6.8-.73-10.2a4.85 4.85 0 0 1 0-1 .56.56 0 0 1 .75-.5c.67.18 1.32.44 2 .66 3.64 1.24 7.27 2.5 10.91 3.71 1.61.53 2.62.39 2.51-.22-.19-1.11-1.22-1.14-2-1.4-2.73-.91-5.49-1.75-8.24-2.63-.25-.08-.49-.18-.73-.28s-.3-.22-.21-.41.16-.33.29-.38c1-.38 2-.74 2.94-1.1a3.46 3.46 0 0 1 2.07 0 115.79 115.79 0 0 1 11.8 3.48c.41.15.82.31 1.21.5a3.82 3.82 0 0 1 2.41 3.66c.23 7.6 1.09 15.16 1.27 22.77a128.45 128.45 0 0 0 1.25 14.88c.66 4.68 1.34 9.34 2.32 14a1.69 1.69 0 0 1-.71 2c-1.68 1.1-3.32 2.27-5 3.4-.47.32-.82.05-1.15-.25zm9.08-67.47a35.07 35.07 0 0 1 6.89-3.75.48.48 0 0 1 .73.45v2.88a9.73 9.73 0 0 0 2.75 6.88 24.1 24.1 0 0 0 3.93 3.45 9 9 0 0 0 3.8 1.66 7.82 7.82 0 0 1 1.09.33 4.84 4.84 0 0 1-2.16 2.6 15.64 15.64 0 0 1-15.5.9c-6.11-2.81-6.32-12-1.5-15.4zm46.57-64.74a7.89 7.89 0 0 1 1.53.29c3.73.95 7.42 2 11.17 2.83 5.12 1.12 10.29 2 15.42 3.09 12 2.49 23.92 5.08 35.77 8.13 1.27.32 2.56.52 3.86.74.31.05.77.05.8-.43a.87.87 0 0 0-.34-.62 8 8 0 0 0-3.11-1.33c-6-1.4-11.89-2.86-17.86-4.16-8.19-1.78-16.37-3.64-24.64-5.09-5.59-1-11.18-2-16.68-3.43l-2.38-.63a2.25 2.25 0 0 1 1.52-.92c3.91-1.23 7.84-2.44 11.74-3.71a17.78 17.78 0 0 0 3.62-1.49 4 4 0 0 1 3.5-.36c.41.13.83.25 1.34.4a5.12 5.12 0 0 1-.29 2.55 14.69 14.69 0 0 0-.37 3.12 2.21 2.21 0 0 0 1.22 2.16 19 19 0 0 0 3.1 1.39c5.08 1.61 10.19 3.12 15.4 4.25 2.9.63 5.82 1.2 8.72 1.8.43.09.85.21 1.28.27a3.64 3.64 0 0 0 4.37-2.76 12.35 12.35 0 0 0 .54-5c2.1.3 3.92.54 5.09 2.4.46.73.82.75 1.55.27 2.7-1.8 5.6-3.23 8.43-4.79a3.89 3.89 0 0 1 3.24-.36 100.79 100.79 0 0 0 13 3.05c.24 0 .58.09.5.44a1 1 0 0 1-.42.58c-2.07 1.31-4.19 2.54-6.2 3.92a40.76 40.76 0 0 1-5.29 3.39 9 9 0 0 0-1.67 1.25.64.64 0 0 0-.19.46.75.75 0 0 0 .24.39h.25a36.56 36.56 0 0 0 5.59-2.83 51.94 51.94 0 0 1 6.27-3.8 2.62 2.62 0 0 1 1.61-.53c.44 2.12-.33 4.21-.39 6.32a38.27 38.27 0 0 1-.68 6.7c-1.34-.77-2.58-1.38-3.72-2.14a6.05 6.05 0 0 0-5.26-.77 13.66 13.66 0 0 0-8.72 7.39 8.45 8.45 0 0 1-1.43 2.76c.09-1 .18-1.76.22-2.54s.06-1.57.07-2.36 0-1.4-.07-2.09a.78.78 0 0 0-.36-.58c-.51-.15-.52.31-.54.62-.45 7.69-1.56 15.3-2.54 22.93q-1.93 14.95-3.85 29.9c-.13 1-.36 2.06-.58 3.32l-.92-.27c-1.67-.43-2.34-1.39-2.21-3.22a19.3 19.3 0 0 0-1.34-7.69 12.23 12.23 0 0 0-4.93-6.58 1.76 1.76 0 0 1-.86-2.18c.55-2.29 1-4.62 1.58-6.9a52.81 52.81 0 0 0 1.31-7.48 4.85 4.85 0 0 1 .68-2.18 2.37 2.37 0 0 0-1.62-3.6 7.93 7.93 0 0 0-1.31-.09 37.6 37.6 0 0 1-9-1.49 99.1 99.1 0 0 0-17.42-3.64c-.35 0-.7-.08-1-.13a.71.71 0 0 1-.64-.93c1.46-7.88 8.55-10.54 14.37-8.29a4.34 4.34 0 0 1 .82.54c-.15 1-1 1.24-1.46 1.87a4 4 0 0 0-.5 4.43 2.15 2.15 0 0 0 3.3.91A4.87 4.87 0 0 0 138 151c.06-1.17.36-1.39 1.45-1.17a16.45 16.45 0 0 1 8.83 4.27 4.4 4.4 0 0 0 .56.55.48.48 0 0 0 .43 0c.11-.09.21-.36.15-.45a5.44 5.44 0 0 0-.88-1.27c-3.11-2.9-6.43-5.41-10.89-5.75a1.9 1.9 0 0 1-1.38-.63c-2.76-3.19-9.19-3.08-12.9-.6a12.91 12.91 0 0 0-5.59 7.65c-.13.51-.21 1-.34 1.53-.2.77-.49 1-1.32.93-1.82-.22-3.65-.44-5.44-.81-2.22-.47-4.4-1.09-6.61-1.65a12.14 12.14 0 0 0-1.78-.42 7.85 7.85 0 0 1-5.53-3 13 13 0 0 0-6-3.55c-.58-.2-1.17-.37-1.75-.56a.78.78 0 0 1-.56-1c.08-.43.14-.86.23-1.29q1.49-7.32 3-14.64c.24-1.16.62-1.48 1.77-1.42zm-1.92-16c-1.22-.19-1.36-.36-1.19-1.5.2-1.3.38-2.6.68-3.87a93.62 93.62 0 0 0 1.82-13c.55-6 1.07-12 1.67-18 .26-2.6.66-5.2 1.06-7.79.52-3.37.86-6.76 1.08-10.16 0-.44.08-.87.15-1.3.12-.73.45-.93 1-.55 1.64 1.08 3.57 1.39 5.37 2a1.29 1.29 0 0 0 .75 0 .6.6 0 0 0 .33-.37.57.57 0 0 0-.06-.47 2 2 0 0 0-.6-.49c-.62-.33-1.27-.59-1.88-.93-1-.56-2.45-.4-3-1.73.77-.9 1.94-1.06 2.94-1.52a46.5 46.5 0 0 1 7.69-2.58c3-.79 6-1.77 9-2.85.66-.24 1.29-.56 2-.74a24.84 24.84 0 0 0 8.27-3.85 1.72 1.72 0 0 1 1.71-.26A114.41 114.41 0 0 0 144 45.86a.75.75 0 0 1 .64 1 18.19 18.19 0 0 0-.44 5.21c0 .69 0 1.46.9 1.7.68.19 1.34-.21 1.74-1.25.58-1.55 1-3.15 1.57-4.72.27-.81.56-1 1.34-.87 2 .41 3.93.84 5.87 1.33a93.34 93.34 0 0 0 12.62 2.32 105.22 105.22 0 0 1 12.37 2.23 61 61 0 0 0 8.27 1.34A14.89 14.89 0 0 1 194 55.5a58.51 58.51 0 0 1-5.42 4.21c-1.06.77-2.13 1.53-3.15 2.35a11.38 11.38 0 0 0-1.47 1.49c-.38.45-.44 1.36-.14 1.43.51.12.74-.31 1.08-.56.92-.67 1.83-1.35 2.79-2a57.62 57.62 0 0 0 5.79-4.08c.4-.32.86-.57 1.27-.85.58.38.29.8.22 1.16-1.78 9-3.62 18-5.33 27-.93 4.89-1.59 9.83-2.83 14.66-.91 3.55-1.81 7.1-2.79 10.64-.3 1.09-.07 2.47-.9 3.23s-1.93.72-2.87 1.15c-2.38 1.1-4.75 2.21-7.08 3.41-3.33 1.73-6.63 3.54-9.94 5.3a2.57 2.57 0 0 1-1.45.53 3.15 3.15 0 0 1-.07-2.29c.69-4.22 1.31-8.46 2.19-12.65 1.74-8.3 3-16.67 4.09-25.08.2-1.65.54-3.27.79-4.92a8.18 8.18 0 0 0 0-1.56c0-.24-.1-.58-.44-.52a1.09 1.09 0 0 0-.62.38 5 5 0 0 0-.79 2.2c-.24 1.2-.4 2.41-.58 3.63-.9 6.14-1.67 12.3-2.73 18.4-.88 5.07-2.05 10.1-2.82 15.2-.35 2.33-.61 4.68-.92 7-.11.83-.4 1-1.24.85a24.27 24.27 0 0 1-2.53-.65 65 65 0 0 0-10.18-2.44c-6.31-1-12.45-2.73-18.66-4.18-6.55-1.53-13.09-3.12-19.74-4.15-4.83-.74-9.7-1.3-14.55-1.93-.52-.07-1-.1-1.56-.18zM153.77 7.85a2.17 2.17 0 0 1 .66-.79 10.16 10.16 0 0 1 10.42-.66 5.45 5.45 0 0 1 2.52 3.82 8.5 8.5 0 0 1-2 7.06 4.91 4.91 0 0 1-2.93 1.72c-.85.19-1.73.24-2.23.3-3.58 0-5.79-1.29-6.78-4a10.14 10.14 0 0 1 .35-7.41zm-4.24 119.89c-.3 1.17-.53 2.18-.82 3.17a.91.91 0 0 1-1.21.67c-2.9-.61-5.81-1.18-8.72-1.78a156.6 156.6 0 0 1-15.39-4.19c-1.27-.4-1.31-.54-1.31-1.88a10.25 10.25 0 0 1 .08-1.31c0-.15.16-.29.31-.55 3 .43 5.89 1.3 8.84 2s6.1 1.48 9.18 2.14 6 1.16 9 1.74zm36.41 30.7a43.31 43.31 0 0 0-15.84 9 13 13 0 0 1-2.24-5.52 15.52 15.52 0 0 1 .9-8.49 18.33 18.33 0 0 1 3.37-5.87 3.64 3.64 0 0 1 2.77-1.24 6.59 6.59 0 0 1 5 1.87 23.68 23.68 0 0 1 5.79 8.63 2.06 2.06 0 0 1 .27 1.6zm-49.23 11.81c-.91-1.06-1.86-2.09-2.77-3.14a1.93 1.93 0 0 0-2.07-.78 1.32 1.32 0 0 1-.26.05c-3.47.26-3.8-.08-3.56-3.76a10.81 10.81 0 0 1 3.27.75c2.61.69 5.22 1.43 7.83 2.11a1.33 1.33 0 0 1 1.15 1.22c.36 2.54 2 3.77 4.47 4.09.33 1.55-.49 2.88-.69 4.53-2.18-.79-2.18-.79-3.94.39l-1.3.89c-1.36 1-1.34 1-2.54-.33-.67-.75-.66-.91 0-1.76.16-.21.36-.38.52-.59 1.16-1.5 1.14-2.14-.15-3.65zm-5.89 32.87a4.84 4.84 0 0 1-1 .09q-6.34-1-12.67-2.11a11.53 11.53 0 0 1-1.52-.4c-.39-.12-.48-.48-.5-.83a.63.63 0 0 1 .53-.76 10 10 0 0 0 4.16-2.13c2.42-1.94 3-4.22 1.66-7-1.52-3.19-4.75-5.05-7.6-4.44-1.23.26-1.71-.22-2.18-1.21a14.38 14.38 0 0 0-2.76-4.12 1 1 0 0 0-1.4-.22c-1.13.66-2.28 1.3-3.42 1.94a.63.63 0 0 1-.91-.12.78.78 0 0 1 0-1.15c.7-.78 1.4-1.56 2-2.38a1.77 1.77 0 0 0 .14-2.39 2.64 2.64 0 0 1-.35-.89 1.54 1.54 0 0 1 1.38-2.07q2.08-.29 4.17-.47c1.32-.12 1.53.07 1.73 1.32v.52c.24 1.3.59 1.67 1.84 1.77 1 .07 1.92 0 2.88.11a2.67 2.67 0 0 0 2.92-1.72c.14-.31.21-.66.58-.84a20.09 20.09 0 0 1 4.5 1.28c.72.27 1.43.57 2.08.84a4.41 4.41 0 0 1-.81 2.32 2.11 2.11 0 0 0 .53 2.82 13.47 13.47 0 0 1 3.88 5.2c.64 1.45.91 1.49 2.69 1.17.86-.15 1.16 0 1.27.82s.15 1.74.2 2.61a1 1 0 0 1-.83 1.15 10.48 10.48 0 0 0-1.31.83 2.19 2.19 0 0 0-1.11 1.67 15.65 15.65 0 0 1-1.41 4.21c-.82 1.61-.94 3.15.6 4.61zm-24.3-9.12c.21.93.49 1.85.71 2.79a7.44 7.44 0 0 1 .16 1.3c0 .82-.29 1.13-1.41 1l-1.44-.38c-1.52-.41-1.47-.41-1.39-2.07.23-5.06-1.69-9.05-6.17-11.54-2.84-1.58-2.29-.91-2-4 .19-2.26.57-4.5.89-6.75a4.49 4.49 0 0 1 .37-1.23.94.94 0 0 1 1.5-.46c1.1.7 2.19 1.43 3.24 2.21 2.91 2.16 3.22 2 .1 4.5-1.33 1.07-1.36 2-.21 3.31.29.33.6.63.92.94a1.9 1.9 0 0 0 2.59.33 28.58 28.58 0 0 1 2.82-1.38.7.7 0 0 1 .91.27 22.58 22.58 0 0 1 3.18 6.56.85.85 0 0 1-.65 1.2c-.75.21-1.53.34-2.29.53-1.66.39-2.15 1.17-1.77 2.85zm-5.36 1.86a5.31 5.31 0 0 1-.19 1 .76.76 0 0 1-.75.6 1 1 0 0 1-.91-.41 2.16 2.16 0 0 1-.25-.72c-.19-.84-.37-1.69-.55-2.54a7.75 7.75 0 0 0-3.48-5c-1.27-.84-1.25-.87-.86-2.28a2.21 2.21 0 0 1 .2-.48c0-.07.13-.12.19-.17 4.83 1.23 7 6.51 6.6 10zm43.65-27.13c-.75-.44-1.49-.9-2.2-1.4a.87.87 0 0 1-.33-.64c0-.51.47-.39.8-.36.95.09 1.9.2 2.79.3a2.12 2.12 0 0 1-.09 1.61c-.14.55-.54.75-1 .5zm-9.67-18.27a.63.63 0 0 1 .49-.06c.12.06.16.29.23.44 0 1.1-.46 1.81-1.26 2-.18 0-.61-.17-.63-.31a1.9 1.9 0 0 1 1.18-2.08zm-52-.65c0 .09.11.18.1.25q-.77 4.09-1.55 8.18c-.2 0-.42 0-.5-.1-.65-.69-1.61-1.32-1.82-2.14-.26-1 .81-1.81 1.3-2.71s1.06-1.8 1.6-2.69c.21-.34.39-.74.88-.79zm-1.93 12.71c-.26 2.58-.47 4.73-.7 6.88a14.6 14.6 0 0 1-.29 1.44c-.7.44-1.08-.08-1.47-.33a17.47 17.47 0 0 1-4.75-4.4c-.66-.89-.62-1.12 0-2.06.44-.65.91-.59 1.55-.31a4.33 4.33 0 0 0 4.44-.5c.27-.19.58-.35 1.2-.72zm-3-1.44a5.51 5.51 0 0 1-.71.15c-1.06 0-1.37-.43-1-1.12a4 4 0 0 1 .25-.44c.53-.82 1.16-.86 1.84-.14s.44 1.32-.35 1.56zm-.39-11.88c.08 0 .18 0 .29.07 0-.19 0-.18.1 0-1 1.64-1.94 3.29-2.92 4.92a1.39 1.39 0 0 1-1.25.8c-.37 0-.78-.1-.68-.53a7 7 0 0 1 4.45-5.32zm-5.27 17.58c.82 1 1.53 1.86 2.3 2.68a10.7 10.7 0 0 0 4 2.85c1.23.47 1.24.57 1.08 1.7-.34 2.42-.71 4.83-1 7.25a6.51 6.51 0 0 1-1.24 3.38A7.55 7.55 0 0 0 77 186c-.82 1.62-.92 2-3 1.24a44.11 44.11 0 0 1-6.36-3 10.17 10.17 0 0 1-2.47-1.92c-1.78-2-1.71-1.76-.43-3.73 2.28-3.5 4.55-7 6.83-10.53a2.84 2.84 0 0 1 1.1-1.26zM44.8 224c-.13-2.53-.2-5.06-.32-7.59-.09-1.82-.24-3.65-.35-5.44.68-.35 1 .15 1.43.41a18.29 18.29 0 0 0 9.93 2.88 13.66 13.66 0 0 0 5.36-1.08c3.42-1.44 6.62-3.21 8.61-6.54a6.31 6.31 0 0 0 1.11-2.35 5.26 5.26 0 0 1 2-3.43 33.2 33.2 0 0 0 2.78-3.4A50.78 50.78 0 0 1 73.88 209a2.57 2.57 0 0 1-2 2.09 76.12 76.12 0 0 0-18.58 9c-2 1.33-4 2.85-6 4.29a6.69 6.69 0 0 1-2 1.28c-.69-.34-.53-1-.56-1.58zm17.71-42.21a4.63 4.63 0 0 1 .69.58 15.8 15.8 0 0 0 8.9 5.63c.67.18 1.35.36 2 .56 1 .29 1.15.61.69 1.51a36.68 36.68 0 0 1-4.37 7.13 5.65 5.65 0 0 1-7.1 1.25 13.84 13.84 0 0 1-4.19-3.89 5.22 5.22 0 0 1-1-2.94 9.29 9.29 0 0 1 1.36-5.51c.93-1.46 2-2.87 3-4.33zm-5 64.26c-.36-.36-.19-.81-.19-1.22A18.49 18.49 0 0 0 54 234.56a12.59 12.59 0 0 0-6-4.88c-.47-.19-1-.17-1.4-.73-.11-.56.45-.65.76-.83 3.71-2.12 7.45-4.2 11.16-6.33a2.12 2.12 0 0 1 2.21 0 15 15 0 0 1 6.63 6.5 41.08 41.08 0 0 1 2.73 7.35 2.27 2.27 0 0 1-1 2.91c-3.42 2.26-6.77 4.64-10.16 7a2.21 2.21 0 0 1-1.4.62zm92-42a1.06 1.06 0 0 1-1.16.84c-.14 0-.4-.16-.39-.22a1.07 1.07 0 0 1 .24-.67.92.92 0 0 1 1.18-.15c.06 0 .09.13.13.2zM171.36 170c-.62-1-.58-1.22.27-2a29.6 29.6 0 0 1 5.09-3.68 40.23 40.23 0 0 1 8.56-3.9c1.4-.44 1.7-.32 2.21 1 1.75 4.47 3.47 9 5.19 13.43.16.41.29.82.44 1.26-.17.23-.27.5-.47.61a18 18 0 0 1-1.64.82 80.16 80.16 0 0 1-10.88 3.75 16.22 16.22 0 0 0-2 .59c-.7.31-1-.08-1.2-.58a65.56 65.56 0 0 0-5.57-11.3zm8.45 12.9c4.5-1.08 9-2.23 13-4.76.59-.38 1-.23 1.21.4 1.42 3.66 2.85 7.31 4.25 11 .39 1 .24 1.38-.63 2a9 9 0 0 1-1.11.7 57 57 0 0 1-8.38 3.67 21.59 21.59 0 0 1-3.05.71c-1.17.21-1.36.12-1.87-.91a123.17 123.17 0 0 1-5.34-12.23c.81-.24 1.38-.43 2-.57zm5.06 16.37c-.17-.44-.22-.94.34-1a27.46 27.46 0 0 0 4.8-1.27c1.62-.65 3.24-1.29 4.81-2s2.89-1.56 4.33-2.34a6.71 6.71 0 0 1 1.16 2.63c1.08 2.85 2.07 5.73 3.11 8.6a1.27 1.27 0 0 1-.39 1.63 32.19 32.19 0 0 1-11.08 5.73 10 10 0 0 1-1.29.22 1.06 1.06 0 0 1-1.25-.68c-.41-1.05-.8-2.12-1.22-3.17q-1.65-4.13-3.31-8.25zm5.44 13.7a27.93 27.93 0 0 0 11.78-4.87c.51-.34 1-.74 1.5-1.06.3-.18.71-.25.87.2.37 1.07.75 2.14 1 3.24a4.36 4.36 0 0 1-.12 2.33 9.72 9.72 0 0 1-9.61 6.69 3.83 3.83 0 0 1-3.73-2.7c-.42-1.22-1-2.39-1.65-3.86zM105 223.83a84.32 84.32 0 0 1 1 11.75c.06 1.92.34 3.82.51 5.74q.41 4.57.81 9.14c.08.87.19 1.74.2 2.62.1 6 .87 11.85 1.43 17.77a23.5 23.5 0 0 1 .2 4.08 2.36 2.36 0 0 1-1.68-.29 127.57 127.57 0 0 0-21.32-6.34c-.92-.18-1.12-.44-1.16-1.44-.24-5.86-.94-11.67-1.46-17.5-.43-4.79-.73-9.59-1.28-14.37-.66-5.73-1.51-11.43-2.28-17.15-.11-.78-.23-1.56-.33-2.34a1.2 1.2 0 0 1 .36-1.2c1.18-.9 1.12-2.07.41-3.63a81.64 81.64 0 0 1 12.22 3.93c2 .75 3.89 1.58 5.83 2.36 2.5 1 4 1.14 3.79.52-.46-1.49-1.88-2-3.1-2.54-3.08-1.46-6.31-2.56-9.51-3.74-.81-.3-1.88-.17-2.33-1.19 1-.41 1.89.06 2.77.3 3.71 1 7.39 2.12 11.1 3.15 2.78.77 5.58 1.47 8.36 2.23 1.19.33 1.21.37 1.23 1.62 0 2.36.07 4.72 0 7.09a75.52 75.52 0 0 0 .58 8.37c.43 5.49 1 11 1.51 16.45.65 6.43 1.36 12.86 2.07 19.29a11.33 11.33 0 0 0 .62 3.08c.53 1.29 0 1.92-1 2.55-.81.51-1.5 1.2-2.29 1.75-.34.24-.67 0-.77-.36a9.43 9.43 0 0 1-.2-1.29c-.51-5.31-1.08-10.61-1.49-15.92-.26-3.31-.26-6.64-.65-9.94-.48-4-.86-8-1.28-12q-.44-4.17-.85-8.34a34.47 34.47 0 0 0-1.18-5.37.45.45 0 0 0-.61-.31c-.12 0-.21.27-.22.42a4.33 4.33 0 0 0-.01 1.05z" class="cls-17"/></g></g></svg>