<svg xmlns="http://www.w3.org/2000/svg" viewBox="0 0 512 512"><path fill="#eceff1" d="M496 432H272a16 16 0 0 1-16-16V96a16 16 0 0 1 16-16h224a16 16 0 0 1 16 16v320a16 16 0 0 1-16 16z"/><path d="M336 176h-64a16 16 0 1 1 0-32h64a16 16 0 1 1 0 32zm0 64h-64a16 16 0 1 1 0-32h64a16 16 0 1 1 0 32zm0 64h-64a16 16 0 1 1 0-32h64a16 16 0 1 1 0 32zm0 64h-64a16 16 0 1 1 0-32h64a16 16 0 1 1 0 32zm96-192h-32a16 16 0 1 1 0-32h32a16 16 0 1 1 0 32zm0 64h-32a16 16 0 1 1 0-32h32a16 16 0 1 1 0 32zm0 64h-32a16 16 0 1 1 0-32h32a16 16 0 1 1 0 32zm0 64h-32a16 16 0 1 1 0-32h32a16 16 0 1 1 0 32z" fill="#388e3c"/><path fill="#2e7d32" d="M282.2 19.7c-3.6-3-8.5-4.4-13.2-3.4l-256 48A16 16 0 0 0 0 80v352a16 16 0 0 0 13.1 15.7l256 48a15 15 0 0 0 2.9.3 16 16 0 0 0 10.2-3.7A16 16 0 0 0 288 480V32a16 16 0 0 0-5.8-12.3z"/><path fill="#fafafa" d="M220 309.5l-50.6-57.8 51.2-65.8a16 16 0 0 0-25.2-19.7L148 227l-40-45.6c-6-6.7-16-7.3-22.6-1.5a16 16 0 0 0-1.5 22.6l44 50.3-44.6 57.3a16 16 0 0 0 2.8 22.5A16.1 16.1 0 0 0 96 336a16 16 0 0 0 12.6-6.2l40.8-52.5 46.5 53.2a15.9 15.9 0 0 0 12 5.5 16 16 0 0 0 12-26.5z"/></svg>