<svg xmlns="http://www.w3.org/2000/svg" viewBox="0 0 512 512"><path fill="#fff" d="M464 86v368H144V6h240z"/><path fill="#dce1e7" d="M384 86h80v16h-80zM144 438h320v16H144z"/><path fill="#95a4b6" d="M464 86h-80V6"/><circle cx="144" cy="410" r="96" fill="#b9c2cf"/><path fill="#95a4b6" d="M144 490c-50.325 0-91.6-38.724-95.666-88a97.095 97.095 0 0 0-.334 8c0 53.019 42.981 96 96 96s96-42.981 96-96c0-2.695-.117-5.362-.334-8-4.066 49.276-45.341 88-95.666 88z"/><g fill="#012d4a"><path d="M470 83.515L386.485 0H138v308.181C84.539 311.298 42 355.771 42 410c0 56.243 45.757 102 102 102 38.087 0 71.36-20.987 88.876-52H470zm-80-63.03L449.515 80H390zM144 500c-49.626 0-90-40.374-90-90s40.374-90 90-90 90 40.374 90 90-40.374 90-90 90zm94.653-52A101.462 101.462 0 0 0 246 410c0-54.229-42.539-98.702-96-101.819V12h228v80h80v356z"/><path d="M192 64h96v12h-96zM192 96h64v12h-64zM192 144h224v12H192zM192 176h224v12H192zM192 240h224v12H192zM192 272h160v12H192zM192 208h224v12H192zM336 320h80v12h-80zM138 360.485V426h12v-65.515l21.757 21.758 8.486-8.486L144 337.515l-36.243 36.242 8.486 8.486zM178 452h-68v-26H98v38h92v-38h-12z"/></g></svg>