<svg xmlns="http://www.w3.org/2000/svg" viewBox="-79 0 512 512"><path fill="#e3e4d8" d="M353 485.5H0V0h273.7L353 79.5zm0 0"/><path fill="#d0cebd" d="M273.7 0v79.5H353zm0 0"/><path fill="#b53438" d="M0 353h353v159H0zm0 0"/><g fill="#fff"><path d="M53 485.5c-5 0-8.8-4-8.8-8.8v-88.3a8.8 8.8 0 0 1 17.7 0v88.3c0 5-4 8.8-8.8 8.8zM300 397.2h-53c-5 0-8.8-4-8.8-8.8s4-8.8 8.8-8.8h53a8.8 8.8 0 0 1 0 17.7zm0 44h-53c-5 0-8.8-4-8.8-8.8s4-8.8 8.8-8.8h53a8.8 8.8 0 0 1 0 17.7zm0 0"/><path d="M247.2 485.5c-5 0-8.8-4-8.8-8.8v-88.3a8.8 8.8 0 0 1 17.7 0v88.3c0 5-4 8.8-8.8 8.8zm0 0"/></g><path fill="#b53438" d="M170.2 95c-1 .3-11.7 15.3.8 28 8.4-18.4-.5-28-.8-28m5.3 73.5L152 234.4a444 444 0 0 1 57.1-17.5c-12-13.6-23.7-30.6-33.6-48.2m65.7 57.2c7.2 5.4 9 8.2 13.6 8.2 2 0 8-.1 10.6-3.8 1.3-1.8 1.8-3 2-3.6-1-.6-2.5-1.7-10.3-1.7l-16 1m-120 38.6c-18.8 10.4-26.5 19-27 23.8-.1.8-.3 3 3.8 6 1.3-.4 9-4 23.2-29.8M98 309c-3 0-6-1-8.5-2.8-9.2-6.8-10.4-14.3-9.8-19.5 1.6-14 19.3-29 52.6-44 13.2-28.6 25.8-64 33.3-93.4-8.8-19-17.3-43.4-11-57.7 2.2-5 5-9 10-10.6 2-.7 7-1.5 9-1.5 4.6 0 9 5.5 11.2 9 4 6.6 4 14.4 3.4 22l-6.7 37.3c12 24.2 28.6 48.8 44.7 65.7 11.5-2 21.5-3 29.5-3 13.8 0 22 3.2 25.5 9.7 2.8 5.4 1.7 11.7-3.4 18.8-5 6.8-11.6 10.3-19.5 10.3-10.7 0-23.2-6.7-37-20a426 426 0 0 0-77.7 24.5c-7.4 15.4-14.4 27.8-21 37-9 12.5-16.8 18.3-24.5 18.3"/><path fill="#fff" d="M79.5 450.2H53c-5 0-8.8-4-8.8-8.8v-53c0-5 4-8.8 8.8-8.8h26.5c19.5 0 35.3 15.8 35.3 35.3S99 450.2 79.4 450.2zm-17.7-17.7h17.7c9.7 0 17.7-8 17.7-17.7s-8-17.7-17.7-17.7H61.8zm97 53H150c-5 0-8.8-4-8.8-8.8v-88.3a8.8 8.8 0 0 1 8.8-8.8h8.8a53 53 0 0 1 53 53 53 53 0 0 1-53 53zm0-17.7h.1zm0-70.6V468c19.5 0 35.3-15.8 35.3-35.3s-15.8-35.3-35.3-35.3zm0 0"/></svg>