<svg xmlns="http://www.w3.org/2000/svg" viewBox="0 0 512 512"><path fill="#b9c2cf" d="M122 6h320v448H122z"/><path fill="#95a4b6" d="M122 438h320v16H122z"/><path fill="#fff" d="M70 426V58h320v448H150z"/><path fill="#dce1e7" d="M118 186h224v144H118z"/><path fill="#b9c2cf" d="M118 314h224v16H118z"/><path fill="#fff" d="M206 217.432L270.569 258 206 298.569z"/><path fill="#dce1e7" d="M150 490h240v16H150z"/><path fill="#95a4b6" d="M70 426h80v80"/><g fill="#012d4a"><path d="M448 0H116v52H64v376.485L147.515 512H396v-52h52zM144 491.515L84.485 432H144zM384 500H156v-80H76V64h308zm52-52h-40V52H128V12h308z"/><path d="M118 116h160v12H118zM118 148h128v12H118zM118 356h224v12H118zM118 388h224v12H118zM182 420h160v12H182zM348 180H112v156h236zm-12 144H124V192h212z"/><path d="M200 206.576v102.849L281.847 258zm12 21.712L259.29 258 212 287.712z"/></g></svg>