<svg xmlns="http://www.w3.org/2000/svg" viewBox="0 0 512 512"><path fill="#fff" d="M464 86v368H144V6h240z"/><path fill="#dce1e7" d="M144 438h320v16H144zM384 86h80v16h-80z"/><path fill="#95a4b6" d="M464 86h-80V6"/><circle cx="144" cy="410" r="96" fill="#b9c2cf"/><path fill="#95a4b6" d="M144 490c-50.325 0-91.6-38.725-95.665-88a97.095 97.095 0 0 0-.334 8c0 53.019 42.981 96 96 96s96-42.981 96-96c0-2.695-.117-5.362-.335-8-4.066 49.275-45.341 88-95.666 88z"/><path fill="#fff" d="M132 346h24v80h-24zM132 450h24v24h-24z"/><g fill="#012d4a"><path d="M386.485 0H138v308.181C84.54 311.298 42 355.772 42 410c0 56.243 45.757 102 102 102 38.087 0 71.36-20.987 88.876-52H470V83.515zM390 20.485L449.515 80H390zM144 500c-49.626 0-90-40.374-90-90s40.374-90 90-90 90 40.374 90 90-40.374 90-90 90zm314-52H238.653A101.462 101.462 0 0 0 246 410c0-54.228-42.54-98.702-96-101.819V12h228v80h80z"/><path d="M192 64h160v12H192zM192 96h128v12H192zM192 176h192v12H192zM192 144h224v12H192zM192 256h192v12H192zM192 224h224v12H192zM256 336h128v12H256zM224 304h192v12H224zM126 432h36v-92h-36zm12-80h12v68h-12zM126 480h36v-36h-36zm12-24h12v12h-12z"/></g></svg>