<svg xmlns="http://www.w3.org/2000/svg" viewBox="0 0 512 512"><g fill="#1565c0"><path d="M294.7 13a10.7 10.7 0 0 0-9-2.1L8.3 75A10.7 10.7 0 0 0 0 85.4V448a10.7 10.7 0 0 0 9 10.5l277.3 42.7c5.8 1 11.3-3 12.2-9 .1-.5.1-1 .1-1.6V21.4a10.7 10.7 0 0 0-4-8.4z"/><path d="M501.3 458.7H288c-6 0-10.7-4.8-10.7-10.7s4.8-10.7 10.7-10.7h202.7V74.7H288c-6 0-10.7-4.8-10.7-10.7S282 53.4 288 53.4h213.3c6 0 10.7 4.8 10.7 10.7v384c0 6-4.8 10.7-10.7 10.7z"/></g><path fill="#fafafa" d="M181.3 352a10.7 10.7 0 0 1-10.2-7.7L138.7 231l-32.4 113.5c-2.3 5.7-8.8 8.4-14.5 6a11.1 11.1 0 0 1-6-6L43 195c-1.8-5.6 1.3-11.6 7-13.4s11.6 1.3 13.4 7l32.6 114L128.4 189c2.3-5.7 8.8-8.4 14.5-6a11.1 11.1 0 0 1 6 6l32.4 113.5L213.8 189c1.5-5.6 7.3-9 13-7.4l.2.1c5.7 1.6 9 7.5 7.3 13.2l-42.7 149.3a10.7 10.7 0 0 1-10.3 7.7z"/><path d="M458.7 138.7H288c-6 0-10.7-4.8-10.7-10.7s4.8-10.7 10.7-10.7h170.7c6 0 10.7 4.8 10.7 10.7s-4.8 10.7-10.7 10.7zm0 64H288c-6 0-10.7-4.8-10.7-10.7s4.8-10.7 10.7-10.7h170.7c6 0 10.7 4.8 10.7 10.7s-4.8 10.7-10.7 10.7zm0 64H288c-6 0-10.7-4.8-10.7-10.7s4.8-10.7 10.7-10.7h170.7c6 0 10.7 4.8 10.7 10.7s-4.8 10.7-10.7 10.7zm0 64H288c-6 0-10.7-4.8-10.7-10.7s4.8-10.7 10.7-10.7h170.7c6 0 10.7 4.8 10.7 10.7s-4.8 10.7-10.7 10.7zm0 64H288c-6 0-10.7-4.8-10.7-10.7s4.8-10.7 10.7-10.7h170.7c6 0 10.7 4.8 10.7 10.7s-4.8 10.7-10.7 10.7z" fill="#1565c0"/></svg>