<svg xmlns="http://www.w3.org/2000/svg" viewBox="0 0 512 512"><path fill="#ddeafb" d="M502.7 198.3l-2.5 70.5-24.3 16.5-59-40-59 40-59-40-59 40-59-40-59 40-26.8-18V47.4a40 40 0 0 1 39.9-39.9H312c16 0 67.3 44 112.8 90 41.5 42.2 78 86.2 78 100.7zm-26.8 134l26.8-18.2v150.6a40 40 0 0 1-39.9 39.9H135.2a40 40 0 0 1-38.8-30.6l-1-160 26.8 18 59-40 59 40 59-40 59 40 59-40z"/><g fill="#cbe2ff"><path d="M502.7 198.3l-2.5 70.5c-15.8-94-100.6-101-130-130.5l54.4-40.8c41.5 42.2 78 86.2 78 100.7z"/><path d="M312 7.5h-97.2C334.4 10.5 340 108 371.8 140l40.8-54.4C370.5 44 326.4 7.5 312 7.5z"/></g><path fill="#bed8fb" d="M502.7 198.3v17c0-35.5-28.8-64.3-64.3-64.3h-39a40 40 0 0 1-39.9-39.9v-39c0-35.5-28.8-64.3-64.3-64.3h17a114.5 114.5 0 0 1 81 33.5l76.2 76.2a114.5 114.5 0 0 1 33.5 81z"/><circle cx="96.4" cy="141.9" r="87.1" fill="#dd636e"/><path fill="#da4a54" d="M107.7 228.3a88 88 0 0 1-11.3.7 87 87 0 1 1 0-174.2 88 88 0 0 1 11.3.7 87 87 0 0 0-75.8 86.4 87 87 0 0 0 75.8 86.4z"/><path d="M510.2 198.3a121 121 0 0 0-35.7-86.3l-76.2-76.2A121 121 0 0 0 311.9 0H135.2c-26 0-47.4 21.3-47.4 47.4v.3a95 95 0 0 0-86 94.2 95 95 0 0 0 86 94.2v31a7.5 7.5 0 0 0 3.3 6.2l26.8 18.2a7.5 7.5 0 0 0 8.4 0l54.8-37 54.7 37a7.5 7.5 0 0 0 8.4 0l54.8-37 54.8 37a7.5 7.5 0 0 0 8.4 0l54.8-37 54.8 37c1.3 1 2.7 1.3 4.2 1.3s3-.4 4.2-1.3l26.8-18.2a7.5 7.5 0 0 0 3.3-6.2zm-122.6-152l76.2 76.2c12.2 12.2 21 26.8 26.2 42.7-13-13.5-31.4-22-51.7-22h-39c-18 0-32.4-14.5-32.4-32.4v-39c0-20.3-8.4-38.6-22-51.7 16 5 30.5 14 42.7 26.2zm88.3 230L421 239a7.5 7.5 0 0 0-8.4 0l-54.8 37-54.8-37a7.5 7.5 0 0 0-8.4 0l-54.8 37-54.7-37a7.5 7.5 0 0 0-8.4 0l-54.8 37-19.3-13v-27a95 95 0 0 0 88.2-94.4 94 94 0 0 0-35.9-74.2 7.5 7.5 0 1 0-9.3 11.8 79 79 0 0 1 30.2 62.4c0 44-35.7 79.6-79.6 79.6-44 0-79.6-35.7-79.6-79.6s35.7-79.6 79.6-79.6a79.4 79.4 0 0 1 22.3 3.2 7.5 7.5 0 0 0 9.3-5.1A7.5 7.5 0 0 0 123 51a93.9 93.9 0 0 0-20.2-3.6v-.1c0-18 14.5-32.4 32.4-32.4H295a57 57 0 0 1 56.8 56.8v39c0 26 21.3 47.4 47.4 47.4h39a57 57 0 0 1 56.8 56.4v48.5z"/><path d="M507.6 308.4a7.5 7.5 0 0 0-9.1-.6L476 323 421 286a7.5 7.5 0 0 0-8.4 0l-19.5 13.2c-3.4 2.3-4.6 7-2.4 10.4a7.5 7.5 0 0 0 10.5 2.2l15.6-10.6 54.8 37a7.5 7.5 0 0 0 8.4 0l15-10.2v136.5c0 18-14.5 32.4-32.4 32.4H135.2c-.5 0-1 0-1.4 0-16.8-.7-29.8-15-30-31.7l-1-137 15 10.2a7.5 7.5 0 0 0 8.4 0l54.8-37 54.7 37a7.5 7.5 0 0 0 8.4 0l54.8-37 54.8 37a7.5 7.5 0 0 0 8.4 0l11.2-7.6c3.4-2.3 4.6-7 2.4-10.4a7.5 7.5 0 0 0-10.5-2.2l-7.2 5-54.8-37a7.5 7.5 0 0 0-8.4 0L240 323l-54.7-37a7.5 7.5 0 0 0-8.4 0L122 323 99.7 308c-1.8-1.2-4-1.7-6.3-1.2a7.5 7.5 0 0 0-5.6 7.3l1 156c0 18 14 42 46.3 42h327.6c26.2 0 47.4-21.2 47.4-47.4V314.2c0-2.2-1-4.4-2.6-6zM131.2 96.5l-34.8 34.8-34.8-34.8a7.5 7.5 0 0 0-10.6 10.6L85.8 142 51 176.6a7.5 7.5 0 0 0 5.3 12.8 7.5 7.5 0 0 0 5.3-2.2l34.8-34.8 34.8 34.8c1.5 1.5 3.4 2.2 5.3 2.2s3.8-.7 5.3-2.2a7.5 7.5 0 0 0 0-10.6L107 142l34.8-34.8a7.5 7.5 0 0 0-10.6-10.6z"/></svg>