<svg xmlns="http://www.w3.org/2000/svg" id="logo-img" viewBox="0 0 588.61 226.42"><defs><style>.cls-3{opacity:.32;mix-blend-mode:multiply}.cls-4{fill:#0071bc}.cls-5{fill:#0044c0}.cls-6{fill:#29abe2}.cls-12,.cls-9{fill:none;stroke-linecap:square;stroke-width:5px}.cls-9{stroke:#000}.cls-12,.cls-9{stroke-linejoin:bevel}.cls-12{stroke:#0071bc}</style></defs><g style="isolation:isolate"><g id="Layer_1" data-name="Layer 1"><path fill="#fff" d="M574.57 146.54V73.3H290.68V36h-36.2V.31l-30.57-.36c-10.7.05-27.2-.08-44.77.2-12.53.2-20.2 1.08-34.9 9.74-12.85 7.56-23.66 18.55-26.94 35.31-8.87-1.77-29.21-2.33-48 12.07C44.42 76.43 43.48 96 42.92 109.29c-5-1.05-50.14 17.17-39.35 71.54 9.82 49.45 63.26 45.24 63.26 45.24l156.54.35v-.29h208.25v-46.77h-32v-32.7"/><path d="M130.38 62.57c-6.43-2.72-29.93-8.1-50.08 6.6-24.76 18.08-22.33 40.14-21.88 51-4.27-.91-46.72 6.07-41.6 56.73 4.47 44.22 59.34 41.84 59.34 41.84l133.63.3s.46-178.32.46-205.18c-13.38.68-42.05-3.48-61.44 13.27-17.64 15.2-17.57 27.29-18.43 35.44z"/><path d="M127.38 59.57c-6.43-2.72-29.93-8.1-50.08 6.6-24.76 18.08-22.33 40.14-21.88 51-4.27-.91-46.72 6.07-41.6 56.73 4.47 44.22 59.34 41.84 59.34 41.84l133.63.3s.46-178.32.46-205.18c-13.38.68-42.05-3.48-61.44 13.27-17.64 15.2-17.57 27.29-18.43 35.44z" class="cls-4"/><path d="M218.53 13.97H247v28.09h-28.47z"/><path d="M215.53 10.97H244v28.09h-28.47z" class="cls-4"/><path d="M218.53 49.23H247v28.09h-28.47z"/><path d="M215.53 46.23H244v28.09h-28.47z" class="cls-4"/><path d="M218.53 84.48H247v28.09h-28.47z"/><path d="M215.53 81.48H244v28.09h-28.47z" class="cls-4"/><path d="M218.53 119.73H247v28.09h-28.47z"/><path d="M215.53 116.73H244v28.09h-28.47z" class="cls-4"/><path d="M218.53 154.99H247v28.09h-28.47z"/><path d="M215.53 151.99H244v28.09h-28.47z" class="cls-5"/><path d="M247 218.65l-28.47-.12v-28.09l28.47.11v28.1z"/><path d="M244 215.65l-28.47-.12v-28.09l28.47.11v28.1z" class="cls-4"/><path d="M253.54 49.3h28.47v28.09h-28.47z"/><path d="M250.54 46.3h28.47v28.09h-28.47z" class="cls-5"/><path d="M253.54 84.67h28.47v28.09h-28.47z"/><path d="M250.54 81.67h28.47v28.09h-28.47z" class="cls-4"/><path d="M253.54 119.89h28.47v28.09h-28.47z"/><path d="M250.54 116.89h28.47v28.09h-28.47z" class="cls-6"/><path d="M253.54 155.17h28.47v28.09h-28.47z"/><path d="M250.54 152.17h28.47v28.09h-28.47z" class="cls-4"/><path d="M253.54 190.45h28.47v28.09h-28.47z"/><path d="M250.54 187.45h28.47v28.09h-28.47z" class="cls-4"/><path d="M288.56 84.85h28.47v28.09h-28.47z"/><path d="M285.56 81.85h28.47v28.09h-28.47z" class="cls-6"/><path d="M288.56 120.04h28.47v28.09h-28.47z"/><path d="M285.56 117.04h28.47v28.09h-28.47z" class="cls-4"/><path d="M288.56 155.35h28.47v28.09h-28.47z"/><path d="M285.56 152.35h28.47v28.09h-28.47z" class="cls-5"/><path d="M288.56 190.43h28.47v28.09h-28.47z"/><path d="M285.56 187.43h28.47v28.09h-28.47z" class="cls-6"/><path d="M323.57 85.03h28.47v28.09h-28.47z"/><path d="M320.57 82.03h28.47v28.09h-28.47z" class="cls-4"/><path d="M323.57 120.2h28.47v28.09h-28.47z"/><path d="M320.57 117.2h28.47v28.09h-28.47z" class="cls-6"/><path d="M323.57 155.54h28.47v28.09h-28.47z"/><path d="M320.57 152.54h28.47v28.09h-28.47z" class="cls-6"/><path d="M323.57 190.52h28.47v28.09h-28.47z"/><path d="M320.57 187.52h28.47v28.09h-28.47z" class="cls-4"/><path d="M358.59 155.72h28.47v28.09h-28.47z"/><path d="M355.59 152.72h28.47v28.09h-28.47z" class="cls-6"/><path d="M358.59 190.61h28.47v28.09h-28.47z"/><path d="M355.59 187.61h28.47v28.09h-28.47z" class="cls-5"/><path d="M393.95 190.59h28.47v28.09h-28.47z"/><path d="M390.95 187.59h28.47v28.09h-28.47z" class="cls-4"/><g class="cls-3"><path fill="none" stroke="#000" stroke-linecap="square" stroke-miterlimit="10" stroke-width="5" d="M422.51 136.95h-39.15s-13.57 0-13.57-18.11 14.12-18.11 14.12-18.11h39.15"/><path fill="none" stroke="#000" stroke-linecap="square" stroke-miterlimit="2" stroke-width="5" d="M504.9 100.73l-16.55 36.22h-.01l-16.56-36.22-16.56 36.22h-.01l-16.56-36.22"/><path d="M537.6 85.03v52.09M523.32 99.43h28.56" class="cls-9"/></g><path fill="none" stroke="#0071bc" stroke-linecap="square" stroke-miterlimit="10" stroke-width="5" d="M419.51 133.95h-39.15s-13.57 0-13.57-18.11 14.12-18.11 14.12-18.11h39.15"/><path fill="none" stroke="#0071bc" stroke-linecap="square" stroke-miterlimit="2" stroke-width="5" d="M501.9 97.73l-16.55 36.22h-.01l-16.56-36.22-16.56 36.22h-.01l-16.56-36.22"/><path d="M534.6 82.03v52.09M520.32 96.43h28.56" class="cls-12"/></g></g></svg>