<svg xmlns="http://www.w3.org/2000/svg" viewBox="0 0 480 480"><path fill="#78b9eb" d="M408 480H72c-8.837 0-16-7.163-16-16V16c0-8.837 7.163-16 16-16h264l88 88v376c0 8.837-7.163 16-16 16z"/><path fill="#679fc9" d="M336 0v72c0 8.837 7.163 16 16 16h72L336 0z"/><g fill="#fff"><path d="M104 48h16v16h-16V48zM136 48h160v16H136V48zM104 80h192v16H104V80zM160 208h-48a8 8 0 0 1-8-8v-48a8 8 0 0 1 8-8h48a8 8 0 0 1 8 8v48a8 8 0 0 1-8 8zm-40-16h32v-32h-32v32zM160 288h-48a8 8 0 0 1-8-8v-48a8 8 0 0 1 8-8h48a8 8 0 0 1 8 8v48a8 8 0 0 1-8 8zm-40-16h32v-32h-32v32zM160 368h-48a8 8 0 0 1-8-8v-48a8 8 0 0 1 8-8h48a8 8 0 0 1 8 8v48a8 8 0 0 1-8 8zm-40-16h32v-32h-32v32zM200 152h176v16H200v-16zM248 184h128v16H248v-16zM232 232h144v16H232v-16zM200 264h176v16H200v-16zM200 312h176v16H200v-16zM248 344h128v16H248v-16zM200 184h32v16h-32v-16zM200 232h16v16h-16v-16zM200 344h32v16h-32v-16z"/></g></svg>