<svg xmlns="http://www.w3.org/2000/svg" viewBox="0 0 151.67 188.23"><path fill="#f2fcfc" fill-rule="evenodd" d="M70.25 29.87L.14 82.7 0 188.23h151.53V82.7l-70.1-52.84a9.27 9.27 0 0 0-11.17 0z"/><path fill="#dce8ea" d="M0 88.28h151.67v99.95H0z"/><g fill-rule="evenodd"><path d="M81.42 29.87a9.27 9.27 0 0 0-11.16 0L.14 82.7v9.6l70.1-52.85a9.27 9.27 0 0 1 11.16 0l70.12 52.85v-9.6z" fill="#f19226"/><path fill="#f4a929" d="M75.84 153.78L0 83.16v105.07H151.67V83.16l-75.83 70.62z"/><path d="M97.52 133.8H54.16L0 188.23H151.67L97.52 133.8z" fill="#f19226"/></g><path fill="#fff" d="M54.84 134L15.5 97.6V0h119.33v98l-37 36h-43z"/><g fill="#e1e6ea"><path d="M21.34 9.5h104v5h-104zm.5 11.5h104v5h-104zm.5 46.5h104v5h-104zm.5 11.5h104v5h-104zm-.5-46.5h104v5h-104zm.5 11.5h104v5h-104z"/><path style="mix-blend-mode:multiply" d="M151.67 188.23l-.14-105.52-16.7-12.58V0h-60v188.23h76.83z" opacity=".47"/></g></svg>