<svg xmlns="http://www.w3.org/2000/svg" viewBox="0 0 361.72 308.1"><defs><style>.cls-1{fill:#e6e7e8}.cls-2,.cls-7{fill:#fff}.cls-3{fill:#93b9d5}.cls-4{fill:#175c6c}.cls-5{fill:#698793}.cls-6{fill:#f05757}.cls-7{opacity:.5}.cls-8{fill:#f1f1f2}</style></defs><g id="Layer_2" data-name="Layer 2"><g id="OBJECT"><path d="M296.2 132.44a121.33 121.33 0 0 1-121.33 121.33c-67 0-158.45-10.27-158.45-77.28S107.86 11.11 174.87 11.11A121.33 121.33 0 0 1 296.2 132.44z" class="cls-1"/><path d="M278.86 257.15c-45.76 0-82.86-30.73-82.86-68.63s7-89.63 52.78-89.63 112.95 51.73 112.95 89.63-37.11 68.63-82.87 68.63z" class="cls-1"/><path d="M212.9 26.77a7.08 7.08 0 0 0-10-6.46 10 10 0 0 0-16.9-9.93 10 10 0 0 0-19.85.3 7.08 7.08 0 0 0-10 9h-.63a7.08 7.08 0 0 0-1.12 14.08 6.47 6.47 0 0 0 2.14 0h48.16a6.46 6.46 0 0 0 2.14 0h.05a7.08 7.08 0 0 0 6.01-6.99z" class="cls-2"/><path d="M209 30.48a6.46 6.46 0 0 1-2.14 0h-48.19a6.47 6.47 0 0 1-2.14 0 7.06 7.06 0 0 1-5.71-8.86 7.07 7.07 0 0 0 3.74 12.14 6.46 6.46 0 0 0 2.14 0h48.16a6.46 6.46 0 0 0 2.14 0 7.09 7.09 0 0 0 5.72-5.13 7.08 7.08 0 0 1-3.72 1.85z" class="cls-3"/><path d="M205.81 35.15a8.16 8.16 0 0 1-1.16-.09h-48a7.56 7.56 0 0 1-2.41 0h-.08a8.38 8.38 0 0 1 .19-16.58 8.37 8.37 0 0 1 10.72-9.65 11.26 11.26 0 0 1 21.72-1 11.25 11.25 0 0 1 17.92 10.62A8.38 8.38 0 0 1 207.29 35a1.25 1.25 0 0 1-.31.05 8.27 8.27 0 0 1-1.17.1zm-49.23-2.68h48.36a5.1 5.1 0 0 0 1.75 0 5.78 5.78 0 1 0-3.28-11 1.3 1.3 0 0 1-1.75-1.64A8.66 8.66 0 0 0 187 11.22a1.3 1.3 0 0 1-2.28-.73 8.66 8.66 0 0 0-17.27.27 1.3 1.3 0 0 1-1.95 1 5.78 5.78 0 0 0-8.18 7.38A1.3 1.3 0 0 1 156 21h-.51a5.79 5.79 0 0 0-.91 11.5 5.1 5.1 0 0 0 1.76 0z" class="cls-4"/><path d="M100.34 98.64a7.08 7.08 0 0 0-10-6.46 10 10 0 0 0-16.92-9.92 10 10 0 0 0-19.86.3 7.08 7.08 0 0 0-10 9h-.63a7.08 7.08 0 0 0-1.12 14.08 6.53 6.53 0 0 0 2.14 0h48.23a6.53 6.53 0 0 0 2.14 0h.05a7.08 7.08 0 0 0 5.97-7z" class="cls-2"/><path d="M96.47 102.36h-.05a6.46 6.46 0 0 1-2.14 0H46.11a6.46 6.46 0 0 1-2.14 0 7.05 7.05 0 0 1-5.71-8.86A7.07 7.07 0 0 0 42 105.64a6.53 6.53 0 0 0 2.14 0H92.3a6.53 6.53 0 0 0 2.14 0 7.09 7.09 0 0 0 5.72-5.13 7.08 7.08 0 0 1-3.75 1.85z" class="cls-3"/><path d="M93.25 107a8.1 8.1 0 0 1-1.16-.09h-48a7.56 7.56 0 0 1-2.41 0h-.08a8.38 8.38 0 0 1 .19-16.58 8.37 8.37 0 0 1 10.72-9.65 11.26 11.26 0 0 1 21.72-1 11.25 11.25 0 0 1 17.93 10.65 8.38 8.38 0 0 1 2.56 16.56 1.24 1.24 0 0 1-.31 0 8.32 8.32 0 0 1-1.16.11zM44 104.34h48.37a5.1 5.1 0 0 0 1.75 0 5.78 5.78 0 1 0-3.28-11 1.3 1.3 0 0 1-1.75-1.64 8.66 8.66 0 0 0-14.72-8.63 1.3 1.3 0 0 1-2.28-.73 8.66 8.66 0 0 0-17.27.27 1.3 1.3 0 0 1-1.95 1 5.78 5.78 0 0 0-8.18 7.38 1.3 1.3 0 0 1-1.3 1.82h-.51a5.79 5.79 0 0 0-.91 11.5 5.11 5.11 0 0 0 1.76 0z" class="cls-4"/><path d="M313.27 82.37a7.08 7.08 0 0 0-10-6.47 10 10 0 0 0-16.9-9.9 10 10 0 0 0-19.86.3 7.08 7.08 0 0 0-10 9h-.63a7.08 7.08 0 0 0-1.12 14.08 6.46 6.46 0 0 0 2.14 0h48.16a6.46 6.46 0 0 0 2.14 0h.05a7.08 7.08 0 0 0 6.02-7.01z" class="cls-2"/><path d="M309.4 86.08h-.05a6.53 6.53 0 0 1-2.14 0H259a6.53 6.53 0 0 1-2.14 0 7.05 7.05 0 0 1-5.71-8.86 7.07 7.07 0 0 0 3.74 12.14 6.46 6.46 0 0 0 2.14 0h48.16a6.46 6.46 0 0 0 2.14 0 7.09 7.09 0 0 0 5.72-5.13 7.09 7.09 0 0 1-3.75 1.85z" class="cls-3"/><path d="M306.18 90.75a8.26 8.26 0 0 1-1.17-.09H257a7.57 7.57 0 0 1-2.41 0h-.08a8.38 8.38 0 0 1 .19-16.58 8.3 8.3 0 0 1-.16-1.65 8.37 8.37 0 0 1 10.88-8 11.26 11.26 0 0 1 21.71-1 11.25 11.25 0 0 1 18 9 11.38 11.38 0 0 1-.12 1.64 8.38 8.38 0 0 1 2.56 16.56 1.31 1.31 0 0 1-.31 0 8.33 8.33 0 0 1-1.08.12zm-49.23-2.68h48.35a5.11 5.11 0 0 0 1.75 0 5.78 5.78 0 1 0-3.28-11 1.3 1.3 0 0 1-1.75-1.64 8.66 8.66 0 0 0-14.72-8.63 1.3 1.3 0 0 1-2.28-.73 8.66 8.66 0 0 0-17.27.27 1.3 1.3 0 0 1-1.95 1 5.78 5.78 0 0 0-8.17 7.38 1.3 1.3 0 0 1-1.3 1.82h-.51a5.79 5.79 0 0 0-.91 11.5 5.11 5.11 0 0 0 1.76 0z" class="cls-4"/><path d="M79.78 172.35h13.73v133.93H79.78z" class="cls-2"/><path d="M86.64 154.88a7.55 7.55 0 0 0-7.55 7.54v9.92h15.09v-9.92a7.55 7.55 0 0 0-7.54-7.54z" class="cls-5"/><circle cx="86.64" cy="144.92" r="9.96" class="cls-6"/><path d="M84.78 138.08a9.93 9.93 0 0 1 9.62 12.5A10 10 0 1 0 76.85 142a9.93 9.93 0 0 1 7.93-3.92z" class="cls-7"/><circle cx="86.64" cy="144.92" r="3.67" class="cls-2"/><path d="M94.18 173.65H79.09a1.3 1.3 0 0 1-1.3-1.3v-9.92a8.84 8.84 0 0 1 17.68 0v9.92a1.3 1.3 0 0 1-1.29 1.3zm-13.79-2.59h12.5v-8.63a6.25 6.25 0 0 0-12.5 0z" class="cls-4"/><path d="M86.64 156.18a11.26 11.26 0 1 1 11.26-11.26 11.27 11.27 0 0 1-11.26 11.26zm0-19.92a8.67 8.67 0 1 0 8.67 8.66 8.67 8.67 0 0 0-8.67-8.67z" class="cls-4"/><path d="M79.78 218.97h13.73v9.5H79.78z" class="cls-3"/><path d="M93.5 308.1H79.78a1.3 1.3 0 0 1-1.3-1.3v-142a1.3 1.3 0 0 1 1.3-1.3H93.5a1.3 1.3 0 0 1 1.3 1.3v142a1.3 1.3 0 0 1-1.3 1.3zm-12.43-2.59h11.14V166.09H81.07z" class="cls-4"/><path d="M258.6 172.35h13.73v133.93H258.6z" class="cls-2"/><path d="M265.46 154.88a7.55 7.55 0 0 0-7.55 7.54v9.92H273v-9.92a7.55 7.55 0 0 0-7.54-7.54z" class="cls-5"/><circle cx="265.46" cy="144.92" r="9.96" class="cls-6"/><path d="M263.61 138.08a9.93 9.93 0 0 1 9.62 12.5 10 10 0 1 0-17.56-8.58 9.94 9.94 0 0 1 7.94-3.92z" class="cls-7"/><circle cx="265.46" cy="144.92" r="3.67" class="cls-2"/><path d="M273 173.65h-15.08a1.3 1.3 0 0 1-1.3-1.3v-9.92a8.84 8.84 0 0 1 17.68 0v9.92a1.3 1.3 0 0 1-1.3 1.3zm-13.79-2.59h12.5v-8.63a6.25 6.25 0 0 0-12.5 0z" class="cls-4"/><path d="M265.46 156.18a11.26 11.26 0 1 1 11.26-11.26 11.27 11.27 0 0 1-11.26 11.26zm0-19.92a8.67 8.67 0 1 0 8.67 8.66 8.68 8.68 0 0 0-8.67-8.67z" class="cls-4"/><path d="M258.6 218.97h13.73v9.5H258.6z" class="cls-3"/><path d="M272.33 308.1H258.6a1.3 1.3 0 0 1-1.3-1.3v-142a1.3 1.3 0 0 1 1.3-1.3h13.73a1.3 1.3 0 0 1 1.3 1.3v142a1.3 1.3 0 0 1-1.3 1.3zm-12.43-2.59H271V166.09h-11.1z" class="cls-4"/><path d="M68.1 270.6h215.91v19.02H68.1zM70.6 164.79h210.89v53.17H70.6z" class="cls-2"/><path d="M113.58 164.79L68.1 210.28v7.69h16.06l53.17-53.18h-23.75zM68.1 172.78v23.75l31.73-31.74H76.08l-7.98 7.99zM211.96 164.79h-23.75l-53.17 53.18h23.75l53.17-53.18zM174.46 164.79h-23.75l-53.17 53.18h23.75l53.17-53.18zM249.28 164.79h-23.75l-53.18 53.18h23.75l53.18-53.18zM284 204.7v-23.76l-37.02 37.03h23.76L284 204.7zM284 167.2v-2.41h-21.34l-53.18 53.18h23.76L284 167.2z" class="cls-6"/><path d="M68.1 164.79h215.91v5.51H68.1z" class="cls-7"/><path d="M284 219.26H68.1a1.3 1.3 0 0 1-1.3-1.3v-53.17a1.3 1.3 0 0 1 1.3-1.3H284a1.3 1.3 0 0 1 1.3 1.3V218a1.3 1.3 0 0 1-1.3 1.26zm-214.61-2.59h213.32v-50.58H69.39z" class="cls-4"/><path d="M79.12 270.6L68.1 281.62v8h8.32l19.02-19.02H79.12zM123.07 270.6h-16.32l-19.02 19.02h16.32l19.02-19.02zM149.99 270.6h-16.31l-19.03 19.02h16.32l19.02-19.02zM177.62 270.6h-16.31l-19.03 19.02h16.32l19.02-19.02zM206.99 270.6h-16.32l-19.02 19.02h16.32l19.02-19.02zM234.62 270.6H218.3l-19.02 19.02h16.32l19.02-19.02zM263.19 270.6h-16.31l-19.03 19.02h16.32l19.02-19.02zM284 277.41v-6.81h-9.5l-19.02 19.02h16.32l12.2-12.21z" class="cls-6"/><path d="M284 290.91H68.1a1.3 1.3 0 0 1-1.3-1.3v-19a1.3 1.3 0 0 1 1.3-1.3H284a1.3 1.3 0 0 1 1.3 1.3v19a1.3 1.3 0 0 1-1.3 1.3zm-214.61-2.59h213.32v-16.43H69.39zM327.08 308.1H25a1.3 1.3 0 0 1 0-2.59h302a1.3 1.3 0 0 1 0 2.59z" class="cls-4"/><path d="M340.83 297.49L323.4 225.5h-9.04l-17.42 71.99h-10.52v9.31h64.92v-9.31h-10.51z" class="cls-6"/><path d="M333.15 265.13h-28.38l2.01-8.31h24.2l2.17 8.31zM300.47 274.49h35.26v8.31h-35.26z" class="cls-8"/><path d="M335.73 297.49l-16.77-71.99h3.91l17.96 71.99h-5.1zM285.89 297.49h64.92v4.57h-64.92z" class="cls-7"/><path d="M350.81 308.1h-64.92a1.3 1.3 0 0 1-1.3-1.3v-9.32a1.3 1.3 0 0 1 1.3-1.3h9.49l17.18-71a1.3 1.3 0 0 1 1.26-1h9a1.3 1.3 0 0 1 1.26 1l17.18 71h9.5a1.3 1.3 0 0 1 1.3 1.3v9.32a1.3 1.3 0 0 1-1.25 1.3zm-63.62-2.59h62.32v-6.72h-9.22a1.3 1.3 0 0 1-1.26-1l-17.19-71h-7l-17.19 71a1.29 1.29 0 0 1-1.26 1h-9.22z" class="cls-4"/><path d="M323.86 298.78h-26.92a1.3 1.3 0 0 1 0-2.59h26.92a1.3 1.3 0 0 1 0 2.59zM346.77 298.78h-15.35a1.3 1.3 0 0 1 0-2.59h15.35a1.3 1.3 0 0 1 0 2.59z" class="cls-4"/><path d="M56.23 297.49L38.81 225.5h-9.04l-17.42 71.99H1.83v9.31h64.92v-9.31H56.23z" class="cls-6"/><path d="M48.56 265.13H20.18l2.01-8.31h24.2l2.17 8.31zM15.88 274.49h35.26v8.31H15.88z" class="cls-8"/><path d="M51.14 297.49L34.37 225.5h3.9l17.96 71.99h-5.09zM1.3 297.49h64.92v4.57H1.3z" class="cls-7"/><path d="M66.21 308.1H1.3a1.3 1.3 0 0 1-1.3-1.3v-9.32a1.3 1.3 0 0 1 1.3-1.3h9.49l17.19-71a1.3 1.3 0 0 1 1.26-1h9a1.3 1.3 0 0 1 1.26 1l17.18 71h9.49a1.3 1.3 0 0 1 1.3 1.3v9.32a1.3 1.3 0 0 1-1.26 1.3zm-63.62-2.59h62.33v-6.72H55.7a1.3 1.3 0 0 1-1.26-1l-17.18-71h-7l-17.19 71a1.3 1.3 0 0 1-1.26 1H2.59z" class="cls-4"/><path d="M39.27 298.78H12.35a1.3 1.3 0 0 1 0-2.59h26.92a1.3 1.3 0 1 1 0 2.59zM62.18 298.78H46.83a1.3 1.3 0 0 1 0-2.59h15.35a1.3 1.3 0 0 1 0 2.59z" class="cls-4"/></g></g></svg>