<?xml version="1.0"?>
<svg xmlns="http://www.w3.org/2000/svg" xmlns:xlink="http://www.w3.org/1999/xlink" xmlns:svgjs="http://svgjs.com/svgjs" version="1.1" width="512" height="512" x="0" y="0" viewBox="0 0 60 60" style="enable-background:new 0 0 512 512" xml:space="preserve" class=""><g>
<path xmlns="http://www.w3.org/2000/svg" d="M38.914,0H6.5v60h47V14.586L38.914,0z M17.5,14h10c0.552,0,1,0.447,1,1s-0.448,1-1,1h-10c-0.552,0-1-0.447-1-1  S16.948,14,17.5,14z M42.5,48h-25c-0.552,0-1-0.447-1-1s0.448-1,1-1h25c0.552,0,1,0.447,1,1S43.052,48,42.5,48z M42.5,40h-25  c-0.552,0-1-0.447-1-1s0.448-1,1-1h25c0.552,0,1,0.447,1,1S43.052,40,42.5,40z M42.5,32h-25c-0.552,0-1-0.447-1-1s0.448-1,1-1h25  c0.552,0,1,0.447,1,1S43.052,32,42.5,32z M42.5,24h-25c-0.552,0-1-0.447-1-1s0.448-1,1-1h25c0.552,0,1,0.447,1,1S43.052,24,42.5,24z   M37.5,16V2l14,14H37.5z" fill="#3498db" data-original="#000000" style="" class=""/>
<g xmlns="http://www.w3.org/2000/svg">
</g>
<g xmlns="http://www.w3.org/2000/svg">
</g>
<g xmlns="http://www.w3.org/2000/svg">
</g>
<g xmlns="http://www.w3.org/2000/svg">
</g>
<g xmlns="http://www.w3.org/2000/svg">
</g>
<g xmlns="http://www.w3.org/2000/svg">
</g>
<g xmlns="http://www.w3.org/2000/svg">
</g>
<g xmlns="http://www.w3.org/2000/svg">
</g>
<g xmlns="http://www.w3.org/2000/svg">
</g>
<g xmlns="http://www.w3.org/2000/svg">
</g>
<g xmlns="http://www.w3.org/2000/svg">
</g>
<g xmlns="http://www.w3.org/2000/svg">
</g>
<g xmlns="http://www.w3.org/2000/svg">
</g>
<g xmlns="http://www.w3.org/2000/svg">
</g>
<g xmlns="http://www.w3.org/2000/svg">
</g>
</g></svg>
