<?xml version="1.0"?>
<svg xmlns="http://www.w3.org/2000/svg" xmlns:xlink="http://www.w3.org/1999/xlink" xmlns:svgjs="http://svgjs.com/svgjs" version="1.1" width="512" height="512" x="0" y="0" viewBox="0 0 597.33331 597.33331" style="enable-background:new 0 0 512 512" xml:space="preserve" class=""><g><path xmlns="http://www.w3.org/2000/svg" d="m440 290v-20c0-5.523438-4.476562-10-10-10h-100c-16.566406 0-30-13.433594-30-30v-100c0-5.523438-4.476562-10-10-10h-20c-5.523438 0-10 4.476562-10 10v100c0 16.566406-13.433594 30-30 30h-100c-5.523438 0-10 4.476562-10 10v20c0 5.523438 4.476562 10 10 10h100c16.566406 0 30 13.433594 30 30v100c0 5.523438 4.476562 10 10 10h20c5.523438 0 10-4.476562 10-10v-100c0-16.566406 13.433594-30 30-30h100c5.523438 0 10-4.476562 10-10zm0 0" fill="#3498db" data-original="#000000" style="" class=""/><path xmlns="http://www.w3.org/2000/svg" d="m550 0h-540c-5.523438 0-10 4.476562-10 10v540c0 5.523438 4.476562 10 10 10h540c5.523438 0 10-4.476562 10-10v-540c0-5.523438-4.476562-10-10-10zm-510 70c0-16.566406 13.433594-30 30-30h90v20h-90c-5.523438 0-10 4.476562-10 10v90h-20zm120 450h-90c-16.566406 0-30-13.433594-30-30v-90h20v90c0 5.523438 4.476562 10 10 10h90zm160-190v100c0 16.566406-13.433594 30-30 30h-20c-16.566406 0-30-13.433594-30-30v-100c0-5.523438-4.476562-10-10-10h-100c-16.566406 0-30-13.433594-30-30v-20c0-16.566406 13.433594-30 30-30h100c5.523438 0 10-4.476562 10-10v-100c0-16.566406 13.433594-30 30-30h20c16.566406 0 30 13.433594 30 30v100c0 5.523438 4.476562 10 10 10h100c16.566406 0 30 13.433594 30 30v20c0 16.566406-13.433594 30-30 30h-100c-5.523438 0-10 4.476562-10 10zm200 160c0 16.566406-13.433594 30-30 30h-90v-20h90c5.523438 0 10-4.476562 10-10v-90h20zm0-330h-20v-90c0-5.523438-4.476562-10-10-10h-90v-20h90c16.566406 0 30 13.433594 30 30zm0 0" fill="#3498db" data-original="#000000" style="" class=""/></g></svg>
