<svg xmlns="http://www.w3.org/2000/svg" width="40.138" height="49.532" viewBox="0 0 40.138 49.532"><g transform="translate(-1543 -240.734)"><g transform="translate(1431 216.734)"><path d="M152.138,38.224v33.6a1.707,1.707,0,0,1-1.707,1.708H112V25.708A1.708,1.708,0,0,1,113.707,24h24.206a3.422,3.422,0,0,1,2.415,1l10.81,10.809A3.423,3.423,0,0,1,152.138,38.224Z" transform="translate(0 0)" fill="#fa66a4"/><path d="M380.5,39.383h-9.087A3.416,3.416,0,0,1,368,35.967V26.88a3.4,3.4,0,0,1,1,.693l10.81,10.809A3.4,3.4,0,0,1,380.5,39.383Z" transform="translate(-228.672 -2.573)" fill="#c70c5a"/></g><g transform="translate(1550.5 256.572)"><path d="M6.2,4.5H18.13a1.7,1.7,0,0,1,1.7,1.7V18.13a1.7,1.7,0,0,1-1.7,1.7H6.2a1.7,1.7,0,0,1-1.7-1.7V6.2A1.7,1.7,0,0,1,6.2,4.5Z" fill="none" stroke="#fff" stroke-linecap="round" stroke-linejoin="round" stroke-width="2"/><path d="M13.056,11.778A1.278,1.278,0,1,1,11.778,10.5,1.278,1.278,0,0,1,13.056,11.778Z" transform="translate(-2.593 -2.593)" fill="none" stroke="#fff" stroke-linecap="round" stroke-linejoin="round" stroke-width="2"/><path d="M21.13,19.259,16.87,15,7.5,24.37" transform="translate(-1.296 -4.537)" fill="none" stroke="#fff" stroke-linecap="round" stroke-linejoin="round" stroke-width="2"/></g></g></svg>