<svg xmlns="http://www.w3.org/2000/svg" width="40.138" height="49.532" viewBox="0 0 40.138 49.532"><g transform="translate(-1543 -145.734)"><g transform="translate(1431 121.734)"><path d="M152.138,38.224v33.6a1.707,1.707,0,0,1-1.707,1.708H112V25.708A1.708,1.708,0,0,1,113.707,24h24.206a3.422,3.422,0,0,1,2.415,1l10.81,10.809A3.423,3.423,0,0,1,152.138,38.224Z" transform="translate(0 0)" fill="#fa9627"/><path d="M380.5,39.383h-9.087A3.416,3.416,0,0,1,368,35.967V26.88a3.4,3.4,0,0,1,1,.693l10.81,10.809A3.4,3.4,0,0,1,380.5,39.383Z" transform="translate(-228.672 -2.573)" fill="#c96c03"/></g><g transform="translate(1548.5 161.333)"><path d="M13.5,17.278V6.2L23.722,4.5V15.574" transform="translate(-3.889)" fill="none" stroke="#fff" stroke-linecap="round" stroke-linejoin="round" stroke-width="2"/><path d="M9.611,25.056A2.556,2.556,0,1,1,7.056,22.5,2.556,2.556,0,0,1,9.611,25.056Z" transform="translate(0 -7.778)" fill="none" stroke="#fff" stroke-linecap="round" stroke-linejoin="round" stroke-width="2"/><path d="M27.611,22.056A2.556,2.556,0,1,1,25.056,19.5,2.556,2.556,0,0,1,27.611,22.056Z" transform="translate(-7.778 -6.481)" fill="none" stroke="#fff" stroke-linecap="round" stroke-linejoin="round" stroke-width="2"/></g></g></svg>