<svg xmlns="http://www.w3.org/2000/svg" width="40.138" height="49.532" viewBox="0 0 40.138 49.532"><g transform="translate(-1543 -335.734)"><g transform="translate(1431 311.734)"><path d="M152.138,38.224v33.6a1.707,1.707,0,0,1-1.707,1.708H112V25.708A1.708,1.708,0,0,1,113.707,24h24.206a3.422,3.422,0,0,1,2.415,1l10.81,10.809A3.423,3.423,0,0,1,152.138,38.224Z" transform="translate(0 0)" fill="#29c147"/><path d="M380.5,39.383h-9.087A3.416,3.416,0,0,1,368,35.967V26.88a3.4,3.4,0,0,1,1,.693l10.81,10.809A3.4,3.4,0,0,1,380.5,39.383Z" transform="translate(-228.672 -2.573)" fill="#29c147"/></g><path d="M380.5,39.383h-9.087A3.416,3.416,0,0,1,368,35.967V26.88a3.4,3.4,0,0,1,1,.693l10.81,10.809A3.4,3.4,0,0,1,380.5,39.383Z" transform="translate(1202.636 308.854)" fill="#0b9b27"/></g></svg>