<svg xmlns="http://www.w3.org/2000/svg" xmlns:xlink="http://www.w3.org/1999/xlink" width="129.617" height="109.002" viewBox="0 0 129.617 109.002"><defs><radialGradient id="a" cx="0.055" cy="0.064" r="1.056" gradientTransform="translate(-0.02) scale(1.039 1)" gradientUnits="objectBoundingBox"><stop offset="0" stop-color="#699dd1"/><stop offset="0.266" stop-color="#6296cb"/><stop offset="0.641" stop-color="#5084bd"/><stop offset="1" stop-color="#396caa"/></radialGradient><linearGradient id="b" x1="0.131" y1="0.119" x2="0.99" y2="1.006" gradientUnits="objectBoundingBox"><stop offset="0" stop-color="#d4ecff"/><stop offset="0.201" stop-color="#d0e9fd"/><stop offset="0.387" stop-color="#c5e2f9"/><stop offset="0.568" stop-color="#b2d5f1"/><stop offset="0.744" stop-color="#98c4e7"/><stop offset="0.842" stop-color="#86b8e0"/></linearGradient></defs><g transform="translate(-1730.383 -813.998)"><g transform="translate(1730.383 813.998)"><path d="M260.056,271.758l-33.819-19.526c-2.075-1.2-1.816-3.292.581-4.675L259.473,228.7c2.4-1.384,6.023-1.534,8.1-.335l33.819,19.525c2.075,1.2,1.815,3.292-.581,4.675l-32.655,18.854C265.757,272.806,262.132,272.957,260.056,271.758Z" transform="translate(-222.915 -193.101)" fill="#341695"/><path d="M263.551,263.552a9.089,9.089,0,0,1-4.494-1.075h0l-33.82-19.526a4.306,4.306,0,0,1-2.361-3.693,5.169,5.169,0,0,1,2.944-4.308L258.474,216.1c3.023-1.746,7.329-1.89,10.018-.336l33.82,19.526a4.306,4.306,0,0,1,2.362,3.693,5.173,5.173,0,0,1-2.943,4.309l-32.655,18.853A11.25,11.25,0,0,1,263.551,263.552Zm-2.574-4.4c1.49.859,4.374.7,6.177-.336l32.655-18.853c.82-.473,1.017-.9,1.022-.983a1.236,1.236,0,0,0-.441-.367l-33.819-19.526c-1.49-.859-4.376-.7-6.176.336L227.74,238.277c-.821.474-1.018.9-1.023.983a1.218,1.218,0,0,0,.44.366l33.821,19.526Z" transform="translate(-222.876 -192.843)" fill="#00fff6"/><path d="M302.781,226.9h0V215.236l-26.166-.015L267.571,210c-2.075-1.2-5.7-1.048-8.1.336l-8.438,4.872-26.188-.015v12a2.346,2.346,0,0,0,1.391,2.169l33.819,19.526c2.075,1.2,5.7,1.048,8.1-.336L300.809,229.7C302.192,228.9,302.858,227.867,302.781,226.9Z" transform="translate(-222.916 -192.732)" fill="#396caa"/><path d="M263.814,209.2a9.343,9.343,0,0,0-4.341,1.139l-8.438,4.872-26.188-.015v12a2.346,2.346,0,0,0,1.391,2.169l33.819,19.526a7.323,7.323,0,0,0,3.758.8Z" transform="translate(-222.916 -192.733)" fill="url(#a)"/><path d="M227.81,215.317h-2.963v12a2.346,2.346,0,0,0,1.391,2.169l1.573.908Z" transform="translate(-222.916 -192.855)" fill="#d4ecff"/><path d="M261.31,249.681a9.226,9.226,0,0,0,6.472-.073V235.982H261.31Z" transform="translate(-223.648 -193.271)" fill="#5793ce"/><path d="M260.056,236.593l-33.819-19.525c-2.075-1.2-1.816-3.292.581-4.675l32.655-18.854c2.4-1.384,6.023-1.534,8.1-.335l33.819,19.525c2.075,1.2,1.815,3.292-.581,4.675l-32.655,18.854C265.757,237.642,262.132,237.792,260.056,236.593Z" transform="translate(-222.915 -192.395)" fill="url(#b)"/><path d="M300.809,215.544,268.153,234.4c-2.4,1.384-6.022,1.535-8.1.336l-33.819-19.526a3.121,3.121,0,0,1-1.036-.918c-.713,1.147-.39,2.392,1.036,3.215l33.819,19.525c2.075,1.2,5.7,1.049,8.1-.335l32.656-18.854c1.862-1.075,2.427-2.577,1.617-3.756A4.536,4.536,0,0,1,300.809,215.544Z" transform="translate(-222.915 -192.831)" fill="#fff"/><g transform="translate(64.694 31.202)"><path d="M291.628,230.39a3.021,3.021,0,0,1-1.366,2.367c-.755.435-1.366.082-1.366-.789a3.017,3.017,0,0,1,1.366-2.366C291.017,229.166,291.628,229.52,291.628,230.39Z" transform="translate(-288.896 -224.341)" fill="#d4ecff"/><path d="M296.113,227.8a3.017,3.017,0,0,1-1.366,2.366c-.755.436-1.366.083-1.366-.788a3.021,3.021,0,0,1,1.366-2.366C295.5,226.577,296.113,226.93,296.113,227.8Z" transform="translate(-288.986 -224.289)" fill="#d4ecff"/><path d="M300.6,225.212a3.017,3.017,0,0,1-1.366,2.366c-.755.436-1.366.082-1.366-.789a3.017,3.017,0,0,1,1.366-2.366C299.987,223.988,300.6,224.341,300.6,225.212Z" transform="translate(-289.076 -224.237)" fill="#d4ecff"/></g><g transform="translate(22.659 11.41)"><path d="M262.48,224.722l-15.825-9.137c-.972-.562-.85-1.54.271-2.188l15.281-8.822a4.209,4.209,0,0,1,3.789-.157l15.826,9.137c.971.561.85,1.54-.271,2.187l-15.282,8.823A4.215,4.215,0,0,1,262.48,224.722Z" transform="translate(-245.999 -204.039)" fill="#5793ce"/><path d="M264.318,217.28l-2.19-1.264c-.134-.077-.118-.214.038-.3l2.114-1.221a.584.584,0,0,1,.524-.022l2.19,1.264c.134.077.117.214-.038.3l-2.114,1.221A.585.585,0,0,1,264.318,217.28Z" transform="translate(-246.321 -204.248)" fill="#d4ecff"/><path d="M246.656,215.585l.044.025a2.556,2.556,0,0,1,.227-.156l15.281-8.823a4.215,4.215,0,0,1,3.789-.157l15.781,9.111c.9-.641.943-1.514.045-2.031L266,204.418a4.209,4.209,0,0,0-3.789.157L246.927,213.4C245.806,214.045,245.683,215.024,246.656,215.585Z" transform="translate(-245.999 -204.039)" fill="#396caa"/></g></g><g transform="translate(1798.713 863.459)"><path d="M251.225,260.676l-25.339-14.63c-1.555-.9-1.361-2.466.435-3.5l24.467-14.126a6.744,6.744,0,0,1,6.068-.251L282.2,242.795c1.555.9,1.36,2.466-.435,3.5l-24.467,14.126A6.744,6.744,0,0,1,251.225,260.676Z" transform="translate(-223.397 -201.741)" fill="#341695"/><path d="M253.353,251.3a6.809,6.809,0,0,1-3.367-.805h0l-25.34-14.63a3.226,3.226,0,0,1-1.769-2.767,3.873,3.873,0,0,1,2.206-3.228l24.466-14.126a8.087,8.087,0,0,1,7.506-.252l25.34,14.63a3.227,3.227,0,0,1,1.77,2.767,3.876,3.876,0,0,1-2.2,3.228l-24.467,14.126A8.429,8.429,0,0,1,253.353,251.3Zm-1.929-3.3a5.341,5.341,0,0,0,4.628-.252l24.467-14.126c.615-.355.762-.676.766-.736a.926.926,0,0,0-.33-.275l-25.339-14.63a5.339,5.339,0,0,0-4.628.252l-24.467,14.126c-.615.355-.763.676-.766.736a.913.913,0,0,0,.33.274L251.425,248Z" transform="translate(-222.876 -198.319)" fill="#00fff6"/><path d="M283.239,222.463h0V213.72l-19.605-.011-6.776-3.913a6.746,6.746,0,0,0-6.068.252l-6.322,3.65-19.622-.011v8.992a1.758,1.758,0,0,0,1.042,1.625l25.339,14.63a6.744,6.744,0,0,0,6.068-.252l24.467-14.126A2.4,2.4,0,0,0,283.239,222.463Z" transform="translate(-223.399 -196.859)" fill="#396caa"/><path d="M254.042,209.2a7,7,0,0,0-3.253.853l-6.322,3.651-19.622-.011v8.992a1.758,1.758,0,0,0,1.042,1.625l25.339,14.63a5.487,5.487,0,0,0,2.816.6Z" transform="translate(-223.399 -196.861)" fill="url(#a)"/><path d="M227.066,215.317h-2.22v8.992a1.758,1.758,0,0,0,1.042,1.625l1.178.681Z" transform="translate(-223.399 -198.487)" fill="#d4ecff"/><path d="M261.31,246.246a6.912,6.912,0,0,0,4.849-.055V235.982H261.31Z" transform="translate(-233.091 -203.98)" fill="#5793ce"/><path d="M251.225,225.511l-25.339-14.629c-1.555-.9-1.361-2.466.435-3.5l24.467-14.126a6.744,6.744,0,0,1,6.068-.251L282.2,207.631c1.555.9,1.36,2.466-.435,3.5L257.293,225.26A6.744,6.744,0,0,1,251.225,225.511Z" transform="translate(-223.397 -192.395)" fill="url(#b)"/><path d="M281.76,215.178,257.292,229.3a6.742,6.742,0,0,1-6.067.252l-25.339-14.63a2.338,2.338,0,0,1-.776-.688,1.629,1.629,0,0,0,.776,2.409l25.339,14.629a6.742,6.742,0,0,0,6.067-.251L281.76,216.9c1.4-.805,1.819-1.931,1.211-2.814A3.4,3.4,0,0,1,281.76,215.178Z" transform="translate(-223.397 -198.16)" fill="#fff"/><g transform="translate(48.473 23.379)"><path d="M290.943,230.146a2.263,2.263,0,0,1-1.023,1.773c-.565.326-1.023.062-1.023-.591a2.261,2.261,0,0,1,1.023-1.772C290.485,229.229,290.943,229.494,290.943,230.146Z" transform="translate(-288.896 -225.613)" fill="#d4ecff"/><path d="M295.428,227.557a2.261,2.261,0,0,1-1.023,1.772c-.565.327-1.023.062-1.023-.59a2.263,2.263,0,0,1,1.023-1.773C294.97,226.64,295.428,226.9,295.428,227.557Z" transform="translate(-290.088 -224.925)" fill="#d4ecff"/><path d="M299.913,224.968a2.261,2.261,0,0,1-1.023,1.772c-.565.327-1.023.062-1.023-.591a2.261,2.261,0,0,1,1.023-1.772C299.455,224.05,299.913,224.315,299.913,224.968Z" transform="translate(-291.28 -224.237)" fill="#d4ecff"/></g><g transform="translate(16.978 8.549)"><path d="M258.348,219.536l-11.857-6.846c-.728-.421-.637-1.154.2-1.639l11.449-6.61a3.153,3.153,0,0,1,2.839-.117l11.858,6.846c.728.42.637,1.154-.2,1.639l-11.45,6.611A3.158,3.158,0,0,1,258.348,219.536Z" transform="translate(-245.999 -204.039)" fill="#5793ce"/><path d="M263.746,216.563l-1.641-.947c-.1-.058-.088-.16.029-.227l1.584-.915a.438.438,0,0,1,.393-.016l1.641.947c.1.058.087.16-.029.227l-1.584.915A.438.438,0,0,1,263.746,216.563Z" transform="translate(-250.262 -206.798)" fill="#d4ecff"/><path d="M246.491,212.69l.033.019a1.916,1.916,0,0,1,.17-.117l11.449-6.611a3.158,3.158,0,0,1,2.839-.118l11.824,6.827c.671-.48.706-1.134.034-1.522l-11.858-6.846a3.153,3.153,0,0,0-2.839.117l-11.449,6.61C245.854,211.536,245.763,212.27,246.491,212.69Z" transform="translate(-245.999 -204.039)" fill="#396caa"/></g></g></g></svg>