<svg xmlns="http://www.w3.org/2000/svg" viewBox="0 0 512 512"><path fill="#b9c2cf" d="M122 6h320v448H122z"/><path fill="#95a4b6" d="M122 438h320v16H122z"/><path fill="#fff" d="M70 426V58h320v448H150z"/><path fill="#dce1e7" d="M150 490h240v16H150z"/><path fill="#95a4b6" d="M70 426h80v80"/><path fill="#dce1e7" d="M118 186h224v160H118z"/><path fill="#b9c2cf" d="M118 330h224v16H118z"/><path fill="#95a4b6" d="M198 282l32 32v-96l-32 32"/><path fill="#72869e" d="M198 282l32 32v-20l-32-32z"/><path fill="#95a4b6" d="M166 250h32v32h-32z"/><path fill="#72869e" d="M166 266h32v16h-32z"/><g fill="#012d4a"><path d="M116 0v52H64v376.485L147.515 512H396v-52h52V0zm28 491.515L84.485 432H144zM384 500H156v-80H76V64h308zm52-52h-40V52H128V12h308z"/><path d="M118 116h96v12h-96zM118 148h96v12h-96zM246 116h96v12h-96zM246 148h96v12h-96zM348 180H112v172h236zm-12 160H124V192h212z"/><path d="M236 328.485v-124.97L195.515 244H160v44h35.515zm-32-76l20-19.999v67.029l-20-19.999zM192 276h-20v-20h20zM268 266c0-12.131-9.869-22-22-22v12c5.514 0 10 4.486 10 10s-4.486 10-10 10v12c12.131 0 22-9.869 22-22z"/><path d="M300 266c0-29.776-24.225-54-54-54v12c23.159 0 42 18.841 42 42s-18.841 42-42 42v12c29.775 0 54-24.224 54-54zM118 372h224v12H118zM182 404h160v12H182zM182 436h160v12H182z"/></g></svg>