<svg xmlns="http://www.w3.org/2000/svg" viewBox="0 0 512 512"><path fill="#53515e" d="M477.5 424.8h-443c-19 0-34.5-15.5-34.5-34.5V38.5C0 19.4 15.5 4 34.5 4h443c19 0 34.5 15.5 34.5 34.5v351.8c0 19-15.5 34.5-34.5 34.5z"/><path fill="#474756" d="M364.4 339.5a8.2 8.2 0 0 1-8.2-8.2v-249a8.2 8.2 0 0 1 16.3 0v249a8.2 8.2 0 0 1-8.2 8.2z"/><path fill="#6f4bef" d="M477.5 4h-443C15.5 4 0 19.4 0 38.5V87h512V38.5c0-19-15.5-34.5-34.5-34.5z"/><path fill="#4628b2" d="M323.8 54.2h-152a8.2 8.2 0 0 1 0-16.3h152a8.2 8.2 0 0 1 0 16.3z"/><circle cx="45.6" cy="46.1" r="10.9" fill="#ffdc64"/><circle cx="87.7" cy="46.1" r="10.9" fill="#86e56e"/><circle cx="127.4" cy="46.1" r="10.9" fill="#ffdc64"/><circle cx="467.6" cy="46.1" r="10.9" fill="#ff80bd"/><path fill="#474756" d="M460.8 317h-407c-17.4 0-31.6 14-31.6 31.6v74a34.4 34.4 0 0 0 12.3 2.3h443a34.4 34.4 0 0 0 14.9-3.4v-73c0-17.4-14-31.6-31.6-31.6z"/><circle cx="49.8" cy="130.1" r="8.2" fill="#aaa8c1"/><path fill="#00aaf0" d="M189.2 138.2h-107a8.2 8.2 0 0 1 0-16.3h107a8.2 8.2 0 0 1 0 16.3z"/><path d="M478.5 130H398a8.2 8.2 0 0 1 0-16.3h80.4a8.2 8.2 0 0 1 8.2 8.2 8.2 8.2 0 0 1-8.2 8.2zm0 35H398a8.2 8.2 0 0 1 0-16.3h80.4a8.2 8.2 0 0 1 0 16.3zm0 35H398a8.2 8.2 0 0 1 0-16.3h80.4a8.2 8.2 0 0 1 0 16.3zm0 35H398a8.2 8.2 0 0 1 0-16.3h80.4a8.2 8.2 0 0 1 8.2 8.2 8.2 8.2 0 0 1-8.2 8.2zm0 35H398c-4.5 0-8.2-3.7-8.2-8.2s3.7-8.2 8.2-8.2h80.4a8.2 8.2 0 0 1 8.2 8.2 8.2 8.2 0 0 1-8.2 8.2zm0 35H398c-4.5 0-8.2-3.7-8.2-8.2s3.7-8.2 8.2-8.2h80.4c4.5 0 8.2 3.7 8.2 8.2s-3.7 8.2-8.2 8.2z" fill="#3c3b44"/><circle cx="49.8" cy="164.4" r="8.2" fill="#aaa8c1"/><path fill="#00aaf0" d="M138.3 172.5h-56a8.2 8.2 0 0 1 0-16.3h56a8.2 8.2 0 0 1 0 16.3z"/><circle cx="49.8" cy="265.7" r="8.2" fill="#aaa8c1"/><path fill="#86e56e" d="M166.7 273.8H82.2c-4.5 0-8.2-3.7-8.2-8.2s3.7-8.2 8.2-8.2h84.5c4.5 0 8.2 3.7 8.2 8.2s-3.7 8.2-8.2 8.2z"/><circle cx="49.8" cy="299.2" r="8.2" fill="#aaa8c1"/><path d="M166.7 307.3H82.2c-4.5 0-8.2-3.7-8.2-8.2s3.7-8.2 8.2-8.2h84.5c4.5 0 8.2 3.7 8.2 8.2s-3.7 8.2-8.2 8.2zm57-33.5h-29.8c-4.5 0-8.2-3.7-8.2-8.2s3.7-8.2 8.2-8.2h29.8c4.5 0 8.2 3.7 8.2 8.2s-3.7 8.2-8.2 8.2z" fill="#00aaf0"/><path fill="#ffdc64" d="M228 172.5h-56a8.2 8.2 0 0 1 0-16.3h56a8.2 8.2 0 0 1 0 16.3z"/><circle cx="49.8" cy="198.7" r="8.2" fill="#aaa8c1"/><path fill="#ff80bd" d="M193.8 207h-77.5a8.2 8.2 0 0 1 0-16.3h77.5a8.2 8.2 0 0 1 0 16.3z"/><circle cx="49.8" cy="231.4" r="8.2" fill="#aaa8c1"/><path fill="#ffdc64" d="M257.7 239.5H116.3a8.2 8.2 0 0 1 0-16.3h141.4a8.2 8.2 0 0 1 0 16.3z"/><path fill="#86e56e" d="M305.5 207H228a8.2 8.2 0 0 1 0-16.3h77.5a8.2 8.2 0 0 1 0 16.3z"/><path fill="#ff6b5c" d="M440.5 508H74c-15.7 0-28.4-12.7-28.4-28.4V364.4c0-15.7 12.7-28.4 28.4-28.4h366.5c15.7 0 28.4 12.7 28.4 28.4v115.2c0 15.7-12.7 28.4-28.4 28.4z"/><path fill="#ff5450" d="M440.5 336h-17.2c0 74.7-60.6 135.3-135.3 135.3l-242.5 8.3c0 15.7 12.7 28.4 28.4 28.4h366.5c15.7 0 28.4-12.7 28.4-28.4V364.4c0-15.7-12.7-28.4-28.4-28.4z"/><path d="M104.6 456v-70.3c0-1.7.7-3 2.2-4s3.2-1.4 5.3-1.4h39.4c1.7 0 3 .7 4 2.2s1.3 3.2 1.3 5.2c0 2-.5 4-1.4 5.4s-2.2 2.2-3.8 2.2h-29.7V414h16.6c1.6 0 3 .7 3.8 2s1.4 3 1.4 4.8a8 8 0 0 1-1.3 4.5c-1 1.3-2.2 2-4 2h-16.6v18.8h29.7c1.6 0 3 .7 3.8 2.2s1.4 3.3 1.4 5.4c0 2-.4 3.7-1.3 5.2s-2.2 2.2-4 2.2H112c-2 0-3.8-.5-5.3-1.4s-2.2-2.2-2.2-4zm59.7 0v-70.4c0-1.4.5-2.6 1.5-3.7s2.3-1.6 3.8-1.6h23c18.2 0 27.2 8 27.2 23.7 0 11.5-4.5 19-13.4 22.5L220 451c.4.5.6 1.2.6 2 0 2-1.2 4.2-3.5 6s-4.8 3-7.4 3-4.4-1-5.5-3.2l-15.2-29.5h-7.3V456c0 1.7-.8 3-2.5 4s-3.7 1.4-6 1.4-4.4-.5-6-1.4-2.5-2.2-2.5-4zm17.3-40h11c3.2 0 5.7-.8 7.4-2.4s2.5-4.2 2.5-8-.8-6.3-2.5-8-4.2-2.4-7.4-2.4h-11V416zm47.4 40v-70.4c0-1.4.5-2.6 1.5-3.7s2.3-1.6 3.8-1.6h23c18.2 0 27.2 8 27.2 23.7 0 11.5-4.5 19-13.4 22.5l13.5 24.5c.4.5.6 1.2.6 2 0 2-1.2 4.2-3.5 6s-4.8 3-7.4 3-4.4-1-5.5-3.2l-15.2-29.5h-7.3V456c0 1.7-1 3-2.5 4s-3.7 1.4-6 1.4-4.4-.5-6-1.4-2.5-2.2-2.5-4zm17.3-40h11c3.2 0 5.7-.8 7.4-2.4s2.5-4.2 2.5-8-.8-6.3-2.5-8-4.2-2.4-7.4-2.4h-11V416zm46.5 19.8v-29.3c0-9 2.5-15.6 7.4-19.8s11.5-6.3 19.7-6.3c8.3 0 15 2 19.8 6.3s7.4 10.8 7.4 19.8v29.3c0 9-2.5 15.6-7.4 19.8S328 462 319.8 462c-8.2 0-14.8-2-19.7-6.3s-7.4-10.8-7.4-19.8zm17.3 0c0 7.4 3.3 11 10 11 6.6 0 10-3.7 10-11v-29.3c0-7.4-3.3-11-10-11-6.6 0-10 3.7-10 11v29.3zm48.2 20.2v-70.4c0-1.4.5-2.6 1.5-3.7s2.3-1.6 3.8-1.6h23c18.2 0 27.2 8 27.2 23.7 0 11.5-4.5 19-13.4 22.5l13.5 24.5c.4.5.6 1.2.6 2 0 2-1.2 4.2-3.5 6s-4.8 3-7.4 3-4.4-1-5.5-3.2l-15.2-29.5h-7.3V456c0 1.7-1 3-2.5 4s-3.7 1.4-6 1.4-4.4-.5-6-1.4-2.5-2.2-2.5-4zm17.3-40h11c3.2 0 5.7-.8 7.4-2.4s2.5-4.2 2.5-8-.8-6.3-2.5-8-4.2-2.4-7.4-2.4h-11V416z" fill="#fff"/></svg>