<svg xmlns="http://www.w3.org/2000/svg" viewBox="0 0 512 512"><path fill="#ffeb99" d="M80 440v56h352V96l-80-80H80v328z"/><path fill="#cca400" d="M352 16v80h80"/><path fill="#96c8ef" d="M408 184v176.48L298 216l-90.08 118.31L176 296l-72 86.4V184z"/><circle cx="176" cy="248" r="24" fill="#ffda44"/><path fill="#91cc04" d="M256 392H104v-9.6l72-86.4 31.92 38.31z"/><path fill="#4e901e" d="M408 360.48V392H256l-48.08-57.69L298 216z"/><g><path d="M437.66 90.34l-80-80A8.008 8.008 0 0 0 352 8H80a8 8 0 0 0-8 8v480a8 8 0 0 0 8 8h352a8 8 0 0 0 8-8V96a8.008 8.008 0 0 0-2.34-5.66zM360 35.31L412.69 88H360zM424 488H88V24h256v72a8 8 0 0 0 8 8h72z"/><path d="M376 464h-88a8 8 0 0 0 0 16h88a8 8 0 0 0 0-16zM408 464h-8a8 8 0 0 0 0 16h8a8 8 0 0 0 0-16zM112 56h72a8 8 0 0 0 0-16h-72a8 8 0 0 0 0 16zM112 80h24a8 8 0 0 0 0-16h-24a8 8 0 0 0 0 16zM408 176H104a8 8 0 0 0-8 8v208a8 8 0 0 0 8 8h304a8 8 0 0 0 8-8V184a8 8 0 0 0-8-8zM113.08 384L176 308.5l25.82 30.98a1.059 1.059 0 0 0 .1.12l37 44.4zM400 384H259.75l-41.6-49.92L298 229.21l102 133.97zm0-47.23l-95.63-125.62a8.016 8.016 0 0 0-12.74 0l-83.99 110.32-25.49-30.59a8.006 8.006 0 0 0-12.3 0L112 360.3V192h288z"/><path d="M176 280a32 32 0 1 0-32-32 32.036 32.036 0 0 0 32 32zm0-48a16 16 0 1 1-16 16 16.019 16.019 0 0 1 16-16z"/></g></svg>