<svg xmlns="http://www.w3.org/2000/svg" viewBox="0 0 512 512"><g fill="#ff5722"><path d="M373.3 117.4c-6 0-10.7 4.8-10.7 10.7v64c0 6 4.8 10.7 10.7 10.7h64c6 0 10.7-4.8 10.7-10.7 0-41.2-33.4-74.7-74.7-74.7zm0 106.6a32 32 0 0 1-32-32v-52.2c-40.7 5.8-69 43.5-63.3 84.2s43.5 69 84.2 63.3C395 282.6 421 257 425.6 224h-52.2z"/><path d="M294.7 13a10.7 10.7 0 0 0-9-2.1L8.3 75A10.7 10.7 0 0 0 0 85.4V448a10.7 10.7 0 0 0 9 10.5l277.3 42.7c5.8 1 11.3-3 12.2-9 .1-.5.1-1 .1-1.6V21.4a10.7 10.7 0 0 0-4-8.4z"/><path d="M501.3 458.7H288c-6 0-10.7-4.8-10.7-10.7s4.8-10.7 10.7-10.7h202.7V74.7H288c-6 0-10.7-4.8-10.7-10.7S282 53.4 288 53.4h213.3c6 0 10.7 4.8 10.7 10.7v384c0 6-4.8 10.7-10.7 10.7zm-64-64H288c-6 0-10.7-4.8-10.7-10.7s4.8-10.7 10.7-10.7h149.3c6 0 10.7 4.8 10.7 10.7s-4.8 10.7-10.7 10.7zm0-64H288c-6 0-10.7-4.8-10.7-10.7s4.8-10.7 10.7-10.7h149.3c6 0 10.7 4.8 10.7 10.7s-4.8 10.7-10.7 10.7z"/></g><path fill="#fafafa" d="M96 352c-6 0-10.7-4.8-10.7-10.7V170.7c0-6 4.8-10.7 10.7-10.7h42.7c29.5 0 53.3 24 53.3 53.3v21.3c0 29.5-24 53.3-53.3 53.3h-32v53.3c0 6-4.8 10.7-10.7 10.7zm10.7-85.3h32a32 32 0 0 0 32-32v-21.3a32 32 0 0 0-32-32h-32v85.3z"/></svg>