<svg viewBox="0 0 365.696 365.696" xmlns="http://www.w3.org/2000/svg"><path d="m243.188 182.86 113.132-113.134c12.5-12.5 12.5-32.766 0-45.247l-15.082-15.081c-12.504-12.503-32.77-12.503-45.25 0l-113.128 113.13-113.133-113.154c-12.5-12.5-32.766-12.5-45.247 0l-15.105 15.083c-12.5 12.504-12.5 32.77 0 45.25l113.152 113.152-113.129 113.131c-12.503 12.503-12.503 32.769 0 45.25l15.082 15.08c12.5 12.5 32.766 12.5 45.247 0l113.132-113.132 113.131 113.132c12.503 12.5 32.769 12.5 45.25 0l15.081-15.082c12.5-12.504 12.5-32.77 0-45.25zm0 0" fill="#c0392b"/></svg>