<svg viewBox="0 0 25.967 25.967" xmlns="http://www.w3.org/2000/svg"><g fill="#fff"><path d="m22.074 7.644h-3.913v1.824h3.913c1.07 0 1.943.592 1.943 1.316v11.924c0 .726-.873 1.314-1.943 1.314h-18.178c-1.074 0-1.947-.589-1.947-1.314v-11.924c0-.725.873-1.316 1.947-1.316h3.908v-1.824h-3.908c-2.154 0-3.896 1.177-3.896 2.63v12.938c0 1.453 1.742 2.629 3.896 2.629h18.178c2.15 0 3.893-1.176 3.893-2.629v-12.938c0-1.453-1.742-2.63-3.893-2.63z"/><path d="m9.166 13.493h-3.721l7.632 9.061 7.445-9.287h-3.723v-13.141h-7.633v6.904z"/></g></svg>